%TF.GenerationSoftware,KiCad,Pcbnew,(7.0.0)*%
%TF.CreationDate,2023-05-21T02:13:25-07:00*%
%TF.ProjectId,epaper_photo_frame,65706170-6572-45f7-9068-6f746f5f6672,rev?*%
%TF.SameCoordinates,Original*%
%TF.FileFunction,Copper,L1,Top*%
%TF.FilePolarity,Positive*%
%FSLAX46Y46*%
G04 Gerber Fmt 4.6, Leading zero omitted, Abs format (unit mm)*
G04 Created by KiCad (PCBNEW (7.0.0)) date 2023-05-21 02:13:25*
%MOMM*%
%LPD*%
G01*
G04 APERTURE LIST*
G04 Aperture macros list*
%AMRoundRect*
0 Rectangle with rounded corners*
0 $1 Rounding radius*
0 $2 $3 $4 $5 $6 $7 $8 $9 X,Y pos of 4 corners*
0 Add a 4 corners polygon primitive as box body*
4,1,4,$2,$3,$4,$5,$6,$7,$8,$9,$2,$3,0*
0 Add four circle primitives for the rounded corners*
1,1,$1+$1,$2,$3*
1,1,$1+$1,$4,$5*
1,1,$1+$1,$6,$7*
1,1,$1+$1,$8,$9*
0 Add four rect primitives between the rounded corners*
20,1,$1+$1,$2,$3,$4,$5,0*
20,1,$1+$1,$4,$5,$6,$7,0*
20,1,$1+$1,$6,$7,$8,$9,0*
20,1,$1+$1,$8,$9,$2,$3,0*%
G04 Aperture macros list end*
%ADD10C,0.300000*%
%TA.AperFunction,NonConductor*%
%ADD11C,0.300000*%
%TD*%
%TA.AperFunction,NonConductor*%
%ADD12C,0.200000*%
%TD*%
%TA.AperFunction,SMDPad,CuDef*%
%ADD13RoundRect,0.250000X0.312500X0.625000X-0.312500X0.625000X-0.312500X-0.625000X0.312500X-0.625000X0*%
%TD*%
%TA.AperFunction,SMDPad,CuDef*%
%ADD14R,1.900000X3.400000*%
%TD*%
%TA.AperFunction,SMDPad,CuDef*%
%ADD15RoundRect,0.150000X0.587500X0.150000X-0.587500X0.150000X-0.587500X-0.150000X0.587500X-0.150000X0*%
%TD*%
%TA.AperFunction,ComponentPad*%
%ADD16R,1.800000X1.800000*%
%TD*%
%TA.AperFunction,ComponentPad*%
%ADD17C,1.800000*%
%TD*%
%TA.AperFunction,SMDPad,CuDef*%
%ADD18RoundRect,0.225000X0.250000X-0.225000X0.250000X0.225000X-0.250000X0.225000X-0.250000X-0.225000X0*%
%TD*%
%TA.AperFunction,SMDPad,CuDef*%
%ADD19RoundRect,0.225000X-0.225000X-0.250000X0.225000X-0.250000X0.225000X0.250000X-0.225000X0.250000X0*%
%TD*%
%TA.AperFunction,SMDPad,CuDef*%
%ADD20RoundRect,0.225000X-0.225000X-0.375000X0.225000X-0.375000X0.225000X0.375000X-0.225000X0.375000X0*%
%TD*%
%TA.AperFunction,SMDPad,CuDef*%
%ADD21C,0.500000*%
%TD*%
%TA.AperFunction,SMDPad,CuDef*%
%ADD22RoundRect,0.250000X0.250000X0.475000X-0.250000X0.475000X-0.250000X-0.475000X0.250000X-0.475000X0*%
%TD*%
%TA.AperFunction,ComponentPad*%
%ADD23R,1.700000X1.700000*%
%TD*%
%TA.AperFunction,ComponentPad*%
%ADD24O,1.700000X1.700000*%
%TD*%
%TA.AperFunction,SMDPad,CuDef*%
%ADD25RoundRect,0.075000X-0.662500X-0.075000X0.662500X-0.075000X0.662500X0.075000X-0.662500X0.075000X0*%
%TD*%
%TA.AperFunction,SMDPad,CuDef*%
%ADD26RoundRect,0.075000X-0.075000X-0.662500X0.075000X-0.662500X0.075000X0.662500X-0.075000X0.662500X0*%
%TD*%
%TA.AperFunction,SMDPad,CuDef*%
%ADD27R,0.600000X0.200000*%
%TD*%
%TA.AperFunction,SMDPad,CuDef*%
%ADD28R,0.500000X2.900000*%
%TD*%
%TA.AperFunction,SMDPad,CuDef*%
%ADD29RoundRect,0.250000X1.075000X-0.312500X1.075000X0.312500X-1.075000X0.312500X-1.075000X-0.312500X0*%
%TD*%
%TA.AperFunction,SMDPad,CuDef*%
%ADD30RoundRect,0.250000X0.262500X0.450000X-0.262500X0.450000X-0.262500X-0.450000X0.262500X-0.450000X0*%
%TD*%
%TA.AperFunction,SMDPad,CuDef*%
%ADD31RoundRect,0.225000X-0.250000X0.225000X-0.250000X-0.225000X0.250000X-0.225000X0.250000X0.225000X0*%
%TD*%
%TA.AperFunction,SMDPad,CuDef*%
%ADD32R,1.500000X0.800000*%
%TD*%
%TA.AperFunction,SMDPad,CuDef*%
%ADD33R,1.400000X1.300000*%
%TD*%
%TA.AperFunction,SMDPad,CuDef*%
%ADD34R,0.950000X1.000000*%
%TD*%
%TA.AperFunction,SMDPad,CuDef*%
%ADD35R,1.900000X1.400000*%
%TD*%
%TA.AperFunction,SMDPad,CuDef*%
%ADD36RoundRect,0.225000X0.225000X0.250000X-0.225000X0.250000X-0.225000X-0.250000X0.225000X-0.250000X0*%
%TD*%
%TA.AperFunction,SMDPad,CuDef*%
%ADD37RoundRect,0.250000X0.475000X-0.250000X0.475000X0.250000X-0.475000X0.250000X-0.475000X-0.250000X0*%
%TD*%
%TA.AperFunction,SMDPad,CuDef*%
%ADD38R,0.250000X1.100000*%
%TD*%
%TA.AperFunction,SMDPad,CuDef*%
%ADD39R,1.700000X1.500000*%
%TD*%
%TA.AperFunction,SMDPad,CuDef*%
%ADD40RoundRect,0.140000X-0.170000X0.140000X-0.170000X-0.140000X0.170000X-0.140000X0.170000X0.140000X0*%
%TD*%
%TA.AperFunction,SMDPad,CuDef*%
%ADD41RoundRect,0.250000X-0.262500X-0.450000X0.262500X-0.450000X0.262500X0.450000X-0.262500X0.450000X0*%
%TD*%
%TA.AperFunction,SMDPad,CuDef*%
%ADD42RoundRect,0.140000X0.170000X-0.140000X0.170000X0.140000X-0.170000X0.140000X-0.170000X-0.140000X0*%
%TD*%
%TA.AperFunction,SMDPad,CuDef*%
%ADD43R,3.400000X1.900000*%
%TD*%
%TA.AperFunction,SMDPad,CuDef*%
%ADD44RoundRect,0.250000X0.450000X-0.262500X0.450000X0.262500X-0.450000X0.262500X-0.450000X-0.262500X0*%
%TD*%
%TA.AperFunction,SMDPad,CuDef*%
%ADD45RoundRect,0.225000X0.375000X-0.225000X0.375000X0.225000X-0.375000X0.225000X-0.375000X-0.225000X0*%
%TD*%
%TA.AperFunction,SMDPad,CuDef*%
%ADD46RoundRect,0.147500X0.172500X-0.147500X0.172500X0.147500X-0.172500X0.147500X-0.172500X-0.147500X0*%
%TD*%
%TA.AperFunction,SMDPad,CuDef*%
%ADD47RoundRect,0.225000X-0.375000X0.225000X-0.375000X-0.225000X0.375000X-0.225000X0.375000X0.225000X0*%
%TD*%
%TA.AperFunction,SMDPad,CuDef*%
%ADD48RoundRect,0.135000X0.135000X0.185000X-0.135000X0.185000X-0.135000X-0.185000X0.135000X-0.185000X0*%
%TD*%
%TA.AperFunction,SMDPad,CuDef*%
%ADD49RoundRect,0.250000X-0.450000X0.262500X-0.450000X-0.262500X0.450000X-0.262500X0.450000X0.262500X0*%
%TD*%
%TA.AperFunction,SMDPad,CuDef*%
%ADD50R,0.600000X1.300000*%
%TD*%
%TA.AperFunction,SMDPad,CuDef*%
%ADD51RoundRect,0.250000X-0.250000X-0.475000X0.250000X-0.475000X0.250000X0.475000X-0.250000X0.475000X0*%
%TD*%
%TA.AperFunction,SMDPad,CuDef*%
%ADD52R,0.900000X0.200000*%
%TD*%
%TA.AperFunction,SMDPad,CuDef*%
%ADD53R,0.200000X0.900000*%
%TD*%
%TA.AperFunction,SMDPad,CuDef*%
%ADD54RoundRect,0.218750X-0.218750X-0.381250X0.218750X-0.381250X0.218750X0.381250X-0.218750X0.381250X0*%
%TD*%
%TA.AperFunction,SMDPad,CuDef*%
%ADD55R,0.550000X0.300000*%
%TD*%
%TA.AperFunction,SMDPad,CuDef*%
%ADD56R,0.500000X0.860000*%
%TD*%
%TA.AperFunction,SMDPad,CuDef*%
%ADD57RoundRect,0.218750X-0.381250X0.218750X-0.381250X-0.218750X0.381250X-0.218750X0.381250X0.218750X0*%
%TD*%
%TA.AperFunction,SMDPad,CuDef*%
%ADD58R,1.800000X1.000000*%
%TD*%
%TA.AperFunction,SMDPad,CuDef*%
%ADD59RoundRect,0.250000X-0.475000X0.250000X-0.475000X-0.250000X0.475000X-0.250000X0.475000X0.250000X0*%
%TD*%
%TA.AperFunction,SMDPad,CuDef*%
%ADD60R,1.250000X0.650000*%
%TD*%
%TA.AperFunction,ComponentPad*%
%ADD61RoundRect,0.250000X-0.350000X-0.625000X0.350000X-0.625000X0.350000X0.625000X-0.350000X0.625000X0*%
%TD*%
%TA.AperFunction,ComponentPad*%
%ADD62O,1.200000X1.750000*%
%TD*%
%TA.AperFunction,SMDPad,CuDef*%
%ADD63RoundRect,0.150000X0.150000X-0.587500X0.150000X0.587500X-0.150000X0.587500X-0.150000X-0.587500X0*%
%TD*%
%TA.AperFunction,SMDPad,CuDef*%
%ADD64RoundRect,0.250000X-0.375000X-0.625000X0.375000X-0.625000X0.375000X0.625000X-0.375000X0.625000X0*%
%TD*%
%TA.AperFunction,ViaPad*%
%ADD65C,0.800000*%
%TD*%
%TA.AperFunction,Conductor*%
%ADD66C,0.300000*%
%TD*%
%TA.AperFunction,Conductor*%
%ADD67C,0.600000*%
%TD*%
%TA.AperFunction,Conductor*%
%ADD68C,0.900000*%
%TD*%
%TA.AperFunction,Conductor*%
%ADD69C,1.000000*%
%TD*%
%TA.AperFunction,Conductor*%
%ADD70C,0.500000*%
%TD*%
%TA.AperFunction,Conductor*%
%ADD71C,1.100000*%
%TD*%
%TA.AperFunction,Conductor*%
%ADD72C,0.800000*%
%TD*%
%TA.AperFunction,Conductor*%
%ADD73C,0.400000*%
%TD*%
%TA.AperFunction,Conductor*%
%ADD74C,1.200000*%
%TD*%
%TA.AperFunction,Conductor*%
%ADD75C,0.200000*%
%TD*%
%TA.AperFunction,Conductor*%
%ADD76C,1.400000*%
%TD*%
G04 APERTURE END LIST*
D10*
D11*
X189351071Y-112792856D02*
X189351071Y-113078570D01*
X189351071Y-113078570D02*
X189422500Y-113221427D01*
X189422500Y-113221427D02*
X189493928Y-113292856D01*
X189493928Y-113292856D02*
X189708214Y-113435713D01*
X189708214Y-113435713D02*
X189993928Y-113507141D01*
X189993928Y-113507141D02*
X190565357Y-113507141D01*
X190565357Y-113507141D02*
X190708214Y-113435713D01*
X190708214Y-113435713D02*
X190779642Y-113364284D01*
X190779642Y-113364284D02*
X190851071Y-113221427D01*
X190851071Y-113221427D02*
X190851071Y-112935713D01*
X190851071Y-112935713D02*
X190779642Y-112792856D01*
X190779642Y-112792856D02*
X190708214Y-112721427D01*
X190708214Y-112721427D02*
X190565357Y-112649998D01*
X190565357Y-112649998D02*
X190208214Y-112649998D01*
X190208214Y-112649998D02*
X190065357Y-112721427D01*
X190065357Y-112721427D02*
X189993928Y-112792856D01*
X189993928Y-112792856D02*
X189922500Y-112935713D01*
X189922500Y-112935713D02*
X189922500Y-113221427D01*
X189922500Y-113221427D02*
X189993928Y-113364284D01*
X189993928Y-113364284D02*
X190065357Y-113435713D01*
X190065357Y-113435713D02*
X190208214Y-113507141D01*
X190851071Y-111935713D02*
X190851071Y-111649999D01*
X190851071Y-111649999D02*
X190779642Y-111507142D01*
X190779642Y-111507142D02*
X190708214Y-111435713D01*
X190708214Y-111435713D02*
X190493928Y-111292856D01*
X190493928Y-111292856D02*
X190208214Y-111221427D01*
X190208214Y-111221427D02*
X189636785Y-111221427D01*
X189636785Y-111221427D02*
X189493928Y-111292856D01*
X189493928Y-111292856D02*
X189422500Y-111364285D01*
X189422500Y-111364285D02*
X189351071Y-111507142D01*
X189351071Y-111507142D02*
X189351071Y-111792856D01*
X189351071Y-111792856D02*
X189422500Y-111935713D01*
X189422500Y-111935713D02*
X189493928Y-112007142D01*
X189493928Y-112007142D02*
X189636785Y-112078570D01*
X189636785Y-112078570D02*
X189993928Y-112078570D01*
X189993928Y-112078570D02*
X190136785Y-112007142D01*
X190136785Y-112007142D02*
X190208214Y-111935713D01*
X190208214Y-111935713D02*
X190279642Y-111792856D01*
X190279642Y-111792856D02*
X190279642Y-111507142D01*
X190279642Y-111507142D02*
X190208214Y-111364285D01*
X190208214Y-111364285D02*
X190136785Y-111292856D01*
X190136785Y-111292856D02*
X189993928Y-111221427D01*
X190708214Y-110578571D02*
X190779642Y-110507142D01*
X190779642Y-110507142D02*
X190851071Y-110578571D01*
X190851071Y-110578571D02*
X190779642Y-110649999D01*
X190779642Y-110649999D02*
X190708214Y-110578571D01*
X190708214Y-110578571D02*
X190851071Y-110578571D01*
X189351071Y-110007142D02*
X189351071Y-109007142D01*
X189351071Y-109007142D02*
X190851071Y-109649999D01*
X189351071Y-108149999D02*
X189351071Y-108007142D01*
X189351071Y-108007142D02*
X189422500Y-107864285D01*
X189422500Y-107864285D02*
X189493928Y-107792857D01*
X189493928Y-107792857D02*
X189636785Y-107721428D01*
X189636785Y-107721428D02*
X189922500Y-107649999D01*
X189922500Y-107649999D02*
X190279642Y-107649999D01*
X190279642Y-107649999D02*
X190565357Y-107721428D01*
X190565357Y-107721428D02*
X190708214Y-107792857D01*
X190708214Y-107792857D02*
X190779642Y-107864285D01*
X190779642Y-107864285D02*
X190851071Y-108007142D01*
X190851071Y-108007142D02*
X190851071Y-108149999D01*
X190851071Y-108149999D02*
X190779642Y-108292857D01*
X190779642Y-108292857D02*
X190708214Y-108364285D01*
X190708214Y-108364285D02*
X190565357Y-108435714D01*
X190565357Y-108435714D02*
X190279642Y-108507142D01*
X190279642Y-108507142D02*
X189922500Y-108507142D01*
X189922500Y-108507142D02*
X189636785Y-108435714D01*
X189636785Y-108435714D02*
X189493928Y-108364285D01*
X189493928Y-108364285D02*
X189422500Y-108292857D01*
X189422500Y-108292857D02*
X189351071Y-108149999D01*
X189351071Y-106721428D02*
X189351071Y-106578571D01*
X189351071Y-106578571D02*
X189422500Y-106435714D01*
X189422500Y-106435714D02*
X189493928Y-106364286D01*
X189493928Y-106364286D02*
X189636785Y-106292857D01*
X189636785Y-106292857D02*
X189922500Y-106221428D01*
X189922500Y-106221428D02*
X190279642Y-106221428D01*
X190279642Y-106221428D02*
X190565357Y-106292857D01*
X190565357Y-106292857D02*
X190708214Y-106364286D01*
X190708214Y-106364286D02*
X190779642Y-106435714D01*
X190779642Y-106435714D02*
X190851071Y-106578571D01*
X190851071Y-106578571D02*
X190851071Y-106721428D01*
X190851071Y-106721428D02*
X190779642Y-106864286D01*
X190779642Y-106864286D02*
X190708214Y-106935714D01*
X190708214Y-106935714D02*
X190565357Y-107007143D01*
X190565357Y-107007143D02*
X190279642Y-107078571D01*
X190279642Y-107078571D02*
X189922500Y-107078571D01*
X189922500Y-107078571D02*
X189636785Y-107007143D01*
X189636785Y-107007143D02*
X189493928Y-106935714D01*
X189493928Y-106935714D02*
X189422500Y-106864286D01*
X189422500Y-106864286D02*
X189351071Y-106721428D01*
X189351071Y-105292857D02*
X189351071Y-105150000D01*
X189351071Y-105150000D02*
X189422500Y-105007143D01*
X189422500Y-105007143D02*
X189493928Y-104935715D01*
X189493928Y-104935715D02*
X189636785Y-104864286D01*
X189636785Y-104864286D02*
X189922500Y-104792857D01*
X189922500Y-104792857D02*
X190279642Y-104792857D01*
X190279642Y-104792857D02*
X190565357Y-104864286D01*
X190565357Y-104864286D02*
X190708214Y-104935715D01*
X190708214Y-104935715D02*
X190779642Y-105007143D01*
X190779642Y-105007143D02*
X190851071Y-105150000D01*
X190851071Y-105150000D02*
X190851071Y-105292857D01*
X190851071Y-105292857D02*
X190779642Y-105435715D01*
X190779642Y-105435715D02*
X190708214Y-105507143D01*
X190708214Y-105507143D02*
X190565357Y-105578572D01*
X190565357Y-105578572D02*
X190279642Y-105650000D01*
X190279642Y-105650000D02*
X189922500Y-105650000D01*
X189922500Y-105650000D02*
X189636785Y-105578572D01*
X189636785Y-105578572D02*
X189493928Y-105507143D01*
X189493928Y-105507143D02*
X189422500Y-105435715D01*
X189422500Y-105435715D02*
X189351071Y-105292857D01*
X190851071Y-103250001D02*
X189851071Y-103250001D01*
X189993928Y-103250001D02*
X189922500Y-103178572D01*
X189922500Y-103178572D02*
X189851071Y-103035715D01*
X189851071Y-103035715D02*
X189851071Y-102821429D01*
X189851071Y-102821429D02*
X189922500Y-102678572D01*
X189922500Y-102678572D02*
X190065357Y-102607144D01*
X190065357Y-102607144D02*
X190851071Y-102607144D01*
X190065357Y-102607144D02*
X189922500Y-102535715D01*
X189922500Y-102535715D02*
X189851071Y-102392858D01*
X189851071Y-102392858D02*
X189851071Y-102178572D01*
X189851071Y-102178572D02*
X189922500Y-102035715D01*
X189922500Y-102035715D02*
X190065357Y-101964286D01*
X190065357Y-101964286D02*
X190851071Y-101964286D01*
X190851071Y-101250001D02*
X189851071Y-101250001D01*
X189993928Y-101250001D02*
X189922500Y-101178572D01*
X189922500Y-101178572D02*
X189851071Y-101035715D01*
X189851071Y-101035715D02*
X189851071Y-100821429D01*
X189851071Y-100821429D02*
X189922500Y-100678572D01*
X189922500Y-100678572D02*
X190065357Y-100607144D01*
X190065357Y-100607144D02*
X190851071Y-100607144D01*
X190065357Y-100607144D02*
X189922500Y-100535715D01*
X189922500Y-100535715D02*
X189851071Y-100392858D01*
X189851071Y-100392858D02*
X189851071Y-100178572D01*
X189851071Y-100178572D02*
X189922500Y-100035715D01*
X189922500Y-100035715D02*
X190065357Y-99964286D01*
X190065357Y-99964286D02*
X190851071Y-99964286D01*
D12*
X185500000Y-71850000D02*
X192686420Y-71850000D01*
X185500000Y-141550000D02*
X192686420Y-141550000D01*
X192100000Y-71850000D02*
X192100000Y-141550000D01*
X192100000Y-71850000D02*
X192100000Y-141550000D01*
X192100000Y-71850000D02*
X192686421Y-72976504D01*
X192100000Y-71850000D02*
X191513579Y-72976504D01*
X192100000Y-141550000D02*
X191513579Y-140423496D01*
X192100000Y-141550000D02*
X192686421Y-140423496D01*
D10*
D11*
X136978572Y-54393928D02*
X136835715Y-54322500D01*
X136835715Y-54322500D02*
X136764286Y-54251071D01*
X136764286Y-54251071D02*
X136692858Y-54108214D01*
X136692858Y-54108214D02*
X136692858Y-54036785D01*
X136692858Y-54036785D02*
X136764286Y-53893928D01*
X136764286Y-53893928D02*
X136835715Y-53822500D01*
X136835715Y-53822500D02*
X136978572Y-53751071D01*
X136978572Y-53751071D02*
X137264286Y-53751071D01*
X137264286Y-53751071D02*
X137407144Y-53822500D01*
X137407144Y-53822500D02*
X137478572Y-53893928D01*
X137478572Y-53893928D02*
X137550001Y-54036785D01*
X137550001Y-54036785D02*
X137550001Y-54108214D01*
X137550001Y-54108214D02*
X137478572Y-54251071D01*
X137478572Y-54251071D02*
X137407144Y-54322500D01*
X137407144Y-54322500D02*
X137264286Y-54393928D01*
X137264286Y-54393928D02*
X136978572Y-54393928D01*
X136978572Y-54393928D02*
X136835715Y-54465357D01*
X136835715Y-54465357D02*
X136764286Y-54536785D01*
X136764286Y-54536785D02*
X136692858Y-54679642D01*
X136692858Y-54679642D02*
X136692858Y-54965357D01*
X136692858Y-54965357D02*
X136764286Y-55108214D01*
X136764286Y-55108214D02*
X136835715Y-55179642D01*
X136835715Y-55179642D02*
X136978572Y-55251071D01*
X136978572Y-55251071D02*
X137264286Y-55251071D01*
X137264286Y-55251071D02*
X137407144Y-55179642D01*
X137407144Y-55179642D02*
X137478572Y-55108214D01*
X137478572Y-55108214D02*
X137550001Y-54965357D01*
X137550001Y-54965357D02*
X137550001Y-54679642D01*
X137550001Y-54679642D02*
X137478572Y-54536785D01*
X137478572Y-54536785D02*
X137407144Y-54465357D01*
X137407144Y-54465357D02*
X137264286Y-54393928D01*
X138050000Y-53751071D02*
X138978572Y-53751071D01*
X138978572Y-53751071D02*
X138478572Y-54322500D01*
X138478572Y-54322500D02*
X138692857Y-54322500D01*
X138692857Y-54322500D02*
X138835715Y-54393928D01*
X138835715Y-54393928D02*
X138907143Y-54465357D01*
X138907143Y-54465357D02*
X138978572Y-54608214D01*
X138978572Y-54608214D02*
X138978572Y-54965357D01*
X138978572Y-54965357D02*
X138907143Y-55108214D01*
X138907143Y-55108214D02*
X138835715Y-55179642D01*
X138835715Y-55179642D02*
X138692857Y-55251071D01*
X138692857Y-55251071D02*
X138264286Y-55251071D01*
X138264286Y-55251071D02*
X138121429Y-55179642D01*
X138121429Y-55179642D02*
X138050000Y-55108214D01*
X139621428Y-55108214D02*
X139692857Y-55179642D01*
X139692857Y-55179642D02*
X139621428Y-55251071D01*
X139621428Y-55251071D02*
X139550000Y-55179642D01*
X139550000Y-55179642D02*
X139621428Y-55108214D01*
X139621428Y-55108214D02*
X139621428Y-55251071D01*
X140621429Y-53751071D02*
X140764286Y-53751071D01*
X140764286Y-53751071D02*
X140907143Y-53822500D01*
X140907143Y-53822500D02*
X140978572Y-53893928D01*
X140978572Y-53893928D02*
X141050000Y-54036785D01*
X141050000Y-54036785D02*
X141121429Y-54322500D01*
X141121429Y-54322500D02*
X141121429Y-54679642D01*
X141121429Y-54679642D02*
X141050000Y-54965357D01*
X141050000Y-54965357D02*
X140978572Y-55108214D01*
X140978572Y-55108214D02*
X140907143Y-55179642D01*
X140907143Y-55179642D02*
X140764286Y-55251071D01*
X140764286Y-55251071D02*
X140621429Y-55251071D01*
X140621429Y-55251071D02*
X140478572Y-55179642D01*
X140478572Y-55179642D02*
X140407143Y-55108214D01*
X140407143Y-55108214D02*
X140335714Y-54965357D01*
X140335714Y-54965357D02*
X140264286Y-54679642D01*
X140264286Y-54679642D02*
X140264286Y-54322500D01*
X140264286Y-54322500D02*
X140335714Y-54036785D01*
X140335714Y-54036785D02*
X140407143Y-53893928D01*
X140407143Y-53893928D02*
X140478572Y-53822500D01*
X140478572Y-53822500D02*
X140621429Y-53751071D01*
X142050000Y-53751071D02*
X142192857Y-53751071D01*
X142192857Y-53751071D02*
X142335714Y-53822500D01*
X142335714Y-53822500D02*
X142407143Y-53893928D01*
X142407143Y-53893928D02*
X142478571Y-54036785D01*
X142478571Y-54036785D02*
X142550000Y-54322500D01*
X142550000Y-54322500D02*
X142550000Y-54679642D01*
X142550000Y-54679642D02*
X142478571Y-54965357D01*
X142478571Y-54965357D02*
X142407143Y-55108214D01*
X142407143Y-55108214D02*
X142335714Y-55179642D01*
X142335714Y-55179642D02*
X142192857Y-55251071D01*
X142192857Y-55251071D02*
X142050000Y-55251071D01*
X142050000Y-55251071D02*
X141907143Y-55179642D01*
X141907143Y-55179642D02*
X141835714Y-55108214D01*
X141835714Y-55108214D02*
X141764285Y-54965357D01*
X141764285Y-54965357D02*
X141692857Y-54679642D01*
X141692857Y-54679642D02*
X141692857Y-54322500D01*
X141692857Y-54322500D02*
X141764285Y-54036785D01*
X141764285Y-54036785D02*
X141835714Y-53893928D01*
X141835714Y-53893928D02*
X141907143Y-53822500D01*
X141907143Y-53822500D02*
X142050000Y-53751071D01*
X143478571Y-53751071D02*
X143621428Y-53751071D01*
X143621428Y-53751071D02*
X143764285Y-53822500D01*
X143764285Y-53822500D02*
X143835714Y-53893928D01*
X143835714Y-53893928D02*
X143907142Y-54036785D01*
X143907142Y-54036785D02*
X143978571Y-54322500D01*
X143978571Y-54322500D02*
X143978571Y-54679642D01*
X143978571Y-54679642D02*
X143907142Y-54965357D01*
X143907142Y-54965357D02*
X143835714Y-55108214D01*
X143835714Y-55108214D02*
X143764285Y-55179642D01*
X143764285Y-55179642D02*
X143621428Y-55251071D01*
X143621428Y-55251071D02*
X143478571Y-55251071D01*
X143478571Y-55251071D02*
X143335714Y-55179642D01*
X143335714Y-55179642D02*
X143264285Y-55108214D01*
X143264285Y-55108214D02*
X143192856Y-54965357D01*
X143192856Y-54965357D02*
X143121428Y-54679642D01*
X143121428Y-54679642D02*
X143121428Y-54322500D01*
X143121428Y-54322500D02*
X143192856Y-54036785D01*
X143192856Y-54036785D02*
X143264285Y-53893928D01*
X143264285Y-53893928D02*
X143335714Y-53822500D01*
X143335714Y-53822500D02*
X143478571Y-53751071D01*
X144907142Y-53751071D02*
X145049999Y-53751071D01*
X145049999Y-53751071D02*
X145192856Y-53822500D01*
X145192856Y-53822500D02*
X145264285Y-53893928D01*
X145264285Y-53893928D02*
X145335713Y-54036785D01*
X145335713Y-54036785D02*
X145407142Y-54322500D01*
X145407142Y-54322500D02*
X145407142Y-54679642D01*
X145407142Y-54679642D02*
X145335713Y-54965357D01*
X145335713Y-54965357D02*
X145264285Y-55108214D01*
X145264285Y-55108214D02*
X145192856Y-55179642D01*
X145192856Y-55179642D02*
X145049999Y-55251071D01*
X145049999Y-55251071D02*
X144907142Y-55251071D01*
X144907142Y-55251071D02*
X144764285Y-55179642D01*
X144764285Y-55179642D02*
X144692856Y-55108214D01*
X144692856Y-55108214D02*
X144621427Y-54965357D01*
X144621427Y-54965357D02*
X144549999Y-54679642D01*
X144549999Y-54679642D02*
X144549999Y-54322500D01*
X144549999Y-54322500D02*
X144621427Y-54036785D01*
X144621427Y-54036785D02*
X144692856Y-53893928D01*
X144692856Y-53893928D02*
X144764285Y-53822500D01*
X144764285Y-53822500D02*
X144907142Y-53751071D01*
X146949998Y-55251071D02*
X146949998Y-54251071D01*
X146949998Y-54393928D02*
X147021427Y-54322500D01*
X147021427Y-54322500D02*
X147164284Y-54251071D01*
X147164284Y-54251071D02*
X147378570Y-54251071D01*
X147378570Y-54251071D02*
X147521427Y-54322500D01*
X147521427Y-54322500D02*
X147592856Y-54465357D01*
X147592856Y-54465357D02*
X147592856Y-55251071D01*
X147592856Y-54465357D02*
X147664284Y-54322500D01*
X147664284Y-54322500D02*
X147807141Y-54251071D01*
X147807141Y-54251071D02*
X148021427Y-54251071D01*
X148021427Y-54251071D02*
X148164284Y-54322500D01*
X148164284Y-54322500D02*
X148235713Y-54465357D01*
X148235713Y-54465357D02*
X148235713Y-55251071D01*
X148949998Y-55251071D02*
X148949998Y-54251071D01*
X148949998Y-54393928D02*
X149021427Y-54322500D01*
X149021427Y-54322500D02*
X149164284Y-54251071D01*
X149164284Y-54251071D02*
X149378570Y-54251071D01*
X149378570Y-54251071D02*
X149521427Y-54322500D01*
X149521427Y-54322500D02*
X149592856Y-54465357D01*
X149592856Y-54465357D02*
X149592856Y-55251071D01*
X149592856Y-54465357D02*
X149664284Y-54322500D01*
X149664284Y-54322500D02*
X149807141Y-54251071D01*
X149807141Y-54251071D02*
X150021427Y-54251071D01*
X150021427Y-54251071D02*
X150164284Y-54322500D01*
X150164284Y-54322500D02*
X150235713Y-54465357D01*
X150235713Y-54465357D02*
X150235713Y-55251071D01*
D12*
X102000000Y-70750000D02*
X102000000Y-55913580D01*
X185000000Y-70750000D02*
X185000000Y-55913580D01*
X102000000Y-56500000D02*
X185000000Y-56500000D01*
X102000000Y-56500000D02*
X185000000Y-56500000D01*
X102000000Y-56500000D02*
X103126504Y-55913579D01*
X102000000Y-56500000D02*
X103126504Y-57086421D01*
X185000000Y-56500000D02*
X183873496Y-57086421D01*
X185000000Y-56500000D02*
X183873496Y-55913579D01*
%TO.C,NT1*%
G36*
X134050000Y-136800000D02*
G01*
X133550000Y-136800000D01*
X133550000Y-135800000D01*
X134050000Y-135800000D01*
X134050000Y-136800000D01*
G37*
%TO.C,NT7*%
G36*
X129450000Y-136800000D02*
G01*
X128950000Y-136800000D01*
X128950000Y-135800000D01*
X129450000Y-135800000D01*
X129450000Y-136800000D01*
G37*
%TO.C,NT2*%
G36*
X137250000Y-136800000D02*
G01*
X136750000Y-136800000D01*
X136750000Y-135800000D01*
X137250000Y-135800000D01*
X137250000Y-136800000D01*
G37*
%TO.C,NT8*%
G36*
X127450000Y-136800000D02*
G01*
X126950000Y-136800000D01*
X126950000Y-135800000D01*
X127450000Y-135800000D01*
X127450000Y-136800000D01*
G37*
%TO.C,NT5*%
G36*
X142650000Y-131600000D02*
G01*
X142150000Y-131600000D01*
X142150000Y-130600000D01*
X142650000Y-130600000D01*
X142650000Y-131600000D01*
G37*
%TO.C,NT4*%
G36*
X136050000Y-136250000D02*
G01*
X135550000Y-136250000D01*
X135550000Y-135250000D01*
X136050000Y-135250000D01*
X136050000Y-136250000D01*
G37*
%TO.C,NT3*%
G36*
X143050000Y-136800000D02*
G01*
X142550000Y-136800000D01*
X142550000Y-135800000D01*
X143050000Y-135800000D01*
X143050000Y-136800000D01*
G37*
%TO.C,NT6*%
G36*
X135600000Y-138950000D02*
G01*
X135100000Y-138950000D01*
X135100000Y-137950000D01*
X135600000Y-137950000D01*
X135600000Y-138950000D01*
G37*
%TD*%
D13*
%TO.P,R12,1*%
%TO.N,/MCU/LED_BUSY_OUT_2*%
X143450000Y-78150000D03*
%TO.P,R12,2*%
%TO.N,GND*%
X140525000Y-78150000D03*
%TD*%
D14*
%TO.P,L1,1*%
%TO.N,/Display Adapter/3v3*%
X117649999Y-114199999D03*
%TO.P,L1,2*%
%TO.N,/Display Adapter/3v3_HPF*%
X120949999Y-114199999D03*
%TD*%
D15*
%TO.P,Q1,1,G*%
%TO.N,/Display Adapter/GDRH*%
X117437500Y-133200000D03*
%TO.P,Q1,2,S*%
%TO.N,/Display Adapter/RESEH*%
X117437500Y-131300000D03*
%TO.P,Q1,3,D*%
%TO.N,/Display Adapter/3v3_HPF*%
X115562500Y-132250000D03*
%TD*%
D16*
%TO.P,D6,1,K*%
%TO.N,/MCU/LED_BUSY_OUT*%
X146299999Y-83124999D03*
D17*
%TO.P,D6,2,A*%
%TO.N,/MCU/LED_BUSY_IN*%
X146300000Y-85665000D03*
%TD*%
D18*
%TO.P,C23,1*%
%TO.N,/Display Adapter/VDDD{slash}VDDDO*%
X145400000Y-127225000D03*
%TO.P,C23,2*%
%TO.N,GND*%
X145400000Y-125675000D03*
%TD*%
%TO.P,C37,1*%
%TO.N,/Debug Connector/NRST*%
X163900000Y-78575000D03*
%TO.P,C37,2*%
%TO.N,GND*%
X163900000Y-77025000D03*
%TD*%
%TO.P,C4,1*%
%TO.N,/Display Adapter/3v3*%
X147000000Y-127225000D03*
%TO.P,C4,2*%
%TO.N,GND*%
X147000000Y-125675000D03*
%TD*%
D19*
%TO.P,C35,1*%
%TO.N,/Micro SD/3v3*%
X162625000Y-100700000D03*
%TO.P,C35,2*%
%TO.N,GND*%
X164175000Y-100700000D03*
%TD*%
D20*
%TO.P,D4,1,K*%
%TO.N,/Display Adapter/VPC_1*%
X117375000Y-117912500D03*
%TO.P,D4,2,A*%
%TO.N,/Display Adapter/VPC*%
X120675000Y-117912500D03*
%TD*%
D21*
%TO.P,NT1,1,1*%
%TO.N,/Display Adapter/GNDA+(GND)*%
X133800000Y-135800000D03*
%TO.P,NT1,2,2*%
%TO.N,GND*%
X133800000Y-136800000D03*
%TD*%
D22*
%TO.P,C17,1*%
%TO.N,GND*%
X171600000Y-124900000D03*
%TO.P,C17,2*%
%TO.N,Net-(U2-BP)*%
X169700000Y-124900000D03*
%TD*%
D23*
%TO.P,J2,1,VTREF*%
%TO.N,/Debug Connector/MCU_VDD*%
X181724999Y-82224999D03*
D24*
%TO.P,J2,2,VCC/NC*%
X181724999Y-84764999D03*
%TO.P,J2,3,~{TRST}*%
%TO.N,unconnected-(J2-~{TRST}-Pad3)*%
X179184999Y-82224999D03*
%TO.P,J2,4,GND*%
%TO.N,GND*%
X179184999Y-84764999D03*
%TO.P,J2,5,TDI*%
%TO.N,unconnected-(J2-TDI-Pad5)*%
X176644999Y-82224999D03*
%TO.P,J2,6,GND*%
%TO.N,GND*%
X176644999Y-84764999D03*
%TO.P,J2,7,TMS/SWDIO*%
%TO.N,/Debug Connector/SWDIO*%
X174104999Y-82224999D03*
%TO.P,J2,8,GND*%
%TO.N,GND*%
X174104999Y-84764999D03*
%TO.P,J2,9,TCK/SWDCLK*%
%TO.N,/Debug Connector/SWDCLK*%
X171564999Y-82224999D03*
%TO.P,J2,10,GND*%
%TO.N,GND*%
X171564999Y-84764999D03*
%TO.P,J2,11,RTCK*%
%TO.N,unconnected-(J2-RTCK-Pad11)*%
X169024999Y-82224999D03*
%TO.P,J2,12,GND*%
%TO.N,GND*%
X169024999Y-84764999D03*
%TO.P,J2,13,TDO/SWO*%
%TO.N,/Debug Connector/SWO*%
X166484999Y-82224999D03*
%TO.P,J2,14,GND*%
%TO.N,GND*%
X166484999Y-84764999D03*
%TO.P,J2,15,~{SRST}*%
%TO.N,/Debug Connector/NRST*%
X163944999Y-82224999D03*
%TO.P,J2,16,GND*%
%TO.N,GND*%
X163944999Y-84764999D03*
%TO.P,J2,17,DBGRQ/NC*%
%TO.N,unconnected-(J2-DBGRQ{slash}NC-Pad17)*%
X161404999Y-82224999D03*
%TO.P,J2,18,GND*%
%TO.N,GND*%
X161404999Y-84764999D03*
%TO.P,J2,19,DBGACK/NC*%
%TO.N,unconnected-(J2-DBGACK{slash}NC-Pad19)*%
X158864999Y-82224999D03*
%TO.P,J2,20,GND*%
%TO.N,GND*%
X158864999Y-84764999D03*
%TD*%
D18*
%TO.P,C9,1*%
%TO.N,/Display Adapter/VSL LV*%
X132600000Y-124225000D03*
%TO.P,C9,2*%
%TO.N,GND*%
X132600000Y-122675000D03*
%TD*%
%TO.P,C18,1*%
%TO.N,/Display Adapter/REFP*%
X134750000Y-129975000D03*
%TO.P,C18,2*%
%TO.N,GND*%
X134750000Y-128425000D03*
%TD*%
D25*
%TO.P,U3,1,VBAT*%
%TO.N,/Debug Connector/MCU_VDD*%
X135462500Y-100225000D03*
%TO.P,U3,2,PC13*%
%TO.N,unconnected-(U3-PC13-Pad2)*%
X135462500Y-100725000D03*
%TO.P,U3,3,PC14*%
%TO.N,/MCU/LSE_OSC_IN*%
X135462500Y-101225000D03*
%TO.P,U3,4,PC15*%
%TO.N,/MCU/LSE_OSC_OUT*%
X135462500Y-101725000D03*
%TO.P,U3,5,PH0*%
%TO.N,unconnected-(U3-PH0-Pad5)*%
X135462500Y-102225000D03*
%TO.P,U3,6,PH1*%
%TO.N,unconnected-(U3-PH1-Pad6)*%
X135462500Y-102725000D03*
%TO.P,U3,7,NRST*%
%TO.N,/Debug Connector/NRST*%
X135462500Y-103225000D03*
%TO.P,U3,8,VSSA*%
%TO.N,GND*%
X135462500Y-103725000D03*
%TO.P,U3,9,VDDA*%
%TO.N,/MCU/3v3A*%
X135462500Y-104225000D03*
%TO.P,U3,10,PA0*%
%TO.N,unconnected-(U3-PA0-Pad10)*%
X135462500Y-104725000D03*
%TO.P,U3,11,PA1*%
%TO.N,/Display Adapter/EPD_SCK*%
X135462500Y-105225000D03*
%TO.P,U3,12,PA2*%
%TO.N,unconnected-(U3-PA2-Pad12)*%
X135462500Y-105725000D03*
D26*
%TO.P,U3,13,PA3*%
%TO.N,/Display Adapter/EPD_RST*%
X136875000Y-107137500D03*
%TO.P,U3,14,PA4*%
%TO.N,unconnected-(U3-PA4-Pad14)*%
X137375000Y-107137500D03*
%TO.P,U3,15,PA5*%
%TO.N,/Display Adapter/EPD_BUSY*%
X137875000Y-107137500D03*
%TO.P,U3,16,PA6*%
%TO.N,unconnected-(U3-PA6-Pad16)*%
X138375000Y-107137500D03*
%TO.P,U3,17,PA7*%
%TO.N,/Display Adapter/EPD_DIN*%
X138875000Y-107137500D03*
%TO.P,U3,18,PB0*%
%TO.N,unconnected-(U3-PB0-Pad18)*%
X139375000Y-107137500D03*
%TO.P,U3,19,PB1*%
%TO.N,/Display Adapter/EPD_DC*%
X139875000Y-107137500D03*
%TO.P,U3,20,PB2*%
%TO.N,unconnected-(U3-PB2-Pad20)*%
X140375000Y-107137500D03*
%TO.P,U3,21,PB10*%
%TO.N,/Display Adapter/EPD_CS*%
X140875000Y-107137500D03*
%TO.P,U3,22,PB11*%
%TO.N,unconnected-(U3-PB11-Pad22)*%
X141375000Y-107137500D03*
%TO.P,U3,23,VSS*%
%TO.N,GND*%
X141875000Y-107137500D03*
%TO.P,U3,24,VDD*%
%TO.N,/Debug Connector/MCU_VDD*%
X142375000Y-107137500D03*
D25*
%TO.P,U3,25,PB12*%
%TO.N,unconnected-(U3-PB12-Pad25)*%
X143787500Y-105725000D03*
%TO.P,U3,26,PB13*%
%TO.N,/MCU/SDC_SPI_SCK*%
X143787500Y-105225000D03*
%TO.P,U3,27,PB14*%
%TO.N,/MCU/SDC_SPI_MISO*%
X143787500Y-104725000D03*
%TO.P,U3,28,PB15*%
%TO.N,/MCU/SDC_SPI_MOSI*%
X143787500Y-104225000D03*
%TO.P,U3,29,PA8*%
%TO.N,unconnected-(U3-PA8-Pad29)*%
X143787500Y-103725000D03*
%TO.P,U3,30,PA9*%
%TO.N,/MCU/SDC_SPI_NSS*%
X143787500Y-103225000D03*
%TO.P,U3,31,PA10*%
%TO.N,unconnected-(U3-PA10-Pad31)*%
X143787500Y-102725000D03*
%TO.P,U3,32,PA11*%
%TO.N,/MCU/SDC_PWR*%
X143787500Y-102225000D03*
%TO.P,U3,33,PA12*%
%TO.N,unconnected-(U3-PA12-Pad33)*%
X143787500Y-101725000D03*
%TO.P,U3,34,PA13*%
%TO.N,/Debug Connector/SWDIO*%
X143787500Y-101225000D03*
%TO.P,U3,35,VSS*%
%TO.N,GND*%
X143787500Y-100725000D03*
%TO.P,U3,36,VDD*%
%TO.N,/Debug Connector/MCU_VDD*%
X143787500Y-100225000D03*
D26*
%TO.P,U3,37,PA14*%
%TO.N,/Debug Connector/SWDCLK*%
X142375000Y-98812500D03*
%TO.P,U3,38,PA15*%
%TO.N,unconnected-(U3-PA15-Pad38)*%
X141875000Y-98812500D03*
%TO.P,U3,39,PB3*%
%TO.N,/Debug Connector/SWO*%
X141375000Y-98812500D03*
%TO.P,U3,40,PB4*%
%TO.N,unconnected-(U3-PB4-Pad40)*%
X140875000Y-98812500D03*
%TO.P,U3,41,PB5*%
%TO.N,/MCU/LED_ERR_IN*%
X140375000Y-98812500D03*
%TO.P,U3,42,PB6*%
%TO.N,/MCU/LED_BUSY_IN*%
X139875000Y-98812500D03*
%TO.P,U3,43,PB7*%
%TO.N,/MCU/PWR_GOOD*%
X139375000Y-98812500D03*
%TO.P,U3,44,PH3*%
%TO.N,/MCU/BOOT0*%
X138875000Y-98812500D03*
%TO.P,U3,45,PB8*%
%TO.N,unconnected-(U3-PB8-Pad45)*%
X138375000Y-98812500D03*
%TO.P,U3,46,PB9*%
%TO.N,unconnected-(U3-PB9-Pad46)*%
X137875000Y-98812500D03*
%TO.P,U3,47,VSS*%
%TO.N,GND*%
X137375000Y-98812500D03*
%TO.P,U3,48,VDD*%
%TO.N,/Debug Connector/MCU_VDD*%
X136875000Y-98812500D03*
%TD*%
D27*
%TO.P,IC2,1,SDDATA1*%
%TO.N,/Micro SD/SD_DATA1*%
X164249999Y-105799999D03*
%TO.P,IC2,2,SDDATA0*%
%TO.N,/Micro SD/SD_DATA0*%
X164249999Y-105399999D03*
%TO.P,IC2,3,SDCLK*%
%TO.N,/Micro SD/SD_CLK*%
X164249999Y-104999999D03*
%TO.P,IC2,4,ESD1_1*%
%TO.N,unconnected-(IC2-ESD1_1-Pad4)*%
X164249999Y-104599999D03*
%TO.P,IC2,5,ESD3*%
%TO.N,unconnected-(IC2-ESD3-Pad5)*%
X164249999Y-104199999D03*
%TO.P,IC2,6,SDCMD*%
%TO.N,/Micro SD/SD_CMD*%
X164249999Y-103799999D03*
%TO.P,IC2,7,SDDATA3*%
%TO.N,/Micro SD/SD_DATA3*%
X164249999Y-103399999D03*
%TO.P,IC2,8,SDDATA2*%
%TO.N,/Micro SD/SD_DATA2*%
X164249999Y-102999999D03*
%TO.P,IC2,9,DATA2*%
%TO.N,unconnected-(IC2-DATA2-Pad9)*%
X162749999Y-102999999D03*
%TO.P,IC2,10,DATA3*%
%TO.N,/MCU/SDC_SPI_NSS*%
X162749999Y-103399999D03*
%TO.P,IC2,11,CMD*%
%TO.N,/MCU/SDC_SPI_MOSI*%
X162749999Y-103799999D03*
%TO.P,IC2,12,VCC*%
%TO.N,/Micro SD/3v3*%
X162749999Y-104199999D03*
%TO.P,IC2,13,ESD1_2*%
%TO.N,unconnected-(IC2-ESD1_2-Pad13)*%
X162749999Y-104599999D03*
%TO.P,IC2,14,CLK*%
%TO.N,/MCU/SDC_SPI_SCK*%
X162749999Y-104999999D03*
%TO.P,IC2,15,DATA0*%
%TO.N,/MCU/SDC_SPI_MISO*%
X162749999Y-105399999D03*
%TO.P,IC2,16,DATA1*%
%TO.N,unconnected-(IC2-DATA1-Pad16)*%
X162749999Y-105799999D03*
D28*
%TO.P,IC2,17,EP*%
%TO.N,GND*%
X163499999Y-104399999D03*
%TD*%
D29*
%TO.P,R10,1*%
%TO.N,/MCU/LED_BUSY_OUT*%
X146300000Y-81062500D03*
%TO.P,R10,2*%
%TO.N,/MCU/LED_BUSY_OUT_2*%
X146300000Y-78137500D03*
%TD*%
D19*
%TO.P,C40,1*%
%TO.N,/Debug Connector/MCU_VDD*%
X136825000Y-96950000D03*
%TO.P,C40,2*%
%TO.N,GND*%
X138375000Y-96950000D03*
%TD*%
D18*
%TO.P,C24,1*%
%TO.N,/Display Adapter/VCP2*%
X148550000Y-127225000D03*
%TO.P,C24,2*%
%TO.N,GND*%
X148550000Y-125675000D03*
%TD*%
D30*
%TO.P,R35,1*%
%TO.N,/Display Adapter/EPD_RST*%
X171562500Y-122800000D03*
%TO.P,R35,2*%
%TO.N,/Display Adapter/EPD_RST_INT*%
X169737500Y-122800000D03*
%TD*%
D18*
%TO.P,C6,1*%
%TO.N,/Display Adapter/VSH LV*%
X128275000Y-123800000D03*
%TO.P,C6,2*%
%TO.N,GND*%
X128275000Y-122250000D03*
%TD*%
D31*
%TO.P,C41,1*%
%TO.N,/Debug Connector/MCU_VDD*%
X143600000Y-107525000D03*
%TO.P,C41,2*%
%TO.N,GND*%
X143600000Y-109075000D03*
%TD*%
D32*
%TO.P,J1,1,DATA2*%
%TO.N,/Micro SD/SD_DATA2*%
X180459999Y-101484999D03*
%TO.P,J1,2,CD/DATA3*%
%TO.N,/Micro SD/SD_DATA3*%
X180059999Y-102584999D03*
%TO.P,J1,3,CMD*%
%TO.N,/Micro SD/SD_CMD*%
X180459999Y-103684999D03*
%TO.P,J1,4,VDD*%
%TO.N,/Micro SD/3v3*%
X180659999Y-104784999D03*
%TO.P,J1,5,CLK*%
%TO.N,/Micro SD/SD_CLK*%
X180459999Y-105884999D03*
%TO.P,J1,6,VSS*%
%TO.N,GND*%
X180659999Y-106984999D03*
%TO.P,J1,7,DATA0*%
%TO.N,/Micro SD/SD_DATA0*%
X180459999Y-108084999D03*
%TO.P,J1,8,DATA1*%
%TO.N,/Micro SD/SD_DATA1*%
X180459999Y-109184999D03*
D33*
%TO.P,J1,9*%
%TO.N,N/C*%
X169599999Y-108374999D03*
D34*
%TO.P,J1,10*%
X169374999Y-106984999D03*
D33*
%TO.P,J1,11*%
X169599999Y-102674999D03*
D35*
%TO.P,J1,12*%
X182749999Y-109974999D03*
%TO.P,J1,13*%
X183749999Y-96824999D03*
%TD*%
D36*
%TO.P,C20,1*%
%TO.N,/Display Adapter/3v3*%
X115625000Y-114200000D03*
%TO.P,C20,2*%
%TO.N,GND*%
X114075000Y-114200000D03*
%TD*%
D18*
%TO.P,C5,1*%
%TO.N,/Display Adapter/VSH*%
X127300000Y-126925000D03*
%TO.P,C5,2*%
%TO.N,GND*%
X127300000Y-125375000D03*
%TD*%
%TO.P,C10,1*%
%TO.N,/Display Adapter/VSL LV2*%
X134400000Y-125325000D03*
%TO.P,C10,2*%
%TO.N,GND*%
X134400000Y-123775000D03*
%TD*%
D37*
%TO.P,C14,1*%
%TO.N,GND*%
X163250000Y-123650000D03*
%TO.P,C14,2*%
%TO.N,/Display Adapter/VCC*%
X163250000Y-121750000D03*
%TD*%
D16*
%TO.P,D5,1,K*%
%TO.N,/MCU/LED_ERR_OUT*%
X152399999Y-83124999D03*
D17*
%TO.P,D5,2,A*%
%TO.N,/MCU/LED_ERR_IN*%
X152400000Y-85665000D03*
%TD*%
D21*
%TO.P,NT7,1,1*%
%TO.N,/Display Adapter/GNDA+(GND)*%
X129200000Y-135800000D03*
%TO.P,NT7,2,2*%
%TO.N,GND*%
X129200000Y-136800000D03*
%TD*%
D31*
%TO.P,C44,1*%
%TO.N,/MCU/3v3A*%
X133600000Y-104925000D03*
%TO.P,C44,2*%
%TO.N,GND*%
X133600000Y-106475000D03*
%TD*%
D38*
%TO.P,J4,1,1*%
%TO.N,unconnected-(J4-Pad1)*%
X123749999Y-133899999D03*
%TO.P,J4,2,2*%
%TO.N,/Display Adapter/TFT VCOM*%
X124249999Y-133899999D03*
%TO.P,J4,3,3*%
%TO.N,/Display Adapter/FPL VCOM*%
X124749999Y-133899999D03*
%TO.P,J4,4,4*%
%TO.N,/Display Adapter/VDD*%
X125249999Y-133899999D03*
%TO.P,J4,5,5*%
%TO.N,/Display Adapter/GDRH*%
X125749999Y-133899999D03*
%TO.P,J4,6,6*%
%TO.N,/Display Adapter/RESEH*%
X126249999Y-133899999D03*
%TO.P,J4,7,7*%
%TO.N,unconnected-(J4-Pad7)*%
X126749999Y-133899999D03*
%TO.P,J4,8,8*%
%TO.N,/Display Adapter/RESEL*%
X127249999Y-133899999D03*
%TO.P,J4,9,9*%
%TO.N,/Display Adapter/GDRC*%
X127749999Y-133899999D03*
%TO.P,J4,10,10*%
%TO.N,/Display Adapter/RESEC*%
X128249999Y-133899999D03*
%TO.P,J4,11,11*%
%TO.N,/Display Adapter/VPC*%
X128749999Y-133899999D03*
%TO.P,J4,12,12*%
%TO.N,/Display Adapter/GNDA+(GND)*%
X129249999Y-133899999D03*
%TO.P,J4,13,13*%
%TO.N,/Display Adapter/VGL*%
X129749999Y-133899999D03*
%TO.P,J4,14,14*%
%TO.N,/Display Adapter/VPH*%
X130249999Y-133899999D03*
%TO.P,J4,15,15*%
%TO.N,/Display Adapter/VSH*%
X130749999Y-133899999D03*
%TO.P,J4,16,16*%
%TO.N,/Display Adapter/VSH LV*%
X131249999Y-133899999D03*
%TO.P,J4,17,17*%
%TO.N,/Display Adapter/VSH LV2*%
X131749999Y-133899999D03*
%TO.P,J4,18,18*%
%TO.N,/Display Adapter/VSL*%
X132249999Y-133899999D03*
%TO.P,J4,19,19*%
%TO.N,/Display Adapter/VSL LV*%
X132749999Y-133899999D03*
%TO.P,J4,20,20*%
%TO.N,/Display Adapter/VSL LV2*%
X133249999Y-133899999D03*
%TO.P,J4,21,21*%
%TO.N,/Display Adapter/GNDA+(GND)*%
X133749999Y-133899999D03*
%TO.P,J4,22,22*%
%TO.N,/Display Adapter/REFN*%
X134249999Y-133899999D03*
%TO.P,J4,23,23*%
%TO.N,/Display Adapter/REFP*%
X134749999Y-133899999D03*
%TO.P,J4,24,24*%
%TO.N,unconnected-(J4-Pad24)*%
X135249999Y-133899999D03*
%TO.P,J4,25,25*%
%TO.N,unconnected-(J4-Pad25)*%
X135749999Y-133899999D03*
%TO.P,J4,26,26*%
%TO.N,/Display Adapter/BS0*%
X136249999Y-133899999D03*
%TO.P,J4,27,27*%
%TO.N,/Display Adapter/BS1*%
X136749999Y-133899999D03*
%TO.P,J4,28,28*%
%TO.N,/Display Adapter/EPD_RST*%
X137249999Y-133899999D03*
%TO.P,J4,29,29*%
%TO.N,/Display Adapter/EPD_BUSY*%
X137749999Y-133899999D03*
%TO.P,J4,30,30*%
%TO.N,/Display Adapter/EPD_DC*%
X138249999Y-133899999D03*
%TO.P,J4,31,31*%
%TO.N,/Display Adapter/EPD_CS*%
X138749999Y-133899999D03*
%TO.P,J4,32,32*%
%TO.N,/Display Adapter/EPD_SCK*%
X139249999Y-133899999D03*
%TO.P,J4,33,33*%
%TO.N,/Display Adapter/EPD_DIN*%
X139749999Y-133899999D03*
%TO.P,J4,34,34*%
%TO.N,unconnected-(J4-Pad34)*%
X140249999Y-133899999D03*
%TO.P,J4,35,35*%
%TO.N,unconnected-(J4-Pad35)*%
X140749999Y-133899999D03*
%TO.P,J4,36,36*%
%TO.N,unconnected-(J4-Pad36)*%
X141249999Y-133899999D03*
%TO.P,J4,37,37*%
%TO.N,/Display Adapter/VDDD{slash}VDDDO*%
X141749999Y-133899999D03*
%TO.P,J4,38,38*%
%TO.N,/Display Adapter/VDD*%
X142249999Y-133899999D03*
%TO.P,J4,39,39*%
%TO.N,/Display Adapter/GNDA{slash}GND*%
X142749999Y-133899999D03*
%TO.P,J4,40,40*%
%TO.N,/Display Adapter/VDDIO*%
X143249999Y-133899999D03*
%TO.P,J4,41,41*%
%TO.N,/Display Adapter/VCP2*%
X143749999Y-133899999D03*
%TO.P,J4,42,42*%
%TO.N,/Display Adapter/CP2N*%
X144249999Y-133899999D03*
%TO.P,J4,43,43*%
%TO.N,/Display Adapter/CP2P*%
X144749999Y-133899999D03*
%TO.P,J4,44,44*%
%TO.N,/Display Adapter/VCP1*%
X145249999Y-133899999D03*
%TO.P,J4,45,45*%
%TO.N,/Display Adapter/CP1N*%
X145749999Y-133899999D03*
%TO.P,J4,46,46*%
%TO.N,/Display Adapter/CP1P*%
X146249999Y-133899999D03*
%TO.P,J4,47,47*%
%TO.N,unconnected-(J4-Pad47)*%
X146749999Y-133899999D03*
%TO.P,J4,48,48*%
%TO.N,unconnected-(J4-Pad48)*%
X147249999Y-133899999D03*
%TO.P,J4,49,49*%
%TO.N,/Display Adapter/VGH*%
X147749999Y-133899999D03*
%TO.P,J4,50,50*%
%TO.N,/Display Adapter/VCOMBD*%
X148249999Y-133899999D03*
D39*
%TO.P,J4,MP1,MP1*%
%TO.N,unconnected-(J4-PadMP1)*%
X122099999Y-137799999D03*
%TO.P,J4,MP2,MP2*%
%TO.N,unconnected-(J4-PadMP2)*%
X149899999Y-137799999D03*
%TD*%
D21*
%TO.P,NT2,1,1*%
%TO.N,/Display Adapter/BS1*%
X137000000Y-135800000D03*
%TO.P,NT2,2,2*%
%TO.N,GND*%
X137000000Y-136800000D03*
%TD*%
D37*
%TO.P,C22,1*%
%TO.N,/Debug Connector/MCU_VDD*%
X137500000Y-89200000D03*
%TO.P,C22,2*%
%TO.N,GND*%
X137500000Y-87300000D03*
%TD*%
D40*
%TO.P,C32,1*%
%TO.N,/Oscillator/LSE_OSC_OUT_INT*%
X127900000Y-103120000D03*
%TO.P,C32,2*%
%TO.N,GND*%
X127900000Y-104080000D03*
%TD*%
D41*
%TO.P,R34,1*%
%TO.N,/Display Adapter/EPD_RST_INT*%
X169737500Y-120700000D03*
%TO.P,R34,2*%
%TO.N,GND*%
X171562500Y-120700000D03*
%TD*%
D36*
%TO.P,C28,1*%
%TO.N,/Display Adapter/VPC*%
X119200000Y-120812500D03*
%TO.P,C28,2*%
%TO.N,GND*%
X117650000Y-120812500D03*
%TD*%
D42*
%TO.P,C31,1*%
%TO.N,/MCU/LSE_OSC_IN*%
X127900000Y-100580000D03*
%TO.P,C31,2*%
%TO.N,GND*%
X127900000Y-99620000D03*
%TD*%
D15*
%TO.P,Q32,1,B*%
%TO.N,/Display Adapter/EPD_RST_INT*%
X152300000Y-115600000D03*
%TO.P,Q32,2,E*%
%TO.N,GND*%
X152300000Y-113700000D03*
%TO.P,Q32,3,C*%
%TO.N,/Display Adapter/VCC_DIS_PU*%
X150425000Y-114650000D03*
%TD*%
D43*
%TO.P,L2,1*%
%TO.N,/Display Adapter/RESEC*%
X114124999Y-122112499D03*
%TO.P,L2,2*%
%TO.N,/Display Adapter/VPC_1*%
X114124999Y-118812499D03*
%TD*%
D18*
%TO.P,C27,1*%
%TO.N,/Display Adapter/VCOMBD_1*%
X153650000Y-129975000D03*
%TO.P,C27,2*%
%TO.N,GND*%
X153650000Y-128425000D03*
%TD*%
D41*
%TO.P,R36,1*%
%TO.N,/Display Adapter/VCC_EN*%
X165237500Y-127000000D03*
%TO.P,R36,2*%
%TO.N,/Display Adapter/EPD_RST*%
X167062500Y-127000000D03*
%TD*%
D44*
%TO.P,R3,1*%
%TO.N,/Display Adapter/VPH*%
X127750000Y-119162500D03*
%TO.P,R3,2*%
%TO.N,/Display Adapter/VGH*%
X127750000Y-117337500D03*
%TD*%
D45*
%TO.P,D1,1,K*%
%TO.N,/Display Adapter/VPH*%
X129950000Y-119200000D03*
%TO.P,D1,2,A*%
%TO.N,/Display Adapter/3v3_HPF*%
X129950000Y-115900000D03*
%TD*%
D46*
%TO.P,L4,1*%
%TO.N,/Debug Connector/MCU_VDD*%
X130700000Y-106785000D03*
%TO.P,L4,2*%
%TO.N,/MCU/3v3A*%
X130700000Y-105815000D03*
%TD*%
D44*
%TO.P,R5,1*%
%TO.N,/Display Adapter/RESEC*%
X110625000Y-122625000D03*
%TO.P,R5,2*%
%TO.N,GND*%
X110625000Y-120800000D03*
%TD*%
D30*
%TO.P,R27,1*%
%TO.N,/Display Adapter/VCC_EN*%
X163462500Y-125600000D03*
%TO.P,R27,2*%
%TO.N,GND*%
X161637500Y-125600000D03*
%TD*%
D44*
%TO.P,RB1,1*%
%TO.N,/Display Adapter/VCOMBD*%
X153650000Y-133512500D03*
%TO.P,RB1,2*%
%TO.N,/Display Adapter/VCOMBD_1*%
X153650000Y-131687500D03*
%TD*%
D18*
%TO.P,C30,1*%
%TO.N,Net-(IC1-VOUT_AUX)*%
X132400000Y-91175000D03*
%TO.P,C30,2*%
%TO.N,GND*%
X132400000Y-89625000D03*
%TD*%
%TO.P,C8,1*%
%TO.N,/Display Adapter/VSL*%
X130800000Y-123750000D03*
%TO.P,C8,2*%
%TO.N,GND*%
X130800000Y-122200000D03*
%TD*%
%TO.P,C11,1*%
%TO.N,/Display Adapter/REFN*%
X133100000Y-128875000D03*
%TO.P,C11,2*%
%TO.N,GND*%
X133100000Y-127325000D03*
%TD*%
%TO.P,C29,1*%
%TO.N,/Display Adapter/VCP1*%
X150100000Y-127225000D03*
%TO.P,C29,2*%
%TO.N,GND*%
X150100000Y-125675000D03*
%TD*%
D44*
%TO.P,R11,1*%
%TO.N,/MCU/BOOT0*%
X142900000Y-93000000D03*
%TO.P,R11,2*%
%TO.N,GND*%
X142900000Y-91175000D03*
%TD*%
D47*
%TO.P,D2,1,K*%
%TO.N,/Display Adapter/VGL_1*%
X123950000Y-122500000D03*
%TO.P,D2,2,A*%
%TO.N,/Display Adapter/VGL*%
X123950000Y-125800000D03*
%TD*%
D37*
%TO.P,C34,1*%
%TO.N,/Micro SD/3v3*%
X158350000Y-97525000D03*
%TO.P,C34,2*%
%TO.N,GND*%
X158350000Y-95625000D03*
%TD*%
D18*
%TO.P,C12,1*%
%TO.N,/Display Adapter/VPH*%
X125950000Y-119125000D03*
%TO.P,C12,2*%
%TO.N,GND*%
X125950000Y-117575000D03*
%TD*%
D30*
%TO.P,RA1,1*%
%TO.N,/Display Adapter/FPL VCOM*%
X118212500Y-139900000D03*
%TO.P,RA1,2*%
%TO.N,/Display Adapter/FPL VCOM_1*%
X116387500Y-139900000D03*
%TD*%
D21*
%TO.P,NT8,1,1*%
%TO.N,/Display Adapter/RESEL*%
X127200000Y-135800000D03*
%TO.P,NT8,2,2*%
%TO.N,GND*%
X127200000Y-136800000D03*
%TD*%
D48*
%TO.P,R7,1*%
%TO.N,/MCU/LSE_OSC_OUT*%
X133910000Y-101900000D03*
%TO.P,R7,2*%
%TO.N,/Oscillator/LSE_OSC_OUT_INT*%
X132890000Y-101900000D03*
%TD*%
D15*
%TO.P,Q31,1,G*%
%TO.N,/Display Adapter/VCC_DIS_PU*%
X148237500Y-114700000D03*
%TO.P,Q31,2,S*%
%TO.N,/Debug Connector/MCU_VDD*%
X148237500Y-112800000D03*
%TO.P,Q31,3,D*%
%TO.N,/Display Adapter/VCC*%
X146362500Y-113750000D03*
%TD*%
D18*
%TO.P,C7,1*%
%TO.N,/Display Adapter/VSH LV2*%
X129300000Y-126875000D03*
%TO.P,C7,2*%
%TO.N,GND*%
X129300000Y-125325000D03*
%TD*%
D30*
%TO.P,R1,1*%
%TO.N,/Display Adapter/GDRH*%
X117412500Y-135050000D03*
%TO.P,R1,2*%
%TO.N,GND*%
X115587500Y-135050000D03*
%TD*%
D44*
%TO.P,R4,1*%
%TO.N,/Display Adapter/3v3*%
X116000000Y-126412500D03*
%TO.P,R4,2*%
%TO.N,/Display Adapter/GDRC*%
X116000000Y-124587500D03*
%TD*%
D49*
%TO.P,R33,1*%
%TO.N,/Debug Connector/MCU_VDD*%
X150300000Y-110187500D03*
%TO.P,R33,2*%
%TO.N,/Display Adapter/VCC_DIS_PU*%
X150300000Y-112012500D03*
%TD*%
D50*
%TO.P,Q2,1*%
%TO.N,/Display Adapter/GDRC*%
X113849999Y-124549999D03*
%TO.P,Q2,2*%
%TO.N,/Display Adapter/3v3*%
X111949999Y-124549999D03*
%TO.P,Q2,3*%
%TO.N,/Display Adapter/VPC_1*%
X112899999Y-126649999D03*
%TD*%
D36*
%TO.P,C25,1*%
%TO.N,/Display Adapter/CP2P*%
X147225000Y-129950000D03*
%TO.P,C25,2*%
%TO.N,/Display Adapter/CP2N*%
X145675000Y-129950000D03*
%TD*%
D21*
%TO.P,NT5,1,1*%
%TO.N,/Display Adapter/VDDIO*%
X142400000Y-131600000D03*
%TO.P,NT5,2,2*%
%TO.N,/Display Adapter/3v3*%
X142400000Y-130600000D03*
%TD*%
D19*
%TO.P,C39,1*%
%TO.N,/Debug Connector/MCU_VDD*%
X144225000Y-99000000D03*
%TO.P,C39,2*%
%TO.N,GND*%
X145775000Y-99000000D03*
%TD*%
D51*
%TO.P,C16,1*%
%TO.N,GND*%
X165900000Y-121050000D03*
%TO.P,C16,2*%
%TO.N,/Display Adapter/3v3*%
X167800000Y-121050000D03*
%TD*%
D18*
%TO.P,C42,1*%
%TO.N,/Debug Connector/MCU_VDD*%
X135000000Y-98950000D03*
%TO.P,C42,2*%
%TO.N,GND*%
X135000000Y-97400000D03*
%TD*%
D49*
%TO.P,R6,1*%
%TO.N,/Debug Connector/MCU_VDD*%
X139500000Y-89187500D03*
%TO.P,R6,2*%
%TO.N,/MCU/PWR_GOOD*%
X139500000Y-91012500D03*
%TD*%
D18*
%TO.P,C21,1*%
%TO.N,/Display Adapter/VGL*%
X121850000Y-125825000D03*
%TO.P,C21,2*%
%TO.N,GND*%
X121850000Y-124275000D03*
%TD*%
D36*
%TO.P,C1,1*%
%TO.N,/Display Adapter/TFT VCOM*%
X118575000Y-137800000D03*
%TO.P,C1,2*%
%TO.N,GND*%
X117025000Y-137800000D03*
%TD*%
D21*
%TO.P,NT4,1,1*%
%TO.N,/Display Adapter/BS0*%
X135800000Y-135250000D03*
%TO.P,NT4,2,2*%
%TO.N,GND*%
X135800000Y-136250000D03*
%TD*%
D52*
%TO.P,IC1,1,AUX*%
%TO.N,GND*%
X134199999Y-87999999D03*
%TO.P,IC1,2,VIN*%
%TO.N,/Power Supply/VBAT_IN_FILTERED*%
X134199999Y-88399999D03*
%TO.P,IC1,3,SW*%
%TO.N,/Power Supply/SW*%
X134199999Y-88799999D03*
%TO.P,IC1,4,GND*%
%TO.N,GND*%
X134199999Y-89199999D03*
%TO.P,IC1,5,VIN_AUX*%
X134199999Y-89599999D03*
D53*
%TO.P,IC1,6,VOUT_AUX*%
%TO.N,Net-(IC1-VOUT_AUX)*%
X134999999Y-89699999D03*
D52*
%TO.P,IC1,7,PGOOD*%
%TO.N,/MCU/PWR_GOOD*%
X135799999Y-89599999D03*
%TO.P,IC1,8,VOUT*%
%TO.N,/Debug Connector/MCU_VDD*%
X135799999Y-89199999D03*
%TO.P,IC1,9,D0*%
%TO.N,/Power Supply/VBAT_IN_FILTERED*%
X135799999Y-88799999D03*
%TO.P,IC1,10,D1*%
%TO.N,GND*%
X135799999Y-88399999D03*
%TO.P,IC1,11,V*%
X135799999Y-87999999D03*
D53*
%TO.P,IC1,12,EN*%
%TO.N,/Power Supply/VBAT_IN_FILTERED*%
X134999999Y-87899999D03*
%TD*%
D54*
%TO.P,L3,1*%
%TO.N,/Power Supply/SW*%
X133937500Y-91700000D03*
%TO.P,L3,2*%
%TO.N,/Debug Connector/MCU_VDD*%
X136062500Y-91700000D03*
%TD*%
D47*
%TO.P,D3,1,K*%
%TO.N,GND*%
X123950000Y-117600000D03*
%TO.P,D3,2,A*%
%TO.N,/Display Adapter/VGL_1*%
X123950000Y-120900000D03*
%TD*%
D36*
%TO.P,C26,1*%
%TO.N,/Display Adapter/CP1P*%
X151475000Y-130800000D03*
%TO.P,C26,2*%
%TO.N,/Display Adapter/CP1N*%
X149925000Y-130800000D03*
%TD*%
D55*
%TO.P,U1,1,OUT*%
%TO.N,/Micro SD/3v3*%
X156125048Y-97349999D03*
%TO.P,U1,2,GND*%
%TO.N,GND*%
X156125048Y-96849999D03*
%TO.P,U1,3,IN*%
%TO.N,/Debug Connector/MCU_VDD*%
X154674950Y-96849999D03*
%TO.P,U1,4,EN*%
%TO.N,/MCU/SDC_PWR*%
X154674950Y-97349999D03*
D56*
%TO.P,U1,5,GND*%
%TO.N,GND*%
X155399999Y-97099999D03*
%TD*%
D19*
%TO.P,C38,1*%
%TO.N,/Debug Connector/MCU_VDD*%
X135200000Y-94000000D03*
%TO.P,C38,2*%
%TO.N,GND*%
X136750000Y-94000000D03*
%TD*%
D21*
%TO.P,NT3,1,1*%
%TO.N,/Display Adapter/GNDA{slash}GND*%
X142800000Y-135800000D03*
%TO.P,NT3,2,2*%
%TO.N,GND*%
X142800000Y-136800000D03*
%TD*%
D41*
%TO.P,R37,1*%
%TO.N,GND*%
X161637500Y-127700000D03*
%TO.P,R37,2*%
%TO.N,/Display Adapter/VCC_EN*%
X163462500Y-127700000D03*
%TD*%
D36*
%TO.P,C36,1*%
%TO.N,/Micro SD/3v3*%
X159887500Y-104387500D03*
%TO.P,C36,2*%
%TO.N,GND*%
X158337500Y-104387500D03*
%TD*%
D30*
%TO.P,R8,1*%
%TO.N,/MCU/SDC_PWR*%
X153312500Y-98300000D03*
%TO.P,R8,2*%
%TO.N,GND*%
X151487500Y-98300000D03*
%TD*%
D29*
%TO.P,R9,1*%
%TO.N,/MCU/LED_ERR_OUT*%
X152400000Y-81062500D03*
%TO.P,R9,2*%
%TO.N,GND*%
X152400000Y-78137500D03*
%TD*%
D37*
%TO.P,C13,1*%
%TO.N,/Power Supply/VBAT_IN_FILTERED*%
X132500000Y-87950000D03*
%TO.P,C13,2*%
%TO.N,GND*%
X132500000Y-86050000D03*
%TD*%
D31*
%TO.P,C19,1*%
%TO.N,/Display Adapter/3v3*%
X110200000Y-124525000D03*
%TO.P,C19,2*%
%TO.N,GND*%
X110200000Y-126075000D03*
%TD*%
D21*
%TO.P,NT6,1,1*%
%TO.N,/Display Adapter/VDD*%
X135350000Y-138950000D03*
%TO.P,NT6,2,2*%
%TO.N,/Display Adapter/3v3*%
X135350000Y-137950000D03*
%TD*%
D36*
%TO.P,C2,1*%
%TO.N,/Display Adapter/FPL VCOM_1*%
X114675000Y-139900000D03*
%TO.P,C2,2*%
%TO.N,GND*%
X113125000Y-139900000D03*
%TD*%
D57*
%TO.P,FB1,1*%
%TO.N,/Power Supply/VBAT_IN_FUSE_CHECKED*%
X135000000Y-84137500D03*
%TO.P,FB1,2*%
%TO.N,/Power Supply/VBAT_IN_FILTERED*%
X135000000Y-86262500D03*
%TD*%
D58*
%TO.P,Y1,1*%
%TO.N,/MCU/LSE_OSC_IN*%
X130399999Y-100549999D03*
%TO.P,Y1,2*%
%TO.N,/Oscillator/LSE_OSC_OUT_INT*%
X130399999Y-103049999D03*
%TD*%
D31*
%TO.P,C43,1*%
%TO.N,/MCU/3v3A*%
X132000000Y-105825000D03*
%TO.P,C43,2*%
%TO.N,GND*%
X132000000Y-107375000D03*
%TD*%
D59*
%TO.P,C15,1*%
%TO.N,/Debug Connector/MCU_VDD*%
X152400000Y-110150000D03*
%TO.P,C15,2*%
%TO.N,GND*%
X152400000Y-112050000D03*
%TD*%
D37*
%TO.P,C33,1*%
%TO.N,/Debug Connector/MCU_VDD*%
X153100000Y-96450000D03*
%TO.P,C33,2*%
%TO.N,GND*%
X153100000Y-94550000D03*
%TD*%
D60*
%TO.P,U2,1,VIN*%
%TO.N,/Display Adapter/VCC*%
X165299999Y-123059999D03*
%TO.P,U2,2,GND*%
%TO.N,GND*%
X165299999Y-123999999D03*
%TO.P,U2,3,EN*%
%TO.N,/Display Adapter/VCC_EN*%
X165299999Y-124939999D03*
%TO.P,U2,4,BP*%
%TO.N,Net-(U2-BP)*%
X167799999Y-124939999D03*
%TO.P,U2,5,VOUT*%
%TO.N,/Display Adapter/3v3*%
X167799999Y-123059999D03*
%TD*%
D61*
%TO.P,J3,1,Pin_1*%
%TO.N,GND*%
X126400000Y-77150000D03*
D62*
%TO.P,J3,2,Pin_2*%
%TO.N,/Power Supply/VBAT_IN*%
X128399999Y-77149999D03*
%TD*%
D63*
%TO.P,Q3,1,G*%
%TO.N,GND*%
X126750000Y-84037500D03*
%TO.P,Q3,2,S*%
%TO.N,/Power Supply/VBAT_IN_POL_CHECKED*%
X128650000Y-84037500D03*
%TO.P,Q3,3,D*%
%TO.N,/Power Supply/VBAT_IN*%
X127700000Y-82162500D03*
%TD*%
D31*
%TO.P,C3,1*%
%TO.N,/Display Adapter/3v3_HPF*%
X121850000Y-119975000D03*
%TO.P,C3,2*%
%TO.N,/Display Adapter/VGL_1*%
X121850000Y-121525000D03*
%TD*%
D30*
%TO.P,R2,1*%
%TO.N,/Display Adapter/RESEH*%
X117412500Y-129450000D03*
%TO.P,R2,2*%
%TO.N,GND*%
X115587500Y-129450000D03*
%TD*%
D64*
%TO.P,F1,1*%
%TO.N,/Power Supply/VBAT_IN_POL_CHECKED*%
X130400000Y-84100000D03*
%TO.P,F1,2*%
%TO.N,/Power Supply/VBAT_IN_FUSE_CHECKED*%
X133200000Y-84100000D03*
%TD*%
D65*
%TO.N,/Display Adapter/3v3*%
X167450000Y-116400000D03*
X166450000Y-118400000D03*
X166450000Y-116400000D03*
X135350000Y-137950000D03*
X164300000Y-116400000D03*
X165400000Y-116400000D03*
X108900000Y-125212500D03*
X168400000Y-118400000D03*
X117550000Y-127450000D03*
X166450000Y-117400000D03*
X164300000Y-117400000D03*
X114900000Y-112800000D03*
X167450000Y-118400000D03*
X167750000Y-119350000D03*
X168400000Y-116400000D03*
X168400000Y-117400000D03*
X167450000Y-117400000D03*
X165400000Y-118400000D03*
X164300000Y-118400000D03*
X143150000Y-129600000D03*
X165400000Y-117400000D03*
%TO.N,GND*%
X145350000Y-124450000D03*
X131050000Y-98850000D03*
X131200000Y-89200000D03*
X111900000Y-139650000D03*
X127900000Y-105000000D03*
X138300000Y-104700000D03*
X172900000Y-124900000D03*
X127000000Y-98700000D03*
X131000000Y-85800000D03*
X154600000Y-112700000D03*
X125800000Y-85500000D03*
X144800000Y-109000000D03*
X148550000Y-124500000D03*
X127600000Y-137800000D03*
X130800000Y-120850000D03*
X140750000Y-130450000D03*
X128550000Y-97400000D03*
X114850000Y-115650000D03*
X129000000Y-105250000D03*
X135000000Y-96200000D03*
X125650000Y-104100000D03*
X131850000Y-99450000D03*
X138000000Y-94000000D03*
X133950000Y-100350000D03*
X134450000Y-127000000D03*
X132650000Y-102900000D03*
X138550000Y-78150000D03*
X125650000Y-100950000D03*
X126700000Y-85500000D03*
X126450000Y-105950000D03*
X156000000Y-95700000D03*
X150100000Y-124450000D03*
X125800000Y-84600000D03*
X151500000Y-99700000D03*
X138400000Y-95700000D03*
X127300000Y-120650000D03*
X147000000Y-124450000D03*
X130150000Y-98450000D03*
X125900000Y-105100000D03*
X127000000Y-105000000D03*
X131000000Y-86700000D03*
X123950000Y-116350000D03*
X160350000Y-125600000D03*
X161650000Y-123650000D03*
X125650000Y-98850000D03*
X139000000Y-86800000D03*
X137600000Y-127200000D03*
X134150000Y-121300000D03*
X142800000Y-137800000D03*
X117625000Y-119612500D03*
X129400000Y-104350000D03*
X128400000Y-106100000D03*
X125650000Y-103050000D03*
X150200000Y-98300000D03*
X132000000Y-108600000D03*
X163100000Y-107800000D03*
X127000000Y-104100000D03*
X125650000Y-97800000D03*
X163400000Y-99500000D03*
X132550000Y-121200000D03*
X163850000Y-108450000D03*
X127550000Y-97400000D03*
X154850000Y-78150000D03*
X161650000Y-129250000D03*
X131200000Y-90100000D03*
X127400000Y-106100000D03*
X137400000Y-130200000D03*
X154600000Y-95000000D03*
X133600000Y-108600000D03*
X133600000Y-107700000D03*
X163500000Y-106800000D03*
X182600000Y-107000000D03*
X127000000Y-99600000D03*
X132950000Y-100350000D03*
X162600000Y-106800000D03*
X132900000Y-137850000D03*
X164600000Y-120250000D03*
X133800000Y-102850000D03*
X134200000Y-90400000D03*
X130350000Y-104350000D03*
X110200000Y-127212500D03*
X132200000Y-103900000D03*
X110600000Y-119500000D03*
X114337500Y-135000000D03*
X138750000Y-123800000D03*
X138400000Y-86100000D03*
X158400000Y-94400000D03*
X131300000Y-104350000D03*
X115775000Y-137812500D03*
X129200000Y-137800000D03*
X129350000Y-97900000D03*
X125650000Y-102000000D03*
X159800000Y-94400000D03*
X139000000Y-87700000D03*
X128250000Y-120850000D03*
X125950000Y-116350000D03*
X159800000Y-95600000D03*
X121850000Y-123050000D03*
X127600000Y-85500000D03*
X125650000Y-99900000D03*
X145900000Y-97800000D03*
X137500000Y-137900000D03*
X131950000Y-100450000D03*
X150200000Y-99700000D03*
X137400000Y-86100000D03*
X173000000Y-120700000D03*
X162100000Y-108400000D03*
X143450000Y-126950000D03*
X155400000Y-98500000D03*
X127900000Y-98700000D03*
X129550000Y-120850000D03*
X114337500Y-129400000D03*
X152200000Y-128400000D03*
X144600000Y-91687500D03*
X132800000Y-109100000D03*
X159212500Y-103187500D03*
X165400000Y-77300000D03*
X126550000Y-97400000D03*
%TO.N,/Micro SD/3v3*%
X159800000Y-97500000D03*
X163400000Y-101900000D03*
X161800000Y-97900000D03*
X161700000Y-97000000D03*
X159800000Y-98400000D03*
X161700000Y-98900000D03*
X160600000Y-96950000D03*
X158900000Y-105800000D03*
X182600000Y-104800000D03*
X160900000Y-97900000D03*
X160650000Y-98950000D03*
%TO.N,/Debug Connector/MCU_VDD*%
X148700000Y-110100000D03*
X150850000Y-108550000D03*
X142350000Y-88350000D03*
X141650000Y-89400000D03*
X140950000Y-88350000D03*
X136800000Y-95700000D03*
X140950000Y-86150000D03*
X140950000Y-87250000D03*
X142350000Y-87250000D03*
X138000000Y-91800000D03*
X149600000Y-108550000D03*
X142350000Y-86150000D03*
X144800000Y-107800000D03*
X144800000Y-97800000D03*
X153050000Y-108550000D03*
X153900000Y-109150000D03*
X154000000Y-110350000D03*
X134000000Y-94000000D03*
X130700000Y-107700000D03*
X129800000Y-107700000D03*
X151600000Y-96000000D03*
X151950000Y-108550000D03*
X148700000Y-109050000D03*
X133800000Y-98200000D03*
%TO.N,/Display Adapter/3v3_HPF*%
X111850000Y-131250000D03*
X120200000Y-122400000D03*
%TO.N,/Display Adapter/EPD_RST*%
X136900000Y-126450000D03*
X136350000Y-129750000D03*
X155450000Y-124300000D03*
%TO.N,/Display Adapter/EPD_BUSY*%
X138250000Y-124800000D03*
X137750000Y-131250000D03*
%TO.N,/Display Adapter/EPD_DC*%
X138300000Y-135350000D03*
X140950000Y-129150000D03*
%TO.N,/Display Adapter/EPD_CS*%
X142150000Y-126950000D03*
X139850000Y-135400000D03*
%TO.N,/Display Adapter/VGH*%
X127600000Y-115700000D03*
X144400000Y-117950000D03*
%TO.N,/MCU/BOOT0*%
X141150000Y-92187500D03*
X139250000Y-101100000D03*
%TO.N,/Debug Connector/NRST*%
X162000000Y-78600000D03*
X140800000Y-103200000D03*
%TD*%
D66*
%TO.N,/Display Adapter/GDRC*%
X127750000Y-132650000D02*
X123000000Y-127900000D01*
X117137500Y-124587500D02*
X116000000Y-124587500D01*
D67*
X113850000Y-124550000D02*
X115962500Y-124550000D01*
D66*
X120450000Y-127900000D02*
X117137500Y-124587500D01*
X123000000Y-127900000D02*
X120450000Y-127900000D01*
X127750000Y-133500000D02*
X127750000Y-132650000D01*
D67*
X115962500Y-124550000D02*
X116000000Y-124587500D01*
D68*
%TO.N,/Display Adapter/3v3*%
X110200000Y-124525000D02*
X111925000Y-124525000D01*
D69*
X116000000Y-126412500D02*
X116512500Y-126412500D01*
D70*
X142400000Y-130350000D02*
X143150000Y-129600000D01*
X145875000Y-128350000D02*
X147000000Y-127225000D01*
D68*
X110200000Y-124525000D02*
X109587500Y-124525000D01*
D69*
X116512500Y-126412500D02*
X117550000Y-127450000D01*
D68*
X111925000Y-124525000D02*
X111950000Y-124550000D01*
X115625000Y-113525000D02*
X114900000Y-112800000D01*
X109587500Y-124525000D02*
X108900000Y-125212500D01*
D70*
X143150000Y-129600000D02*
X144400000Y-128350000D01*
X144400000Y-128350000D02*
X145875000Y-128350000D01*
D68*
X115625000Y-114200000D02*
X115625000Y-113525000D01*
D70*
X142400000Y-130600000D02*
X142400000Y-130350000D01*
D68*
X115625000Y-114200000D02*
X117650000Y-114200000D01*
X167800000Y-121050000D02*
X167800000Y-123060000D01*
D67*
%TO.N,/Display Adapter/VPC_1*%
X113362500Y-118050000D02*
X114125000Y-118812500D01*
X107950000Y-128100000D02*
X107950000Y-119000000D01*
X107950000Y-119000000D02*
X108900000Y-118050000D01*
X108900000Y-118050000D02*
X113362500Y-118050000D01*
X112900000Y-126650000D02*
X112900000Y-127950000D01*
X112900000Y-127950000D02*
X111650000Y-129200000D01*
X111650000Y-129200000D02*
X109050000Y-129200000D01*
D71*
X117375000Y-117912500D02*
X115025000Y-117912500D01*
D67*
X109050000Y-129200000D02*
X107950000Y-128100000D01*
D71*
X115025000Y-117912500D02*
X114125000Y-118812500D01*
D67*
%TO.N,/Display Adapter/VCC*%
X165300000Y-123060000D02*
X163990000Y-121750000D01*
D69*
X146362500Y-113750000D02*
X146362500Y-114764582D01*
X153347918Y-121750000D02*
X163250000Y-121750000D01*
X146362500Y-114764582D02*
X153347918Y-121750000D01*
D67*
X163990000Y-121750000D02*
X163250000Y-121750000D01*
D69*
%TO.N,GND*%
X165400000Y-121050000D02*
X164600000Y-120250000D01*
D70*
X155400000Y-97100000D02*
X155400000Y-98500000D01*
D72*
X133600000Y-108600000D02*
X133300000Y-108600000D01*
D69*
X150200000Y-99700000D02*
X151500000Y-99700000D01*
D68*
X125950000Y-117575000D02*
X125950000Y-116350000D01*
D70*
X155400000Y-96300000D02*
X156000000Y-95700000D01*
D73*
X162950000Y-106800000D02*
X162600000Y-106800000D01*
X163500000Y-107400000D02*
X163100000Y-107800000D01*
D72*
X127300000Y-125375000D02*
X126947918Y-125022918D01*
X132000000Y-107375000D02*
X132375000Y-107375000D01*
D70*
X129300000Y-125325000D02*
X129450000Y-125175000D01*
X127900000Y-98700000D02*
X127000000Y-98700000D01*
D67*
X153600000Y-113700000D02*
X154600000Y-112700000D01*
D72*
X145900000Y-98875000D02*
X145900000Y-97800000D01*
D69*
X131850000Y-86700000D02*
X131000000Y-86700000D01*
D72*
X138375000Y-95725000D02*
X138400000Y-95700000D01*
D69*
X138600000Y-87300000D02*
X139000000Y-87700000D01*
D68*
X132400000Y-89625000D02*
X131675000Y-89625000D01*
X131200000Y-89200000D02*
X131200000Y-90100000D01*
D73*
X163500000Y-106800000D02*
X163200000Y-107100000D01*
D72*
X133600000Y-107700000D02*
X132900000Y-107700000D01*
D69*
X110625000Y-120800000D02*
X110625000Y-119525000D01*
D72*
X132000000Y-108600000D02*
X133600000Y-108600000D01*
D69*
X131000000Y-85800000D02*
X131000000Y-86700000D01*
D72*
X126947918Y-121002082D02*
X127300000Y-120650000D01*
D70*
X127000000Y-105000000D02*
X127900000Y-105000000D01*
D72*
X136775000Y-94000000D02*
X138000000Y-94000000D01*
D66*
X141875000Y-107137500D02*
X141875000Y-107976041D01*
D72*
X144725000Y-109075000D02*
X144800000Y-109000000D01*
D70*
X142800000Y-136800000D02*
X142800000Y-137800000D01*
D67*
X152300000Y-113700000D02*
X153600000Y-113700000D01*
D70*
X127900000Y-99620000D02*
X127900000Y-98700000D01*
D73*
X163500000Y-104400000D02*
X163500000Y-106800000D01*
D69*
X137500000Y-87300000D02*
X138500000Y-87300000D01*
D72*
X152225000Y-128425000D02*
X152200000Y-128400000D01*
D68*
X158337500Y-104387500D02*
X158337500Y-104062500D01*
D72*
X138375000Y-96950000D02*
X138375000Y-95725000D01*
X133600000Y-106475000D02*
X133600000Y-107700000D01*
X147000000Y-125675000D02*
X147000000Y-124450000D01*
X153650000Y-128425000D02*
X152225000Y-128425000D01*
D69*
X152400000Y-78137500D02*
X154837500Y-78137500D01*
D72*
X132600000Y-122675000D02*
X132600000Y-121250000D01*
D69*
X137500000Y-87300000D02*
X137500000Y-87000000D01*
X161637500Y-127700000D02*
X161637500Y-129237500D01*
X144087500Y-91175000D02*
X144600000Y-91687500D01*
X132250000Y-85800000D02*
X131000000Y-85800000D01*
D72*
X134750000Y-127300000D02*
X134450000Y-127000000D01*
D69*
X138500000Y-87300000D02*
X139000000Y-86800000D01*
D73*
X163500000Y-104400000D02*
X163500000Y-107400000D01*
D68*
X163900000Y-77025000D02*
X165125000Y-77025000D01*
D72*
X132375000Y-107375000D02*
X133600000Y-108600000D01*
D70*
X127200000Y-136800000D02*
X127200000Y-137400000D01*
X137500000Y-87300000D02*
X136500000Y-87300000D01*
D66*
X145775000Y-99576040D02*
X144626041Y-100725000D01*
D72*
X145400000Y-125675000D02*
X145400000Y-124500000D01*
D68*
X114075000Y-114200000D02*
X114075000Y-114875000D01*
D70*
X137213604Y-137900000D02*
X135800000Y-136486396D01*
D68*
X131675000Y-89625000D02*
X131200000Y-90100000D01*
D66*
X137375000Y-98812500D02*
X137375000Y-97950000D01*
D72*
X126947918Y-125022918D02*
X126947918Y-121002082D01*
D70*
X127020000Y-99620000D02*
X127000000Y-99600000D01*
D69*
X139000000Y-87700000D02*
X139000000Y-86800000D01*
X151487500Y-98300000D02*
X150200000Y-98300000D01*
X139000000Y-86100000D02*
X139000000Y-86800000D01*
X151487500Y-99687500D02*
X151500000Y-99700000D01*
X126750000Y-85450000D02*
X126700000Y-85500000D01*
X127600000Y-85500000D02*
X125800000Y-85500000D01*
D67*
X180660000Y-106985000D02*
X182585000Y-106985000D01*
D69*
X158350000Y-94450000D02*
X158400000Y-94400000D01*
X161637500Y-125600000D02*
X160350000Y-125600000D01*
X137500000Y-86200000D02*
X137400000Y-86100000D01*
D70*
X127020000Y-104080000D02*
X127000000Y-104100000D01*
D68*
X153950000Y-112050000D02*
X154600000Y-112700000D01*
D72*
X132000000Y-107375000D02*
X132000000Y-108600000D01*
D70*
X135800000Y-136486396D02*
X135800000Y-136250000D01*
D69*
X171562500Y-120700000D02*
X173000000Y-120700000D01*
D72*
X132600000Y-121250000D02*
X132550000Y-121200000D01*
X128275000Y-120875000D02*
X128250000Y-120850000D01*
X133100000Y-127325000D02*
X134125000Y-127325000D01*
D69*
X158575000Y-95625000D02*
X159800000Y-94400000D01*
X132500000Y-86050000D02*
X131850000Y-86700000D01*
D72*
X132900000Y-107700000D02*
X132000000Y-108600000D01*
D69*
X115587500Y-135050000D02*
X114387500Y-135050000D01*
D70*
X132900000Y-137850000D02*
X133800000Y-136950000D01*
D69*
X158400000Y-94400000D02*
X159800000Y-94400000D01*
X137500000Y-87300000D02*
X138600000Y-87300000D01*
D72*
X148550000Y-125675000D02*
X148550000Y-124500000D01*
D70*
X127900000Y-104080000D02*
X127020000Y-104080000D01*
D66*
X144626041Y-100725000D02*
X143787500Y-100725000D01*
D72*
X113125000Y-139900000D02*
X112150000Y-139900000D01*
D69*
X161637500Y-129237500D02*
X161650000Y-129250000D01*
D72*
X134125000Y-127325000D02*
X134450000Y-127000000D01*
X134750000Y-128425000D02*
X134750000Y-127300000D01*
D66*
X141875000Y-107976041D02*
X142449480Y-108550520D01*
X142973959Y-109075000D02*
X143600000Y-109075000D01*
X145775000Y-99000000D02*
X145775000Y-99576040D01*
D69*
X137500000Y-87300000D02*
X137500000Y-86200000D01*
D73*
X163500000Y-104400000D02*
X163500000Y-106250000D01*
D68*
X165125000Y-77025000D02*
X165400000Y-77300000D01*
D70*
X129450000Y-125175000D02*
X129450000Y-120950000D01*
D68*
X132400000Y-89625000D02*
X131625000Y-89625000D01*
D69*
X115587500Y-129450000D02*
X114387500Y-129450000D01*
X171600000Y-124900000D02*
X172900000Y-124900000D01*
D68*
X110200000Y-126075000D02*
X110200000Y-127212500D01*
D70*
X135800000Y-88000000D02*
X135800000Y-88250000D01*
D68*
X131625000Y-89625000D02*
X131200000Y-89200000D01*
D69*
X126750000Y-84037500D02*
X126750000Y-84650000D01*
D70*
X137000000Y-137400000D02*
X137000000Y-136800000D01*
D72*
X128275000Y-122250000D02*
X128275000Y-120875000D01*
D69*
X114387500Y-129450000D02*
X114337500Y-129400000D01*
D70*
X134200000Y-87750000D02*
X134200000Y-87850000D01*
D73*
X163500000Y-106250000D02*
X162950000Y-106800000D01*
D72*
X115787500Y-137800000D02*
X115775000Y-137812500D01*
D66*
X142449480Y-108550520D02*
X142973959Y-109075000D01*
D70*
X127200000Y-137400000D02*
X127600000Y-137800000D01*
D72*
X145400000Y-124500000D02*
X145350000Y-124450000D01*
D67*
X182585000Y-106985000D02*
X182600000Y-107000000D01*
D69*
X158350000Y-95625000D02*
X159775000Y-95625000D01*
X165900000Y-121050000D02*
X165400000Y-121050000D01*
X153100000Y-94550000D02*
X154150000Y-94550000D01*
X126750000Y-84650000D02*
X127600000Y-85500000D01*
D68*
X164175000Y-100275000D02*
X163400000Y-99500000D01*
D69*
X126750000Y-84037500D02*
X126750000Y-85450000D01*
D72*
X134400000Y-123775000D02*
X134400000Y-121550000D01*
D68*
X164175000Y-100700000D02*
X164175000Y-100275000D01*
D69*
X150200000Y-98300000D02*
X150200000Y-99700000D01*
D70*
X136500000Y-87300000D02*
X135800000Y-88000000D01*
D72*
X130800000Y-122200000D02*
X130800000Y-120850000D01*
D70*
X129200000Y-136800000D02*
X129200000Y-137800000D01*
D69*
X151487500Y-98412500D02*
X150200000Y-99700000D01*
X132500000Y-86050000D02*
X132250000Y-85800000D01*
D70*
X137500000Y-137900000D02*
X137000000Y-137400000D01*
X132500000Y-86050000D02*
X134200000Y-87750000D01*
D73*
X162900000Y-107100000D02*
X163100000Y-107300000D01*
D72*
X117650000Y-119637500D02*
X117625000Y-119612500D01*
D73*
X162600000Y-106800000D02*
X162600000Y-107300000D01*
D69*
X154150000Y-94550000D02*
X154600000Y-95000000D01*
X126750000Y-84037500D02*
X126750000Y-84550000D01*
D70*
X127900000Y-104080000D02*
X127900000Y-104100000D01*
X127900000Y-99620000D02*
X127900000Y-99600000D01*
D69*
X125800000Y-84600000D02*
X125800000Y-85500000D01*
D66*
X137325000Y-103725000D02*
X138300000Y-104700000D01*
D69*
X158350000Y-95625000D02*
X158575000Y-95625000D01*
D70*
X127000000Y-104100000D02*
X127000000Y-105000000D01*
D69*
X126750000Y-84037500D02*
X126362500Y-84037500D01*
X151487500Y-98300000D02*
X151487500Y-98412500D01*
D72*
X117000000Y-137800000D02*
X115787500Y-137800000D01*
X133600000Y-107700000D02*
X133600000Y-108600000D01*
D70*
X155400000Y-97100000D02*
X155400000Y-96300000D01*
D69*
X138400000Y-86100000D02*
X139000000Y-86100000D01*
D72*
X145775000Y-99000000D02*
X145900000Y-98875000D01*
X121850000Y-124275000D02*
X121850000Y-123050000D01*
X132000000Y-107375000D02*
X132000000Y-108300000D01*
D68*
X152400000Y-112050000D02*
X153950000Y-112050000D01*
D70*
X127900000Y-104080000D02*
X127900000Y-105000000D01*
D69*
X114387500Y-135050000D02*
X114337500Y-135000000D01*
D66*
X156125049Y-96850000D02*
X157125000Y-96850000D01*
D73*
X163200000Y-107100000D02*
X162900000Y-107100000D01*
D70*
X134200000Y-89600000D02*
X134200000Y-90400000D01*
D67*
X163600000Y-124000000D02*
X163250000Y-123650000D01*
D70*
X134200000Y-89600000D02*
X134200000Y-89350000D01*
D69*
X137500000Y-87000000D02*
X138400000Y-86100000D01*
D70*
X127900000Y-99620000D02*
X127020000Y-99620000D01*
D69*
X142900000Y-91175000D02*
X144087500Y-91175000D01*
D72*
X133300000Y-108600000D02*
X132800000Y-109100000D01*
D69*
X159800000Y-94400000D02*
X159800000Y-95600000D01*
X159775000Y-95625000D02*
X159800000Y-95600000D01*
D74*
X140525000Y-78150000D02*
X138550000Y-78150000D01*
D69*
X126750000Y-84550000D02*
X125800000Y-85500000D01*
D68*
X114075000Y-114875000D02*
X114850000Y-115650000D01*
D70*
X127900000Y-99600000D02*
X127000000Y-98700000D01*
X129450000Y-120950000D02*
X129550000Y-120850000D01*
D66*
X135462500Y-103725000D02*
X137325000Y-103725000D01*
D70*
X127000000Y-98700000D02*
X127000000Y-99600000D01*
D72*
X135000000Y-97400000D02*
X135000000Y-96200000D01*
X134400000Y-121550000D02*
X134150000Y-121300000D01*
D69*
X163250000Y-123650000D02*
X161650000Y-123650000D01*
D72*
X132325000Y-107700000D02*
X133600000Y-107700000D01*
D68*
X123950000Y-117600000D02*
X123950000Y-116350000D01*
D72*
X150100000Y-125675000D02*
X150100000Y-124450000D01*
D73*
X162600000Y-107300000D02*
X163100000Y-107800000D01*
D70*
X133800000Y-136950000D02*
X133800000Y-136800000D01*
X137500000Y-137900000D02*
X137213604Y-137900000D01*
D72*
X112150000Y-139900000D02*
X111900000Y-139650000D01*
D68*
X158337500Y-104062500D02*
X159212500Y-103187500D01*
D69*
X158350000Y-95625000D02*
X158350000Y-94450000D01*
X110625000Y-119525000D02*
X110600000Y-119500000D01*
D66*
X137375000Y-97950000D02*
X138375000Y-96950000D01*
D72*
X143600000Y-109075000D02*
X144725000Y-109075000D01*
D69*
X154837500Y-78137500D02*
X154850000Y-78150000D01*
D66*
X157125000Y-96850000D02*
X158350000Y-95625000D01*
D70*
X127900000Y-104100000D02*
X127000000Y-105000000D01*
D72*
X132000000Y-108300000D02*
X132800000Y-109100000D01*
X117650000Y-120812500D02*
X117650000Y-119637500D01*
D67*
X165300000Y-124000000D02*
X163600000Y-124000000D01*
D69*
X126362500Y-84037500D02*
X125800000Y-84600000D01*
X137400000Y-86100000D02*
X138400000Y-86100000D01*
X151487500Y-98300000D02*
X151487500Y-99687500D01*
D72*
X132000000Y-107375000D02*
X132325000Y-107700000D01*
D69*
%TO.N,/Display Adapter/VCC_EN*%
X165237500Y-127000000D02*
X164862500Y-127000000D01*
D67*
X164122500Y-124940000D02*
X163462500Y-125600000D01*
X165300000Y-124940000D02*
X164122500Y-124940000D01*
D69*
X164862500Y-127000000D02*
X163462500Y-125600000D01*
X164162500Y-127000000D02*
X163462500Y-127700000D01*
X163462500Y-125600000D02*
X163462500Y-127700000D01*
X165237500Y-127000000D02*
X164162500Y-127000000D01*
D67*
%TO.N,Net-(U2-BP)*%
X167800000Y-124940000D02*
X169660000Y-124940000D01*
X169660000Y-124940000D02*
X169700000Y-124900000D01*
D75*
%TO.N,Net-(IC1-VOUT_AUX)*%
X135000000Y-89700000D02*
X135000000Y-90660661D01*
X133000000Y-92800000D02*
X132400000Y-92200000D01*
X132400000Y-92200000D02*
X132400000Y-91175000D01*
X135000000Y-90660661D02*
X134800000Y-90860661D01*
X134700000Y-92800000D02*
X133000000Y-92800000D01*
X134800000Y-90860661D02*
X134800000Y-92700000D01*
X134800000Y-92700000D02*
X134700000Y-92800000D01*
%TO.N,/MCU/SDC_SPI_MISO*%
X162250000Y-105400000D02*
X162750000Y-105400000D01*
X156150000Y-106500000D02*
X157650000Y-108000000D01*
X157650000Y-108000000D02*
X159650000Y-108000000D01*
X159650000Y-108000000D02*
X162250000Y-105400000D01*
X143200000Y-106500000D02*
X156150000Y-106500000D01*
X142775000Y-104725000D02*
X142500000Y-105000000D01*
X142500000Y-105000000D02*
X142500000Y-105800000D01*
X142500000Y-105800000D02*
X143200000Y-106500000D01*
X143787500Y-104725000D02*
X142775000Y-104725000D01*
%TO.N,/MCU/SDC_SPI_SCK*%
X147850000Y-105250000D02*
X147850000Y-105350000D01*
X145875000Y-105225000D02*
X146150000Y-104950000D01*
X158200000Y-107100000D02*
X159500000Y-107100000D01*
X152000000Y-105250000D02*
X152000000Y-105350000D01*
X161600000Y-105000000D02*
X162750000Y-105000000D01*
X148800000Y-104950000D02*
X149400000Y-104950000D01*
X156050000Y-104950000D02*
X158200000Y-107100000D01*
X150300000Y-105350000D02*
X150300000Y-105250000D01*
X146150000Y-104950000D02*
X147550000Y-104950000D01*
X148750000Y-104950000D02*
X148800000Y-104950000D01*
X154400000Y-104650000D02*
X154400000Y-104550000D01*
X149700000Y-105250000D02*
X149700000Y-105350000D01*
X155300000Y-104950000D02*
X156050000Y-104950000D01*
X155000000Y-104550000D02*
X155000000Y-104650000D01*
X148450000Y-105350000D02*
X148450000Y-105250000D01*
X152600000Y-105350000D02*
X152600000Y-105250000D01*
X143787500Y-105225000D02*
X145875000Y-105225000D01*
X159500000Y-107100000D02*
X161600000Y-105000000D01*
X150600000Y-104950000D02*
X151700000Y-104950000D01*
X152900000Y-104950000D02*
X154100000Y-104950000D01*
X147850000Y-105350000D02*
G75*
G03*
X148150000Y-105650000I300000J0D01*
G01*
X150000000Y-105650000D02*
G75*
G03*
X150300000Y-105350000I0J300000D01*
G01*
X149700000Y-105350000D02*
G75*
G03*
X150000000Y-105650000I300000J0D01*
G01*
X152000000Y-105250000D02*
G75*
G03*
X151700000Y-104950000I-300000J0D01*
G01*
X147850000Y-105250000D02*
G75*
G03*
X147550000Y-104950000I-300000J0D01*
G01*
X154100000Y-104950000D02*
G75*
G03*
X154400000Y-104650000I0J300000D01*
G01*
X149700000Y-105250000D02*
G75*
G03*
X149400000Y-104950000I-300000J0D01*
G01*
X152000000Y-105350000D02*
G75*
G03*
X152300000Y-105650000I300000J0D01*
G01*
X152900000Y-104950000D02*
G75*
G03*
X152600000Y-105250000I0J-300000D01*
G01*
X155000000Y-104550000D02*
G75*
G03*
X154700000Y-104250000I-300000J0D01*
G01*
X148750000Y-104950000D02*
G75*
G03*
X148450000Y-105250000I0J-300000D01*
G01*
X154700000Y-104250000D02*
G75*
G03*
X154400000Y-104550000I0J-300000D01*
G01*
X150600000Y-104950000D02*
G75*
G03*
X150300000Y-105250000I0J-300000D01*
G01*
X155000000Y-104650000D02*
G75*
G03*
X155300000Y-104950000I300000J0D01*
G01*
X148150000Y-105650000D02*
G75*
G03*
X148450000Y-105350000I0J300000D01*
G01*
X152300000Y-105650000D02*
G75*
G03*
X152600000Y-105350000I0J300000D01*
G01*
%TO.N,/MCU/SDC_SPI_MOSI*%
X154281151Y-102818853D02*
X155000000Y-102100000D01*
X161450000Y-103800000D02*
X162750000Y-103800000D01*
X156350000Y-102100000D02*
X156400000Y-102100000D01*
X152875000Y-104225000D02*
X153550000Y-103550000D01*
X155450000Y-102400000D02*
X155450000Y-102428764D01*
X155000000Y-102100000D02*
X155150000Y-102100000D01*
X153550000Y-102936232D02*
X153550001Y-102936230D01*
X153974264Y-102818852D02*
X153974266Y-102818851D01*
X148825000Y-103925000D02*
X148825000Y-103825000D01*
X159750000Y-102100000D02*
X161450000Y-103800000D01*
X147925000Y-104225000D02*
X148525000Y-104225000D01*
X152125000Y-104225000D02*
X152875000Y-104225000D01*
X147025000Y-103925000D02*
X147025000Y-103825000D01*
X149725000Y-104225000D02*
X150925000Y-104225000D01*
X154281151Y-102818852D02*
X154281151Y-102818853D01*
X143787500Y-104225000D02*
X146725000Y-104225000D01*
X147625000Y-103825000D02*
X147625000Y-103925000D01*
X156050000Y-102428764D02*
X156050000Y-102400000D01*
X153550001Y-102936230D02*
X153667380Y-102818852D01*
X151825000Y-103825000D02*
X151825000Y-103925000D01*
X153974266Y-102818851D02*
X153974267Y-102818852D01*
X149425000Y-103825000D02*
X149425000Y-103925000D01*
X151225000Y-103925000D02*
X151225000Y-103825000D01*
X156400000Y-102100000D02*
X159750000Y-102100000D01*
X147625000Y-103825000D02*
G75*
G03*
X147325000Y-103525000I-300000J0D01*
G01*
X147325000Y-103525000D02*
G75*
G03*
X147025000Y-103825000I0J-300000D01*
G01*
X155450000Y-102400000D02*
G75*
G03*
X155150000Y-102100000I-300000J0D01*
G01*
X153550041Y-103550041D02*
G75*
G03*
X153549999Y-103243117I-153441J153441D01*
G01*
X153550026Y-102936258D02*
G75*
G03*
X153550000Y-103243116I153374J-153442D01*
G01*
X151525000Y-103525000D02*
G75*
G03*
X151225000Y-103825000I0J-300000D01*
G01*
X147625000Y-103925000D02*
G75*
G03*
X147925000Y-104225000I300000J0D01*
G01*
X153974267Y-102818852D02*
G75*
G03*
X154281151Y-102818852I153442J153441D01*
G01*
X156350000Y-102100000D02*
G75*
G03*
X156050000Y-102400000I0J-300000D01*
G01*
X148525000Y-104225000D02*
G75*
G03*
X148825000Y-103925000I0J300000D01*
G01*
X155450036Y-102428764D02*
G75*
G03*
X155750000Y-102728764I299964J-36D01*
G01*
X146725000Y-104225000D02*
G75*
G03*
X147025000Y-103925000I0J300000D01*
G01*
X150925000Y-104225000D02*
G75*
G03*
X151225000Y-103925000I0J300000D01*
G01*
X151825000Y-103825000D02*
G75*
G03*
X151525000Y-103525000I-300000J0D01*
G01*
X151825000Y-103925000D02*
G75*
G03*
X152125000Y-104225000I300000J0D01*
G01*
X155750000Y-102728800D02*
G75*
G03*
X156050000Y-102428764I0J300000D01*
G01*
X149425000Y-103925000D02*
G75*
G03*
X149725000Y-104225000I300000J0D01*
G01*
X149425000Y-103825000D02*
G75*
G03*
X149125000Y-103525000I-300000J0D01*
G01*
X149125000Y-103525000D02*
G75*
G03*
X148825000Y-103825000I0J-300000D01*
G01*
X153974264Y-102818852D02*
G75*
G03*
X153667380Y-102818852I-153442J-153441D01*
G01*
%TO.N,/MCU/SDC_SPI_NSS*%
X154236250Y-100800000D02*
X154236251Y-100800000D01*
X154236251Y-100800000D02*
X154236250Y-100799999D01*
X153651471Y-101648528D02*
X153200000Y-102100000D01*
X153972502Y-100799999D02*
X153811985Y-100960515D01*
X155400000Y-100800000D02*
X155016001Y-100800000D01*
X157450000Y-100100000D02*
X157450000Y-100500000D01*
X145325000Y-103225000D02*
X143787500Y-103225000D01*
X153200000Y-102100000D02*
X146450000Y-102100000D01*
X156803572Y-100800000D02*
X156600000Y-100800000D01*
X162750000Y-103400000D02*
X162150000Y-103400000D01*
X146450000Y-102100000D02*
X145325000Y-103225000D01*
X157150000Y-100800000D02*
X156803572Y-100800000D01*
X158050000Y-100500000D02*
X158050000Y-100100000D01*
X155016001Y-100800000D02*
X154500000Y-100800000D01*
X159550000Y-100800000D02*
X158350000Y-100800000D01*
X153811985Y-101488011D02*
X153651471Y-101648528D01*
X162150000Y-103400000D02*
X159550000Y-100800000D01*
X156300000Y-100500000D02*
X156300000Y-100100000D01*
X155700000Y-100100000D02*
X155700000Y-100500000D01*
X153811948Y-101487974D02*
G75*
G03*
X153811985Y-101224263I-131848J131874D01*
G01*
X156000000Y-99800000D02*
G75*
G03*
X155700000Y-100100000I0J-300000D01*
G01*
X155400000Y-100800000D02*
G75*
G03*
X155700000Y-100500000I0J300000D01*
G01*
X156300000Y-100100000D02*
G75*
G03*
X156000000Y-99800000I-300000J0D01*
G01*
X158050000Y-100500000D02*
G75*
G03*
X158350000Y-100800000I300000J0D01*
G01*
X153811996Y-100960526D02*
G75*
G03*
X153811985Y-101224263I131904J-131874D01*
G01*
X157150000Y-100800000D02*
G75*
G03*
X157450000Y-100500000I0J300000D01*
G01*
X157750000Y-99800000D02*
G75*
G03*
X157450000Y-100100000I0J-300000D01*
G01*
X154236249Y-100800000D02*
G75*
G03*
X153972503Y-100800000I-131873J-131873D01*
G01*
X158050000Y-100100000D02*
G75*
G03*
X157750000Y-99800000I-300000J0D01*
G01*
X154236250Y-100800000D02*
G75*
G03*
X154500000Y-100800000I131875J131876D01*
G01*
X156300000Y-100500000D02*
G75*
G03*
X156600000Y-100800000I300000J0D01*
G01*
%TO.N,/Micro SD/SD_DATA2*%
X164250000Y-103000000D02*
X164250000Y-102850000D01*
X164250000Y-102850000D02*
X166600000Y-100500000D01*
X179475000Y-100500000D02*
X180460000Y-101485000D01*
X166600000Y-100500000D02*
X179475000Y-100500000D01*
%TO.N,/Micro SD/SD_DATA3*%
X173200000Y-101700000D02*
X173600000Y-101700000D01*
X173800000Y-101500000D02*
X174200000Y-101500000D01*
X174200000Y-101500000D02*
X176800000Y-101500000D01*
X164850000Y-103400000D02*
X166750000Y-101500000D01*
X177885000Y-102585000D02*
X180060000Y-102585000D01*
X176800000Y-101500000D02*
X177885000Y-102585000D01*
X166750000Y-101500000D02*
X173000000Y-101500000D01*
X164250000Y-103400000D02*
X164850000Y-103400000D01*
X173800000Y-101500000D02*
G75*
G03*
X173700000Y-101600000I0J-100000D01*
G01*
X173600000Y-101700000D02*
G75*
G03*
X173700000Y-101600000I0J100000D01*
G01*
X173100000Y-101600000D02*
G75*
G03*
X173000000Y-101500000I-100000J0D01*
G01*
X173100000Y-101600000D02*
G75*
G03*
X173200000Y-101700000I100000J0D01*
G01*
%TO.N,/Micro SD/SD_CMD*%
X180145000Y-104000000D02*
X180460000Y-103685000D01*
X173900000Y-103600000D02*
X173900000Y-103700000D01*
X164250000Y-103800000D02*
X164750000Y-103800000D01*
X174200000Y-104000000D02*
X174962802Y-104000000D01*
X164950000Y-104000000D02*
X173000000Y-104000000D01*
X173300000Y-103700000D02*
X173300000Y-103600000D01*
X164750000Y-103800000D02*
X164950000Y-104000000D01*
X174962802Y-104000000D02*
X180145000Y-104000000D01*
X173900000Y-103700000D02*
G75*
G03*
X174200000Y-104000000I300000J0D01*
G01*
X173000000Y-104000000D02*
G75*
G03*
X173300000Y-103700000I0J300000D01*
G01*
X173900000Y-103600000D02*
G75*
G03*
X173600000Y-103300000I-300000J0D01*
G01*
X173600000Y-103300000D02*
G75*
G03*
X173300000Y-103600000I0J-300000D01*
G01*
D70*
%TO.N,/Micro SD/3v3*%
X156500000Y-97900000D02*
X156125049Y-97525049D01*
D68*
X160525000Y-97525000D02*
X160900000Y-97900000D01*
D70*
X158350000Y-97525000D02*
X157975000Y-97900000D01*
D75*
X160087500Y-104187500D02*
X159887500Y-104387500D01*
D67*
X180660000Y-104785000D02*
X182585000Y-104785000D01*
X182585000Y-104785000D02*
X182600000Y-104800000D01*
D70*
X156125049Y-97525049D02*
X156125049Y-97450000D01*
D68*
X158925000Y-97525000D02*
X159800000Y-98400000D01*
D75*
X160075000Y-104200000D02*
X159887500Y-104387500D01*
D68*
X158350000Y-97525000D02*
X158925000Y-97525000D01*
X160400000Y-98400000D02*
X160900000Y-97900000D01*
X159887500Y-104387500D02*
X159887500Y-104712500D01*
X159800000Y-98400000D02*
X160400000Y-98400000D01*
X158350000Y-97525000D02*
X159775000Y-97525000D01*
X159775000Y-97525000D02*
X159800000Y-97500000D01*
X159887500Y-104387500D02*
X159887500Y-104812500D01*
X159887500Y-104812500D02*
X158900000Y-105800000D01*
D75*
X162750000Y-104200000D02*
X160075000Y-104200000D01*
D68*
X158350000Y-97525000D02*
X160525000Y-97525000D01*
D70*
X157975000Y-97900000D02*
X156500000Y-97900000D01*
D68*
X162625000Y-100700000D02*
X162625000Y-101125000D01*
X162625000Y-101125000D02*
X163400000Y-101900000D01*
D75*
%TO.N,/Micro SD/SD_CLK*%
X173800000Y-104900000D02*
X173900000Y-104900000D01*
X164950000Y-104900000D02*
X172700000Y-104900000D01*
X164850000Y-105000000D02*
X164950000Y-104900000D01*
X164250000Y-105000000D02*
X164850000Y-105000000D01*
X173200000Y-105400000D02*
X173300000Y-105400000D01*
X177400000Y-104900000D02*
X178385000Y-105885000D01*
X178385000Y-105885000D02*
X180460000Y-105885000D01*
X173900000Y-104900000D02*
X177400000Y-104900000D01*
X172950000Y-105150000D02*
G75*
G03*
X172700000Y-104900000I-250000J0D01*
G01*
X172950000Y-105150000D02*
G75*
G03*
X173200000Y-105400000I250000J0D01*
G01*
X173300000Y-105400000D02*
G75*
G03*
X173550000Y-105150000I0J250000D01*
G01*
X173800000Y-104900000D02*
G75*
G03*
X173550000Y-105150000I0J-250000D01*
G01*
%TO.N,/Micro SD/SD_DATA0*%
X173685000Y-108085000D02*
X180460000Y-108085000D01*
X164250000Y-105400000D02*
X164765686Y-105400000D01*
X164765686Y-105400000D02*
X165165686Y-105800000D01*
X165165686Y-105800000D02*
X171400000Y-105800000D01*
X171400000Y-105800000D02*
X173685000Y-108085000D01*
%TO.N,/Micro SD/SD_DATA1*%
X164600000Y-105800000D02*
X168700000Y-109900000D01*
X179745000Y-109900000D02*
X180460000Y-109185000D01*
X168700000Y-109900000D02*
X179745000Y-109900000D01*
X164250000Y-105800000D02*
X164600000Y-105800000D01*
%TO.N,/Power Supply/VBAT_IN_FILTERED*%
X134200000Y-88400000D02*
X134950000Y-88400000D01*
X135000000Y-87900000D02*
X135000000Y-88750000D01*
X132950000Y-88400000D02*
X132500000Y-87950000D01*
X134950000Y-88400000D02*
X135000000Y-88350000D01*
X135000000Y-87900000D02*
X135000000Y-86262500D01*
X135000000Y-88750000D02*
X135050000Y-88800000D01*
X135050000Y-88800000D02*
X135800000Y-88800000D01*
X134200000Y-88400000D02*
X132950000Y-88400000D01*
X135000000Y-88350000D02*
X135000000Y-87900000D01*
%TO.N,/Power Supply/SW*%
X133400000Y-91162500D02*
X133937500Y-91700000D01*
X134200000Y-88800000D02*
X133450000Y-88800000D01*
X133450000Y-88800000D02*
X133400000Y-88850000D01*
X133400000Y-88850000D02*
X133400000Y-91162500D01*
%TO.N,/MCU/PWR_GOOD*%
X139350000Y-92350000D02*
X139500000Y-92200000D01*
X135800000Y-89600000D02*
X135800000Y-90426346D01*
X135400000Y-92800000D02*
X138900000Y-92800000D01*
D66*
X139375000Y-98812500D02*
X139375000Y-92375000D01*
D75*
X135800000Y-90426346D02*
X135262500Y-90963846D01*
X139500000Y-92200000D02*
X139500000Y-91012500D01*
X135262500Y-90963846D02*
X135262500Y-92662500D01*
X135262500Y-92662500D02*
X135400000Y-92800000D01*
X138900000Y-92800000D02*
X139350000Y-92350000D01*
D66*
X139375000Y-92375000D02*
X139350000Y-92350000D01*
D70*
%TO.N,/Debug Connector/MCU_VDD*%
X154700000Y-96600000D02*
X154700000Y-96700000D01*
X130700000Y-106785000D02*
X130700000Y-107700000D01*
D72*
X143600000Y-107525000D02*
X144525000Y-107525000D01*
X136800000Y-95700000D02*
X136800000Y-96925000D01*
D69*
X152050000Y-96450000D02*
X151600000Y-96000000D01*
D72*
X135000000Y-99700000D02*
X135275000Y-99975000D01*
X142625000Y-107225000D02*
X142625000Y-107100000D01*
D69*
X148237500Y-112800000D02*
X148237500Y-110562500D01*
D70*
X130700000Y-106800000D02*
X129800000Y-107700000D01*
D69*
X148237500Y-110562500D02*
X148700000Y-110100000D01*
D72*
X135262500Y-94000000D02*
X134037500Y-94000000D01*
X144225000Y-99000000D02*
X144225000Y-98375000D01*
D69*
X137500000Y-89200000D02*
X139487500Y-89200000D01*
D72*
X143600000Y-107525000D02*
X142925000Y-107525000D01*
D69*
X137500000Y-91000000D02*
X136800000Y-91700000D01*
D70*
X154550000Y-96450000D02*
X154700000Y-96600000D01*
D69*
X139487500Y-89200000D02*
X139500000Y-89187500D01*
D72*
X144037500Y-99975000D02*
X143787500Y-99975000D01*
X135000000Y-98950000D02*
X135000000Y-99700000D01*
X144525000Y-107525000D02*
X144800000Y-107800000D01*
D66*
X136875000Y-97000000D02*
X136825000Y-96950000D01*
D69*
X137500000Y-89200000D02*
X137500000Y-91000000D01*
D70*
X129800000Y-107700000D02*
X130700000Y-107700000D01*
D72*
X135275000Y-99975000D02*
X135462500Y-99975000D01*
X142925000Y-107525000D02*
X142625000Y-107225000D01*
X135000000Y-98950000D02*
X134550000Y-98950000D01*
X144225000Y-99000000D02*
X144225000Y-99787500D01*
D70*
X153100000Y-96450000D02*
X154550000Y-96450000D01*
D72*
X136800000Y-96925000D02*
X136825000Y-96950000D01*
D66*
X136875000Y-98812500D02*
X136875000Y-97000000D01*
D72*
X144225000Y-98375000D02*
X144800000Y-97800000D01*
D69*
X136800000Y-91700000D02*
X136062500Y-91700000D01*
X153100000Y-96450000D02*
X152050000Y-96450000D01*
D75*
X135800000Y-89200000D02*
X137500000Y-89200000D01*
D72*
X144225000Y-99787500D02*
X144037500Y-99975000D01*
D70*
X130700000Y-106785000D02*
X130700000Y-106800000D01*
D72*
X134550000Y-98950000D02*
X133800000Y-98200000D01*
D66*
%TO.N,/MCU/LSE_OSC_IN*%
X127900000Y-100580000D02*
X130370000Y-100580000D01*
X130370000Y-100580000D02*
X130400000Y-100550000D01*
X131075000Y-101225000D02*
X135462500Y-101225000D01*
X130400000Y-100550000D02*
X131075000Y-101225000D01*
%TO.N,/Oscillator/LSE_OSC_OUT_INT*%
X130330000Y-103120000D02*
X130400000Y-103050000D01*
X132890000Y-101900000D02*
X131100000Y-101900000D01*
X131100000Y-101900000D02*
X130400000Y-102600000D01*
X130400000Y-102600000D02*
X130400000Y-103050000D01*
X127900000Y-103120000D02*
X130330000Y-103120000D01*
D69*
%TO.N,/Display Adapter/RESEC*%
X110625000Y-122625000D02*
X113612500Y-122625000D01*
D66*
X128250000Y-133500000D02*
X128250000Y-132400000D01*
X118000000Y-124700000D02*
X118000000Y-123050000D01*
X120650000Y-127350000D02*
X118000000Y-124700000D01*
X118000000Y-123050000D02*
X117062500Y-122112500D01*
D69*
X113612500Y-122625000D02*
X114125000Y-122112500D01*
D66*
X128250000Y-132400000D02*
X123200000Y-127350000D01*
X117062500Y-122112500D02*
X114125000Y-122112500D01*
X123200000Y-127350000D02*
X120650000Y-127350000D01*
D67*
%TO.N,/Display Adapter/3v3_HPF*%
X115562500Y-132250000D02*
X112850000Y-132250000D01*
X120550000Y-120350000D02*
X120925000Y-119975000D01*
X112850000Y-132250000D02*
X111850000Y-131250000D01*
D68*
X128250000Y-114200000D02*
X120950000Y-114200000D01*
D67*
X120925000Y-119975000D02*
X121850000Y-119975000D01*
D72*
X122000000Y-115250000D02*
X120950000Y-114200000D01*
D67*
X120200000Y-122400000D02*
X120550000Y-122050000D01*
D72*
X122000000Y-119825000D02*
X122000000Y-115250000D01*
D68*
X129950000Y-115900000D02*
X128250000Y-114200000D01*
D72*
X121850000Y-119975000D02*
X122000000Y-119825000D01*
D67*
X120550000Y-122050000D02*
X120550000Y-120350000D01*
D66*
%TO.N,/Display Adapter/TFT VCOM*%
X124250000Y-135700000D02*
X124250000Y-133500000D01*
X118575000Y-137800000D02*
X120175000Y-136200000D01*
X120175000Y-136200000D02*
X123750000Y-136200000D01*
X123750000Y-136200000D02*
X124250000Y-135700000D01*
%TO.N,/Display Adapter/FPL VCOM*%
X118212500Y-139900000D02*
X122300000Y-139900000D01*
X124750000Y-137450000D02*
X124750000Y-133500000D01*
X122300000Y-139900000D02*
X124750000Y-137450000D01*
%TO.N,/Display Adapter/VDD*%
X127800000Y-139400000D02*
X125250000Y-136850000D01*
D70*
X127850000Y-139400000D02*
X135350000Y-139400000D01*
X135350000Y-138950000D02*
X135350000Y-139400000D01*
D66*
X127850000Y-139400000D02*
X127800000Y-139400000D01*
X125250000Y-136850000D02*
X125250000Y-133500000D01*
X137650000Y-139400000D02*
X137700000Y-139400000D01*
X142250000Y-134850000D02*
X142250000Y-133500000D01*
X137700000Y-139400000D02*
X142250000Y-134850000D01*
D70*
X135350000Y-139400000D02*
X137650000Y-139400000D01*
D69*
%TO.N,/Display Adapter/GDRH*%
X117412500Y-135050000D02*
X117412500Y-133225000D01*
D66*
X124292894Y-131100000D02*
X119537500Y-131100000D01*
X119537500Y-131100000D02*
X117437500Y-133200000D01*
D69*
X117412500Y-133225000D02*
X117437500Y-133200000D01*
D66*
X125750000Y-133500000D02*
X125750000Y-132557106D01*
X125750000Y-132557106D02*
X124292894Y-131100000D01*
D69*
%TO.N,/Display Adapter/RESEH*%
X117412500Y-131275000D02*
X117437500Y-131300000D01*
D66*
X123350000Y-129450000D02*
X117412500Y-129450000D01*
D69*
X117412500Y-129450000D02*
X117412500Y-131275000D01*
D66*
X126250000Y-133500000D02*
X126250000Y-132350000D01*
X126250000Y-132350000D02*
X123350000Y-129450000D01*
%TO.N,/Display Adapter/RESEL*%
X127250000Y-133500000D02*
X127250000Y-135750000D01*
X127250000Y-135750000D02*
X127200000Y-135800000D01*
D68*
%TO.N,/Display Adapter/VPC*%
X119200000Y-119387500D02*
X120675000Y-117912500D01*
D66*
X120900000Y-126850000D02*
X119200000Y-125150000D01*
X128750000Y-133500000D02*
X128750000Y-132192894D01*
D68*
X119200000Y-120812500D02*
X119200000Y-119387500D01*
D66*
X119200000Y-125150000D02*
X119200000Y-120812500D01*
X123407106Y-126850000D02*
X120900000Y-126850000D01*
X128750000Y-132192894D02*
X123407106Y-126850000D01*
D70*
%TO.N,/Display Adapter/GNDA+(GND)*%
X129650000Y-135350000D02*
X133350000Y-135350000D01*
X133350000Y-135350000D02*
X133800000Y-135800000D01*
D66*
X133750000Y-135750000D02*
X133800000Y-135800000D01*
X129250000Y-133500000D02*
X129250000Y-135750000D01*
X133750000Y-133500000D02*
X133750000Y-135750000D01*
D70*
X129200000Y-135800000D02*
X129650000Y-135350000D01*
D66*
X129250000Y-135750000D02*
X129200000Y-135800000D01*
D72*
%TO.N,/Display Adapter/VGL*%
X123925000Y-125825000D02*
X123950000Y-125800000D01*
X121850000Y-125825000D02*
X123925000Y-125825000D01*
D66*
X129750000Y-132400000D02*
X123950000Y-126600000D01*
X123950000Y-126600000D02*
X123950000Y-125800000D01*
X129750000Y-133500000D02*
X129750000Y-132400000D01*
%TO.N,/Display Adapter/VPH*%
X130250000Y-132000000D02*
X125950000Y-127700000D01*
D68*
X125950000Y-119125000D02*
X127712500Y-119125000D01*
D66*
X130250000Y-133500000D02*
X130250000Y-132000000D01*
D68*
X127750000Y-119162500D02*
X129912500Y-119162500D01*
D66*
X125950000Y-127700000D02*
X125950000Y-119125000D01*
%TO.N,/Display Adapter/VSH*%
X130750000Y-133500000D02*
X130750000Y-131792894D01*
X130750000Y-131792894D02*
X127300000Y-128342894D01*
X127300000Y-128342894D02*
X127300000Y-126925000D01*
%TO.N,/Display Adapter/VSH LV*%
X131250000Y-131550000D02*
X128275000Y-128575000D01*
X128275000Y-128575000D02*
X128275000Y-123800000D01*
X131250000Y-133500000D02*
X131250000Y-131550000D01*
%TO.N,/Display Adapter/VSH LV2*%
X131750000Y-131300000D02*
X129300000Y-128850000D01*
X129300000Y-128850000D02*
X129300000Y-126875000D01*
X131750000Y-133500000D02*
X131750000Y-131300000D01*
%TO.N,/Display Adapter/VSL*%
X132250000Y-133500000D02*
X132250000Y-131092894D01*
X130800000Y-129642894D02*
X130800000Y-123750000D01*
X132250000Y-131092894D02*
X130800000Y-129642894D01*
%TO.N,/Display Adapter/VSL LV*%
X132750000Y-133500000D02*
X132750000Y-130800000D01*
X132750000Y-130800000D02*
X131400000Y-129450000D01*
X131400000Y-125425000D02*
X132600000Y-124225000D01*
X131400000Y-129450000D02*
X131400000Y-125425000D01*
%TO.N,/Display Adapter/VSL LV2*%
X132825000Y-125325000D02*
X134400000Y-125325000D01*
X131950000Y-129250000D02*
X131950000Y-126200000D01*
X133250000Y-133500000D02*
X133250000Y-130550000D01*
X131950000Y-126200000D02*
X132825000Y-125325000D01*
X133250000Y-130550000D02*
X131950000Y-129250000D01*
%TO.N,/Display Adapter/REFN*%
X134250000Y-132550000D02*
X134250000Y-133500000D01*
X133750000Y-132050000D02*
X134250000Y-132550000D01*
X133750000Y-129525000D02*
X133750000Y-132050000D01*
X133100000Y-128875000D02*
X133750000Y-129525000D01*
%TO.N,/Display Adapter/REFP*%
X134750000Y-130075000D02*
X134650000Y-129975000D01*
X134750000Y-133500000D02*
X134750000Y-130075000D01*
%TO.N,/Display Adapter/BS0*%
X136250000Y-133500000D02*
X136250000Y-134900000D01*
X136250000Y-134900000D02*
X136050000Y-135100000D01*
%TO.N,/Display Adapter/BS1*%
X136750000Y-135550000D02*
X137000000Y-135800000D01*
X136750000Y-133500000D02*
X136750000Y-135550000D01*
%TO.N,/Display Adapter/EPD_RST*%
X137000000Y-132300000D02*
X137250000Y-132550000D01*
X137250000Y-132550000D02*
X137250000Y-133500000D01*
X160100000Y-131400000D02*
X164900000Y-131400000D01*
D69*
X175200000Y-123950000D02*
X174050000Y-122800000D01*
D66*
X136350000Y-132300000D02*
X137000000Y-132300000D01*
X136875000Y-107137500D02*
X136875000Y-126425000D01*
X136875000Y-126425000D02*
X136900000Y-126450000D01*
X155450000Y-124300000D02*
X159300000Y-128150000D01*
D69*
X175200000Y-126150000D02*
X175200000Y-123950000D01*
D66*
X159300000Y-130600000D02*
X160100000Y-131400000D01*
D69*
X174050000Y-122800000D02*
X171562500Y-122800000D01*
X167062500Y-127000000D02*
X174350000Y-127000000D01*
D66*
X164900000Y-131400000D02*
X167062500Y-129237500D01*
X167062500Y-129237500D02*
X167062500Y-127000000D01*
D69*
X174350000Y-127000000D02*
X175200000Y-126150000D01*
D66*
X136350000Y-129750000D02*
X136350000Y-132300000D01*
X159300000Y-128150000D02*
X159300000Y-130600000D01*
%TO.N,/Display Adapter/EPD_BUSY*%
X137750000Y-131250000D02*
X137750000Y-133500000D01*
X137875000Y-107137500D02*
X137875000Y-124425000D01*
X137875000Y-124425000D02*
X138250000Y-124800000D01*
%TO.N,/Display Adapter/EPD_DC*%
X138300000Y-135350000D02*
X138250000Y-135300000D01*
X138250000Y-135300000D02*
X138250000Y-133500000D01*
X139875000Y-107137500D02*
X139875000Y-114625000D01*
X140950000Y-115700000D02*
X140950000Y-129150000D01*
X140500000Y-115250000D02*
X140950000Y-115700000D01*
X139875000Y-114625000D02*
X140500000Y-115250000D01*
%TO.N,/Display Adapter/EPD_CS*%
X139500000Y-135400000D02*
X138750000Y-134650000D01*
X141850000Y-115200000D02*
X142150000Y-115500000D01*
X139850000Y-135400000D02*
X139500000Y-135400000D01*
X138750000Y-134650000D02*
X138750000Y-133500000D01*
X140875000Y-114225000D02*
X141850000Y-115200000D01*
X142150000Y-115500000D02*
X142150000Y-126950000D01*
X140875000Y-107137500D02*
X140875000Y-114225000D01*
%TO.N,/Display Adapter/EPD_SCK*%
X136301041Y-105225000D02*
X136550000Y-105473959D01*
X139250000Y-130850000D02*
X139250000Y-133500000D01*
X135500000Y-107173959D02*
X135500000Y-127100000D01*
X136550000Y-105473959D02*
X136550000Y-106123959D01*
X135462500Y-105225000D02*
X136301041Y-105225000D01*
X135500000Y-127100000D02*
X139250000Y-130850000D01*
X136550000Y-106123959D02*
X135500000Y-107173959D01*
%TO.N,/Display Adapter/EPD_DIN*%
X139450000Y-121300000D02*
X139050000Y-121300000D01*
X139750000Y-117850000D02*
X139750000Y-118750000D01*
X139750000Y-117800000D02*
X139750000Y-117850000D01*
X139750000Y-119950000D02*
X139750000Y-120000000D01*
X138875000Y-115125000D02*
X139750000Y-116000000D01*
X139050000Y-119650000D02*
X139450000Y-119650000D01*
X139750000Y-122200000D02*
X139750000Y-122250000D01*
X138875000Y-107137500D02*
X138875000Y-115125000D01*
X139750000Y-122250000D02*
X139750000Y-133500000D01*
X139050000Y-121900000D02*
X139450000Y-121900000D01*
X139450000Y-116900000D02*
X139050000Y-116900000D01*
X139450000Y-119050000D02*
X139050000Y-119050000D01*
X139050000Y-117500000D02*
X139450000Y-117500000D01*
X139750000Y-120000000D02*
X139750000Y-121000000D01*
X139750000Y-116000000D02*
X139750000Y-116600000D01*
X139450000Y-119050000D02*
G75*
G03*
X139750000Y-118750000I0J300000D01*
G01*
X138750000Y-121600000D02*
G75*
G03*
X139050000Y-121900000I300000J0D01*
G01*
X138750000Y-119350000D02*
G75*
G03*
X139050000Y-119650000I300000J0D01*
G01*
X139050000Y-121300000D02*
G75*
G03*
X138750000Y-121600000I0J-300000D01*
G01*
X139750000Y-119950000D02*
G75*
G03*
X139450000Y-119650000I-300000J0D01*
G01*
X139750000Y-122200000D02*
G75*
G03*
X139450000Y-121900000I-300000J0D01*
G01*
X139050000Y-116900000D02*
G75*
G03*
X138750000Y-117200000I0J-300000D01*
G01*
X138750000Y-117200000D02*
G75*
G03*
X139050000Y-117500000I300000J0D01*
G01*
X139450000Y-121300000D02*
G75*
G03*
X139750000Y-121000000I0J300000D01*
G01*
X139050000Y-119050000D02*
G75*
G03*
X138750000Y-119350000I0J-300000D01*
G01*
X139750000Y-117800000D02*
G75*
G03*
X139450000Y-117500000I-300000J0D01*
G01*
X139450000Y-116900000D02*
G75*
G03*
X139750000Y-116600000I0J300000D01*
G01*
%TO.N,/Display Adapter/VDDD{slash}VDDDO*%
X141750000Y-130151472D02*
X142050000Y-129851472D01*
X142050000Y-129150000D02*
X142750000Y-128450000D01*
X142050000Y-129851472D02*
X142050000Y-129150000D01*
X141750000Y-133500000D02*
X141750000Y-130151472D01*
X142750000Y-128450000D02*
X143200000Y-128450000D01*
X143200000Y-128450000D02*
X144425000Y-127225000D01*
X144425000Y-127225000D02*
X145400000Y-127225000D01*
%TO.N,/Display Adapter/GNDA{slash}GND*%
X142750000Y-133500000D02*
X142750000Y-135750000D01*
X142750000Y-135750000D02*
X142800000Y-135800000D01*
%TO.N,/Display Adapter/VDDIO*%
X143250000Y-133500000D02*
X143250000Y-132450000D01*
X143250000Y-132450000D02*
X142400000Y-131600000D01*
%TO.N,/Display Adapter/VCP2*%
X143750000Y-133500000D02*
X143750000Y-130242894D01*
X146825000Y-128950000D02*
X148550000Y-127225000D01*
X145042894Y-128950000D02*
X146825000Y-128950000D01*
X143750000Y-130242894D02*
X145042894Y-128950000D01*
%TO.N,/Display Adapter/CP2N*%
X144250000Y-130450000D02*
X144750000Y-129950000D01*
X144250000Y-133500000D02*
X144250000Y-130450000D01*
X144750000Y-129950000D02*
X145675000Y-129950000D01*
%TO.N,/Display Adapter/CP2P*%
X144750000Y-133500000D02*
X144750000Y-131100000D01*
X145050000Y-130800000D02*
X146375000Y-130800000D01*
X144750000Y-131100000D02*
X145050000Y-130800000D01*
X146375000Y-130800000D02*
X147225000Y-129950000D01*
%TO.N,/Display Adapter/VCP1*%
X145250000Y-131450000D02*
X145400000Y-131300000D01*
X147650000Y-131300000D02*
X150100000Y-128850000D01*
X145400000Y-131300000D02*
X147650000Y-131300000D01*
X150100000Y-128850000D02*
X150100000Y-127225000D01*
X145250000Y-133500000D02*
X145250000Y-131450000D01*
%TO.N,/Display Adapter/CP1N*%
X146000000Y-131800000D02*
X148925000Y-131800000D01*
X148925000Y-131800000D02*
X149925000Y-130800000D01*
X145750000Y-132050000D02*
X146000000Y-131800000D01*
X145750000Y-133500000D02*
X145750000Y-132050000D01*
%TO.N,/Display Adapter/CP1P*%
X146550000Y-132300000D02*
X149975000Y-132300000D01*
X146250000Y-132600000D02*
X146550000Y-132300000D01*
X146250000Y-133500000D02*
X146250000Y-132600000D01*
X149975000Y-132300000D02*
X151475000Y-130800000D01*
D67*
%TO.N,/Display Adapter/VGH*%
X127750000Y-117337500D02*
X127750000Y-115850000D01*
X127750000Y-115850000D02*
X127600000Y-115700000D01*
X144400000Y-117950000D02*
X146500000Y-117950000D01*
D66*
X147750000Y-133500000D02*
X147750000Y-135650000D01*
D67*
X156500000Y-136250000D02*
X153400000Y-139350000D01*
X148450000Y-139350000D02*
X147750000Y-138650000D01*
X156500000Y-127950000D02*
X156500000Y-136250000D01*
X146500000Y-117950000D02*
X156500000Y-127950000D01*
X153400000Y-139350000D02*
X148450000Y-139350000D01*
X147750000Y-138650000D02*
X147750000Y-135750000D01*
D66*
X147750000Y-135650000D02*
X147700000Y-135700000D01*
%TO.N,/Display Adapter/VCOMBD*%
X148250000Y-133500000D02*
X148450000Y-133300000D01*
X148450000Y-133300000D02*
X153437500Y-133300000D01*
X153437500Y-133300000D02*
X153650000Y-133512500D01*
D69*
%TO.N,/MCU/LED_BUSY_OUT*%
X146300000Y-83125000D02*
X146300000Y-81062500D01*
%TO.N,/MCU/LED_ERR_OUT*%
X152400000Y-81062500D02*
X152400000Y-83125000D01*
D66*
%TO.N,/MCU/SDC_PWR*%
X144982106Y-102225000D02*
X146357106Y-100850000D01*
X154674951Y-97350000D02*
X153724951Y-98300000D01*
X146357106Y-100850000D02*
X152650000Y-100850000D01*
X153312500Y-100187500D02*
X153312500Y-98300000D01*
X152650000Y-100850000D02*
X153312500Y-100187500D01*
X153724951Y-98300000D02*
X153312500Y-98300000D01*
X143787500Y-102225000D02*
X144982106Y-102225000D01*
D69*
%TO.N,/MCU/BOOT0*%
X141962500Y-93000000D02*
X141150000Y-92187500D01*
D66*
X138875000Y-98812500D02*
X138875000Y-100725000D01*
X138875000Y-100725000D02*
X139250000Y-101100000D01*
D69*
X142900000Y-93000000D02*
X141962500Y-93000000D01*
D68*
%TO.N,/Display Adapter/VCOMBD_1*%
X153650000Y-131687500D02*
X153650000Y-129975000D01*
D72*
%TO.N,/Display Adapter/FPL VCOM_1*%
X114675000Y-139900000D02*
X116387500Y-139900000D01*
D67*
%TO.N,/Display Adapter/EPD_RST_INT*%
X169737500Y-115337500D02*
X169737500Y-120700000D01*
X169000000Y-114600000D02*
X169737500Y-115337500D01*
X153300000Y-114600000D02*
X169000000Y-114600000D01*
D68*
X169737500Y-120700000D02*
X169737500Y-122800000D01*
D67*
X152300000Y-115600000D02*
X153300000Y-114600000D01*
D68*
%TO.N,/Display Adapter/VCC_DIS_PU*%
X150300000Y-112012500D02*
X150300000Y-114637500D01*
X150300000Y-114637500D02*
X150312500Y-114650000D01*
D70*
X148237500Y-114700000D02*
X150262500Y-114700000D01*
X150262500Y-114700000D02*
X150312500Y-114650000D01*
D66*
%TO.N,/MCU/LSE_OSC_OUT*%
X135462500Y-101725000D02*
X134085000Y-101725000D01*
X134085000Y-101725000D02*
X133910000Y-101900000D01*
D76*
%TO.N,/Power Supply/VBAT_IN_POL_CHECKED*%
X128650000Y-84037500D02*
X130337500Y-84037500D01*
X130337500Y-84037500D02*
X130400000Y-84100000D01*
D69*
%TO.N,/Power Supply/VBAT_IN*%
X128400000Y-81462500D02*
X127700000Y-82162500D01*
X128400000Y-77150000D02*
X128400000Y-81462500D01*
D72*
%TO.N,/Debug Connector/NRST*%
X163900000Y-78575000D02*
X162025000Y-78575000D01*
X162025000Y-78575000D02*
X162000000Y-78600000D01*
X163900000Y-78575000D02*
X163900000Y-82180000D01*
D66*
X140775000Y-103225000D02*
X140800000Y-103200000D01*
D72*
X163900000Y-82180000D02*
X163945000Y-82225000D01*
D66*
X135462500Y-103225000D02*
X140775000Y-103225000D01*
D72*
%TO.N,/MCU/3v3A*%
X133125000Y-105400000D02*
X132425000Y-105400000D01*
D66*
X135462500Y-104225000D02*
X134300000Y-104225000D01*
D70*
X130700000Y-105815000D02*
X131990000Y-105815000D01*
D72*
X133600000Y-104925000D02*
X133125000Y-105400000D01*
X132425000Y-105400000D02*
X132000000Y-105825000D01*
D70*
X131990000Y-105815000D02*
X132000000Y-105825000D01*
D66*
X134300000Y-104225000D02*
X133600000Y-104925000D01*
%TO.N,/Debug Connector/SWDIO*%
X172900000Y-87500000D02*
X172900000Y-83430000D01*
X143787500Y-101225000D02*
X145075000Y-101225000D01*
X145075000Y-101225000D02*
X147200000Y-99100000D01*
X172900000Y-83430000D02*
X174105000Y-82225000D01*
X147200000Y-99100000D02*
X147200000Y-97500000D01*
X147200000Y-97500000D02*
X153250000Y-91450000D01*
X153250000Y-91450000D02*
X168950000Y-91450000D01*
X168950000Y-91450000D02*
X172900000Y-87500000D01*
%TO.N,/Debug Connector/SWDCLK*%
X170350000Y-87200000D02*
X170350000Y-83440000D01*
X166100000Y-89750000D02*
X166100000Y-90046551D01*
X167600000Y-89450000D02*
X168100000Y-89450000D01*
X166700000Y-90046551D02*
X166700000Y-89150000D01*
X168100000Y-89450000D02*
X170350000Y-87200000D01*
X170350000Y-83440000D02*
X171565000Y-82225000D01*
X146850000Y-96350000D02*
X153750000Y-89450000D01*
X167300000Y-88853449D02*
X167300000Y-89150000D01*
X142375000Y-98075000D02*
X144100000Y-96350000D01*
X166700000Y-89150000D02*
X166700000Y-88853449D01*
X144100000Y-96350000D02*
X146850000Y-96350000D01*
X142375000Y-98812500D02*
X142375000Y-98075000D01*
X153750000Y-89450000D02*
X165800000Y-89450000D01*
X166400000Y-90346600D02*
G75*
G03*
X166700000Y-90046551I0J300000D01*
G01*
X167300000Y-89150000D02*
G75*
G03*
X167600000Y-89450000I300000J0D01*
G01*
X166100049Y-90046551D02*
G75*
G03*
X166400000Y-90346551I299951J-49D01*
G01*
X167000000Y-88553400D02*
G75*
G03*
X166700000Y-88853449I0J-300000D01*
G01*
X167299951Y-88853449D02*
G75*
G03*
X167000000Y-88553449I-299951J49D01*
G01*
X166100000Y-89750000D02*
G75*
G03*
X165800000Y-89450000I-300000J0D01*
G01*
%TO.N,/Debug Connector/SWO*%
X154350000Y-87500000D02*
X146400000Y-95450000D01*
X146400000Y-95450000D02*
X143300000Y-95450000D01*
X143300000Y-95450000D02*
X141375000Y-97375000D01*
X165250000Y-87050000D02*
X164800000Y-87500000D01*
X163900000Y-87500000D02*
X154350000Y-87500000D01*
X164800000Y-87500000D02*
X163750000Y-87500000D01*
X166485000Y-82225000D02*
X165250000Y-83460000D01*
X165250000Y-83460000D02*
X165250000Y-87050000D01*
X141375000Y-97375000D02*
X141375000Y-98812500D01*
%TO.N,/MCU/LED_ERR_IN*%
X145300000Y-94700000D02*
X152400000Y-87600000D01*
X152400000Y-87600000D02*
X152400000Y-85665000D01*
X142200000Y-94700000D02*
X145300000Y-94700000D01*
X140375000Y-96525000D02*
X142200000Y-94700000D01*
X140375000Y-98812500D02*
X140375000Y-96525000D01*
%TO.N,/MCU/LED_BUSY_IN*%
X146300000Y-92050000D02*
X146300000Y-85665000D01*
X139875000Y-95525000D02*
X141450000Y-93950000D01*
X141450000Y-93950000D02*
X144400000Y-93950000D01*
X139875000Y-98812500D02*
X139875000Y-95525000D01*
X144400000Y-93950000D02*
X146300000Y-92050000D01*
D72*
%TO.N,/Power Supply/VBAT_IN_FUSE_CHECKED*%
X134962500Y-84100000D02*
X135000000Y-84137500D01*
X133200000Y-84100000D02*
X134962500Y-84100000D01*
D68*
%TO.N,/Display Adapter/VGL_1*%
X122975000Y-121525000D02*
X123950000Y-122500000D01*
X123325000Y-121525000D02*
X123950000Y-120900000D01*
X121850000Y-121525000D02*
X122975000Y-121525000D01*
X123950000Y-120900000D02*
X123950000Y-122500000D01*
X121850000Y-121525000D02*
X123325000Y-121525000D01*
D74*
%TO.N,/MCU/LED_BUSY_OUT_2*%
X146300000Y-78137500D02*
X143762500Y-78137500D01*
X143762500Y-78137500D02*
X143500000Y-78400000D01*
%TD*%
%TA.AperFunction,Conductor*%
%TO.N,/Power Supply/VBAT_IN*%
G36*
X130737000Y-75316881D02*
G01*
X130783119Y-75363000D01*
X130800000Y-75426000D01*
X130800000Y-80674000D01*
X130783119Y-80737000D01*
X130737000Y-80783119D01*
X130674000Y-80800000D01*
X129400000Y-80800000D01*
X129400000Y-80816590D01*
X129400000Y-82703000D01*
X129383119Y-82766000D01*
X129337000Y-82812119D01*
X129274000Y-82829000D01*
X129040727Y-82829000D01*
X129005574Y-82823997D01*
X128910007Y-82796232D01*
X128910004Y-82796231D01*
X128903831Y-82794438D01*
X128897424Y-82793933D01*
X128897420Y-82793933D01*
X128868958Y-82791693D01*
X128868950Y-82791692D01*
X128866502Y-82791500D01*
X128634000Y-82791500D01*
X128571000Y-82774619D01*
X128524881Y-82728500D01*
X128508000Y-82665500D01*
X128508000Y-82433090D01*
X128504493Y-82420006D01*
X128491410Y-82416500D01*
X126908591Y-82416500D01*
X126895507Y-82420006D01*
X126892001Y-82433090D01*
X126892001Y-82665500D01*
X126875120Y-82728500D01*
X126829001Y-82774619D01*
X126766001Y-82791500D01*
X126533498Y-82791500D01*
X126531050Y-82791692D01*
X126531041Y-82791693D01*
X126502579Y-82793933D01*
X126502574Y-82793933D01*
X126496169Y-82794438D01*
X126489997Y-82796231D01*
X126489992Y-82796232D01*
X126344011Y-82838643D01*
X126344007Y-82838644D01*
X126336399Y-82840855D01*
X126329578Y-82844888D01*
X126329573Y-82844891D01*
X126193193Y-82925547D01*
X126191994Y-82923520D01*
X126138844Y-82944807D01*
X126070569Y-82932615D01*
X126019088Y-82886140D01*
X126000000Y-82819463D01*
X126000000Y-81329451D01*
X126017453Y-81265471D01*
X126064976Y-81219215D01*
X126129402Y-81203497D01*
X126803037Y-81221703D01*
X126858223Y-81236109D01*
X126901404Y-81273372D01*
X126923731Y-81325857D01*
X126920628Y-81382809D01*
X126896732Y-81465058D01*
X126894429Y-81477666D01*
X126892193Y-81506084D01*
X126892000Y-81511014D01*
X126892000Y-81891910D01*
X126895506Y-81904993D01*
X126908590Y-81908500D01*
X128491409Y-81908500D01*
X128504492Y-81904993D01*
X128507999Y-81891910D01*
X128507999Y-81511017D01*
X128507805Y-81506080D01*
X128505569Y-81477663D01*
X128503269Y-81465068D01*
X128460892Y-81319210D01*
X128454647Y-81304778D01*
X128378088Y-81175322D01*
X128368449Y-81162896D01*
X128262103Y-81056550D01*
X128249677Y-81046911D01*
X128120221Y-80970352D01*
X128105789Y-80964107D01*
X127959933Y-80921731D01*
X127953363Y-80920531D01*
X127900347Y-80897341D01*
X127863287Y-80852900D01*
X127850000Y-80796581D01*
X127850000Y-78584071D01*
X127864007Y-78526335D01*
X127902913Y-78481435D01*
X127958068Y-78459354D01*
X128017210Y-78465001D01*
X128131914Y-78504700D01*
X128132026Y-78504727D01*
X128142026Y-78503289D01*
X128146000Y-78489759D01*
X128146000Y-78489216D01*
X128654000Y-78489216D01*
X128656545Y-78500281D01*
X128667903Y-78500146D01*
X128758207Y-78478238D01*
X128769495Y-78474332D01*
X128951060Y-78391414D01*
X128961408Y-78385439D01*
X129123998Y-78269660D01*
X129133028Y-78261835D01*
X129270762Y-78117384D01*
X129278157Y-78107981D01*
X129386060Y-77940079D01*
X129391542Y-77929446D01*
X129465721Y-77744156D01*
X129469090Y-77732682D01*
X129506865Y-77536689D01*
X129508000Y-77524804D01*
X129508000Y-77420590D01*
X129504493Y-77407506D01*
X129491410Y-77404000D01*
X128670590Y-77404000D01*
X128657506Y-77407506D01*
X128654000Y-77420590D01*
X128654000Y-78489216D01*
X128146000Y-78489216D01*
X128146000Y-76879410D01*
X128654000Y-76879410D01*
X128657506Y-76892493D01*
X128670590Y-76896000D01*
X129491410Y-76896000D01*
X129504493Y-76892493D01*
X129508000Y-76879410D01*
X129508000Y-76825220D01*
X129507714Y-76819227D01*
X129493496Y-76670331D01*
X129491235Y-76658597D01*
X129435003Y-76467090D01*
X129430558Y-76455985D01*
X129339101Y-76278583D01*
X129332636Y-76268524D01*
X129209252Y-76111627D01*
X129201012Y-76102986D01*
X129050165Y-75972276D01*
X129040425Y-75965340D01*
X128867575Y-75865546D01*
X128856697Y-75860578D01*
X128668085Y-75795299D01*
X128667973Y-75795272D01*
X128657973Y-75796710D01*
X128654000Y-75810241D01*
X128654000Y-76879410D01*
X128146000Y-76879410D01*
X128146000Y-75810784D01*
X128143454Y-75799718D01*
X128132096Y-75799853D01*
X128041792Y-75821761D01*
X128030503Y-75825667D01*
X128028342Y-75826655D01*
X128026898Y-75826915D01*
X128024825Y-75827633D01*
X128024713Y-75827309D01*
X127967011Y-75837720D01*
X127907879Y-75818039D01*
X127865412Y-75772426D01*
X127850000Y-75712041D01*
X127850000Y-75426000D01*
X127866881Y-75363000D01*
X127913000Y-75316881D01*
X127976000Y-75300000D01*
X130674000Y-75300000D01*
X130737000Y-75316881D01*
G37*
%TD.AperFunction*%
%TD*%
%TA.AperFunction,Conductor*%
%TO.N,/Power Supply/VBAT_IN_FUSE_CHECKED*%
G36*
X137258187Y-81751078D02*
G01*
X137286201Y-81754765D01*
X137362964Y-81764871D01*
X137394731Y-81773383D01*
X137484675Y-81810639D01*
X137513160Y-81827085D01*
X137590393Y-81886349D01*
X137613650Y-81909606D01*
X137672914Y-81986839D01*
X137689361Y-82015326D01*
X137726615Y-82105265D01*
X137735128Y-82137037D01*
X137748922Y-82241812D01*
X137750000Y-82258258D01*
X137750000Y-84691742D01*
X137748922Y-84708189D01*
X137735128Y-84812963D01*
X137726615Y-84844734D01*
X137689361Y-84934673D01*
X137672914Y-84963159D01*
X137613649Y-85040394D01*
X137590408Y-85063639D01*
X137588050Y-85065449D01*
X137551841Y-85084810D01*
X137511329Y-85091500D01*
X137455737Y-85091500D01*
X137443388Y-85090893D01*
X137406164Y-85087227D01*
X137406163Y-85087227D01*
X137400000Y-85086620D01*
X137393837Y-85087227D01*
X137208461Y-85105484D01*
X137208459Y-85105484D01*
X137202299Y-85106091D01*
X137196382Y-85107885D01*
X137196376Y-85107887D01*
X137025063Y-85159854D01*
X137025059Y-85159855D01*
X137012196Y-85163758D01*
X137012196Y-85163759D01*
X137004253Y-85168004D01*
X137004251Y-85168005D01*
X136981462Y-85180186D01*
X136972228Y-85185122D01*
X136912833Y-85200000D01*
X135841958Y-85200000D01*
X135779594Y-85183484D01*
X135733579Y-85138265D01*
X135715977Y-85076199D01*
X135731402Y-85013556D01*
X135775811Y-84966759D01*
X135828826Y-84934058D01*
X135840267Y-84925011D01*
X135950011Y-84815267D01*
X135959058Y-84803826D01*
X136040542Y-84671720D01*
X136046699Y-84658518D01*
X136095669Y-84510734D01*
X136098529Y-84497376D01*
X136107674Y-84407857D01*
X136107716Y-84407032D01*
X136104493Y-84395006D01*
X136091410Y-84391500D01*
X133935619Y-84391500D01*
X133887401Y-84381909D01*
X133852478Y-84358573D01*
X133835410Y-84354000D01*
X132083590Y-84354000D01*
X132070506Y-84357506D01*
X132067000Y-84370590D01*
X132067000Y-84665500D01*
X132050119Y-84728500D01*
X132004000Y-84774619D01*
X131941000Y-84791500D01*
X131826000Y-84791500D01*
X131763000Y-84774619D01*
X131716881Y-84728500D01*
X131700000Y-84665500D01*
X131700000Y-83829410D01*
X132067000Y-83829410D01*
X132070506Y-83842493D01*
X132083590Y-83846000D01*
X132929410Y-83846000D01*
X132942493Y-83842493D01*
X132946000Y-83829410D01*
X133454000Y-83829410D01*
X133457506Y-83842493D01*
X133470590Y-83846000D01*
X134289381Y-83846000D01*
X134337599Y-83855591D01*
X134372521Y-83878926D01*
X134389590Y-83883500D01*
X134729410Y-83883500D01*
X134742493Y-83879993D01*
X134746000Y-83866910D01*
X135254000Y-83866910D01*
X135257506Y-83879993D01*
X135270590Y-83883500D01*
X136091409Y-83883500D01*
X136104492Y-83879993D01*
X136107715Y-83867967D01*
X136107673Y-83867140D01*
X136098530Y-83777630D01*
X136095667Y-83764259D01*
X136046699Y-83616481D01*
X136040542Y-83603279D01*
X135959058Y-83471173D01*
X135950011Y-83459732D01*
X135840267Y-83349988D01*
X135828826Y-83340941D01*
X135696720Y-83259457D01*
X135683518Y-83253300D01*
X135535734Y-83204330D01*
X135522376Y-83201470D01*
X135432857Y-83192325D01*
X135426468Y-83192000D01*
X135270590Y-83192000D01*
X135257506Y-83195506D01*
X135254000Y-83208590D01*
X135254000Y-83866910D01*
X134746000Y-83866910D01*
X134746000Y-83208591D01*
X134742493Y-83195507D01*
X134729410Y-83192001D01*
X134573535Y-83192001D01*
X134567140Y-83192326D01*
X134477630Y-83201469D01*
X134464256Y-83204332D01*
X134419673Y-83219106D01*
X134359363Y-83223793D01*
X134303820Y-83199832D01*
X134265844Y-83152746D01*
X134262805Y-83146228D01*
X134177488Y-83007908D01*
X134168441Y-82996467D01*
X134053532Y-82881558D01*
X134042091Y-82872511D01*
X133903767Y-82787192D01*
X133890564Y-82781035D01*
X133735846Y-82729767D01*
X133722488Y-82726907D01*
X133628692Y-82717325D01*
X133622303Y-82717000D01*
X133470590Y-82717000D01*
X133457506Y-82720506D01*
X133454000Y-82733590D01*
X133454000Y-83829410D01*
X132946000Y-83829410D01*
X132946000Y-82733590D01*
X132942493Y-82720506D01*
X132929410Y-82717000D01*
X132777697Y-82717000D01*
X132771307Y-82717325D01*
X132677511Y-82726907D01*
X132664153Y-82729767D01*
X132509435Y-82781035D01*
X132496232Y-82787192D01*
X132357908Y-82872511D01*
X132346467Y-82881558D01*
X132231558Y-82996467D01*
X132222511Y-83007908D01*
X132137192Y-83146232D01*
X132131035Y-83159435D01*
X132079767Y-83314153D01*
X132076907Y-83327511D01*
X132067325Y-83421307D01*
X132067000Y-83427698D01*
X132067000Y-83829410D01*
X131700000Y-83829410D01*
X131700000Y-82258258D01*
X131701078Y-82241813D01*
X131704134Y-82218592D01*
X131714872Y-82137033D01*
X131723382Y-82105270D01*
X131760640Y-82015321D01*
X131777082Y-81986843D01*
X131836351Y-81909603D01*
X131859603Y-81886351D01*
X131936843Y-81827082D01*
X131965321Y-81810640D01*
X132055270Y-81773382D01*
X132087033Y-81764872D01*
X132168592Y-81754134D01*
X132191813Y-81751078D01*
X132208258Y-81750000D01*
X137241742Y-81750000D01*
X137258187Y-81751078D01*
G37*
%TD.AperFunction*%
%TD*%
%TA.AperFunction,Conductor*%
%TO.N,/Debug Connector/MCU_VDD*%
G36*
X143237000Y-85566881D02*
G01*
X143283119Y-85613000D01*
X143300000Y-85676000D01*
X143300000Y-89974000D01*
X143283119Y-90037000D01*
X143237000Y-90083119D01*
X143174000Y-90100000D01*
X140665428Y-90100000D01*
X140601636Y-90082658D01*
X140555404Y-90035406D01*
X140539458Y-89971252D01*
X140558187Y-89907853D01*
X140637807Y-89778767D01*
X140643964Y-89765564D01*
X140695232Y-89610846D01*
X140698092Y-89597488D01*
X140707674Y-89503692D01*
X140708000Y-89497303D01*
X140708000Y-89458090D01*
X140704493Y-89445006D01*
X140691410Y-89441500D01*
X138789591Y-89441500D01*
X138758962Y-89449707D01*
X138726350Y-89454000D01*
X137770590Y-89454000D01*
X137757506Y-89457506D01*
X137754000Y-89470590D01*
X137754000Y-90191410D01*
X137757506Y-90204493D01*
X137770590Y-90208000D01*
X138022303Y-90208000D01*
X138028692Y-90207674D01*
X138122488Y-90198092D01*
X138135854Y-90195230D01*
X138234367Y-90162587D01*
X138293167Y-90157657D01*
X138347764Y-90180040D01*
X138386183Y-90224825D01*
X138400000Y-90282191D01*
X138400000Y-90323249D01*
X138381241Y-90389396D01*
X138361735Y-90421018D01*
X138361730Y-90421026D01*
X138357885Y-90427262D01*
X138355579Y-90434219D01*
X138355577Y-90434225D01*
X138304275Y-90589048D01*
X138302113Y-90595574D01*
X138301414Y-90602408D01*
X138301414Y-90602412D01*
X138295586Y-90659457D01*
X138291500Y-90699455D01*
X138291500Y-90702659D01*
X138291500Y-90702660D01*
X138291500Y-91322338D01*
X138291500Y-91322357D01*
X138291501Y-91325544D01*
X138291825Y-91328721D01*
X138291826Y-91328729D01*
X138292304Y-91333411D01*
X138302113Y-91429426D01*
X138304272Y-91435943D01*
X138304274Y-91435950D01*
X138349356Y-91572000D01*
X138357885Y-91597738D01*
X138361732Y-91603976D01*
X138361735Y-91603981D01*
X138381241Y-91635604D01*
X138400000Y-91701751D01*
X138400000Y-92065500D01*
X138383119Y-92128500D01*
X138337000Y-92174619D01*
X138274000Y-92191500D01*
X137134000Y-92191500D01*
X137071000Y-92174619D01*
X137024881Y-92128500D01*
X137008000Y-92065500D01*
X137008000Y-91970590D01*
X137004493Y-91957506D01*
X136991410Y-91954000D01*
X135997000Y-91954000D01*
X135934000Y-91937119D01*
X135887881Y-91891000D01*
X135871000Y-91828000D01*
X135871000Y-91572000D01*
X135887881Y-91509000D01*
X135934000Y-91462881D01*
X135997000Y-91446000D01*
X136991409Y-91446000D01*
X137004492Y-91442493D01*
X137007999Y-91429410D01*
X137007999Y-91273535D01*
X137007673Y-91267140D01*
X136998530Y-91177630D01*
X136995667Y-91164259D01*
X136946699Y-91016481D01*
X136940542Y-91003279D01*
X136859058Y-90871173D01*
X136850011Y-90859732D01*
X136740267Y-90749988D01*
X136728826Y-90740941D01*
X136596720Y-90659457D01*
X136583511Y-90653297D01*
X136491103Y-90622676D01*
X136442072Y-90592597D01*
X136411520Y-90543858D01*
X136405815Y-90486622D01*
X136408500Y-90466231D01*
X136408500Y-90466226D01*
X136413750Y-90426346D01*
X136409577Y-90394653D01*
X136408500Y-90378210D01*
X136408500Y-90271085D01*
X136418673Y-90221486D01*
X136447548Y-90179896D01*
X136480386Y-90159339D01*
X136479851Y-90158358D01*
X136487764Y-90154036D01*
X136496204Y-90150889D01*
X136527485Y-90127471D01*
X136572532Y-90106077D01*
X136622353Y-90103835D01*
X136669142Y-90121098D01*
X136696232Y-90137807D01*
X136709435Y-90143964D01*
X136864153Y-90195232D01*
X136877511Y-90198092D01*
X136971307Y-90207674D01*
X136977697Y-90208000D01*
X137229410Y-90208000D01*
X137242493Y-90204493D01*
X137246000Y-90191410D01*
X137246000Y-89072000D01*
X137262881Y-89009000D01*
X137309000Y-88962881D01*
X137372000Y-88946000D01*
X138235409Y-88946000D01*
X138266038Y-88937793D01*
X138298650Y-88933500D01*
X140691410Y-88933500D01*
X140704493Y-88929993D01*
X140708000Y-88916910D01*
X140708000Y-88877698D01*
X140707674Y-88871307D01*
X140698092Y-88777511D01*
X140695232Y-88764153D01*
X140643964Y-88609435D01*
X140637807Y-88596232D01*
X140552488Y-88457908D01*
X140543441Y-88446467D01*
X140428532Y-88331558D01*
X140417091Y-88322511D01*
X140278767Y-88237192D01*
X140265564Y-88231035D01*
X140110846Y-88179767D01*
X140097479Y-88176905D01*
X140067042Y-88173796D01*
X140014777Y-88156345D01*
X139974956Y-88118260D01*
X139955196Y-88066823D01*
X139959275Y-88011873D01*
X139992109Y-87903632D01*
X139992109Y-87903630D01*
X139993908Y-87897701D01*
X140008500Y-87749547D01*
X140013380Y-87700000D01*
X140009106Y-87656615D01*
X140008500Y-87644266D01*
X140008500Y-86855734D01*
X140009107Y-86843384D01*
X140012773Y-86806163D01*
X140013380Y-86800000D01*
X140009107Y-86756612D01*
X140008500Y-86744263D01*
X140008500Y-86155734D01*
X140009107Y-86143384D01*
X140012773Y-86106163D01*
X140013380Y-86100000D01*
X139993908Y-85902299D01*
X139955425Y-85775437D01*
X139950000Y-85738861D01*
X139950000Y-85676000D01*
X139966881Y-85613000D01*
X140013000Y-85566881D01*
X140076000Y-85550000D01*
X143174000Y-85550000D01*
X143237000Y-85566881D01*
G37*
%TD.AperFunction*%
%TD*%
%TA.AperFunction,Conductor*%
%TO.N,GND*%
G36*
X126937000Y-75316881D02*
G01*
X126983119Y-75363000D01*
X127000000Y-75426000D01*
X127000000Y-75647852D01*
X126980919Y-75714518D01*
X126929454Y-75760993D01*
X126861194Y-75773200D01*
X126803692Y-75767325D01*
X126797303Y-75767000D01*
X126670590Y-75767000D01*
X126657506Y-75770506D01*
X126654000Y-75783590D01*
X126654000Y-78516410D01*
X126657506Y-78529493D01*
X126670590Y-78533000D01*
X126797303Y-78533000D01*
X126803692Y-78532674D01*
X126861194Y-78526800D01*
X126929454Y-78539007D01*
X126980919Y-78585482D01*
X127000000Y-78652148D01*
X127000000Y-80274000D01*
X126983119Y-80337000D01*
X126937000Y-80383119D01*
X126874000Y-80400000D01*
X124126000Y-80400000D01*
X124063000Y-80383119D01*
X124016881Y-80337000D01*
X124000000Y-80274000D01*
X124000000Y-77822303D01*
X125292000Y-77822303D01*
X125292325Y-77828692D01*
X125301907Y-77922488D01*
X125304767Y-77935846D01*
X125356035Y-78090564D01*
X125362192Y-78103767D01*
X125447511Y-78242091D01*
X125456558Y-78253532D01*
X125571467Y-78368441D01*
X125582908Y-78377488D01*
X125721232Y-78462807D01*
X125734435Y-78468964D01*
X125889153Y-78520232D01*
X125902511Y-78523092D01*
X125996307Y-78532674D01*
X126002697Y-78533000D01*
X126129410Y-78533000D01*
X126142493Y-78529493D01*
X126146000Y-78516410D01*
X126146000Y-77420590D01*
X126142493Y-77407506D01*
X126129410Y-77404000D01*
X125308590Y-77404000D01*
X125295506Y-77407506D01*
X125292000Y-77420590D01*
X125292000Y-77822303D01*
X124000000Y-77822303D01*
X124000000Y-76879410D01*
X125292000Y-76879410D01*
X125295506Y-76892493D01*
X125308590Y-76896000D01*
X126129410Y-76896000D01*
X126142493Y-76892493D01*
X126146000Y-76879410D01*
X126146000Y-75783590D01*
X126142493Y-75770506D01*
X126129410Y-75767000D01*
X126002697Y-75767000D01*
X125996307Y-75767325D01*
X125902511Y-75776907D01*
X125889153Y-75779767D01*
X125734435Y-75831035D01*
X125721232Y-75837192D01*
X125582908Y-75922511D01*
X125571467Y-75931558D01*
X125456558Y-76046467D01*
X125447511Y-76057908D01*
X125362192Y-76196232D01*
X125356035Y-76209435D01*
X125304767Y-76364153D01*
X125301907Y-76377511D01*
X125292325Y-76471307D01*
X125292000Y-76477698D01*
X125292000Y-76879410D01*
X124000000Y-76879410D01*
X124000000Y-75426000D01*
X124016881Y-75363000D01*
X124063000Y-75316881D01*
X124126000Y-75300000D01*
X126874000Y-75300000D01*
X126937000Y-75316881D01*
G37*
%TD.AperFunction*%
%TD*%
%TA.AperFunction,Conductor*%
%TO.N,/Micro SD/3v3*%
G36*
X162237000Y-96516881D02*
G01*
X162283119Y-96563000D01*
X162300000Y-96626000D01*
X162300000Y-99274000D01*
X162283119Y-99337000D01*
X162237000Y-99383119D01*
X162174000Y-99400000D01*
X159645618Y-99400000D01*
X159602724Y-99392474D01*
X159564955Y-99370796D01*
X158824150Y-98753458D01*
X158789108Y-98706545D01*
X158779055Y-98648860D01*
X158796161Y-98592859D01*
X158836733Y-98550638D01*
X158892008Y-98531314D01*
X158972487Y-98523092D01*
X158985846Y-98520232D01*
X159140564Y-98468964D01*
X159153767Y-98462807D01*
X159292091Y-98377488D01*
X159303532Y-98368441D01*
X159418441Y-98253532D01*
X159427488Y-98242091D01*
X159512807Y-98103767D01*
X159518964Y-98090564D01*
X159570232Y-97935846D01*
X159573092Y-97922488D01*
X159582674Y-97828692D01*
X159583000Y-97822303D01*
X159583000Y-97795590D01*
X159579493Y-97782506D01*
X159566410Y-97779000D01*
X158222000Y-97779000D01*
X158159000Y-97762119D01*
X158112881Y-97716000D01*
X158096000Y-97653000D01*
X158096000Y-97397000D01*
X158112881Y-97334000D01*
X158159000Y-97287881D01*
X158222000Y-97271000D01*
X159566410Y-97271000D01*
X159579493Y-97267493D01*
X159583000Y-97254410D01*
X159583000Y-97227698D01*
X159582674Y-97221307D01*
X159573092Y-97127511D01*
X159570232Y-97114153D01*
X159518964Y-96959435D01*
X159512807Y-96946232D01*
X159438430Y-96825647D01*
X159419701Y-96762248D01*
X159435647Y-96698093D01*
X159481879Y-96650842D01*
X159545671Y-96633500D01*
X159719263Y-96633500D01*
X159731612Y-96634107D01*
X159768836Y-96637773D01*
X159768837Y-96637773D01*
X159775000Y-96638380D01*
X159972701Y-96618909D01*
X160162804Y-96561241D01*
X160209576Y-96536241D01*
X160249543Y-96514877D01*
X160308939Y-96500000D01*
X162174000Y-96500000D01*
X162237000Y-96516881D01*
G37*
%TD.AperFunction*%
%TA.AperFunction,Conductor*%
G36*
X157046594Y-97616734D02*
G01*
X157097960Y-97663206D01*
X157117000Y-97729806D01*
X157117000Y-97822303D01*
X157117325Y-97828692D01*
X157126907Y-97922488D01*
X157129767Y-97935846D01*
X157181035Y-98090564D01*
X157187192Y-98103767D01*
X157251393Y-98207853D01*
X157270122Y-98271252D01*
X157254176Y-98335406D01*
X157207944Y-98382658D01*
X157144152Y-98400000D01*
X156413984Y-98400000D01*
X156358752Y-98387250D01*
X156314699Y-98351579D01*
X156295103Y-98309565D01*
X156293542Y-98310073D01*
X156293542Y-98310072D01*
X156248982Y-98172933D01*
X156244367Y-98114290D01*
X156266880Y-98059939D01*
X156311613Y-98021733D01*
X156368816Y-98008000D01*
X156445272Y-98008000D01*
X156451987Y-98007640D01*
X156501306Y-98002337D01*
X156516527Y-97998740D01*
X156637568Y-97953594D01*
X156653224Y-97945045D01*
X156755741Y-97868302D01*
X156768351Y-97855692D01*
X156845094Y-97753175D01*
X156853642Y-97737521D01*
X156872944Y-97685773D01*
X156914058Y-97630026D01*
X156978426Y-97604435D01*
X157046594Y-97616734D01*
G37*
%TD.AperFunction*%
%TD*%
%TA.AperFunction,Conductor*%
%TO.N,GND*%
G36*
X163585661Y-106261821D02*
G01*
X163586739Y-106263261D01*
X163703796Y-106350889D01*
X163840799Y-106401989D01*
X163901362Y-106408500D01*
X164174000Y-106408500D01*
X164237000Y-106425381D01*
X164283119Y-106471500D01*
X164300000Y-106534500D01*
X164300000Y-108774000D01*
X164283119Y-108837000D01*
X164237000Y-108883119D01*
X164174000Y-108900000D01*
X161726000Y-108900000D01*
X161663000Y-108883119D01*
X161616881Y-108837000D01*
X161600000Y-108774000D01*
X161600000Y-106962738D01*
X161609591Y-106914520D01*
X161636901Y-106873646D01*
X162114395Y-106396152D01*
X162153885Y-106369425D01*
X162200487Y-106359288D01*
X162247518Y-106367196D01*
X162340799Y-106401989D01*
X162401362Y-106408500D01*
X163095269Y-106408500D01*
X163098638Y-106408500D01*
X163159201Y-106401989D01*
X163296204Y-106350889D01*
X163413261Y-106263261D01*
X163414338Y-106261821D01*
X163467389Y-106231192D01*
X163532611Y-106231192D01*
X163585661Y-106261821D01*
G37*
%TD.AperFunction*%
%TD*%
%TA.AperFunction,Conductor*%
%TO.N,/Debug Connector/MCU_VDD*%
G36*
X154437000Y-108066881D02*
G01*
X154483119Y-108113000D01*
X154500000Y-108176000D01*
X154500000Y-110724000D01*
X154483119Y-110787000D01*
X154437000Y-110833119D01*
X154374000Y-110850000D01*
X153698907Y-110850000D01*
X153641541Y-110836183D01*
X153596756Y-110797764D01*
X153574373Y-110743167D01*
X153579303Y-110684367D01*
X153620230Y-110560854D01*
X153623092Y-110547488D01*
X153632674Y-110453692D01*
X153633000Y-110447303D01*
X153633000Y-110420590D01*
X153629493Y-110407506D01*
X153616410Y-110404000D01*
X151564590Y-110404000D01*
X151547521Y-110408573D01*
X151512599Y-110431909D01*
X151464381Y-110441500D01*
X149108590Y-110441500D01*
X149095506Y-110445006D01*
X149092000Y-110458090D01*
X149092000Y-110497303D01*
X149092325Y-110503692D01*
X149101907Y-110597488D01*
X149104767Y-110610849D01*
X149129129Y-110684368D01*
X149134057Y-110743168D01*
X149111675Y-110797764D01*
X149066890Y-110836184D01*
X149009524Y-110850000D01*
X148276000Y-110850000D01*
X148213000Y-110833119D01*
X148166881Y-110787000D01*
X148150000Y-110724000D01*
X148150000Y-109916910D01*
X149092000Y-109916910D01*
X149095506Y-109929993D01*
X149108590Y-109933500D01*
X150029410Y-109933500D01*
X150042493Y-109929993D01*
X150046000Y-109916910D01*
X150554000Y-109916910D01*
X150557506Y-109929993D01*
X150570590Y-109933500D01*
X151110410Y-109933500D01*
X151127478Y-109928926D01*
X151162401Y-109905591D01*
X151210619Y-109896000D01*
X152129410Y-109896000D01*
X152142493Y-109892493D01*
X152146000Y-109879410D01*
X152654000Y-109879410D01*
X152657506Y-109892493D01*
X152670590Y-109896000D01*
X153616410Y-109896000D01*
X153629493Y-109892493D01*
X153633000Y-109879410D01*
X153633000Y-109852698D01*
X153632674Y-109846307D01*
X153623092Y-109752511D01*
X153620232Y-109739153D01*
X153568964Y-109584435D01*
X153562807Y-109571232D01*
X153477488Y-109432908D01*
X153468441Y-109421467D01*
X153353532Y-109306558D01*
X153342091Y-109297511D01*
X153203767Y-109212192D01*
X153190564Y-109206035D01*
X153035846Y-109154767D01*
X153022488Y-109151907D01*
X152928692Y-109142325D01*
X152922303Y-109142000D01*
X152670590Y-109142000D01*
X152657506Y-109145506D01*
X152654000Y-109158590D01*
X152654000Y-109879410D01*
X152146000Y-109879410D01*
X152146000Y-109158590D01*
X152142493Y-109145506D01*
X152129410Y-109142000D01*
X151877697Y-109142000D01*
X151871307Y-109142325D01*
X151777511Y-109151907D01*
X151764153Y-109154767D01*
X151609435Y-109206035D01*
X151596232Y-109212192D01*
X151457908Y-109297511D01*
X151446467Y-109306558D01*
X151414095Y-109338931D01*
X151357611Y-109371543D01*
X151292389Y-109371543D01*
X151235905Y-109338931D01*
X151228532Y-109331558D01*
X151217091Y-109322511D01*
X151078767Y-109237192D01*
X151065564Y-109231035D01*
X150910846Y-109179767D01*
X150897488Y-109176907D01*
X150803692Y-109167325D01*
X150797303Y-109167000D01*
X150570590Y-109167000D01*
X150557506Y-109170506D01*
X150554000Y-109183590D01*
X150554000Y-109916910D01*
X150046000Y-109916910D01*
X150046000Y-109183590D01*
X150042493Y-109170506D01*
X150029410Y-109167000D01*
X149802697Y-109167000D01*
X149796307Y-109167325D01*
X149702511Y-109176907D01*
X149689153Y-109179767D01*
X149534435Y-109231035D01*
X149521232Y-109237192D01*
X149382908Y-109322511D01*
X149371467Y-109331558D01*
X149256558Y-109446467D01*
X149247511Y-109457908D01*
X149162192Y-109596232D01*
X149156035Y-109609435D01*
X149104767Y-109764153D01*
X149101907Y-109777511D01*
X149092325Y-109871307D01*
X149092000Y-109877698D01*
X149092000Y-109916910D01*
X148150000Y-109916910D01*
X148150000Y-108176000D01*
X148166881Y-108113000D01*
X148213000Y-108066881D01*
X148276000Y-108050000D01*
X154374000Y-108050000D01*
X154437000Y-108066881D01*
G37*
%TD.AperFunction*%
%TD*%
%TA.AperFunction,Conductor*%
%TO.N,/Display Adapter/3v3*%
G36*
X168787000Y-115716881D02*
G01*
X168833119Y-115763000D01*
X168850000Y-115826000D01*
X168850000Y-119782718D01*
X168831241Y-119848865D01*
X168786735Y-119921018D01*
X168786730Y-119921026D01*
X168782885Y-119927262D01*
X168780578Y-119934223D01*
X168780577Y-119934226D01*
X168770318Y-119965185D01*
X168735837Y-120018448D01*
X168679771Y-120048154D01*
X168616336Y-120046769D01*
X168561619Y-120014645D01*
X168528532Y-119981558D01*
X168517091Y-119972511D01*
X168378767Y-119887192D01*
X168365564Y-119881035D01*
X168210846Y-119829767D01*
X168197488Y-119826907D01*
X168103692Y-119817325D01*
X168097303Y-119817000D01*
X168070590Y-119817000D01*
X168057506Y-119820506D01*
X168054000Y-119833590D01*
X168054000Y-123188000D01*
X168037119Y-123251000D01*
X167991000Y-123297119D01*
X167928000Y-123314000D01*
X167672000Y-123314000D01*
X167609000Y-123297119D01*
X167562881Y-123251000D01*
X167546000Y-123188000D01*
X167546000Y-119833590D01*
X167542493Y-119820506D01*
X167529410Y-119817000D01*
X167502697Y-119817000D01*
X167496307Y-119817325D01*
X167402511Y-119826907D01*
X167389153Y-119829767D01*
X167234435Y-119881035D01*
X167221232Y-119887192D01*
X167082908Y-119972511D01*
X167071467Y-119981558D01*
X167065095Y-119987931D01*
X167014936Y-120018669D01*
X166956289Y-120023285D01*
X166901939Y-120000772D01*
X166863733Y-119956039D01*
X166850000Y-119898836D01*
X166850000Y-118966590D01*
X166850000Y-118950000D01*
X166833410Y-118950000D01*
X163876000Y-118950000D01*
X163813000Y-118933119D01*
X163766881Y-118887000D01*
X163750000Y-118824000D01*
X163750000Y-115826000D01*
X163766881Y-115763000D01*
X163813000Y-115716881D01*
X163876000Y-115700000D01*
X168724000Y-115700000D01*
X168787000Y-115716881D01*
G37*
%TD.AperFunction*%
%TD*%
M02*
