%TF.GenerationSoftware,KiCad,Pcbnew,(7.0.0)*%
%TF.CreationDate,2023-05-21T02:13:25-07:00*%
%TF.ProjectId,epaper_photo_frame,65706170-6572-45f7-9068-6f746f5f6672,rev?*%
%TF.SameCoordinates,Original*%
%TF.FileFunction,Paste,Top*%
%TF.FilePolarity,Positive*%
%FSLAX46Y46*%
G04 Gerber Fmt 4.6, Leading zero omitted, Abs format (unit mm)*
G04 Created by KiCad (PCBNEW (7.0.0)) date 2023-05-21 02:13:25*
%MOMM*%
%LPD*%
G01*
G04 APERTURE LIST*
G04 Aperture macros list*
%AMRoundRect*
0 Rectangle with rounded corners*
0 $1 Rounding radius*
0 $2 $3 $4 $5 $6 $7 $8 $9 X,Y pos of 4 corners*
0 Add a 4 corners polygon primitive as box body*
4,1,4,$2,$3,$4,$5,$6,$7,$8,$9,$2,$3,0*
0 Add four circle primitives for the rounded corners*
1,1,$1+$1,$2,$3*
1,1,$1+$1,$4,$5*
1,1,$1+$1,$6,$7*
1,1,$1+$1,$8,$9*
0 Add four rect primitives between the rounded corners*
20,1,$1+$1,$2,$3,$4,$5,0*
20,1,$1+$1,$4,$5,$6,$7,0*
20,1,$1+$1,$6,$7,$8,$9,0*
20,1,$1+$1,$8,$9,$2,$3,0*%
G04 Aperture macros list end*
%ADD10RoundRect,0.250000X0.312500X0.625000X-0.312500X0.625000X-0.312500X-0.625000X0.312500X-0.625000X0*%
%ADD11R,1.900000X3.400000*%
%ADD12RoundRect,0.150000X0.587500X0.150000X-0.587500X0.150000X-0.587500X-0.150000X0.587500X-0.150000X0*%
%ADD13RoundRect,0.225000X0.250000X-0.225000X0.250000X0.225000X-0.250000X0.225000X-0.250000X-0.225000X0*%
%ADD14RoundRect,0.225000X-0.225000X-0.250000X0.225000X-0.250000X0.225000X0.250000X-0.225000X0.250000X0*%
%ADD15RoundRect,0.225000X-0.225000X-0.375000X0.225000X-0.375000X0.225000X0.375000X-0.225000X0.375000X0*%
%ADD16RoundRect,0.250000X0.250000X0.475000X-0.250000X0.475000X-0.250000X-0.475000X0.250000X-0.475000X0*%
%ADD17RoundRect,0.075000X-0.662500X-0.075000X0.662500X-0.075000X0.662500X0.075000X-0.662500X0.075000X0*%
%ADD18RoundRect,0.075000X-0.075000X-0.662500X0.075000X-0.662500X0.075000X0.662500X-0.075000X0.662500X0*%
%ADD19R,0.600000X0.200000*%
%ADD20R,0.500000X2.900000*%
%ADD21RoundRect,0.250000X1.075000X-0.312500X1.075000X0.312500X-1.075000X0.312500X-1.075000X-0.312500X0*%
%ADD22RoundRect,0.250000X0.262500X0.450000X-0.262500X0.450000X-0.262500X-0.450000X0.262500X-0.450000X0*%
%ADD23RoundRect,0.225000X-0.250000X0.225000X-0.250000X-0.225000X0.250000X-0.225000X0.250000X0.225000X0*%
%ADD24R,1.500000X0.800000*%
%ADD25R,1.400000X1.300000*%
%ADD26R,0.950000X1.000000*%
%ADD27R,1.900000X1.400000*%
%ADD28RoundRect,0.225000X0.225000X0.250000X-0.225000X0.250000X-0.225000X-0.250000X0.225000X-0.250000X0*%
%ADD29RoundRect,0.250000X0.475000X-0.250000X0.475000X0.250000X-0.475000X0.250000X-0.475000X-0.250000X0*%
%ADD30R,0.250000X1.100000*%
%ADD31R,1.700000X1.500000*%
%ADD32RoundRect,0.140000X-0.170000X0.140000X-0.170000X-0.140000X0.170000X-0.140000X0.170000X0.140000X0*%
%ADD33RoundRect,0.250000X-0.262500X-0.450000X0.262500X-0.450000X0.262500X0.450000X-0.262500X0.450000X0*%
%ADD34RoundRect,0.140000X0.170000X-0.140000X0.170000X0.140000X-0.170000X0.140000X-0.170000X-0.140000X0*%
%ADD35R,3.400000X1.900000*%
%ADD36RoundRect,0.250000X0.450000X-0.262500X0.450000X0.262500X-0.450000X0.262500X-0.450000X-0.262500X0*%
%ADD37RoundRect,0.225000X0.375000X-0.225000X0.375000X0.225000X-0.375000X0.225000X-0.375000X-0.225000X0*%
%ADD38RoundRect,0.147500X0.172500X-0.147500X0.172500X0.147500X-0.172500X0.147500X-0.172500X-0.147500X0*%
%ADD39RoundRect,0.225000X-0.375000X0.225000X-0.375000X-0.225000X0.375000X-0.225000X0.375000X0.225000X0*%
%ADD40RoundRect,0.135000X0.135000X0.185000X-0.135000X0.185000X-0.135000X-0.185000X0.135000X-0.185000X0*%
%ADD41RoundRect,0.250000X-0.450000X0.262500X-0.450000X-0.262500X0.450000X-0.262500X0.450000X0.262500X0*%
%ADD42R,0.600000X1.300000*%
%ADD43RoundRect,0.250000X-0.250000X-0.475000X0.250000X-0.475000X0.250000X0.475000X-0.250000X0.475000X0*%
%ADD44R,0.900000X0.200000*%
%ADD45R,0.200000X0.900000*%
%ADD46RoundRect,0.218750X-0.218750X-0.381250X0.218750X-0.381250X0.218750X0.381250X-0.218750X0.381250X0*%
%ADD47R,0.550000X0.300000*%
%ADD48R,0.500000X0.860000*%
%ADD49RoundRect,0.218750X-0.381250X0.218750X-0.381250X-0.218750X0.381250X-0.218750X0.381250X0.218750X0*%
%ADD50R,1.800000X1.000000*%
%ADD51RoundRect,0.250000X-0.475000X0.250000X-0.475000X-0.250000X0.475000X-0.250000X0.475000X0.250000X0*%
%ADD52R,1.250000X0.650000*%
%ADD53RoundRect,0.150000X0.150000X-0.587500X0.150000X0.587500X-0.150000X0.587500X-0.150000X-0.587500X0*%
%ADD54RoundRect,0.250000X-0.375000X-0.625000X0.375000X-0.625000X0.375000X0.625000X-0.375000X0.625000X0*%
G04 APERTURE END LIST*
D10*
%TO.C,R12*%
X143450000Y-78150000D03*
X140525000Y-78150000D03*
%TD*%
D11*
%TO.C,L1*%
X117649999Y-114199999D03*
X120949999Y-114199999D03*
%TD*%
D12*
%TO.C,Q1*%
X117437500Y-133200000D03*
X117437500Y-131300000D03*
X115562500Y-132250000D03*
%TD*%
D13*
%TO.C,C23*%
X145400000Y-127225000D03*
X145400000Y-125675000D03*
%TD*%
%TO.C,C37*%
X163900000Y-78575000D03*
X163900000Y-77025000D03*
%TD*%
%TO.C,C4*%
X147000000Y-127225000D03*
X147000000Y-125675000D03*
%TD*%
D14*
%TO.C,C35*%
X162625000Y-100700000D03*
X164175000Y-100700000D03*
%TD*%
D15*
%TO.C,D4*%
X117375000Y-117912500D03*
X120675000Y-117912500D03*
%TD*%
D16*
%TO.C,C17*%
X171600000Y-124900000D03*
X169700000Y-124900000D03*
%TD*%
D13*
%TO.C,C9*%
X132600000Y-124225000D03*
X132600000Y-122675000D03*
%TD*%
%TO.C,C18*%
X134750000Y-129975000D03*
X134750000Y-128425000D03*
%TD*%
D17*
%TO.C,U3*%
X135462500Y-100225000D03*
X135462500Y-100725000D03*
X135462500Y-101225000D03*
X135462500Y-101725000D03*
X135462500Y-102225000D03*
X135462500Y-102725000D03*
X135462500Y-103225000D03*
X135462500Y-103725000D03*
X135462500Y-104225000D03*
X135462500Y-104725000D03*
X135462500Y-105225000D03*
X135462500Y-105725000D03*
D18*
X136875000Y-107137500D03*
X137375000Y-107137500D03*
X137875000Y-107137500D03*
X138375000Y-107137500D03*
X138875000Y-107137500D03*
X139375000Y-107137500D03*
X139875000Y-107137500D03*
X140375000Y-107137500D03*
X140875000Y-107137500D03*
X141375000Y-107137500D03*
X141875000Y-107137500D03*
X142375000Y-107137500D03*
D17*
X143787500Y-105725000D03*
X143787500Y-105225000D03*
X143787500Y-104725000D03*
X143787500Y-104225000D03*
X143787500Y-103725000D03*
X143787500Y-103225000D03*
X143787500Y-102725000D03*
X143787500Y-102225000D03*
X143787500Y-101725000D03*
X143787500Y-101225000D03*
X143787500Y-100725000D03*
X143787500Y-100225000D03*
D18*
X142375000Y-98812500D03*
X141875000Y-98812500D03*
X141375000Y-98812500D03*
X140875000Y-98812500D03*
X140375000Y-98812500D03*
X139875000Y-98812500D03*
X139375000Y-98812500D03*
X138875000Y-98812500D03*
X138375000Y-98812500D03*
X137875000Y-98812500D03*
X137375000Y-98812500D03*
X136875000Y-98812500D03*
%TD*%
D19*
%TO.C,IC2*%
X164249999Y-105799999D03*
X164249999Y-105399999D03*
X164249999Y-104999999D03*
X164249999Y-104599999D03*
X164249999Y-104199999D03*
X164249999Y-103799999D03*
X164249999Y-103399999D03*
X164249999Y-102999999D03*
X162749999Y-102999999D03*
X162749999Y-103399999D03*
X162749999Y-103799999D03*
X162749999Y-104199999D03*
X162749999Y-104599999D03*
X162749999Y-104999999D03*
X162749999Y-105399999D03*
X162749999Y-105799999D03*
D20*
X163499999Y-104399999D03*
%TD*%
D21*
%TO.C,R10*%
X146300000Y-81062500D03*
X146300000Y-78137500D03*
%TD*%
D14*
%TO.C,C40*%
X136825000Y-96950000D03*
X138375000Y-96950000D03*
%TD*%
D13*
%TO.C,C24*%
X148550000Y-127225000D03*
X148550000Y-125675000D03*
%TD*%
D22*
%TO.C,R35*%
X171562500Y-122800000D03*
X169737500Y-122800000D03*
%TD*%
D13*
%TO.C,C6*%
X128275000Y-123800000D03*
X128275000Y-122250000D03*
%TD*%
D23*
%TO.C,C41*%
X143600000Y-107525000D03*
X143600000Y-109075000D03*
%TD*%
D24*
%TO.C,J1*%
X180459999Y-101484999D03*
X180059999Y-102584999D03*
X180459999Y-103684999D03*
X180659999Y-104784999D03*
X180459999Y-105884999D03*
X180659999Y-106984999D03*
X180459999Y-108084999D03*
X180459999Y-109184999D03*
D25*
X169599999Y-108374999D03*
D26*
X169374999Y-106984999D03*
D25*
X169599999Y-102674999D03*
D27*
X182749999Y-109974999D03*
X183749999Y-96824999D03*
%TD*%
D28*
%TO.C,C20*%
X115625000Y-114200000D03*
X114075000Y-114200000D03*
%TD*%
D13*
%TO.C,C5*%
X127300000Y-126925000D03*
X127300000Y-125375000D03*
%TD*%
%TO.C,C10*%
X134400000Y-125325000D03*
X134400000Y-123775000D03*
%TD*%
D29*
%TO.C,C14*%
X163250000Y-123650000D03*
X163250000Y-121750000D03*
%TD*%
D23*
%TO.C,C44*%
X133600000Y-104925000D03*
X133600000Y-106475000D03*
%TD*%
D30*
%TO.C,J4*%
X123749999Y-133899999D03*
X124249999Y-133899999D03*
X124749999Y-133899999D03*
X125249999Y-133899999D03*
X125749999Y-133899999D03*
X126249999Y-133899999D03*
X126749999Y-133899999D03*
X127249999Y-133899999D03*
X127749999Y-133899999D03*
X128249999Y-133899999D03*
X128749999Y-133899999D03*
X129249999Y-133899999D03*
X129749999Y-133899999D03*
X130249999Y-133899999D03*
X130749999Y-133899999D03*
X131249999Y-133899999D03*
X131749999Y-133899999D03*
X132249999Y-133899999D03*
X132749999Y-133899999D03*
X133249999Y-133899999D03*
X133749999Y-133899999D03*
X134249999Y-133899999D03*
X134749999Y-133899999D03*
X135249999Y-133899999D03*
X135749999Y-133899999D03*
X136249999Y-133899999D03*
X136749999Y-133899999D03*
X137249999Y-133899999D03*
X137749999Y-133899999D03*
X138249999Y-133899999D03*
X138749999Y-133899999D03*
X139249999Y-133899999D03*
X139749999Y-133899999D03*
X140249999Y-133899999D03*
X140749999Y-133899999D03*
X141249999Y-133899999D03*
X141749999Y-133899999D03*
X142249999Y-133899999D03*
X142749999Y-133899999D03*
X143249999Y-133899999D03*
X143749999Y-133899999D03*
X144249999Y-133899999D03*
X144749999Y-133899999D03*
X145249999Y-133899999D03*
X145749999Y-133899999D03*
X146249999Y-133899999D03*
X146749999Y-133899999D03*
X147249999Y-133899999D03*
X147749999Y-133899999D03*
X148249999Y-133899999D03*
D31*
X122099999Y-137799999D03*
X149899999Y-137799999D03*
%TD*%
D29*
%TO.C,C22*%
X137500000Y-89200000D03*
X137500000Y-87300000D03*
%TD*%
D32*
%TO.C,C32*%
X127900000Y-103120000D03*
X127900000Y-104080000D03*
%TD*%
D33*
%TO.C,R34*%
X169737500Y-120700000D03*
X171562500Y-120700000D03*
%TD*%
D28*
%TO.C,C28*%
X119200000Y-120812500D03*
X117650000Y-120812500D03*
%TD*%
D34*
%TO.C,C31*%
X127900000Y-100580000D03*
X127900000Y-99620000D03*
%TD*%
D12*
%TO.C,Q32*%
X152300000Y-115600000D03*
X152300000Y-113700000D03*
X150425000Y-114650000D03*
%TD*%
D35*
%TO.C,L2*%
X114124999Y-122112499D03*
X114124999Y-118812499D03*
%TD*%
D13*
%TO.C,C27*%
X153650000Y-129975000D03*
X153650000Y-128425000D03*
%TD*%
D33*
%TO.C,R36*%
X165237500Y-127000000D03*
X167062500Y-127000000D03*
%TD*%
D36*
%TO.C,R3*%
X127750000Y-119162500D03*
X127750000Y-117337500D03*
%TD*%
D37*
%TO.C,D1*%
X129950000Y-119200000D03*
X129950000Y-115900000D03*
%TD*%
D38*
%TO.C,L4*%
X130700000Y-106785000D03*
X130700000Y-105815000D03*
%TD*%
D36*
%TO.C,R5*%
X110625000Y-122625000D03*
X110625000Y-120800000D03*
%TD*%
D22*
%TO.C,R27*%
X163462500Y-125600000D03*
X161637500Y-125600000D03*
%TD*%
D36*
%TO.C,RB1*%
X153650000Y-133512500D03*
X153650000Y-131687500D03*
%TD*%
D13*
%TO.C,C30*%
X132400000Y-91175000D03*
X132400000Y-89625000D03*
%TD*%
%TO.C,C8*%
X130800000Y-123750000D03*
X130800000Y-122200000D03*
%TD*%
%TO.C,C11*%
X133100000Y-128875000D03*
X133100000Y-127325000D03*
%TD*%
%TO.C,C29*%
X150100000Y-127225000D03*
X150100000Y-125675000D03*
%TD*%
D36*
%TO.C,R11*%
X142900000Y-93000000D03*
X142900000Y-91175000D03*
%TD*%
D39*
%TO.C,D2*%
X123950000Y-122500000D03*
X123950000Y-125800000D03*
%TD*%
D29*
%TO.C,C34*%
X158350000Y-97525000D03*
X158350000Y-95625000D03*
%TD*%
D13*
%TO.C,C12*%
X125950000Y-119125000D03*
X125950000Y-117575000D03*
%TD*%
D22*
%TO.C,RA1*%
X118212500Y-139900000D03*
X116387500Y-139900000D03*
%TD*%
D40*
%TO.C,R7*%
X133910000Y-101900000D03*
X132890000Y-101900000D03*
%TD*%
D12*
%TO.C,Q31*%
X148237500Y-114700000D03*
X148237500Y-112800000D03*
X146362500Y-113750000D03*
%TD*%
D13*
%TO.C,C7*%
X129300000Y-126875000D03*
X129300000Y-125325000D03*
%TD*%
D22*
%TO.C,R1*%
X117412500Y-135050000D03*
X115587500Y-135050000D03*
%TD*%
D36*
%TO.C,R4*%
X116000000Y-126412500D03*
X116000000Y-124587500D03*
%TD*%
D41*
%TO.C,R33*%
X150300000Y-110187500D03*
X150300000Y-112012500D03*
%TD*%
D42*
%TO.C,Q2*%
X113849999Y-124549999D03*
X111949999Y-124549999D03*
X112899999Y-126649999D03*
%TD*%
D28*
%TO.C,C25*%
X147225000Y-129950000D03*
X145675000Y-129950000D03*
%TD*%
D14*
%TO.C,C39*%
X144225000Y-99000000D03*
X145775000Y-99000000D03*
%TD*%
D43*
%TO.C,C16*%
X165900000Y-121050000D03*
X167800000Y-121050000D03*
%TD*%
D13*
%TO.C,C42*%
X135000000Y-98950000D03*
X135000000Y-97400000D03*
%TD*%
D41*
%TO.C,R6*%
X139500000Y-89187500D03*
X139500000Y-91012500D03*
%TD*%
D13*
%TO.C,C21*%
X121850000Y-125825000D03*
X121850000Y-124275000D03*
%TD*%
D28*
%TO.C,C1*%
X118575000Y-137800000D03*
X117025000Y-137800000D03*
%TD*%
D44*
%TO.C,IC1*%
X134199999Y-87999999D03*
X134199999Y-88399999D03*
X134199999Y-88799999D03*
X134199999Y-89199999D03*
X134199999Y-89599999D03*
D45*
X134999999Y-89699999D03*
D44*
X135799999Y-89599999D03*
X135799999Y-89199999D03*
X135799999Y-88799999D03*
X135799999Y-88399999D03*
X135799999Y-87999999D03*
D45*
X134999999Y-87899999D03*
%TD*%
D46*
%TO.C,L3*%
X133937500Y-91700000D03*
X136062500Y-91700000D03*
%TD*%
D39*
%TO.C,D3*%
X123950000Y-117600000D03*
X123950000Y-120900000D03*
%TD*%
D28*
%TO.C,C26*%
X151475000Y-130800000D03*
X149925000Y-130800000D03*
%TD*%
D47*
%TO.C,U1*%
X156125048Y-97349999D03*
X156125048Y-96849999D03*
X154674950Y-96849999D03*
X154674950Y-97349999D03*
D48*
X155399999Y-97099999D03*
%TD*%
D14*
%TO.C,C38*%
X135200000Y-94000000D03*
X136750000Y-94000000D03*
%TD*%
D33*
%TO.C,R37*%
X161637500Y-127700000D03*
X163462500Y-127700000D03*
%TD*%
D28*
%TO.C,C36*%
X159887500Y-104387500D03*
X158337500Y-104387500D03*
%TD*%
D22*
%TO.C,R8*%
X153312500Y-98300000D03*
X151487500Y-98300000D03*
%TD*%
D21*
%TO.C,R9*%
X152400000Y-81062500D03*
X152400000Y-78137500D03*
%TD*%
D29*
%TO.C,C13*%
X132500000Y-87950000D03*
X132500000Y-86050000D03*
%TD*%
D23*
%TO.C,C19*%
X110200000Y-124525000D03*
X110200000Y-126075000D03*
%TD*%
D28*
%TO.C,C2*%
X114675000Y-139900000D03*
X113125000Y-139900000D03*
%TD*%
D49*
%TO.C,FB1*%
X135000000Y-84137500D03*
X135000000Y-86262500D03*
%TD*%
D50*
%TO.C,Y1*%
X130399999Y-100549999D03*
X130399999Y-103049999D03*
%TD*%
D23*
%TO.C,C43*%
X132000000Y-105825000D03*
X132000000Y-107375000D03*
%TD*%
D51*
%TO.C,C15*%
X152400000Y-110150000D03*
X152400000Y-112050000D03*
%TD*%
D29*
%TO.C,C33*%
X153100000Y-96450000D03*
X153100000Y-94550000D03*
%TD*%
D52*
%TO.C,U2*%
X165299999Y-123059999D03*
X165299999Y-123999999D03*
X165299999Y-124939999D03*
X167799999Y-124939999D03*
X167799999Y-123059999D03*
%TD*%
D53*
%TO.C,Q3*%
X126750000Y-84037500D03*
X128650000Y-84037500D03*
X127700000Y-82162500D03*
%TD*%
D23*
%TO.C,C3*%
X121850000Y-119975000D03*
X121850000Y-121525000D03*
%TD*%
D22*
%TO.C,R2*%
X117412500Y-129450000D03*
X115587500Y-129450000D03*
%TD*%
D54*
%TO.C,F1*%
X130400000Y-84100000D03*
X133200000Y-84100000D03*
%TD*%
M02*
