%TF.GenerationSoftware,KiCad,Pcbnew,(7.0.0)*%
%TF.CreationDate,2023-05-21T02:13:25-07:00*%
%TF.ProjectId,epaper_photo_frame,65706170-6572-45f7-9068-6f746f5f6672,rev?*%
%TF.SameCoordinates,Original*%
%TF.FileFunction,Copper,L3,Inr*%
%TF.FilePolarity,Positive*%
%FSLAX46Y46*%
G04 Gerber Fmt 4.6, Leading zero omitted, Abs format (unit mm)*
G04 Created by KiCad (PCBNEW (7.0.0)) date 2023-05-21 02:13:25*
%MOMM*%
%LPD*%
G01*
G04 APERTURE LIST*
G04 Aperture macros list*
%AMRoundRect*
0 Rectangle with rounded corners*
0 $1 Rounding radius*
0 $2 $3 $4 $5 $6 $7 $8 $9 X,Y pos of 4 corners*
0 Add a 4 corners polygon primitive as box body*
4,1,4,$2,$3,$4,$5,$6,$7,$8,$9,$2,$3,0*
0 Add four circle primitives for the rounded corners*
1,1,$1+$1,$2,$3*
1,1,$1+$1,$4,$5*
1,1,$1+$1,$6,$7*
1,1,$1+$1,$8,$9*
0 Add four rect primitives between the rounded corners*
20,1,$1+$1,$2,$3,$4,$5,0*
20,1,$1+$1,$4,$5,$6,$7,0*
20,1,$1+$1,$6,$7,$8,$9,0*
20,1,$1+$1,$8,$9,$2,$3,0*%
G04 Aperture macros list end*
%TA.AperFunction,ComponentPad*%
%ADD10R,1.800000X1.800000*%
%TD*%
%TA.AperFunction,ComponentPad*%
%ADD11C,1.800000*%
%TD*%
%TA.AperFunction,ComponentPad*%
%ADD12R,1.700000X1.700000*%
%TD*%
%TA.AperFunction,ComponentPad*%
%ADD13O,1.700000X1.700000*%
%TD*%
%TA.AperFunction,ComponentPad*%
%ADD14RoundRect,0.250000X-0.350000X-0.625000X0.350000X-0.625000X0.350000X0.625000X-0.350000X0.625000X0*%
%TD*%
%TA.AperFunction,ComponentPad*%
%ADD15O,1.200000X1.750000*%
%TD*%
%TA.AperFunction,ViaPad*%
%ADD16C,0.800000*%
%TD*%
%TA.AperFunction,Conductor*%
%ADD17C,0.300000*%
%TD*%
G04 APERTURE END LIST*
D10*
%TO.N,/MCU/LED_BUSY_OUT*%
%TO.C,D6*%
X146299999Y-83124999D03*
D11*
%TO.N,/MCU/LED_BUSY_IN*%
X146300000Y-85665000D03*
%TD*%
D12*
%TO.N,/Debug Connector/MCU_VDD*%
%TO.C,J2*%
X181724999Y-82224999D03*
D13*
X181724999Y-84764999D03*
%TO.N,unconnected-(J2-~{TRST}-Pad3)*%
X179184999Y-82224999D03*
%TO.N,GND*%
X179184999Y-84764999D03*
%TO.N,unconnected-(J2-TDI-Pad5)*%
X176644999Y-82224999D03*
%TO.N,GND*%
X176644999Y-84764999D03*
%TO.N,/Debug Connector/SWDIO*%
X174104999Y-82224999D03*
%TO.N,GND*%
X174104999Y-84764999D03*
%TO.N,/Debug Connector/SWDCLK*%
X171564999Y-82224999D03*
%TO.N,GND*%
X171564999Y-84764999D03*
%TO.N,unconnected-(J2-RTCK-Pad11)*%
X169024999Y-82224999D03*
%TO.N,GND*%
X169024999Y-84764999D03*
%TO.N,/Debug Connector/SWO*%
X166484999Y-82224999D03*
%TO.N,GND*%
X166484999Y-84764999D03*
%TO.N,/Debug Connector/NRST*%
X163944999Y-82224999D03*
%TO.N,GND*%
X163944999Y-84764999D03*
%TO.N,unconnected-(J2-DBGRQ{slash}NC-Pad17)*%
X161404999Y-82224999D03*
%TO.N,GND*%
X161404999Y-84764999D03*
%TO.N,unconnected-(J2-DBGACK{slash}NC-Pad19)*%
X158864999Y-82224999D03*
%TO.N,GND*%
X158864999Y-84764999D03*
%TD*%
D10*
%TO.N,/MCU/LED_ERR_OUT*%
%TO.C,D5*%
X152399999Y-83124999D03*
D11*
%TO.N,/MCU/LED_ERR_IN*%
X152400000Y-85665000D03*
%TD*%
D14*
%TO.N,GND*%
%TO.C,J3*%
X126400000Y-77150000D03*
D15*
%TO.N,/Power Supply/VBAT_IN*%
X128399999Y-77149999D03*
%TD*%
D16*
%TO.N,/Display Adapter/3v3*%
X167450000Y-116400000D03*
X166450000Y-118400000D03*
X166450000Y-116400000D03*
X135350000Y-137950000D03*
X164300000Y-116400000D03*
X165400000Y-116400000D03*
X108900000Y-125212500D03*
X168400000Y-118400000D03*
X117550000Y-127450000D03*
X166450000Y-117400000D03*
X164300000Y-117400000D03*
X114900000Y-112800000D03*
X167450000Y-118400000D03*
X167750000Y-119350000D03*
X168400000Y-116400000D03*
X168400000Y-117400000D03*
X167450000Y-117400000D03*
X165400000Y-118400000D03*
X164300000Y-118400000D03*
X143150000Y-129600000D03*
X165400000Y-117400000D03*
%TO.N,GND*%
X145350000Y-124450000D03*
X131050000Y-98850000D03*
X131200000Y-89200000D03*
X111900000Y-139650000D03*
X127900000Y-105000000D03*
X138300000Y-104700000D03*
X172900000Y-124900000D03*
X127000000Y-98700000D03*
X131000000Y-85800000D03*
X154600000Y-112700000D03*
X125800000Y-85500000D03*
X144800000Y-109000000D03*
X148550000Y-124500000D03*
X127600000Y-137800000D03*
X130800000Y-120850000D03*
X140750000Y-130450000D03*
X128550000Y-97400000D03*
X114850000Y-115650000D03*
X129000000Y-105250000D03*
X135000000Y-96200000D03*
X125650000Y-104100000D03*
X131850000Y-99450000D03*
X138000000Y-94000000D03*
X133950000Y-100350000D03*
X134450000Y-127000000D03*
X132650000Y-102900000D03*
X138550000Y-78150000D03*
X125650000Y-100950000D03*
X126700000Y-85500000D03*
X126450000Y-105950000D03*
X156000000Y-95700000D03*
X150100000Y-124450000D03*
X125800000Y-84600000D03*
X151500000Y-99700000D03*
X138400000Y-95700000D03*
X127300000Y-120650000D03*
X147000000Y-124450000D03*
X130150000Y-98450000D03*
X125900000Y-105100000D03*
X127000000Y-105000000D03*
X131000000Y-86700000D03*
X123950000Y-116350000D03*
X160350000Y-125600000D03*
X161650000Y-123650000D03*
X125650000Y-98850000D03*
X139000000Y-86800000D03*
X137600000Y-127200000D03*
X134150000Y-121300000D03*
X142800000Y-137800000D03*
X117625000Y-119612500D03*
X129400000Y-104350000D03*
X128400000Y-106100000D03*
X125650000Y-103050000D03*
X150200000Y-98300000D03*
X132000000Y-108600000D03*
X163100000Y-107800000D03*
X127000000Y-104100000D03*
X125650000Y-97800000D03*
X163400000Y-99500000D03*
X132550000Y-121200000D03*
X163850000Y-108450000D03*
X127550000Y-97400000D03*
X154850000Y-78150000D03*
X161650000Y-129250000D03*
X131200000Y-90100000D03*
X127400000Y-106100000D03*
X137400000Y-130200000D03*
X154600000Y-95000000D03*
X133600000Y-108600000D03*
X133600000Y-107700000D03*
X163500000Y-106800000D03*
X182600000Y-107000000D03*
X127000000Y-99600000D03*
X132950000Y-100350000D03*
X162600000Y-106800000D03*
X132900000Y-137850000D03*
X164600000Y-120250000D03*
X133800000Y-102850000D03*
X134200000Y-90400000D03*
X130350000Y-104350000D03*
X110200000Y-127212500D03*
X132200000Y-103900000D03*
X110600000Y-119500000D03*
X114337500Y-135000000D03*
X138750000Y-123800000D03*
X138400000Y-86100000D03*
X158400000Y-94400000D03*
X131300000Y-104350000D03*
X115775000Y-137812500D03*
X129200000Y-137800000D03*
X129350000Y-97900000D03*
X125650000Y-102000000D03*
X159800000Y-94400000D03*
X139000000Y-87700000D03*
X128250000Y-120850000D03*
X125950000Y-116350000D03*
X159800000Y-95600000D03*
X121850000Y-123050000D03*
X127600000Y-85500000D03*
X125650000Y-99900000D03*
X145900000Y-97800000D03*
X137500000Y-137900000D03*
X131950000Y-100450000D03*
X150200000Y-99700000D03*
X137400000Y-86100000D03*
X173000000Y-120700000D03*
X162100000Y-108400000D03*
X143450000Y-126950000D03*
X155400000Y-98500000D03*
X127900000Y-98700000D03*
X129550000Y-120850000D03*
X114337500Y-129400000D03*
X152200000Y-128400000D03*
X144600000Y-91687500D03*
X132800000Y-109100000D03*
X159212500Y-103187500D03*
X165400000Y-77300000D03*
X126550000Y-97400000D03*
%TO.N,/Micro SD/3v3*%
X159800000Y-97500000D03*
X163400000Y-101900000D03*
X161800000Y-97900000D03*
X161700000Y-97000000D03*
X159800000Y-98400000D03*
X161700000Y-98900000D03*
X160600000Y-96950000D03*
X158900000Y-105800000D03*
X182600000Y-104800000D03*
X160900000Y-97900000D03*
X160650000Y-98950000D03*
%TO.N,/Debug Connector/MCU_VDD*%
X148700000Y-110100000D03*
X150850000Y-108550000D03*
X142350000Y-88350000D03*
X141650000Y-89400000D03*
X140950000Y-88350000D03*
X136800000Y-95700000D03*
X140950000Y-86150000D03*
X140950000Y-87250000D03*
X142350000Y-87250000D03*
X138000000Y-91800000D03*
X149600000Y-108550000D03*
X142350000Y-86150000D03*
X144800000Y-107800000D03*
X144800000Y-97800000D03*
X153050000Y-108550000D03*
X153900000Y-109150000D03*
X154000000Y-110350000D03*
X134000000Y-94000000D03*
X130700000Y-107700000D03*
X129800000Y-107700000D03*
X151600000Y-96000000D03*
X151950000Y-108550000D03*
X148700000Y-109050000D03*
X133800000Y-98200000D03*
%TO.N,/Display Adapter/3v3_HPF*%
X111850000Y-131250000D03*
X120200000Y-122400000D03*
%TO.N,/Display Adapter/EPD_RST*%
X136900000Y-126450000D03*
X136350000Y-129750000D03*
X155450000Y-124300000D03*
%TO.N,/Display Adapter/EPD_BUSY*%
X138250000Y-124800000D03*
X137750000Y-131250000D03*
%TO.N,/Display Adapter/EPD_DC*%
X138300000Y-135350000D03*
X140950000Y-129150000D03*
%TO.N,/Display Adapter/EPD_CS*%
X142150000Y-126950000D03*
X139850000Y-135400000D03*
%TO.N,/Display Adapter/VGH*%
X127600000Y-115700000D03*
X144400000Y-117950000D03*
%TO.N,/MCU/BOOT0*%
X141150000Y-92187500D03*
X139250000Y-101100000D03*
%TO.N,/Debug Connector/NRST*%
X162000000Y-78600000D03*
X140800000Y-103200000D03*
%TD*%
D17*
%TO.N,GND*%
X124950000Y-96950000D02*
X124200000Y-96950000D01*
%TD*%
%TA.AperFunction,Conductor*%
%TO.N,GND*%
G36*
X132337000Y-96416881D02*
G01*
X132383119Y-96463000D01*
X132400000Y-96526000D01*
X132400000Y-99500000D01*
X132400000Y-99900000D01*
X134274000Y-99900000D01*
X134337000Y-99916881D01*
X134383119Y-99963000D01*
X134400000Y-100026000D01*
X134400000Y-101050000D01*
X136174000Y-101050000D01*
X136237000Y-101066881D01*
X136283119Y-101113000D01*
X136300000Y-101176000D01*
X136300000Y-101774000D01*
X136283119Y-101837000D01*
X136237000Y-101883119D01*
X136174000Y-101900000D01*
X134400000Y-101900000D01*
X134400000Y-101916590D01*
X134400000Y-103224000D01*
X134383119Y-103287000D01*
X134337000Y-103333119D01*
X134274000Y-103350000D01*
X132650000Y-103350000D01*
X132650000Y-103366590D01*
X132650000Y-104259184D01*
X132639236Y-104310141D01*
X132608783Y-104352392D01*
X132563845Y-104378718D01*
X131751386Y-104649538D01*
X131748596Y-104650432D01*
X131116191Y-104845017D01*
X131083072Y-104850528D01*
X129516242Y-104899492D01*
X129516240Y-104899492D01*
X129500000Y-104900000D01*
X129500000Y-104916257D01*
X129500000Y-105564668D01*
X129481629Y-105630181D01*
X128836818Y-106689513D01*
X128790920Y-106733842D01*
X128729189Y-106750000D01*
X128300000Y-106750000D01*
X124976000Y-106750000D01*
X124913000Y-106733119D01*
X124866881Y-106687000D01*
X124850000Y-106624000D01*
X124850000Y-96526000D01*
X124866881Y-96463000D01*
X124913000Y-96416881D01*
X124976000Y-96400000D01*
X132274000Y-96400000D01*
X132337000Y-96416881D01*
G37*
%TD.AperFunction*%
%TA.AperFunction,Conductor*%
G36*
X181253093Y-72200652D02*
G01*
X181309812Y-72203438D01*
X181586833Y-72217047D01*
X181599128Y-72218258D01*
X181926602Y-72266834D01*
X181938709Y-72269242D01*
X182259851Y-72349684D01*
X182271669Y-72353268D01*
X182583390Y-72464804D01*
X182594780Y-72469522D01*
X182747970Y-72541976D01*
X182894058Y-72611071D01*
X182904963Y-72616900D01*
X183188911Y-72787091D01*
X183199192Y-72793961D01*
X183465086Y-72991162D01*
X183474644Y-72999006D01*
X183719939Y-73221328D01*
X183728677Y-73230066D01*
X183950993Y-73475355D01*
X183958837Y-73484913D01*
X184156038Y-73750807D01*
X184162908Y-73761088D01*
X184333099Y-74045036D01*
X184338928Y-74055941D01*
X184480473Y-74355211D01*
X184485198Y-74366620D01*
X184585428Y-74646740D01*
X184596726Y-74678316D01*
X184600315Y-74690148D01*
X184680754Y-75011277D01*
X184683166Y-75023405D01*
X184731740Y-75350865D01*
X184732952Y-75363170D01*
X184749348Y-75696906D01*
X184749500Y-75703089D01*
X184749500Y-137646911D01*
X184749348Y-137653094D01*
X184732952Y-137986829D01*
X184731740Y-137999134D01*
X184683166Y-138326594D01*
X184680754Y-138338722D01*
X184600315Y-138659851D01*
X184596726Y-138671683D01*
X184556728Y-138783469D01*
X184504096Y-138930568D01*
X184485205Y-138983364D01*
X184480473Y-138994788D01*
X184338928Y-139294058D01*
X184333099Y-139304963D01*
X184162908Y-139588911D01*
X184156038Y-139599192D01*
X183958837Y-139865086D01*
X183950993Y-139874644D01*
X183728677Y-140119933D01*
X183719933Y-140128677D01*
X183474644Y-140350993D01*
X183465086Y-140358837D01*
X183199192Y-140556038D01*
X183188911Y-140562908D01*
X182904963Y-140733099D01*
X182894058Y-140738928D01*
X182594788Y-140880473D01*
X182583372Y-140885201D01*
X182383468Y-140956728D01*
X182271683Y-140996726D01*
X182259851Y-141000315D01*
X181938722Y-141080754D01*
X181926594Y-141083166D01*
X181599134Y-141131740D01*
X181586829Y-141132952D01*
X181253094Y-141149348D01*
X181246911Y-141149500D01*
X105803089Y-141149500D01*
X105796906Y-141149348D01*
X105463170Y-141132952D01*
X105450865Y-141131740D01*
X105123405Y-141083166D01*
X105111277Y-141080754D01*
X104790148Y-141000315D01*
X104778316Y-140996726D01*
X104466620Y-140885198D01*
X104455211Y-140880473D01*
X104155941Y-140738928D01*
X104145036Y-140733099D01*
X103861088Y-140562908D01*
X103850807Y-140556038D01*
X103584913Y-140358837D01*
X103575355Y-140350993D01*
X103452710Y-140239834D01*
X103330060Y-140128671D01*
X103321328Y-140119939D01*
X103099006Y-139874644D01*
X103091162Y-139865086D01*
X102893961Y-139599192D01*
X102887091Y-139588911D01*
X102884518Y-139584619D01*
X102716900Y-139304963D01*
X102711071Y-139294058D01*
X102633738Y-139130552D01*
X102569522Y-138994780D01*
X102564804Y-138983390D01*
X102453268Y-138671669D01*
X102449684Y-138659851D01*
X102441923Y-138628866D01*
X102369242Y-138338709D01*
X102366833Y-138326594D01*
X102365153Y-138315271D01*
X102318258Y-137999128D01*
X102317047Y-137986828D01*
X102315560Y-137956565D01*
X102303438Y-137709812D01*
X102300652Y-137653093D01*
X102300576Y-137650000D01*
X103844518Y-137650000D01*
X103844839Y-137654488D01*
X103864100Y-137923802D01*
X103864101Y-137923812D01*
X103864422Y-137928294D01*
X103865379Y-137932697D01*
X103865380Y-137932698D01*
X103877155Y-137986829D01*
X103923729Y-138200923D01*
X103925303Y-138205143D01*
X104019657Y-138458119D01*
X104019661Y-138458128D01*
X104021231Y-138462337D01*
X104023386Y-138466284D01*
X104023389Y-138466290D01*
X104109481Y-138623955D01*
X104154944Y-138707213D01*
X104157640Y-138710815D01*
X104157643Y-138710819D01*
X104238472Y-138818794D01*
X104322145Y-138930568D01*
X104519432Y-139127855D01*
X104742787Y-139295056D01*
X104987663Y-139428769D01*
X105249077Y-139526271D01*
X105521706Y-139585578D01*
X105730343Y-139600500D01*
X105867400Y-139600500D01*
X105869657Y-139600500D01*
X106078294Y-139585578D01*
X106350923Y-139526271D01*
X106612337Y-139428769D01*
X106857213Y-139295056D01*
X107080568Y-139127855D01*
X107277855Y-138930568D01*
X107445056Y-138707213D01*
X107578769Y-138462337D01*
X107676271Y-138200923D01*
X107730856Y-137950000D01*
X134436496Y-137950000D01*
X134456458Y-138139928D01*
X134458495Y-138146200D01*
X134458497Y-138146205D01*
X134513430Y-138315271D01*
X134513433Y-138315278D01*
X134515473Y-138321556D01*
X134610960Y-138486944D01*
X134738747Y-138628866D01*
X134893248Y-138741118D01*
X135067712Y-138818794D01*
X135254513Y-138858500D01*
X135438884Y-138858500D01*
X135445487Y-138858500D01*
X135632288Y-138818794D01*
X135806752Y-138741118D01*
X135961253Y-138628866D01*
X136089040Y-138486944D01*
X136184527Y-138321556D01*
X136243542Y-138139928D01*
X136263504Y-137950000D01*
X136243542Y-137760072D01*
X136209235Y-137654488D01*
X136207777Y-137650000D01*
X179294518Y-137650000D01*
X179294839Y-137654488D01*
X179314100Y-137923802D01*
X179314101Y-137923812D01*
X179314422Y-137928294D01*
X179315379Y-137932697D01*
X179315380Y-137932698D01*
X179327155Y-137986829D01*
X179373729Y-138200923D01*
X179375303Y-138205143D01*
X179469657Y-138458119D01*
X179469661Y-138458128D01*
X179471231Y-138462337D01*
X179473386Y-138466284D01*
X179473389Y-138466290D01*
X179559481Y-138623955D01*
X179604944Y-138707213D01*
X179607640Y-138710815D01*
X179607643Y-138710819D01*
X179688472Y-138818794D01*
X179772145Y-138930568D01*
X179969432Y-139127855D01*
X180192787Y-139295056D01*
X180437663Y-139428769D01*
X180699077Y-139526271D01*
X180971706Y-139585578D01*
X181180343Y-139600500D01*
X181317400Y-139600500D01*
X181319657Y-139600500D01*
X181528294Y-139585578D01*
X181800923Y-139526271D01*
X182062337Y-139428769D01*
X182307213Y-139295056D01*
X182530568Y-139127855D01*
X182727855Y-138930568D01*
X182895056Y-138707213D01*
X183028769Y-138462337D01*
X183126271Y-138200923D01*
X183185578Y-137928294D01*
X183205482Y-137650000D01*
X183185578Y-137371706D01*
X183126271Y-137099077D01*
X183028769Y-136837663D01*
X182895056Y-136592787D01*
X182727855Y-136369432D01*
X182530568Y-136172145D01*
X182405962Y-136078866D01*
X182310819Y-136007643D01*
X182310815Y-136007640D01*
X182307213Y-136004944D01*
X182254203Y-135975998D01*
X182066290Y-135873389D01*
X182066284Y-135873386D01*
X182062337Y-135871231D01*
X182058128Y-135869661D01*
X182058119Y-135869657D01*
X181805143Y-135775303D01*
X181800923Y-135773729D01*
X181796520Y-135772771D01*
X181796516Y-135772770D01*
X181532698Y-135715380D01*
X181532697Y-135715379D01*
X181528294Y-135714422D01*
X181523812Y-135714101D01*
X181523802Y-135714100D01*
X181321907Y-135699660D01*
X181321881Y-135699659D01*
X181319657Y-135699500D01*
X181180343Y-135699500D01*
X181178119Y-135699659D01*
X181178092Y-135699660D01*
X180976197Y-135714100D01*
X180976185Y-135714101D01*
X180971706Y-135714422D01*
X180967304Y-135715379D01*
X180967301Y-135715380D01*
X180703483Y-135772770D01*
X180703476Y-135772772D01*
X180699077Y-135773729D01*
X180694860Y-135775301D01*
X180694856Y-135775303D01*
X180441880Y-135869657D01*
X180441866Y-135869663D01*
X180437663Y-135871231D01*
X180433720Y-135873383D01*
X180433709Y-135873389D01*
X180196740Y-136002785D01*
X180196734Y-136002788D01*
X180192787Y-136004944D01*
X180189190Y-136007635D01*
X180189180Y-136007643D01*
X179973035Y-136169447D01*
X179973027Y-136169453D01*
X179969432Y-136172145D01*
X179966253Y-136175323D01*
X179966246Y-136175330D01*
X179775330Y-136366246D01*
X179775323Y-136366253D01*
X179772145Y-136369432D01*
X179769453Y-136373027D01*
X179769447Y-136373035D01*
X179607643Y-136589180D01*
X179607635Y-136589190D01*
X179604944Y-136592787D01*
X179602788Y-136596734D01*
X179602785Y-136596740D01*
X179473389Y-136833709D01*
X179473383Y-136833720D01*
X179471231Y-136837663D01*
X179469663Y-136841866D01*
X179469657Y-136841880D01*
X179379393Y-137083891D01*
X179373729Y-137099077D01*
X179372772Y-137103476D01*
X179372770Y-137103483D01*
X179337145Y-137267250D01*
X179314422Y-137371706D01*
X179314101Y-137376185D01*
X179314100Y-137376197D01*
X179300045Y-137572721D01*
X179294518Y-137650000D01*
X136207777Y-137650000D01*
X136186569Y-137584728D01*
X136186568Y-137584726D01*
X136184527Y-137578444D01*
X136089040Y-137413056D01*
X135961253Y-137271134D01*
X135955911Y-137267253D01*
X135955908Y-137267250D01*
X135878057Y-137210688D01*
X135806752Y-137158882D01*
X135632288Y-137081206D01*
X135625835Y-137079834D01*
X135625831Y-137079833D01*
X135451943Y-137042872D01*
X135451940Y-137042871D01*
X135445487Y-137041500D01*
X135254513Y-137041500D01*
X135248060Y-137042871D01*
X135248056Y-137042872D01*
X135074168Y-137079833D01*
X135074161Y-137079835D01*
X135067712Y-137081206D01*
X135061682Y-137083890D01*
X135061681Y-137083891D01*
X134899278Y-137156197D01*
X134899275Y-137156198D01*
X134893248Y-137158882D01*
X134887907Y-137162762D01*
X134887906Y-137162763D01*
X134744091Y-137267250D01*
X134744083Y-137267256D01*
X134738747Y-137271134D01*
X134734330Y-137276039D01*
X134734325Y-137276044D01*
X134644148Y-137376197D01*
X134610960Y-137413056D01*
X134607661Y-137418769D01*
X134607658Y-137418774D01*
X134518777Y-137572721D01*
X134515473Y-137578444D01*
X134513434Y-137584718D01*
X134513430Y-137584728D01*
X134458497Y-137753794D01*
X134458495Y-137753801D01*
X134456458Y-137760072D01*
X134436496Y-137950000D01*
X107730856Y-137950000D01*
X107735578Y-137928294D01*
X107755482Y-137650000D01*
X107735578Y-137371706D01*
X107676271Y-137099077D01*
X107578769Y-136837663D01*
X107445056Y-136592787D01*
X107277855Y-136369432D01*
X107080568Y-136172145D01*
X106955962Y-136078866D01*
X106860819Y-136007643D01*
X106860815Y-136007640D01*
X106857213Y-136004944D01*
X106804203Y-135975998D01*
X106616290Y-135873389D01*
X106616284Y-135873386D01*
X106612337Y-135871231D01*
X106608128Y-135869661D01*
X106608119Y-135869657D01*
X106355143Y-135775303D01*
X106350923Y-135773729D01*
X106346520Y-135772771D01*
X106346516Y-135772770D01*
X106082698Y-135715380D01*
X106082697Y-135715379D01*
X106078294Y-135714422D01*
X106073812Y-135714101D01*
X106073802Y-135714100D01*
X105871907Y-135699660D01*
X105871881Y-135699659D01*
X105869657Y-135699500D01*
X105730343Y-135699500D01*
X105728119Y-135699659D01*
X105728092Y-135699660D01*
X105526197Y-135714100D01*
X105526185Y-135714101D01*
X105521706Y-135714422D01*
X105517304Y-135715379D01*
X105517301Y-135715380D01*
X105253483Y-135772770D01*
X105253476Y-135772772D01*
X105249077Y-135773729D01*
X105244860Y-135775301D01*
X105244856Y-135775303D01*
X104991880Y-135869657D01*
X104991866Y-135869663D01*
X104987663Y-135871231D01*
X104983720Y-135873383D01*
X104983709Y-135873389D01*
X104746740Y-136002785D01*
X104746734Y-136002788D01*
X104742787Y-136004944D01*
X104739190Y-136007635D01*
X104739180Y-136007643D01*
X104523035Y-136169447D01*
X104523027Y-136169453D01*
X104519432Y-136172145D01*
X104516253Y-136175323D01*
X104516246Y-136175330D01*
X104325330Y-136366246D01*
X104325323Y-136366253D01*
X104322145Y-136369432D01*
X104319453Y-136373027D01*
X104319447Y-136373035D01*
X104157643Y-136589180D01*
X104157635Y-136589190D01*
X104154944Y-136592787D01*
X104152788Y-136596734D01*
X104152785Y-136596740D01*
X104023389Y-136833709D01*
X104023383Y-136833720D01*
X104021231Y-136837663D01*
X104019663Y-136841866D01*
X104019657Y-136841880D01*
X103929393Y-137083891D01*
X103923729Y-137099077D01*
X103922772Y-137103476D01*
X103922770Y-137103483D01*
X103887145Y-137267250D01*
X103864422Y-137371706D01*
X103864101Y-137376185D01*
X103864100Y-137376197D01*
X103850045Y-137572721D01*
X103844518Y-137650000D01*
X102300576Y-137650000D01*
X102300500Y-137646911D01*
X102300500Y-135350000D01*
X137386496Y-135350000D01*
X137406458Y-135539928D01*
X137408495Y-135546200D01*
X137408497Y-135546205D01*
X137463430Y-135715271D01*
X137463433Y-135715278D01*
X137465473Y-135721556D01*
X137560960Y-135886944D01*
X137688747Y-136028866D01*
X137843248Y-136141118D01*
X138017712Y-136218794D01*
X138204513Y-136258500D01*
X138388884Y-136258500D01*
X138395487Y-136258500D01*
X138582288Y-136218794D01*
X138756752Y-136141118D01*
X138911253Y-136028866D01*
X138958857Y-135975996D01*
X139017757Y-135939190D01*
X139087219Y-135939190D01*
X139146123Y-135975997D01*
X139238747Y-136078866D01*
X139393248Y-136191118D01*
X139567712Y-136268794D01*
X139754513Y-136308500D01*
X139938884Y-136308500D01*
X139945487Y-136308500D01*
X140132288Y-136268794D01*
X140306752Y-136191118D01*
X140461253Y-136078866D01*
X140589040Y-135936944D01*
X140684527Y-135771556D01*
X140743542Y-135589928D01*
X140763504Y-135400000D01*
X140743542Y-135210072D01*
X140718297Y-135132379D01*
X140686569Y-135034728D01*
X140686568Y-135034726D01*
X140684527Y-135028444D01*
X140589040Y-134863056D01*
X140461253Y-134721134D01*
X140455911Y-134717253D01*
X140455908Y-134717250D01*
X140343570Y-134635632D01*
X140306752Y-134608882D01*
X140132288Y-134531206D01*
X140125835Y-134529834D01*
X140125831Y-134529833D01*
X139951943Y-134492872D01*
X139951940Y-134492871D01*
X139945487Y-134491500D01*
X139754513Y-134491500D01*
X139748060Y-134492871D01*
X139748056Y-134492872D01*
X139574168Y-134529833D01*
X139574161Y-134529835D01*
X139567712Y-134531206D01*
X139561682Y-134533890D01*
X139561681Y-134533891D01*
X139399278Y-134606197D01*
X139399275Y-134606198D01*
X139393248Y-134608882D01*
X139387907Y-134612762D01*
X139387906Y-134612763D01*
X139244091Y-134717250D01*
X139244083Y-134717256D01*
X139238747Y-134721134D01*
X139234332Y-134726037D01*
X139234329Y-134726040D01*
X139213289Y-134749408D01*
X139191144Y-134774001D01*
X139132240Y-134810809D01*
X139062780Y-134810809D01*
X139003874Y-134774000D01*
X138915674Y-134676044D01*
X138915673Y-134676043D01*
X138911253Y-134671134D01*
X138905911Y-134667253D01*
X138905908Y-134667250D01*
X138805832Y-134594541D01*
X138756752Y-134558882D01*
X138582288Y-134481206D01*
X138575835Y-134479834D01*
X138575831Y-134479833D01*
X138401943Y-134442872D01*
X138401940Y-134442871D01*
X138395487Y-134441500D01*
X138204513Y-134441500D01*
X138198060Y-134442871D01*
X138198056Y-134442872D01*
X138024168Y-134479833D01*
X138024161Y-134479835D01*
X138017712Y-134481206D01*
X138011682Y-134483890D01*
X138011681Y-134483891D01*
X137849278Y-134556197D01*
X137849275Y-134556198D01*
X137843248Y-134558882D01*
X137837907Y-134562762D01*
X137837906Y-134562763D01*
X137694091Y-134667250D01*
X137694083Y-134667256D01*
X137688747Y-134671134D01*
X137684330Y-134676039D01*
X137684325Y-134676044D01*
X137576501Y-134795796D01*
X137560960Y-134813056D01*
X137557661Y-134818769D01*
X137557658Y-134818774D01*
X137469174Y-134972034D01*
X137465473Y-134978444D01*
X137463434Y-134984718D01*
X137463430Y-134984728D01*
X137408497Y-135153794D01*
X137408495Y-135153801D01*
X137406458Y-135160072D01*
X137386496Y-135350000D01*
X102300500Y-135350000D01*
X102300500Y-134183531D01*
X108718739Y-134183531D01*
X108720262Y-134195101D01*
X108720262Y-134195107D01*
X108723926Y-134222934D01*
X108724821Y-134232589D01*
X108726963Y-134272280D01*
X108731177Y-134281630D01*
X108732785Y-134290228D01*
X108742695Y-134365496D01*
X108743739Y-134379033D01*
X108744505Y-134412178D01*
X108748972Y-134422962D01*
X108748973Y-134422967D01*
X108759711Y-134448891D01*
X108763073Y-134457982D01*
X108771793Y-134484679D01*
X108771796Y-134484685D01*
X108775419Y-134495776D01*
X108781910Y-134503717D01*
X108785689Y-134511608D01*
X108811499Y-134573921D01*
X108814738Y-134581739D01*
X108819249Y-134594541D01*
X108824585Y-134612763D01*
X108828570Y-134626367D01*
X108835678Y-134635630D01*
X108835679Y-134635632D01*
X108852763Y-134657896D01*
X108858366Y-134665811D01*
X108873690Y-134689329D01*
X108873693Y-134689332D01*
X108880067Y-134699114D01*
X108888394Y-134705105D01*
X108894081Y-134711743D01*
X108940305Y-134771984D01*
X108947968Y-134783171D01*
X108959139Y-134801528D01*
X108959140Y-134801530D01*
X108965209Y-134811501D01*
X108974470Y-134818607D01*
X108974471Y-134818608D01*
X108996745Y-134835699D01*
X109004205Y-134841894D01*
X109033778Y-134868440D01*
X109043375Y-134872073D01*
X109050580Y-134877008D01*
X109080987Y-134900340D01*
X109110811Y-134923225D01*
X109121111Y-134932049D01*
X109145107Y-134954961D01*
X109155894Y-134959429D01*
X109181849Y-134970180D01*
X109190643Y-134974225D01*
X109226079Y-134992212D01*
X109236288Y-134993237D01*
X109244506Y-134996133D01*
X109314673Y-135025196D01*
X109326904Y-135031053D01*
X109356004Y-135046970D01*
X109395410Y-135052157D01*
X109404960Y-135053790D01*
X109443860Y-135061996D01*
X109453983Y-135060344D01*
X109462697Y-135061016D01*
X109470141Y-135061996D01*
X109537962Y-135070925D01*
X109551301Y-135073419D01*
X109572007Y-135078456D01*
X109583531Y-135081261D01*
X109622963Y-135076069D01*
X109632586Y-135075178D01*
X109672279Y-135073037D01*
X109681633Y-135068819D01*
X109690218Y-135067214D01*
X109765497Y-135057303D01*
X109779034Y-135056260D01*
X109812178Y-135055495D01*
X109848921Y-135040274D01*
X109857972Y-135036927D01*
X109895776Y-135024581D01*
X109903722Y-135018084D01*
X109911587Y-135014318D01*
X109981756Y-134985254D01*
X109994524Y-134980755D01*
X110026367Y-134971430D01*
X110057921Y-134947216D01*
X110065814Y-134941629D01*
X110099114Y-134919933D01*
X110105106Y-134911603D01*
X110111727Y-134905930D01*
X110171989Y-134859689D01*
X110183162Y-134852036D01*
X110211501Y-134834791D01*
X110235690Y-134803266D01*
X110241892Y-134795796D01*
X110260638Y-134774913D01*
X110268440Y-134766222D01*
X110272073Y-134756622D01*
X110277016Y-134749408D01*
X110323221Y-134689193D01*
X110332048Y-134678889D01*
X110354961Y-134654893D01*
X110370190Y-134618123D01*
X110374221Y-134609365D01*
X110392212Y-134573921D01*
X110393237Y-134563710D01*
X110396130Y-134555498D01*
X110425197Y-134485322D01*
X110431057Y-134473088D01*
X110441367Y-134454239D01*
X110446970Y-134443996D01*
X110452161Y-134404559D01*
X110453789Y-134395043D01*
X110461996Y-134356140D01*
X110460343Y-134346010D01*
X110461014Y-134337310D01*
X110470927Y-134262019D01*
X110473417Y-134248700D01*
X110481261Y-134216468D01*
X110476923Y-134183531D01*
X176168739Y-134183531D01*
X176170262Y-134195101D01*
X176170262Y-134195107D01*
X176173926Y-134222934D01*
X176174821Y-134232589D01*
X176176963Y-134272280D01*
X176181177Y-134281630D01*
X176182785Y-134290228D01*
X176192695Y-134365496D01*
X176193739Y-134379033D01*
X176194505Y-134412178D01*
X176198972Y-134422962D01*
X176198973Y-134422967D01*
X176209711Y-134448891D01*
X176213073Y-134457982D01*
X176221793Y-134484679D01*
X176221796Y-134484685D01*
X176225419Y-134495776D01*
X176231910Y-134503717D01*
X176235689Y-134511608D01*
X176261499Y-134573921D01*
X176264738Y-134581739D01*
X176269249Y-134594541D01*
X176274585Y-134612763D01*
X176278570Y-134626367D01*
X176285678Y-134635630D01*
X176285679Y-134635632D01*
X176302763Y-134657896D01*
X176308366Y-134665811D01*
X176323690Y-134689329D01*
X176323693Y-134689332D01*
X176330067Y-134699114D01*
X176338394Y-134705105D01*
X176344081Y-134711743D01*
X176390305Y-134771984D01*
X176397968Y-134783171D01*
X176409139Y-134801528D01*
X176409140Y-134801530D01*
X176415209Y-134811501D01*
X176424470Y-134818607D01*
X176424471Y-134818608D01*
X176446745Y-134835699D01*
X176454205Y-134841894D01*
X176483778Y-134868440D01*
X176493375Y-134872073D01*
X176500580Y-134877008D01*
X176530987Y-134900340D01*
X176560811Y-134923225D01*
X176571111Y-134932049D01*
X176595107Y-134954961D01*
X176605894Y-134959429D01*
X176631849Y-134970180D01*
X176640643Y-134974225D01*
X176676079Y-134992212D01*
X176686288Y-134993237D01*
X176694506Y-134996133D01*
X176764673Y-135025196D01*
X176776904Y-135031053D01*
X176806004Y-135046970D01*
X176845410Y-135052157D01*
X176854960Y-135053790D01*
X176893860Y-135061996D01*
X176903983Y-135060344D01*
X176912697Y-135061016D01*
X176920141Y-135061996D01*
X176987962Y-135070925D01*
X177001301Y-135073419D01*
X177022007Y-135078456D01*
X177033531Y-135081261D01*
X177072963Y-135076069D01*
X177082586Y-135075178D01*
X177122279Y-135073037D01*
X177131633Y-135068819D01*
X177140218Y-135067214D01*
X177215497Y-135057303D01*
X177229034Y-135056260D01*
X177262178Y-135055495D01*
X177298921Y-135040274D01*
X177307972Y-135036927D01*
X177345776Y-135024581D01*
X177353722Y-135018084D01*
X177361587Y-135014318D01*
X177431756Y-134985254D01*
X177444524Y-134980755D01*
X177476367Y-134971430D01*
X177507921Y-134947216D01*
X177515814Y-134941629D01*
X177549114Y-134919933D01*
X177555106Y-134911603D01*
X177561727Y-134905930D01*
X177621989Y-134859689D01*
X177633162Y-134852036D01*
X177661501Y-134834791D01*
X177685690Y-134803266D01*
X177691892Y-134795796D01*
X177710638Y-134774913D01*
X177718440Y-134766222D01*
X177722073Y-134756622D01*
X177727016Y-134749408D01*
X177773221Y-134689193D01*
X177782048Y-134678889D01*
X177804961Y-134654893D01*
X177820190Y-134618123D01*
X177824221Y-134609365D01*
X177842212Y-134573921D01*
X177843237Y-134563710D01*
X177846130Y-134555498D01*
X177875197Y-134485322D01*
X177881057Y-134473088D01*
X177891367Y-134454239D01*
X177896970Y-134443996D01*
X177902161Y-134404559D01*
X177903789Y-134395043D01*
X177911996Y-134356140D01*
X177910343Y-134346010D01*
X177911014Y-134337310D01*
X177920927Y-134262019D01*
X177923417Y-134248700D01*
X177931261Y-134216468D01*
X177926070Y-134177050D01*
X177925176Y-134167388D01*
X177923666Y-134139386D01*
X177923037Y-134127721D01*
X177918818Y-134118364D01*
X177917214Y-134109782D01*
X177907305Y-134034507D01*
X177906261Y-134020969D01*
X177905765Y-133999494D01*
X177905496Y-133987822D01*
X177892317Y-133956004D01*
X177890283Y-133951093D01*
X177886919Y-133941997D01*
X177880044Y-133920949D01*
X177874581Y-133904223D01*
X177868087Y-133896279D01*
X177864310Y-133888392D01*
X177835262Y-133818262D01*
X177830749Y-133805456D01*
X177821430Y-133773633D01*
X177814323Y-133764371D01*
X177814321Y-133764367D01*
X177797228Y-133742092D01*
X177791630Y-133734185D01*
X177769933Y-133700886D01*
X177761606Y-133694894D01*
X177755920Y-133688257D01*
X177709703Y-133628025D01*
X177702032Y-133616827D01*
X177690863Y-133598475D01*
X177690862Y-133598474D01*
X177684791Y-133588498D01*
X177653249Y-133564296D01*
X177645788Y-133558100D01*
X177624907Y-133539356D01*
X177624904Y-133539354D01*
X177616221Y-133531560D01*
X177606626Y-133527927D01*
X177599418Y-133522989D01*
X177539181Y-133476768D01*
X177528885Y-133467947D01*
X177504893Y-133445039D01*
X177494106Y-133440570D01*
X177494105Y-133440570D01*
X177468162Y-133429823D01*
X177459358Y-133425773D01*
X177434330Y-133413070D01*
X177434328Y-133413069D01*
X177423921Y-133407787D01*
X177413714Y-133406761D01*
X177405460Y-133403852D01*
X177335332Y-133374805D01*
X177323086Y-133368941D01*
X177304237Y-133358631D01*
X177304235Y-133358630D01*
X177293996Y-133353030D01*
X177282423Y-133351506D01*
X177254582Y-133347840D01*
X177245030Y-133346206D01*
X177217560Y-133340412D01*
X177217556Y-133340411D01*
X177206140Y-133338004D01*
X177196019Y-133339654D01*
X177187296Y-133338982D01*
X177112024Y-133329071D01*
X177098686Y-133326578D01*
X177097679Y-133326333D01*
X177066468Y-133318739D01*
X177054896Y-133320262D01*
X177054890Y-133320262D01*
X177027062Y-133323926D01*
X177017409Y-133324821D01*
X176989376Y-133326333D01*
X176989370Y-133326334D01*
X176977720Y-133326963D01*
X176968367Y-133331178D01*
X176959765Y-133332786D01*
X176884508Y-133342694D01*
X176870972Y-133343738D01*
X176849493Y-133344234D01*
X176849491Y-133344234D01*
X176837822Y-133344504D01*
X176827037Y-133348970D01*
X176827036Y-133348971D01*
X176801088Y-133359718D01*
X176792001Y-133363078D01*
X176765322Y-133371793D01*
X176765319Y-133371794D01*
X176754223Y-133375419D01*
X176746281Y-133381910D01*
X176738392Y-133385688D01*
X176668260Y-133414737D01*
X176655460Y-133419248D01*
X176634840Y-133425287D01*
X176634836Y-133425288D01*
X176623633Y-133428570D01*
X176614370Y-133435677D01*
X176614369Y-133435678D01*
X176592095Y-133452769D01*
X176584184Y-133458369D01*
X176560663Y-133473695D01*
X176560659Y-133473698D01*
X176550886Y-133480067D01*
X176544897Y-133488389D01*
X176538255Y-133494079D01*
X176478020Y-133540299D01*
X176466824Y-133547969D01*
X176438498Y-133565209D01*
X176431392Y-133574468D01*
X176431389Y-133574472D01*
X176414296Y-133596748D01*
X176408106Y-133604203D01*
X176389356Y-133625093D01*
X176381560Y-133633779D01*
X176377928Y-133643369D01*
X176372984Y-133650586D01*
X176326774Y-133710809D01*
X176317945Y-133721115D01*
X176303101Y-133736662D01*
X176303098Y-133736665D01*
X176295039Y-133745107D01*
X176290574Y-133755884D01*
X176290569Y-133755893D01*
X176279819Y-133781846D01*
X176275769Y-133790649D01*
X176263070Y-133815668D01*
X176263068Y-133815673D01*
X176257787Y-133826079D01*
X176256761Y-133836284D01*
X176253855Y-133844531D01*
X176224806Y-133914663D01*
X176218944Y-133926906D01*
X176208630Y-133945763D01*
X176208628Y-133945768D01*
X176203030Y-133956004D01*
X176201507Y-133967568D01*
X176201504Y-133967578D01*
X176197838Y-133995422D01*
X176196205Y-134004972D01*
X176190412Y-134032439D01*
X176190411Y-134032443D01*
X176188004Y-134043860D01*
X176189654Y-134053977D01*
X176188982Y-134062694D01*
X176179073Y-134137966D01*
X176176579Y-134151310D01*
X176168739Y-134183531D01*
X110476923Y-134183531D01*
X110476070Y-134177050D01*
X110475176Y-134167388D01*
X110473666Y-134139386D01*
X110473037Y-134127721D01*
X110468818Y-134118364D01*
X110467214Y-134109782D01*
X110457305Y-134034507D01*
X110456261Y-134020969D01*
X110455765Y-133999494D01*
X110455496Y-133987822D01*
X110442317Y-133956004D01*
X110440283Y-133951093D01*
X110436919Y-133941997D01*
X110430044Y-133920949D01*
X110424581Y-133904223D01*
X110418087Y-133896279D01*
X110414310Y-133888392D01*
X110385262Y-133818262D01*
X110380749Y-133805456D01*
X110371430Y-133773633D01*
X110364323Y-133764371D01*
X110364321Y-133764367D01*
X110347228Y-133742092D01*
X110341630Y-133734185D01*
X110319933Y-133700886D01*
X110311606Y-133694894D01*
X110305920Y-133688257D01*
X110259703Y-133628025D01*
X110252032Y-133616827D01*
X110240863Y-133598475D01*
X110240862Y-133598474D01*
X110234791Y-133588498D01*
X110203249Y-133564296D01*
X110195788Y-133558100D01*
X110174907Y-133539356D01*
X110174904Y-133539354D01*
X110166221Y-133531560D01*
X110156626Y-133527927D01*
X110149418Y-133522989D01*
X110089181Y-133476768D01*
X110078885Y-133467947D01*
X110054893Y-133445039D01*
X110044106Y-133440570D01*
X110044105Y-133440570D01*
X110018162Y-133429823D01*
X110009358Y-133425773D01*
X109984330Y-133413070D01*
X109984328Y-133413069D01*
X109973921Y-133407787D01*
X109963714Y-133406761D01*
X109955460Y-133403852D01*
X109885332Y-133374805D01*
X109873086Y-133368941D01*
X109854237Y-133358631D01*
X109854235Y-133358630D01*
X109843996Y-133353030D01*
X109832423Y-133351506D01*
X109804582Y-133347840D01*
X109795030Y-133346206D01*
X109767560Y-133340412D01*
X109767556Y-133340411D01*
X109756140Y-133338004D01*
X109746019Y-133339654D01*
X109737296Y-133338982D01*
X109662024Y-133329071D01*
X109648686Y-133326578D01*
X109647679Y-133326333D01*
X109616468Y-133318739D01*
X109604896Y-133320262D01*
X109604890Y-133320262D01*
X109577062Y-133323926D01*
X109567409Y-133324821D01*
X109539376Y-133326333D01*
X109539370Y-133326334D01*
X109527720Y-133326963D01*
X109518367Y-133331178D01*
X109509765Y-133332786D01*
X109434508Y-133342694D01*
X109420972Y-133343738D01*
X109399493Y-133344234D01*
X109399491Y-133344234D01*
X109387822Y-133344504D01*
X109377037Y-133348970D01*
X109377036Y-133348971D01*
X109351088Y-133359718D01*
X109342001Y-133363078D01*
X109315322Y-133371793D01*
X109315319Y-133371794D01*
X109304223Y-133375419D01*
X109296281Y-133381910D01*
X109288392Y-133385688D01*
X109218260Y-133414737D01*
X109205460Y-133419248D01*
X109184840Y-133425287D01*
X109184836Y-133425288D01*
X109173633Y-133428570D01*
X109164370Y-133435677D01*
X109164369Y-133435678D01*
X109142095Y-133452769D01*
X109134184Y-133458369D01*
X109110663Y-133473695D01*
X109110659Y-133473698D01*
X109100886Y-133480067D01*
X109094897Y-133488389D01*
X109088255Y-133494079D01*
X109028020Y-133540299D01*
X109016824Y-133547969D01*
X108988498Y-133565209D01*
X108981392Y-133574468D01*
X108981389Y-133574472D01*
X108964296Y-133596748D01*
X108958106Y-133604203D01*
X108939356Y-133625093D01*
X108931560Y-133633779D01*
X108927928Y-133643369D01*
X108922984Y-133650586D01*
X108876774Y-133710809D01*
X108867945Y-133721115D01*
X108853101Y-133736662D01*
X108853098Y-133736665D01*
X108845039Y-133745107D01*
X108840574Y-133755884D01*
X108840569Y-133755893D01*
X108829819Y-133781846D01*
X108825769Y-133790649D01*
X108813070Y-133815668D01*
X108813068Y-133815673D01*
X108807787Y-133826079D01*
X108806761Y-133836284D01*
X108803855Y-133844531D01*
X108774806Y-133914663D01*
X108768944Y-133926906D01*
X108758630Y-133945763D01*
X108758628Y-133945768D01*
X108753030Y-133956004D01*
X108751507Y-133967568D01*
X108751504Y-133967578D01*
X108747838Y-133995422D01*
X108746205Y-134004972D01*
X108740412Y-134032439D01*
X108740411Y-134032443D01*
X108738004Y-134043860D01*
X108739654Y-134053977D01*
X108738982Y-134062694D01*
X108729073Y-134137966D01*
X108726579Y-134151310D01*
X108718739Y-134183531D01*
X102300500Y-134183531D01*
X102300500Y-131250000D01*
X110936496Y-131250000D01*
X110956458Y-131439928D01*
X110958495Y-131446200D01*
X110958497Y-131446205D01*
X111013430Y-131615271D01*
X111013433Y-131615278D01*
X111015473Y-131621556D01*
X111110960Y-131786944D01*
X111238747Y-131928866D01*
X111393248Y-132041118D01*
X111567712Y-132118794D01*
X111754513Y-132158500D01*
X111938884Y-132158500D01*
X111945487Y-132158500D01*
X112132288Y-132118794D01*
X112306752Y-132041118D01*
X112461253Y-131928866D01*
X112589040Y-131786944D01*
X112684527Y-131621556D01*
X112743542Y-131439928D01*
X112763504Y-131250000D01*
X112743542Y-131060072D01*
X112684527Y-130878444D01*
X112589040Y-130713056D01*
X112461253Y-130571134D01*
X112455911Y-130567253D01*
X112455908Y-130567250D01*
X112328950Y-130475010D01*
X112306752Y-130458882D01*
X112132288Y-130381206D01*
X112125835Y-130379834D01*
X112125831Y-130379833D01*
X111951943Y-130342872D01*
X111951940Y-130342871D01*
X111945487Y-130341500D01*
X111754513Y-130341500D01*
X111748060Y-130342871D01*
X111748056Y-130342872D01*
X111574168Y-130379833D01*
X111574161Y-130379835D01*
X111567712Y-130381206D01*
X111561682Y-130383890D01*
X111561681Y-130383891D01*
X111399278Y-130456197D01*
X111399275Y-130456198D01*
X111393248Y-130458882D01*
X111387907Y-130462762D01*
X111387906Y-130462763D01*
X111244091Y-130567250D01*
X111244083Y-130567256D01*
X111238747Y-130571134D01*
X111234330Y-130576039D01*
X111234325Y-130576044D01*
X111115380Y-130708147D01*
X111110960Y-130713056D01*
X111107661Y-130718769D01*
X111107658Y-130718774D01*
X111018777Y-130872721D01*
X111015473Y-130878444D01*
X111013434Y-130884718D01*
X111013430Y-130884728D01*
X110958497Y-131053794D01*
X110958495Y-131053801D01*
X110956458Y-131060072D01*
X110936496Y-131250000D01*
X102300500Y-131250000D01*
X102300500Y-129750000D01*
X135436496Y-129750000D01*
X135456458Y-129939928D01*
X135458495Y-129946200D01*
X135458497Y-129946205D01*
X135513430Y-130115271D01*
X135513433Y-130115278D01*
X135515473Y-130121556D01*
X135610960Y-130286944D01*
X135738747Y-130428866D01*
X135893248Y-130541118D01*
X136067712Y-130618794D01*
X136254513Y-130658500D01*
X136438884Y-130658500D01*
X136445487Y-130658500D01*
X136632288Y-130618794D01*
X136806752Y-130541118D01*
X136875077Y-130491476D01*
X136931601Y-130468638D01*
X136992231Y-130475010D01*
X137042773Y-130509100D01*
X137071395Y-130562928D01*
X137071396Y-130623893D01*
X137042775Y-130677721D01*
X137015379Y-130708147D01*
X137015374Y-130708153D01*
X137010960Y-130713056D01*
X137007661Y-130718769D01*
X137007658Y-130718774D01*
X136918777Y-130872721D01*
X136915473Y-130878444D01*
X136913434Y-130884718D01*
X136913430Y-130884728D01*
X136858497Y-131053794D01*
X136858495Y-131053801D01*
X136856458Y-131060072D01*
X136836496Y-131250000D01*
X136856458Y-131439928D01*
X136858495Y-131446200D01*
X136858497Y-131446205D01*
X136913430Y-131615271D01*
X136913433Y-131615278D01*
X136915473Y-131621556D01*
X137010960Y-131786944D01*
X137138747Y-131928866D01*
X137293248Y-132041118D01*
X137467712Y-132118794D01*
X137654513Y-132158500D01*
X137838884Y-132158500D01*
X137845487Y-132158500D01*
X138032288Y-132118794D01*
X138206752Y-132041118D01*
X138361253Y-131928866D01*
X138489040Y-131786944D01*
X138584527Y-131621556D01*
X138643542Y-131439928D01*
X138663504Y-131250000D01*
X138643542Y-131060072D01*
X138584527Y-130878444D01*
X138489040Y-130713056D01*
X138361253Y-130571134D01*
X138355911Y-130567253D01*
X138355908Y-130567250D01*
X138228950Y-130475010D01*
X138206752Y-130458882D01*
X138032288Y-130381206D01*
X138025835Y-130379834D01*
X138025831Y-130379833D01*
X137851943Y-130342872D01*
X137851940Y-130342871D01*
X137845487Y-130341500D01*
X137654513Y-130341500D01*
X137648060Y-130342871D01*
X137648056Y-130342872D01*
X137474168Y-130379833D01*
X137474161Y-130379835D01*
X137467712Y-130381206D01*
X137461682Y-130383890D01*
X137461681Y-130383891D01*
X137299278Y-130456197D01*
X137299275Y-130456198D01*
X137293248Y-130458882D01*
X137287910Y-130462760D01*
X137287907Y-130462762D01*
X137224921Y-130508524D01*
X137168396Y-130531361D01*
X137107765Y-130524988D01*
X137057224Y-130490896D01*
X137028603Y-130437068D01*
X137028604Y-130376103D01*
X137057223Y-130322280D01*
X137089040Y-130286944D01*
X137184527Y-130121556D01*
X137243542Y-129939928D01*
X137263504Y-129750000D01*
X137243542Y-129560072D01*
X137184527Y-129378444D01*
X137089040Y-129213056D01*
X137032264Y-129150000D01*
X140036496Y-129150000D01*
X140037186Y-129156565D01*
X140042607Y-129208148D01*
X140056458Y-129339928D01*
X140058495Y-129346200D01*
X140058497Y-129346205D01*
X140113430Y-129515271D01*
X140113433Y-129515278D01*
X140115473Y-129521556D01*
X140210960Y-129686944D01*
X140338747Y-129828866D01*
X140493248Y-129941118D01*
X140667712Y-130018794D01*
X140854513Y-130058500D01*
X141038884Y-130058500D01*
X141045487Y-130058500D01*
X141232288Y-130018794D01*
X141406752Y-129941118D01*
X141561253Y-129828866D01*
X141689040Y-129686944D01*
X141739237Y-129600000D01*
X142236496Y-129600000D01*
X142256458Y-129789928D01*
X142258495Y-129796200D01*
X142258497Y-129796205D01*
X142313430Y-129965271D01*
X142313433Y-129965278D01*
X142315473Y-129971556D01*
X142410960Y-130136944D01*
X142538747Y-130278866D01*
X142693248Y-130391118D01*
X142867712Y-130468794D01*
X143054513Y-130508500D01*
X143238884Y-130508500D01*
X143245487Y-130508500D01*
X143432288Y-130468794D01*
X143606752Y-130391118D01*
X143761253Y-130278866D01*
X143889040Y-130136944D01*
X143984527Y-129971556D01*
X144043542Y-129789928D01*
X144063504Y-129600000D01*
X144043542Y-129410072D01*
X143984527Y-129228444D01*
X143889040Y-129063056D01*
X143761253Y-128921134D01*
X143755911Y-128917253D01*
X143755908Y-128917250D01*
X143653535Y-128842872D01*
X143606752Y-128808882D01*
X143432288Y-128731206D01*
X143425835Y-128729834D01*
X143425831Y-128729833D01*
X143251943Y-128692872D01*
X143251940Y-128692871D01*
X143245487Y-128691500D01*
X143054513Y-128691500D01*
X143048060Y-128692871D01*
X143048056Y-128692872D01*
X142874168Y-128729833D01*
X142874161Y-128729835D01*
X142867712Y-128731206D01*
X142861682Y-128733890D01*
X142861681Y-128733891D01*
X142699278Y-128806197D01*
X142699275Y-128806198D01*
X142693248Y-128808882D01*
X142687907Y-128812762D01*
X142687906Y-128812763D01*
X142544091Y-128917250D01*
X142544083Y-128917256D01*
X142538747Y-128921134D01*
X142534330Y-128926039D01*
X142534325Y-128926044D01*
X142415379Y-129058148D01*
X142410960Y-129063056D01*
X142407661Y-129068769D01*
X142407658Y-129068774D01*
X142356972Y-129156565D01*
X142315473Y-129228444D01*
X142313434Y-129234718D01*
X142313430Y-129234728D01*
X142258497Y-129403794D01*
X142258495Y-129403801D01*
X142256458Y-129410072D01*
X142236496Y-129600000D01*
X141739237Y-129600000D01*
X141784527Y-129521556D01*
X141843542Y-129339928D01*
X141863504Y-129150000D01*
X141843542Y-128960072D01*
X141784527Y-128778444D01*
X141689040Y-128613056D01*
X141561253Y-128471134D01*
X141555911Y-128467253D01*
X141555908Y-128467250D01*
X141478057Y-128410688D01*
X141406752Y-128358882D01*
X141232288Y-128281206D01*
X141225835Y-128279834D01*
X141225831Y-128279833D01*
X141051943Y-128242872D01*
X141051940Y-128242871D01*
X141045487Y-128241500D01*
X140854513Y-128241500D01*
X140848060Y-128242871D01*
X140848056Y-128242872D01*
X140674168Y-128279833D01*
X140674161Y-128279835D01*
X140667712Y-128281206D01*
X140661682Y-128283890D01*
X140661681Y-128283891D01*
X140499278Y-128356197D01*
X140499275Y-128356198D01*
X140493248Y-128358882D01*
X140487907Y-128362762D01*
X140487906Y-128362763D01*
X140344091Y-128467250D01*
X140344083Y-128467256D01*
X140338747Y-128471134D01*
X140334330Y-128476039D01*
X140334325Y-128476044D01*
X140215379Y-128608148D01*
X140210960Y-128613056D01*
X140207661Y-128618769D01*
X140207658Y-128618774D01*
X140118777Y-128772721D01*
X140115473Y-128778444D01*
X140113434Y-128784718D01*
X140113430Y-128784728D01*
X140058497Y-128953794D01*
X140058495Y-128953801D01*
X140056458Y-128960072D01*
X140036496Y-129150000D01*
X137032264Y-129150000D01*
X136961253Y-129071134D01*
X136955911Y-129067253D01*
X136955908Y-129067250D01*
X136878057Y-129010688D01*
X136806752Y-128958882D01*
X136632288Y-128881206D01*
X136625835Y-128879834D01*
X136625831Y-128879833D01*
X136451943Y-128842872D01*
X136451940Y-128842871D01*
X136445487Y-128841500D01*
X136254513Y-128841500D01*
X136248060Y-128842871D01*
X136248056Y-128842872D01*
X136074168Y-128879833D01*
X136074161Y-128879835D01*
X136067712Y-128881206D01*
X136061682Y-128883890D01*
X136061681Y-128883891D01*
X135899278Y-128956197D01*
X135899275Y-128956198D01*
X135893248Y-128958882D01*
X135887907Y-128962762D01*
X135887906Y-128962763D01*
X135744091Y-129067250D01*
X135744083Y-129067256D01*
X135738747Y-129071134D01*
X135734330Y-129076039D01*
X135734325Y-129076044D01*
X135615379Y-129208148D01*
X135610960Y-129213056D01*
X135607661Y-129218769D01*
X135607658Y-129218774D01*
X135541500Y-129333364D01*
X135515473Y-129378444D01*
X135513434Y-129384718D01*
X135513430Y-129384728D01*
X135458497Y-129553794D01*
X135458495Y-129553801D01*
X135456458Y-129560072D01*
X135436496Y-129750000D01*
X102300500Y-129750000D01*
X102300500Y-127450000D01*
X116636496Y-127450000D01*
X116656458Y-127639928D01*
X116658495Y-127646200D01*
X116658497Y-127646205D01*
X116713430Y-127815271D01*
X116713433Y-127815278D01*
X116715473Y-127821556D01*
X116810960Y-127986944D01*
X116938747Y-128128866D01*
X117093248Y-128241118D01*
X117267712Y-128318794D01*
X117454513Y-128358500D01*
X117638884Y-128358500D01*
X117645487Y-128358500D01*
X117832288Y-128318794D01*
X118006752Y-128241118D01*
X118161253Y-128128866D01*
X118289040Y-127986944D01*
X118384527Y-127821556D01*
X118443542Y-127639928D01*
X118463504Y-127450000D01*
X118443542Y-127260072D01*
X118384527Y-127078444D01*
X118289040Y-126913056D01*
X118161253Y-126771134D01*
X118155911Y-126767253D01*
X118155908Y-126767250D01*
X118078057Y-126710688D01*
X118006752Y-126658882D01*
X117832288Y-126581206D01*
X117825835Y-126579834D01*
X117825831Y-126579833D01*
X117651943Y-126542872D01*
X117651940Y-126542871D01*
X117645487Y-126541500D01*
X117454513Y-126541500D01*
X117448060Y-126542871D01*
X117448056Y-126542872D01*
X117274168Y-126579833D01*
X117274161Y-126579835D01*
X117267712Y-126581206D01*
X117261682Y-126583890D01*
X117261681Y-126583891D01*
X117099278Y-126656197D01*
X117099275Y-126656198D01*
X117093248Y-126658882D01*
X117087907Y-126662762D01*
X117087906Y-126662763D01*
X116944091Y-126767250D01*
X116944083Y-126767256D01*
X116938747Y-126771134D01*
X116934330Y-126776039D01*
X116934325Y-126776044D01*
X116815379Y-126908148D01*
X116810960Y-126913056D01*
X116807661Y-126918769D01*
X116807658Y-126918774D01*
X116718777Y-127072721D01*
X116715473Y-127078444D01*
X116713434Y-127084718D01*
X116713430Y-127084728D01*
X116658497Y-127253794D01*
X116658495Y-127253801D01*
X116656458Y-127260072D01*
X116636496Y-127450000D01*
X102300500Y-127450000D01*
X102300500Y-126450000D01*
X135986496Y-126450000D01*
X136006458Y-126639928D01*
X136008495Y-126646200D01*
X136008497Y-126646205D01*
X136063430Y-126815271D01*
X136063433Y-126815278D01*
X136065473Y-126821556D01*
X136160960Y-126986944D01*
X136288747Y-127128866D01*
X136294089Y-127132747D01*
X136294091Y-127132749D01*
X136303972Y-127139928D01*
X136443248Y-127241118D01*
X136617712Y-127318794D01*
X136804513Y-127358500D01*
X136988884Y-127358500D01*
X136995487Y-127358500D01*
X137182288Y-127318794D01*
X137356752Y-127241118D01*
X137511253Y-127128866D01*
X137639040Y-126986944D01*
X137660370Y-126950000D01*
X141236496Y-126950000D01*
X141256458Y-127139928D01*
X141258495Y-127146200D01*
X141258497Y-127146205D01*
X141313430Y-127315271D01*
X141313433Y-127315278D01*
X141315473Y-127321556D01*
X141410960Y-127486944D01*
X141538747Y-127628866D01*
X141544089Y-127632747D01*
X141544091Y-127632749D01*
X141553972Y-127639928D01*
X141693248Y-127741118D01*
X141867712Y-127818794D01*
X142054513Y-127858500D01*
X142238884Y-127858500D01*
X142245487Y-127858500D01*
X142432288Y-127818794D01*
X142606752Y-127741118D01*
X142761253Y-127628866D01*
X142889040Y-127486944D01*
X142984527Y-127321556D01*
X143043542Y-127139928D01*
X143063504Y-126950000D01*
X143043542Y-126760072D01*
X142984527Y-126578444D01*
X142889040Y-126413056D01*
X142761253Y-126271134D01*
X142755911Y-126267253D01*
X142755908Y-126267250D01*
X142678057Y-126210688D01*
X142606752Y-126158882D01*
X142432288Y-126081206D01*
X142425835Y-126079834D01*
X142425831Y-126079833D01*
X142251943Y-126042872D01*
X142251940Y-126042871D01*
X142245487Y-126041500D01*
X142054513Y-126041500D01*
X142048060Y-126042871D01*
X142048056Y-126042872D01*
X141874168Y-126079833D01*
X141874161Y-126079835D01*
X141867712Y-126081206D01*
X141861682Y-126083890D01*
X141861681Y-126083891D01*
X141699278Y-126156197D01*
X141699275Y-126156198D01*
X141693248Y-126158882D01*
X141687907Y-126162762D01*
X141687906Y-126162763D01*
X141544091Y-126267250D01*
X141544083Y-126267256D01*
X141538747Y-126271134D01*
X141534330Y-126276039D01*
X141534325Y-126276044D01*
X141415379Y-126408148D01*
X141410960Y-126413056D01*
X141407661Y-126418769D01*
X141407658Y-126418774D01*
X141318777Y-126572721D01*
X141315473Y-126578444D01*
X141313434Y-126584718D01*
X141313430Y-126584728D01*
X141258497Y-126753794D01*
X141258495Y-126753801D01*
X141256458Y-126760072D01*
X141255768Y-126766633D01*
X141255768Y-126766635D01*
X141255295Y-126771134D01*
X141236496Y-126950000D01*
X137660370Y-126950000D01*
X137734527Y-126821556D01*
X137793542Y-126639928D01*
X137813504Y-126450000D01*
X137793542Y-126260072D01*
X137759791Y-126156197D01*
X137736569Y-126084728D01*
X137736568Y-126084726D01*
X137734527Y-126078444D01*
X137639040Y-125913056D01*
X137511253Y-125771134D01*
X137505911Y-125767253D01*
X137505908Y-125767250D01*
X137423155Y-125707127D01*
X137356752Y-125658882D01*
X137182288Y-125581206D01*
X137175835Y-125579834D01*
X137175831Y-125579833D01*
X137001943Y-125542872D01*
X137001940Y-125542871D01*
X136995487Y-125541500D01*
X136804513Y-125541500D01*
X136798060Y-125542871D01*
X136798056Y-125542872D01*
X136624168Y-125579833D01*
X136624161Y-125579835D01*
X136617712Y-125581206D01*
X136611682Y-125583890D01*
X136611681Y-125583891D01*
X136449278Y-125656197D01*
X136449275Y-125656198D01*
X136443248Y-125658882D01*
X136437907Y-125662762D01*
X136437906Y-125662763D01*
X136294091Y-125767250D01*
X136294083Y-125767256D01*
X136288747Y-125771134D01*
X136284330Y-125776039D01*
X136284325Y-125776044D01*
X136176993Y-125895249D01*
X136160960Y-125913056D01*
X136157661Y-125918769D01*
X136157658Y-125918774D01*
X136068777Y-126072721D01*
X136065473Y-126078444D01*
X136063434Y-126084718D01*
X136063430Y-126084728D01*
X136008497Y-126253794D01*
X136008495Y-126253801D01*
X136006458Y-126260072D01*
X136005768Y-126266633D01*
X136005768Y-126266635D01*
X136005295Y-126271134D01*
X135986496Y-126450000D01*
X102300500Y-126450000D01*
X102300500Y-125212500D01*
X107986496Y-125212500D01*
X108006458Y-125402428D01*
X108008495Y-125408700D01*
X108008497Y-125408705D01*
X108063430Y-125577771D01*
X108063433Y-125577778D01*
X108065473Y-125584056D01*
X108160960Y-125749444D01*
X108288747Y-125891366D01*
X108294089Y-125895247D01*
X108294091Y-125895249D01*
X108326471Y-125918774D01*
X108443248Y-126003618D01*
X108617712Y-126081294D01*
X108804513Y-126121000D01*
X108988884Y-126121000D01*
X108995487Y-126121000D01*
X109182288Y-126081294D01*
X109356752Y-126003618D01*
X109511253Y-125891366D01*
X109639040Y-125749444D01*
X109734527Y-125584056D01*
X109793542Y-125402428D01*
X109813504Y-125212500D01*
X109793542Y-125022572D01*
X109734527Y-124840944D01*
X109710888Y-124800000D01*
X137336496Y-124800000D01*
X137356458Y-124989928D01*
X137358495Y-124996200D01*
X137358497Y-124996205D01*
X137413430Y-125165271D01*
X137413433Y-125165278D01*
X137415473Y-125171556D01*
X137510960Y-125336944D01*
X137638747Y-125478866D01*
X137793248Y-125591118D01*
X137967712Y-125668794D01*
X138154513Y-125708500D01*
X138338884Y-125708500D01*
X138345487Y-125708500D01*
X138532288Y-125668794D01*
X138706752Y-125591118D01*
X138861253Y-125478866D01*
X138989040Y-125336944D01*
X139084527Y-125171556D01*
X139143542Y-124989928D01*
X139163504Y-124800000D01*
X139143542Y-124610072D01*
X139084527Y-124428444D01*
X139010370Y-124300000D01*
X154536496Y-124300000D01*
X154537186Y-124306565D01*
X154549661Y-124425263D01*
X154556458Y-124489928D01*
X154558495Y-124496200D01*
X154558497Y-124496205D01*
X154613430Y-124665271D01*
X154613433Y-124665278D01*
X154615473Y-124671556D01*
X154710960Y-124836944D01*
X154838747Y-124978866D01*
X154844089Y-124982747D01*
X154844091Y-124982749D01*
X154853972Y-124989928D01*
X154993248Y-125091118D01*
X155167712Y-125168794D01*
X155354513Y-125208500D01*
X155538884Y-125208500D01*
X155545487Y-125208500D01*
X155732288Y-125168794D01*
X155906752Y-125091118D01*
X156061253Y-124978866D01*
X156189040Y-124836944D01*
X156284527Y-124671556D01*
X156343542Y-124489928D01*
X156363504Y-124300000D01*
X156343542Y-124110072D01*
X156284527Y-123928444D01*
X156189040Y-123763056D01*
X156061253Y-123621134D01*
X156055911Y-123617253D01*
X156055908Y-123617250D01*
X155978057Y-123560688D01*
X155906752Y-123508882D01*
X155732288Y-123431206D01*
X155725835Y-123429834D01*
X155725831Y-123429833D01*
X155551943Y-123392872D01*
X155551940Y-123392871D01*
X155545487Y-123391500D01*
X155354513Y-123391500D01*
X155348060Y-123392871D01*
X155348056Y-123392872D01*
X155174168Y-123429833D01*
X155174161Y-123429835D01*
X155167712Y-123431206D01*
X155161682Y-123433890D01*
X155161681Y-123433891D01*
X154999278Y-123506197D01*
X154999275Y-123506198D01*
X154993248Y-123508882D01*
X154987907Y-123512762D01*
X154987906Y-123512763D01*
X154844091Y-123617250D01*
X154844083Y-123617256D01*
X154838747Y-123621134D01*
X154834330Y-123626039D01*
X154834325Y-123626044D01*
X154715379Y-123758148D01*
X154710960Y-123763056D01*
X154707661Y-123768769D01*
X154707658Y-123768774D01*
X154618777Y-123922721D01*
X154615473Y-123928444D01*
X154613434Y-123934718D01*
X154613430Y-123934728D01*
X154558497Y-124103794D01*
X154558495Y-124103801D01*
X154556458Y-124110072D01*
X154555768Y-124116633D01*
X154555768Y-124116635D01*
X154555295Y-124121134D01*
X154536496Y-124300000D01*
X139010370Y-124300000D01*
X138989040Y-124263056D01*
X138861253Y-124121134D01*
X138855911Y-124117253D01*
X138855908Y-124117250D01*
X138778057Y-124060688D01*
X138706752Y-124008882D01*
X138532288Y-123931206D01*
X138525835Y-123929834D01*
X138525831Y-123929833D01*
X138351943Y-123892872D01*
X138351940Y-123892871D01*
X138345487Y-123891500D01*
X138154513Y-123891500D01*
X138148060Y-123892871D01*
X138148056Y-123892872D01*
X137974168Y-123929833D01*
X137974161Y-123929835D01*
X137967712Y-123931206D01*
X137961682Y-123933890D01*
X137961681Y-123933891D01*
X137799278Y-124006197D01*
X137799275Y-124006198D01*
X137793248Y-124008882D01*
X137787907Y-124012762D01*
X137787906Y-124012763D01*
X137644091Y-124117250D01*
X137644083Y-124117256D01*
X137638747Y-124121134D01*
X137634330Y-124126039D01*
X137634325Y-124126044D01*
X137515379Y-124258148D01*
X137510960Y-124263056D01*
X137507661Y-124268769D01*
X137507658Y-124268774D01*
X137462846Y-124346391D01*
X137415473Y-124428444D01*
X137413434Y-124434718D01*
X137413430Y-124434728D01*
X137358497Y-124603794D01*
X137358495Y-124603801D01*
X137356458Y-124610072D01*
X137336496Y-124800000D01*
X109710888Y-124800000D01*
X109639040Y-124675556D01*
X109511253Y-124533634D01*
X109505911Y-124529753D01*
X109505908Y-124529750D01*
X109375121Y-124434728D01*
X109356752Y-124421382D01*
X109182288Y-124343706D01*
X109175835Y-124342334D01*
X109175831Y-124342333D01*
X109001943Y-124305372D01*
X109001940Y-124305371D01*
X108995487Y-124304000D01*
X108804513Y-124304000D01*
X108798060Y-124305371D01*
X108798056Y-124305372D01*
X108624168Y-124342333D01*
X108624161Y-124342335D01*
X108617712Y-124343706D01*
X108611682Y-124346390D01*
X108611681Y-124346391D01*
X108449278Y-124418697D01*
X108449275Y-124418698D01*
X108443248Y-124421382D01*
X108437907Y-124425262D01*
X108437906Y-124425263D01*
X108294091Y-124529750D01*
X108294083Y-124529756D01*
X108288747Y-124533634D01*
X108284330Y-124538539D01*
X108284325Y-124538544D01*
X108165379Y-124670648D01*
X108160960Y-124675556D01*
X108157661Y-124681269D01*
X108157658Y-124681274D01*
X108071084Y-124831225D01*
X108065473Y-124840944D01*
X108063434Y-124847218D01*
X108063430Y-124847228D01*
X108008497Y-125016294D01*
X108008495Y-125016301D01*
X108006458Y-125022572D01*
X108005768Y-125029133D01*
X108005768Y-125029135D01*
X107991460Y-125165271D01*
X107986496Y-125212500D01*
X102300500Y-125212500D01*
X102300500Y-122400000D01*
X119286496Y-122400000D01*
X119306458Y-122589928D01*
X119308495Y-122596200D01*
X119308497Y-122596205D01*
X119363430Y-122765271D01*
X119363433Y-122765278D01*
X119365473Y-122771556D01*
X119460960Y-122936944D01*
X119588747Y-123078866D01*
X119743248Y-123191118D01*
X119917712Y-123268794D01*
X120104513Y-123308500D01*
X120288884Y-123308500D01*
X120295487Y-123308500D01*
X120482288Y-123268794D01*
X120656752Y-123191118D01*
X120811253Y-123078866D01*
X120939040Y-122936944D01*
X121034527Y-122771556D01*
X121093542Y-122589928D01*
X121113504Y-122400000D01*
X121093542Y-122210072D01*
X121034527Y-122028444D01*
X120939040Y-121863056D01*
X120811253Y-121721134D01*
X120805911Y-121717253D01*
X120805908Y-121717250D01*
X120728057Y-121660688D01*
X120656752Y-121608882D01*
X120482288Y-121531206D01*
X120475835Y-121529834D01*
X120475831Y-121529833D01*
X120301943Y-121492872D01*
X120301940Y-121492871D01*
X120295487Y-121491500D01*
X120104513Y-121491500D01*
X120098060Y-121492871D01*
X120098056Y-121492872D01*
X119924168Y-121529833D01*
X119924161Y-121529835D01*
X119917712Y-121531206D01*
X119911682Y-121533890D01*
X119911681Y-121533891D01*
X119749278Y-121606197D01*
X119749275Y-121606198D01*
X119743248Y-121608882D01*
X119737907Y-121612762D01*
X119737906Y-121612763D01*
X119594091Y-121717250D01*
X119594083Y-121717256D01*
X119588747Y-121721134D01*
X119584330Y-121726039D01*
X119584325Y-121726044D01*
X119465379Y-121858148D01*
X119460960Y-121863056D01*
X119457661Y-121868769D01*
X119457658Y-121868774D01*
X119368777Y-122022721D01*
X119365473Y-122028444D01*
X119363434Y-122034718D01*
X119363430Y-122034728D01*
X119308497Y-122203794D01*
X119308495Y-122203801D01*
X119306458Y-122210072D01*
X119286496Y-122400000D01*
X102300500Y-122400000D01*
X102300500Y-117950000D01*
X143486496Y-117950000D01*
X143506458Y-118139928D01*
X143508495Y-118146200D01*
X143508497Y-118146205D01*
X143563430Y-118315271D01*
X143563433Y-118315278D01*
X143565473Y-118321556D01*
X143660960Y-118486944D01*
X143788747Y-118628866D01*
X143943248Y-118741118D01*
X144117712Y-118818794D01*
X144304513Y-118858500D01*
X144488884Y-118858500D01*
X144495487Y-118858500D01*
X144682288Y-118818794D01*
X144856752Y-118741118D01*
X145011253Y-118628866D01*
X145139040Y-118486944D01*
X145189237Y-118400000D01*
X163386496Y-118400000D01*
X163406458Y-118589928D01*
X163408495Y-118596200D01*
X163408497Y-118596205D01*
X163463430Y-118765271D01*
X163463433Y-118765278D01*
X163465473Y-118771556D01*
X163560960Y-118936944D01*
X163688747Y-119078866D01*
X163843248Y-119191118D01*
X164017712Y-119268794D01*
X164204513Y-119308500D01*
X164388884Y-119308500D01*
X164395487Y-119308500D01*
X164582288Y-119268794D01*
X164756752Y-119191118D01*
X164775937Y-119177178D01*
X164823801Y-119155868D01*
X164876196Y-119155867D01*
X164924059Y-119177176D01*
X164943248Y-119191118D01*
X165117712Y-119268794D01*
X165304513Y-119308500D01*
X165488884Y-119308500D01*
X165495487Y-119308500D01*
X165682288Y-119268794D01*
X165856752Y-119191118D01*
X165862027Y-119187284D01*
X165925000Y-119170410D01*
X165987971Y-119187284D01*
X165993248Y-119191118D01*
X166167712Y-119268794D01*
X166354513Y-119308500D01*
X166538884Y-119308500D01*
X166545487Y-119308500D01*
X166688991Y-119277997D01*
X166758281Y-119282843D01*
X166814476Y-119323670D01*
X166840497Y-119388073D01*
X166855768Y-119533364D01*
X166856458Y-119539928D01*
X166858495Y-119546200D01*
X166858497Y-119546205D01*
X166913430Y-119715271D01*
X166913433Y-119715278D01*
X166915473Y-119721556D01*
X167010960Y-119886944D01*
X167138747Y-120028866D01*
X167293248Y-120141118D01*
X167467712Y-120218794D01*
X167654513Y-120258500D01*
X167838884Y-120258500D01*
X167845487Y-120258500D01*
X168032288Y-120218794D01*
X168206752Y-120141118D01*
X168361253Y-120028866D01*
X168489040Y-119886944D01*
X168584527Y-119721556D01*
X168643542Y-119539928D01*
X168663504Y-119350000D01*
X168664597Y-119350114D01*
X168671989Y-119312089D01*
X168698177Y-119271763D01*
X168737566Y-119244183D01*
X168800567Y-119216133D01*
X168856752Y-119191118D01*
X169011253Y-119078866D01*
X169139040Y-118936944D01*
X169234527Y-118771556D01*
X169293542Y-118589928D01*
X169313504Y-118400000D01*
X169293542Y-118210072D01*
X169234527Y-118028444D01*
X169231229Y-118022731D01*
X169231226Y-118022725D01*
X169196743Y-117962999D01*
X169179862Y-117899998D01*
X169196744Y-117836998D01*
X169231225Y-117777276D01*
X169231226Y-117777272D01*
X169234527Y-117771556D01*
X169293542Y-117589928D01*
X169313504Y-117400000D01*
X169293542Y-117210072D01*
X169251671Y-117081206D01*
X169236569Y-117034728D01*
X169236568Y-117034726D01*
X169234527Y-117028444D01*
X169196741Y-116962998D01*
X169179861Y-116899998D01*
X169196741Y-116837000D01*
X169234527Y-116771556D01*
X169293542Y-116589928D01*
X169313504Y-116400000D01*
X169293542Y-116210072D01*
X169234527Y-116028444D01*
X169139040Y-115863056D01*
X169011253Y-115721134D01*
X169005911Y-115717253D01*
X169005908Y-115717250D01*
X168925000Y-115658467D01*
X168856752Y-115608882D01*
X168682288Y-115531206D01*
X168675835Y-115529834D01*
X168675831Y-115529833D01*
X168501943Y-115492872D01*
X168501940Y-115492871D01*
X168495487Y-115491500D01*
X168304513Y-115491500D01*
X168298060Y-115492871D01*
X168298056Y-115492872D01*
X168124168Y-115529833D01*
X168124161Y-115529835D01*
X168117712Y-115531206D01*
X168111682Y-115533890D01*
X168111681Y-115533891D01*
X167976249Y-115594189D01*
X167925000Y-115605082D01*
X167873751Y-115594189D01*
X167844126Y-115580999D01*
X167732288Y-115531206D01*
X167725835Y-115529834D01*
X167725831Y-115529833D01*
X167551943Y-115492872D01*
X167551940Y-115492871D01*
X167545487Y-115491500D01*
X167354513Y-115491500D01*
X167348060Y-115492871D01*
X167348056Y-115492872D01*
X167174168Y-115529833D01*
X167174161Y-115529835D01*
X167167712Y-115531206D01*
X167161684Y-115533889D01*
X167161677Y-115533892D01*
X167001248Y-115605319D01*
X166950000Y-115616212D01*
X166898752Y-115605319D01*
X166738322Y-115533892D01*
X166738317Y-115533890D01*
X166732288Y-115531206D01*
X166725835Y-115529834D01*
X166725831Y-115529833D01*
X166551943Y-115492872D01*
X166551940Y-115492871D01*
X166545487Y-115491500D01*
X166354513Y-115491500D01*
X166348060Y-115492871D01*
X166348056Y-115492872D01*
X166174168Y-115529833D01*
X166174161Y-115529835D01*
X166167712Y-115531206D01*
X166161682Y-115533890D01*
X166161681Y-115533891D01*
X165999273Y-115606199D01*
X165999269Y-115606201D01*
X165993248Y-115608882D01*
X165987970Y-115612716D01*
X165925000Y-115629589D01*
X165862029Y-115612716D01*
X165856752Y-115608882D01*
X165850721Y-115606197D01*
X165820493Y-115592738D01*
X165682288Y-115531206D01*
X165675835Y-115529834D01*
X165675831Y-115529833D01*
X165501943Y-115492872D01*
X165501940Y-115492871D01*
X165495487Y-115491500D01*
X165304513Y-115491500D01*
X165298060Y-115492871D01*
X165298056Y-115492872D01*
X165124168Y-115529833D01*
X165124161Y-115529835D01*
X165117712Y-115531206D01*
X165111682Y-115533890D01*
X165111681Y-115533891D01*
X164949280Y-115606196D01*
X164949277Y-115606197D01*
X164943248Y-115608882D01*
X164937908Y-115612761D01*
X164937904Y-115612764D01*
X164924058Y-115622824D01*
X164876196Y-115644133D01*
X164823804Y-115644133D01*
X164775942Y-115622824D01*
X164762095Y-115612764D01*
X164756752Y-115608882D01*
X164582288Y-115531206D01*
X164575835Y-115529834D01*
X164575831Y-115529833D01*
X164401943Y-115492872D01*
X164401940Y-115492871D01*
X164395487Y-115491500D01*
X164204513Y-115491500D01*
X164198060Y-115492871D01*
X164198056Y-115492872D01*
X164024168Y-115529833D01*
X164024161Y-115529835D01*
X164017712Y-115531206D01*
X164011682Y-115533890D01*
X164011681Y-115533891D01*
X163849278Y-115606197D01*
X163849275Y-115606198D01*
X163843248Y-115608882D01*
X163837907Y-115612762D01*
X163837906Y-115612763D01*
X163694091Y-115717250D01*
X163694083Y-115717256D01*
X163688747Y-115721134D01*
X163684330Y-115726039D01*
X163684325Y-115726044D01*
X163565379Y-115858148D01*
X163560960Y-115863056D01*
X163557661Y-115868769D01*
X163557658Y-115868774D01*
X163545445Y-115889928D01*
X163465473Y-116028444D01*
X163463434Y-116034718D01*
X163463430Y-116034728D01*
X163408497Y-116203794D01*
X163408495Y-116203801D01*
X163406458Y-116210072D01*
X163405768Y-116216633D01*
X163405768Y-116216635D01*
X163403118Y-116241851D01*
X163386496Y-116400000D01*
X163406458Y-116589928D01*
X163408495Y-116596200D01*
X163408497Y-116596205D01*
X163463430Y-116765271D01*
X163463433Y-116765278D01*
X163465473Y-116771556D01*
X163503257Y-116837000D01*
X163520138Y-116899998D01*
X163503258Y-116962998D01*
X163468775Y-117022723D01*
X163468771Y-117022730D01*
X163465473Y-117028444D01*
X163463434Y-117034718D01*
X163463430Y-117034728D01*
X163408497Y-117203794D01*
X163408495Y-117203801D01*
X163406458Y-117210072D01*
X163386496Y-117400000D01*
X163406458Y-117589928D01*
X163408495Y-117596200D01*
X163408497Y-117596205D01*
X163463430Y-117765271D01*
X163463433Y-117765278D01*
X163465473Y-117771556D01*
X163503257Y-117837000D01*
X163520138Y-117899998D01*
X163503258Y-117962998D01*
X163468775Y-118022723D01*
X163468771Y-118022730D01*
X163465473Y-118028444D01*
X163463434Y-118034718D01*
X163463430Y-118034728D01*
X163408497Y-118203794D01*
X163408495Y-118203801D01*
X163406458Y-118210072D01*
X163386496Y-118400000D01*
X145189237Y-118400000D01*
X145234527Y-118321556D01*
X145293542Y-118139928D01*
X145313504Y-117950000D01*
X145293542Y-117760072D01*
X145240298Y-117596205D01*
X145236569Y-117584728D01*
X145236568Y-117584726D01*
X145234527Y-117578444D01*
X145139040Y-117413056D01*
X145011253Y-117271134D01*
X145005911Y-117267253D01*
X145005908Y-117267250D01*
X144918568Y-117203794D01*
X144856752Y-117158882D01*
X144682288Y-117081206D01*
X144675835Y-117079834D01*
X144675831Y-117079833D01*
X144501943Y-117042872D01*
X144501940Y-117042871D01*
X144495487Y-117041500D01*
X144304513Y-117041500D01*
X144298060Y-117042871D01*
X144298056Y-117042872D01*
X144124168Y-117079833D01*
X144124161Y-117079835D01*
X144117712Y-117081206D01*
X144111682Y-117083890D01*
X144111681Y-117083891D01*
X143949278Y-117156197D01*
X143949275Y-117156198D01*
X143943248Y-117158882D01*
X143937907Y-117162762D01*
X143937906Y-117162763D01*
X143794091Y-117267250D01*
X143794083Y-117267256D01*
X143788747Y-117271134D01*
X143784330Y-117276039D01*
X143784325Y-117276044D01*
X143665379Y-117408148D01*
X143660960Y-117413056D01*
X143657661Y-117418769D01*
X143657658Y-117418774D01*
X143568777Y-117572721D01*
X143565473Y-117578444D01*
X143563434Y-117584718D01*
X143563430Y-117584728D01*
X143508497Y-117753794D01*
X143508495Y-117753801D01*
X143506458Y-117760072D01*
X143486496Y-117950000D01*
X102300500Y-117950000D01*
X102300500Y-115700000D01*
X126686496Y-115700000D01*
X126706458Y-115889928D01*
X126708495Y-115896200D01*
X126708497Y-115896205D01*
X126763430Y-116065271D01*
X126763433Y-116065278D01*
X126765473Y-116071556D01*
X126768777Y-116077278D01*
X126849234Y-116216635D01*
X126860960Y-116236944D01*
X126988747Y-116378866D01*
X127143248Y-116491118D01*
X127317712Y-116568794D01*
X127504513Y-116608500D01*
X127688884Y-116608500D01*
X127695487Y-116608500D01*
X127882288Y-116568794D01*
X128056752Y-116491118D01*
X128211253Y-116378866D01*
X128339040Y-116236944D01*
X128434527Y-116071556D01*
X128493542Y-115889928D01*
X128513504Y-115700000D01*
X128493542Y-115510072D01*
X128434527Y-115328444D01*
X128339040Y-115163056D01*
X128211253Y-115021134D01*
X128205911Y-115017253D01*
X128205908Y-115017250D01*
X128128057Y-114960688D01*
X128056752Y-114908882D01*
X127882288Y-114831206D01*
X127875835Y-114829834D01*
X127875831Y-114829833D01*
X127701943Y-114792872D01*
X127701940Y-114792871D01*
X127695487Y-114791500D01*
X127504513Y-114791500D01*
X127498060Y-114792871D01*
X127498056Y-114792872D01*
X127324168Y-114829833D01*
X127324161Y-114829835D01*
X127317712Y-114831206D01*
X127311682Y-114833890D01*
X127311681Y-114833891D01*
X127149278Y-114906197D01*
X127149275Y-114906198D01*
X127143248Y-114908882D01*
X127137907Y-114912762D01*
X127137906Y-114912763D01*
X126994091Y-115017250D01*
X126994083Y-115017256D01*
X126988747Y-115021134D01*
X126984330Y-115026039D01*
X126984325Y-115026044D01*
X126865379Y-115158148D01*
X126860960Y-115163056D01*
X126857661Y-115168769D01*
X126857658Y-115168774D01*
X126768777Y-115322721D01*
X126765473Y-115328444D01*
X126763434Y-115334718D01*
X126763430Y-115334728D01*
X126708497Y-115503794D01*
X126708495Y-115503801D01*
X126706458Y-115510072D01*
X126705768Y-115516633D01*
X126705768Y-115516635D01*
X126695665Y-115612763D01*
X126686496Y-115700000D01*
X102300500Y-115700000D01*
X102300500Y-112800000D01*
X113986496Y-112800000D01*
X114006458Y-112989928D01*
X114008495Y-112996200D01*
X114008497Y-112996205D01*
X114063430Y-113165271D01*
X114063433Y-113165278D01*
X114065473Y-113171556D01*
X114160960Y-113336944D01*
X114288747Y-113478866D01*
X114443248Y-113591118D01*
X114617712Y-113668794D01*
X114804513Y-113708500D01*
X114988884Y-113708500D01*
X114995487Y-113708500D01*
X115182288Y-113668794D01*
X115356752Y-113591118D01*
X115511253Y-113478866D01*
X115639040Y-113336944D01*
X115734527Y-113171556D01*
X115793542Y-112989928D01*
X115813504Y-112800000D01*
X115793542Y-112610072D01*
X115734527Y-112428444D01*
X115639040Y-112263056D01*
X115511253Y-112121134D01*
X115505911Y-112117253D01*
X115505908Y-112117250D01*
X115428057Y-112060688D01*
X115356752Y-112008882D01*
X115182288Y-111931206D01*
X115175835Y-111929834D01*
X115175831Y-111929833D01*
X115001943Y-111892872D01*
X115001940Y-111892871D01*
X114995487Y-111891500D01*
X114804513Y-111891500D01*
X114798060Y-111892871D01*
X114798056Y-111892872D01*
X114624168Y-111929833D01*
X114624161Y-111929835D01*
X114617712Y-111931206D01*
X114611682Y-111933890D01*
X114611681Y-111933891D01*
X114449278Y-112006197D01*
X114449275Y-112006198D01*
X114443248Y-112008882D01*
X114437907Y-112012762D01*
X114437906Y-112012763D01*
X114294091Y-112117250D01*
X114294083Y-112117256D01*
X114288747Y-112121134D01*
X114284330Y-112126039D01*
X114284325Y-112126044D01*
X114165379Y-112258148D01*
X114160960Y-112263056D01*
X114157661Y-112268769D01*
X114157658Y-112268774D01*
X114068777Y-112422721D01*
X114065473Y-112428444D01*
X114063434Y-112434718D01*
X114063430Y-112434728D01*
X114008497Y-112603794D01*
X114008495Y-112603801D01*
X114006458Y-112610072D01*
X113986496Y-112800000D01*
X102300500Y-112800000D01*
X102300500Y-110100000D01*
X147786496Y-110100000D01*
X147806458Y-110289928D01*
X147808495Y-110296200D01*
X147808497Y-110296205D01*
X147863430Y-110465271D01*
X147863433Y-110465278D01*
X147865473Y-110471556D01*
X147960960Y-110636944D01*
X148088747Y-110778866D01*
X148243248Y-110891118D01*
X148417712Y-110968794D01*
X148604513Y-111008500D01*
X148788884Y-111008500D01*
X148795487Y-111008500D01*
X148982288Y-110968794D01*
X149156752Y-110891118D01*
X149311253Y-110778866D01*
X149439040Y-110636944D01*
X149534527Y-110471556D01*
X149593542Y-110289928D01*
X149613504Y-110100000D01*
X149593542Y-109910072D01*
X149534527Y-109728444D01*
X149487794Y-109647501D01*
X149470913Y-109584500D01*
X149487794Y-109521500D01*
X149533913Y-109475381D01*
X149596913Y-109458500D01*
X149688884Y-109458500D01*
X149695487Y-109458500D01*
X149882288Y-109418794D01*
X150056752Y-109341118D01*
X150150943Y-109272683D01*
X150198803Y-109251375D01*
X150251197Y-109251375D01*
X150299056Y-109272683D01*
X150393248Y-109341118D01*
X150567712Y-109418794D01*
X150754513Y-109458500D01*
X150938884Y-109458500D01*
X150945487Y-109458500D01*
X151132288Y-109418794D01*
X151306752Y-109341118D01*
X151325937Y-109327178D01*
X151373801Y-109305868D01*
X151426196Y-109305867D01*
X151474059Y-109327176D01*
X151493248Y-109341118D01*
X151667712Y-109418794D01*
X151854513Y-109458500D01*
X152038884Y-109458500D01*
X152045487Y-109458500D01*
X152232288Y-109418794D01*
X152406752Y-109341118D01*
X152425937Y-109327178D01*
X152473801Y-109305868D01*
X152526196Y-109305867D01*
X152574059Y-109327176D01*
X152593248Y-109341118D01*
X152767712Y-109418794D01*
X152954513Y-109458500D01*
X152961118Y-109458500D01*
X152967682Y-109459190D01*
X152967525Y-109460674D01*
X153003490Y-109467659D01*
X153043795Y-109493805D01*
X153063898Y-109522464D01*
X153065473Y-109521556D01*
X153138187Y-109647501D01*
X153160960Y-109686944D01*
X153205001Y-109735856D01*
X153231196Y-109781227D01*
X153236673Y-109833334D01*
X153220483Y-109883163D01*
X153168775Y-109972723D01*
X153168771Y-109972730D01*
X153165473Y-109978444D01*
X153163434Y-109984718D01*
X153163430Y-109984728D01*
X153108497Y-110153794D01*
X153108495Y-110153801D01*
X153106458Y-110160072D01*
X153086496Y-110350000D01*
X153106458Y-110539928D01*
X153108495Y-110546200D01*
X153108497Y-110546205D01*
X153163430Y-110715271D01*
X153163433Y-110715278D01*
X153165473Y-110721556D01*
X153260960Y-110886944D01*
X153388747Y-111028866D01*
X153543248Y-111141118D01*
X153717712Y-111218794D01*
X153904513Y-111258500D01*
X154088884Y-111258500D01*
X154095487Y-111258500D01*
X154282288Y-111218794D01*
X154456752Y-111141118D01*
X154611253Y-111028866D01*
X154739040Y-110886944D01*
X154834527Y-110721556D01*
X154893542Y-110539928D01*
X154913504Y-110350000D01*
X154893542Y-110160072D01*
X154834527Y-109978444D01*
X154739040Y-109813056D01*
X154694997Y-109764141D01*
X154668803Y-109718771D01*
X154663326Y-109666664D01*
X154679515Y-109616838D01*
X154734527Y-109521556D01*
X154793542Y-109339928D01*
X154813504Y-109150000D01*
X154793542Y-108960072D01*
X154734527Y-108778444D01*
X154639040Y-108613056D01*
X154511253Y-108471134D01*
X154505911Y-108467253D01*
X154505908Y-108467250D01*
X154389602Y-108382749D01*
X154356752Y-108358882D01*
X154182288Y-108281206D01*
X154175835Y-108279834D01*
X154175831Y-108279833D01*
X154001943Y-108242872D01*
X154001940Y-108242871D01*
X153995487Y-108241500D01*
X153988885Y-108241500D01*
X153982318Y-108240810D01*
X153982474Y-108239325D01*
X153946510Y-108232341D01*
X153906205Y-108206195D01*
X153886101Y-108177535D01*
X153884527Y-108178444D01*
X153789040Y-108013056D01*
X153661253Y-107871134D01*
X153655911Y-107867253D01*
X153655908Y-107867250D01*
X153554310Y-107793435D01*
X153506752Y-107758882D01*
X153332288Y-107681206D01*
X153325835Y-107679834D01*
X153325831Y-107679833D01*
X153151943Y-107642872D01*
X153151940Y-107642871D01*
X153145487Y-107641500D01*
X152954513Y-107641500D01*
X152948060Y-107642871D01*
X152948056Y-107642872D01*
X152774168Y-107679833D01*
X152774161Y-107679835D01*
X152767712Y-107681206D01*
X152761682Y-107683890D01*
X152761681Y-107683891D01*
X152599279Y-107756197D01*
X152593248Y-107758882D01*
X152587915Y-107762756D01*
X152587902Y-107762764D01*
X152574054Y-107772825D01*
X152526192Y-107794132D01*
X152473801Y-107794131D01*
X152425940Y-107772822D01*
X152412097Y-107762765D01*
X152412094Y-107762763D01*
X152406752Y-107758882D01*
X152232288Y-107681206D01*
X152225835Y-107679834D01*
X152225831Y-107679833D01*
X152051943Y-107642872D01*
X152051940Y-107642871D01*
X152045487Y-107641500D01*
X151854513Y-107641500D01*
X151848060Y-107642871D01*
X151848056Y-107642872D01*
X151674168Y-107679833D01*
X151674161Y-107679835D01*
X151667712Y-107681206D01*
X151661682Y-107683890D01*
X151661681Y-107683891D01*
X151499279Y-107756197D01*
X151493248Y-107758882D01*
X151487915Y-107762756D01*
X151487902Y-107762764D01*
X151474054Y-107772825D01*
X151426192Y-107794132D01*
X151373801Y-107794131D01*
X151325940Y-107772822D01*
X151312097Y-107762765D01*
X151312094Y-107762763D01*
X151306752Y-107758882D01*
X151132288Y-107681206D01*
X151125835Y-107679834D01*
X151125831Y-107679833D01*
X150951943Y-107642872D01*
X150951940Y-107642871D01*
X150945487Y-107641500D01*
X150754513Y-107641500D01*
X150748060Y-107642871D01*
X150748056Y-107642872D01*
X150574168Y-107679833D01*
X150574161Y-107679835D01*
X150567712Y-107681206D01*
X150561682Y-107683890D01*
X150561681Y-107683891D01*
X150399278Y-107756197D01*
X150399275Y-107756198D01*
X150393248Y-107758882D01*
X150387907Y-107762762D01*
X150387906Y-107762763D01*
X150299061Y-107827313D01*
X150251197Y-107848624D01*
X150198803Y-107848624D01*
X150150939Y-107827313D01*
X150104310Y-107793435D01*
X150056752Y-107758882D01*
X149882288Y-107681206D01*
X149875835Y-107679834D01*
X149875831Y-107679833D01*
X149701943Y-107642872D01*
X149701940Y-107642871D01*
X149695487Y-107641500D01*
X149504513Y-107641500D01*
X149498060Y-107642871D01*
X149498056Y-107642872D01*
X149324168Y-107679833D01*
X149324161Y-107679835D01*
X149317712Y-107681206D01*
X149311682Y-107683890D01*
X149311681Y-107683891D01*
X149149278Y-107756197D01*
X149149275Y-107756198D01*
X149143248Y-107758882D01*
X149137907Y-107762762D01*
X149137906Y-107762763D01*
X148994091Y-107867250D01*
X148994083Y-107867256D01*
X148988747Y-107871134D01*
X148984330Y-107876039D01*
X148984325Y-107876044D01*
X148865379Y-108008148D01*
X148860960Y-108013056D01*
X148857661Y-108018769D01*
X148857658Y-108018774D01*
X148830814Y-108065271D01*
X148823882Y-108077278D01*
X148823176Y-108078500D01*
X148777057Y-108124619D01*
X148714057Y-108141500D01*
X148604513Y-108141500D01*
X148598060Y-108142871D01*
X148598056Y-108142872D01*
X148424168Y-108179833D01*
X148424161Y-108179835D01*
X148417712Y-108181206D01*
X148411682Y-108183890D01*
X148411681Y-108183891D01*
X148249278Y-108256197D01*
X148249275Y-108256198D01*
X148243248Y-108258882D01*
X148237907Y-108262762D01*
X148237906Y-108262763D01*
X148094091Y-108367250D01*
X148094083Y-108367256D01*
X148088747Y-108371134D01*
X148084330Y-108376039D01*
X148084325Y-108376044D01*
X147984208Y-108487236D01*
X147960960Y-108513056D01*
X147957661Y-108518769D01*
X147957658Y-108518774D01*
X147872595Y-108666108D01*
X147865473Y-108678444D01*
X147863434Y-108684718D01*
X147863430Y-108684728D01*
X147808497Y-108853794D01*
X147808495Y-108853801D01*
X147806458Y-108860072D01*
X147805768Y-108866633D01*
X147805768Y-108866635D01*
X147795948Y-108960072D01*
X147786496Y-109050000D01*
X147806458Y-109239928D01*
X147808495Y-109246200D01*
X147808497Y-109246205D01*
X147863430Y-109415271D01*
X147863433Y-109415278D01*
X147865473Y-109421556D01*
X147868773Y-109427272D01*
X147868775Y-109427276D01*
X147917691Y-109512001D01*
X147934571Y-109575000D01*
X147917691Y-109637999D01*
X147868775Y-109722723D01*
X147868771Y-109722730D01*
X147865473Y-109728444D01*
X147863434Y-109734718D01*
X147863430Y-109734728D01*
X147808497Y-109903794D01*
X147808495Y-109903801D01*
X147806458Y-109910072D01*
X147786496Y-110100000D01*
X102300500Y-110100000D01*
X102300500Y-95850000D01*
X124350000Y-95850000D01*
X124350000Y-107100000D01*
X124350000Y-107300000D01*
X128300000Y-107300000D01*
X128801291Y-107300000D01*
X128858494Y-107313733D01*
X128903227Y-107351939D01*
X128925740Y-107406290D01*
X128921124Y-107464934D01*
X128906458Y-107510072D01*
X128905768Y-107516633D01*
X128905768Y-107516635D01*
X128892500Y-107642872D01*
X128886496Y-107700000D01*
X128906458Y-107889928D01*
X128908495Y-107896200D01*
X128908497Y-107896205D01*
X128963430Y-108065271D01*
X128963433Y-108065278D01*
X128965473Y-108071556D01*
X129060960Y-108236944D01*
X129188747Y-108378866D01*
X129343248Y-108491118D01*
X129517712Y-108568794D01*
X129704513Y-108608500D01*
X129888884Y-108608500D01*
X129895487Y-108608500D01*
X130082288Y-108568794D01*
X130198753Y-108516940D01*
X130250000Y-108506048D01*
X130301246Y-108516940D01*
X130417712Y-108568794D01*
X130604513Y-108608500D01*
X130788884Y-108608500D01*
X130795487Y-108608500D01*
X130982288Y-108568794D01*
X131156752Y-108491118D01*
X131311253Y-108378866D01*
X131439040Y-108236944D01*
X131534527Y-108071556D01*
X131593542Y-107889928D01*
X131602994Y-107800000D01*
X143886496Y-107800000D01*
X143906458Y-107989928D01*
X143908495Y-107996200D01*
X143908497Y-107996205D01*
X143963430Y-108165271D01*
X143963433Y-108165278D01*
X143965473Y-108171556D01*
X144060960Y-108336944D01*
X144188747Y-108478866D01*
X144194089Y-108482747D01*
X144194091Y-108482749D01*
X144226160Y-108506048D01*
X144343248Y-108591118D01*
X144517712Y-108668794D01*
X144704513Y-108708500D01*
X144888884Y-108708500D01*
X144895487Y-108708500D01*
X145082288Y-108668794D01*
X145256752Y-108591118D01*
X145411253Y-108478866D01*
X145539040Y-108336944D01*
X145634527Y-108171556D01*
X145693542Y-107989928D01*
X145713504Y-107800000D01*
X145693542Y-107610072D01*
X145659010Y-107503794D01*
X145636569Y-107434728D01*
X145636568Y-107434726D01*
X145634527Y-107428444D01*
X145539040Y-107263056D01*
X145411253Y-107121134D01*
X145405911Y-107117253D01*
X145405908Y-107117250D01*
X145273615Y-107021134D01*
X145256752Y-107008882D01*
X145082288Y-106931206D01*
X145075835Y-106929834D01*
X145075831Y-106929833D01*
X144901943Y-106892872D01*
X144901940Y-106892871D01*
X144895487Y-106891500D01*
X144704513Y-106891500D01*
X144698060Y-106892871D01*
X144698056Y-106892872D01*
X144524168Y-106929833D01*
X144524161Y-106929835D01*
X144517712Y-106931206D01*
X144511682Y-106933890D01*
X144511681Y-106933891D01*
X144349278Y-107006197D01*
X144349275Y-107006198D01*
X144343248Y-107008882D01*
X144337907Y-107012762D01*
X144337906Y-107012763D01*
X144194091Y-107117250D01*
X144194083Y-107117256D01*
X144188747Y-107121134D01*
X144184330Y-107126039D01*
X144184325Y-107126044D01*
X144065379Y-107258148D01*
X144060960Y-107263056D01*
X144057661Y-107268769D01*
X144057658Y-107268774D01*
X143968777Y-107422721D01*
X143965473Y-107428444D01*
X143963434Y-107434718D01*
X143963430Y-107434728D01*
X143908497Y-107603794D01*
X143908495Y-107603801D01*
X143906458Y-107610072D01*
X143905768Y-107616633D01*
X143905768Y-107616635D01*
X143889352Y-107772822D01*
X143886496Y-107800000D01*
X131602994Y-107800000D01*
X131613504Y-107700000D01*
X131593542Y-107510072D01*
X131534527Y-107328444D01*
X131439040Y-107163056D01*
X131311253Y-107021134D01*
X131305911Y-107017253D01*
X131305908Y-107017250D01*
X131228057Y-106960688D01*
X131156752Y-106908882D01*
X130982288Y-106831206D01*
X130975835Y-106829834D01*
X130975831Y-106829833D01*
X130801943Y-106792872D01*
X130801940Y-106792871D01*
X130795487Y-106791500D01*
X130604513Y-106791500D01*
X130598060Y-106792871D01*
X130598056Y-106792872D01*
X130424172Y-106829832D01*
X130424164Y-106829834D01*
X130417712Y-106831206D01*
X130411681Y-106833890D01*
X130411675Y-106833893D01*
X130301247Y-106883058D01*
X130249999Y-106893951D01*
X130198751Y-106883058D01*
X130088323Y-106833893D01*
X130082288Y-106831206D01*
X130075832Y-106829833D01*
X130075827Y-106829832D01*
X129901943Y-106792872D01*
X129901940Y-106792871D01*
X129895487Y-106791500D01*
X129704513Y-106791500D01*
X129698056Y-106792872D01*
X129691485Y-106793563D01*
X129691209Y-106790937D01*
X129632763Y-106786596D01*
X129576288Y-106744471D01*
X129551257Y-106678611D01*
X129565498Y-106609612D01*
X129994117Y-105800000D01*
X157986496Y-105800000D01*
X158006458Y-105989928D01*
X158008495Y-105996200D01*
X158008497Y-105996205D01*
X158063430Y-106165271D01*
X158063433Y-106165278D01*
X158065473Y-106171556D01*
X158160960Y-106336944D01*
X158288747Y-106478866D01*
X158443248Y-106591118D01*
X158617712Y-106668794D01*
X158804513Y-106708500D01*
X158988884Y-106708500D01*
X158995487Y-106708500D01*
X159182288Y-106668794D01*
X159356752Y-106591118D01*
X159511253Y-106478866D01*
X159639040Y-106336944D01*
X159734527Y-106171556D01*
X159793542Y-105989928D01*
X159813504Y-105800000D01*
X159793542Y-105610072D01*
X159734527Y-105428444D01*
X159639040Y-105263056D01*
X159511253Y-105121134D01*
X159505911Y-105117253D01*
X159505908Y-105117250D01*
X159408519Y-105046493D01*
X159356752Y-105008882D01*
X159182288Y-104931206D01*
X159175835Y-104929834D01*
X159175831Y-104929833D01*
X159001943Y-104892872D01*
X159001940Y-104892871D01*
X158995487Y-104891500D01*
X158804513Y-104891500D01*
X158798060Y-104892871D01*
X158798056Y-104892872D01*
X158624168Y-104929833D01*
X158624161Y-104929835D01*
X158617712Y-104931206D01*
X158611682Y-104933890D01*
X158611681Y-104933891D01*
X158449278Y-105006197D01*
X158449275Y-105006198D01*
X158443248Y-105008882D01*
X158437907Y-105012762D01*
X158437906Y-105012763D01*
X158294091Y-105117250D01*
X158294083Y-105117256D01*
X158288747Y-105121134D01*
X158284330Y-105126039D01*
X158284325Y-105126044D01*
X158165379Y-105258148D01*
X158160960Y-105263056D01*
X158157661Y-105268769D01*
X158157658Y-105268774D01*
X158103257Y-105363000D01*
X158065473Y-105428444D01*
X158063434Y-105434718D01*
X158063430Y-105434728D01*
X158008497Y-105603794D01*
X158008495Y-105603801D01*
X158006458Y-105610072D01*
X157986496Y-105800000D01*
X129994117Y-105800000D01*
X130100000Y-105600000D01*
X130100000Y-105426000D01*
X130116881Y-105363000D01*
X130163000Y-105316881D01*
X130226000Y-105300000D01*
X131133410Y-105300000D01*
X131150000Y-105300000D01*
X131150000Y-105176000D01*
X131166881Y-105113000D01*
X131213000Y-105066881D01*
X131276000Y-105050000D01*
X131733410Y-105050000D01*
X131750000Y-105050000D01*
X131750000Y-105038252D01*
X131772511Y-104995009D01*
X131815783Y-104961805D01*
X131869033Y-104950000D01*
X132885517Y-104950000D01*
X132900000Y-104950000D01*
X132930000Y-104800000D01*
X181686496Y-104800000D01*
X181687186Y-104806565D01*
X181697352Y-104903294D01*
X181706458Y-104989928D01*
X181708495Y-104996200D01*
X181708497Y-104996205D01*
X181763430Y-105165271D01*
X181763433Y-105165278D01*
X181765473Y-105171556D01*
X181860960Y-105336944D01*
X181988747Y-105478866D01*
X182143248Y-105591118D01*
X182317712Y-105668794D01*
X182504513Y-105708500D01*
X182688884Y-105708500D01*
X182695487Y-105708500D01*
X182882288Y-105668794D01*
X183056752Y-105591118D01*
X183211253Y-105478866D01*
X183339040Y-105336944D01*
X183434527Y-105171556D01*
X183493542Y-104989928D01*
X183513504Y-104800000D01*
X183493542Y-104610072D01*
X183434527Y-104428444D01*
X183339040Y-104263056D01*
X183211253Y-104121134D01*
X183205911Y-104117253D01*
X183205908Y-104117250D01*
X183128057Y-104060688D01*
X183056752Y-104008882D01*
X182882288Y-103931206D01*
X182875835Y-103929834D01*
X182875831Y-103929833D01*
X182701943Y-103892872D01*
X182701940Y-103892871D01*
X182695487Y-103891500D01*
X182504513Y-103891500D01*
X182498060Y-103892871D01*
X182498056Y-103892872D01*
X182324168Y-103929833D01*
X182324161Y-103929835D01*
X182317712Y-103931206D01*
X182311682Y-103933890D01*
X182311681Y-103933891D01*
X182149278Y-104006197D01*
X182149275Y-104006198D01*
X182143248Y-104008882D01*
X182137907Y-104012762D01*
X182137906Y-104012763D01*
X181994091Y-104117250D01*
X181994083Y-104117256D01*
X181988747Y-104121134D01*
X181984330Y-104126039D01*
X181984325Y-104126044D01*
X181865379Y-104258148D01*
X181860960Y-104263056D01*
X181857661Y-104268769D01*
X181857658Y-104268774D01*
X181794182Y-104378718D01*
X181765473Y-104428444D01*
X181763434Y-104434718D01*
X181763430Y-104434728D01*
X181708497Y-104603794D01*
X181708495Y-104603801D01*
X181706458Y-104610072D01*
X181686496Y-104800000D01*
X132930000Y-104800000D01*
X133050000Y-104200000D01*
X133050000Y-104026000D01*
X133066881Y-103963000D01*
X133113000Y-103916881D01*
X133176000Y-103900000D01*
X134633410Y-103900000D01*
X134650000Y-103900000D01*
X134650000Y-103200000D01*
X139886496Y-103200000D01*
X139906458Y-103389928D01*
X139908495Y-103396200D01*
X139908497Y-103396205D01*
X139963430Y-103565271D01*
X139963433Y-103565278D01*
X139965473Y-103571556D01*
X140060960Y-103736944D01*
X140188747Y-103878866D01*
X140194089Y-103882747D01*
X140194091Y-103882749D01*
X140213008Y-103896493D01*
X140343248Y-103991118D01*
X140517712Y-104068794D01*
X140704513Y-104108500D01*
X140888884Y-104108500D01*
X140895487Y-104108500D01*
X141082288Y-104068794D01*
X141256752Y-103991118D01*
X141411253Y-103878866D01*
X141539040Y-103736944D01*
X141634527Y-103571556D01*
X141693542Y-103389928D01*
X141713504Y-103200000D01*
X141693542Y-103010072D01*
X141634527Y-102828444D01*
X141539040Y-102663056D01*
X141411253Y-102521134D01*
X141405911Y-102517253D01*
X141405908Y-102517250D01*
X141328057Y-102460688D01*
X141256752Y-102408882D01*
X141082288Y-102331206D01*
X141075835Y-102329834D01*
X141075831Y-102329833D01*
X140901943Y-102292872D01*
X140901940Y-102292871D01*
X140895487Y-102291500D01*
X140704513Y-102291500D01*
X140698060Y-102292871D01*
X140698056Y-102292872D01*
X140524168Y-102329833D01*
X140524161Y-102329835D01*
X140517712Y-102331206D01*
X140511682Y-102333890D01*
X140511681Y-102333891D01*
X140349278Y-102406197D01*
X140349275Y-102406198D01*
X140343248Y-102408882D01*
X140337907Y-102412762D01*
X140337906Y-102412763D01*
X140194091Y-102517250D01*
X140194083Y-102517256D01*
X140188747Y-102521134D01*
X140184330Y-102526039D01*
X140184325Y-102526044D01*
X140065379Y-102658148D01*
X140060960Y-102663056D01*
X140057661Y-102668769D01*
X140057658Y-102668774D01*
X139968777Y-102822721D01*
X139965473Y-102828444D01*
X139963434Y-102834718D01*
X139963430Y-102834728D01*
X139908497Y-103003794D01*
X139908495Y-103003801D01*
X139906458Y-103010072D01*
X139886496Y-103200000D01*
X134650000Y-103200000D01*
X134650000Y-102176000D01*
X134666881Y-102113000D01*
X134713000Y-102066881D01*
X134776000Y-102050000D01*
X136783410Y-102050000D01*
X136800000Y-102050000D01*
X136800000Y-101100000D01*
X138336496Y-101100000D01*
X138337186Y-101106565D01*
X138349227Y-101221134D01*
X138356458Y-101289928D01*
X138358495Y-101296200D01*
X138358497Y-101296205D01*
X138413430Y-101465271D01*
X138413433Y-101465278D01*
X138415473Y-101471556D01*
X138510960Y-101636944D01*
X138638747Y-101778866D01*
X138793248Y-101891118D01*
X138967712Y-101968794D01*
X139154513Y-102008500D01*
X139338884Y-102008500D01*
X139345487Y-102008500D01*
X139532288Y-101968794D01*
X139686803Y-101900000D01*
X162486496Y-101900000D01*
X162506458Y-102089928D01*
X162508495Y-102096200D01*
X162508497Y-102096205D01*
X162563430Y-102265271D01*
X162563433Y-102265278D01*
X162565473Y-102271556D01*
X162660960Y-102436944D01*
X162788747Y-102578866D01*
X162943248Y-102691118D01*
X163117712Y-102768794D01*
X163304513Y-102808500D01*
X163488884Y-102808500D01*
X163495487Y-102808500D01*
X163682288Y-102768794D01*
X163856752Y-102691118D01*
X164011253Y-102578866D01*
X164139040Y-102436944D01*
X164234527Y-102271556D01*
X164293542Y-102089928D01*
X164313504Y-101900000D01*
X164293542Y-101710072D01*
X164234527Y-101528444D01*
X164139040Y-101363056D01*
X164011253Y-101221134D01*
X164005911Y-101217253D01*
X164005908Y-101217250D01*
X163928057Y-101160688D01*
X163856752Y-101108882D01*
X163682288Y-101031206D01*
X163675835Y-101029834D01*
X163675831Y-101029833D01*
X163501943Y-100992872D01*
X163501940Y-100992871D01*
X163495487Y-100991500D01*
X163304513Y-100991500D01*
X163298060Y-100992871D01*
X163298056Y-100992872D01*
X163124168Y-101029833D01*
X163124161Y-101029835D01*
X163117712Y-101031206D01*
X163111682Y-101033890D01*
X163111681Y-101033891D01*
X162949278Y-101106197D01*
X162949275Y-101106198D01*
X162943248Y-101108882D01*
X162937907Y-101112762D01*
X162937906Y-101112763D01*
X162794091Y-101217250D01*
X162794083Y-101217256D01*
X162788747Y-101221134D01*
X162784330Y-101226039D01*
X162784325Y-101226044D01*
X162665379Y-101358148D01*
X162660960Y-101363056D01*
X162657661Y-101368769D01*
X162657658Y-101368774D01*
X162568777Y-101522721D01*
X162565473Y-101528444D01*
X162563434Y-101534718D01*
X162563430Y-101534728D01*
X162508497Y-101703794D01*
X162508495Y-101703801D01*
X162506458Y-101710072D01*
X162505768Y-101716633D01*
X162505768Y-101716635D01*
X162498819Y-101782749D01*
X162486496Y-101900000D01*
X139686803Y-101900000D01*
X139706752Y-101891118D01*
X139861253Y-101778866D01*
X139989040Y-101636944D01*
X140084527Y-101471556D01*
X140143542Y-101289928D01*
X140163504Y-101100000D01*
X140143542Y-100910072D01*
X140084527Y-100728444D01*
X139989040Y-100563056D01*
X139861253Y-100421134D01*
X139855911Y-100417253D01*
X139855908Y-100417250D01*
X139778057Y-100360688D01*
X139706752Y-100308882D01*
X139532288Y-100231206D01*
X139525835Y-100229834D01*
X139525831Y-100229833D01*
X139351943Y-100192872D01*
X139351940Y-100192871D01*
X139345487Y-100191500D01*
X139154513Y-100191500D01*
X139148060Y-100192871D01*
X139148056Y-100192872D01*
X138974168Y-100229833D01*
X138974161Y-100229835D01*
X138967712Y-100231206D01*
X138961682Y-100233890D01*
X138961681Y-100233891D01*
X138799278Y-100306197D01*
X138799275Y-100306198D01*
X138793248Y-100308882D01*
X138787907Y-100312762D01*
X138787906Y-100312763D01*
X138644091Y-100417250D01*
X138644083Y-100417256D01*
X138638747Y-100421134D01*
X138634330Y-100426039D01*
X138634325Y-100426044D01*
X138515379Y-100558148D01*
X138510960Y-100563056D01*
X138507661Y-100568769D01*
X138507658Y-100568774D01*
X138418777Y-100722721D01*
X138415473Y-100728444D01*
X138413434Y-100734718D01*
X138413430Y-100734728D01*
X138358497Y-100903794D01*
X138358495Y-100903801D01*
X138356458Y-100910072D01*
X138336496Y-101100000D01*
X136800000Y-101100000D01*
X136800000Y-100900000D01*
X136783410Y-100900000D01*
X134676000Y-100900000D01*
X134613000Y-100883119D01*
X134566881Y-100837000D01*
X134550000Y-100774000D01*
X134550000Y-99516590D01*
X134550000Y-99500000D01*
X134533410Y-99500000D01*
X133026000Y-99500000D01*
X132963000Y-99483119D01*
X132916881Y-99437000D01*
X132900000Y-99374000D01*
X132900000Y-98886420D01*
X132914338Y-98828045D01*
X132954090Y-98782955D01*
X133010208Y-98761414D01*
X133069920Y-98768323D01*
X133119635Y-98802109D01*
X133188747Y-98878866D01*
X133343248Y-98991118D01*
X133517712Y-99068794D01*
X133704513Y-99108500D01*
X133888884Y-99108500D01*
X133895487Y-99108500D01*
X134082288Y-99068794D01*
X134256752Y-98991118D01*
X134411253Y-98878866D01*
X134539040Y-98736944D01*
X134634527Y-98571556D01*
X134693542Y-98389928D01*
X134713504Y-98200000D01*
X134693542Y-98010072D01*
X134634527Y-97828444D01*
X134618105Y-97800000D01*
X143886496Y-97800000D01*
X143906458Y-97989928D01*
X143908495Y-97996200D01*
X143908497Y-97996205D01*
X143963430Y-98165271D01*
X143963433Y-98165278D01*
X143965473Y-98171556D01*
X144023208Y-98271556D01*
X144056075Y-98328484D01*
X144060960Y-98336944D01*
X144188747Y-98478866D01*
X144343248Y-98591118D01*
X144517712Y-98668794D01*
X144704513Y-98708500D01*
X144888884Y-98708500D01*
X144895487Y-98708500D01*
X145082288Y-98668794D01*
X145256752Y-98591118D01*
X145411253Y-98478866D01*
X145482264Y-98400000D01*
X158886496Y-98400000D01*
X158906458Y-98589928D01*
X158908495Y-98596200D01*
X158908497Y-98596205D01*
X158963430Y-98765271D01*
X158963433Y-98765278D01*
X158965473Y-98771556D01*
X159060960Y-98936944D01*
X159188747Y-99078866D01*
X159194089Y-99082747D01*
X159194091Y-99082749D01*
X159237298Y-99114141D01*
X159343248Y-99191118D01*
X159517712Y-99268794D01*
X159704513Y-99308500D01*
X159735189Y-99308500D01*
X159798189Y-99325381D01*
X159844308Y-99371500D01*
X159882092Y-99436944D01*
X159910960Y-99486944D01*
X160038747Y-99628866D01*
X160193248Y-99741118D01*
X160367712Y-99818794D01*
X160554513Y-99858500D01*
X160738884Y-99858500D01*
X160745487Y-99858500D01*
X160932288Y-99818794D01*
X161106752Y-99741118D01*
X161142430Y-99715195D01*
X161203320Y-99691820D01*
X161267740Y-99702022D01*
X161417712Y-99768794D01*
X161604513Y-99808500D01*
X161788884Y-99808500D01*
X161795487Y-99808500D01*
X161982288Y-99768794D01*
X162156752Y-99691118D01*
X162311253Y-99578866D01*
X162439040Y-99436944D01*
X162534527Y-99271556D01*
X162593542Y-99089928D01*
X162613504Y-98900000D01*
X162593542Y-98710072D01*
X162534527Y-98528444D01*
X162536828Y-98527696D01*
X162528449Y-98482870D01*
X162545163Y-98426337D01*
X162634527Y-98271556D01*
X162693542Y-98089928D01*
X162713504Y-97900000D01*
X162693542Y-97710072D01*
X162634527Y-97528444D01*
X162565966Y-97409693D01*
X162549777Y-97359868D01*
X162555253Y-97307766D01*
X162593542Y-97189928D01*
X162613504Y-97000000D01*
X162593542Y-96810072D01*
X162534527Y-96628444D01*
X162439040Y-96463056D01*
X162311253Y-96321134D01*
X162305911Y-96317253D01*
X162305908Y-96317250D01*
X162215589Y-96251630D01*
X162156752Y-96208882D01*
X161982288Y-96131206D01*
X161975835Y-96129834D01*
X161975831Y-96129833D01*
X161801943Y-96092872D01*
X161801940Y-96092871D01*
X161795487Y-96091500D01*
X161604513Y-96091500D01*
X161598060Y-96092871D01*
X161598056Y-96092872D01*
X161424168Y-96129833D01*
X161424161Y-96129835D01*
X161417712Y-96131206D01*
X161411682Y-96133890D01*
X161411681Y-96133891D01*
X161249274Y-96206198D01*
X161249266Y-96206202D01*
X161248986Y-96206327D01*
X161248978Y-96206330D01*
X161243248Y-96208882D01*
X161243024Y-96208380D01*
X161203683Y-96221925D01*
X161155667Y-96219408D01*
X161112091Y-96199088D01*
X161090449Y-96183364D01*
X161056752Y-96158882D01*
X160882288Y-96081206D01*
X160875835Y-96079834D01*
X160875831Y-96079833D01*
X160701943Y-96042872D01*
X160701940Y-96042871D01*
X160695487Y-96041500D01*
X160504513Y-96041500D01*
X160498060Y-96042871D01*
X160498056Y-96042872D01*
X160324168Y-96079833D01*
X160324161Y-96079835D01*
X160317712Y-96081206D01*
X160311682Y-96083890D01*
X160311681Y-96083891D01*
X160149278Y-96156197D01*
X160149275Y-96156198D01*
X160143248Y-96158882D01*
X160137907Y-96162762D01*
X160137906Y-96162763D01*
X159994091Y-96267250D01*
X159994083Y-96267256D01*
X159988747Y-96271134D01*
X159984330Y-96276039D01*
X159984325Y-96276044D01*
X159865379Y-96408148D01*
X159860960Y-96413056D01*
X159857661Y-96418769D01*
X159857661Y-96418770D01*
X159793060Y-96530662D01*
X159752573Y-96573329D01*
X159704286Y-96590433D01*
X159704513Y-96591500D01*
X159524168Y-96629833D01*
X159524161Y-96629835D01*
X159517712Y-96631206D01*
X159511682Y-96633890D01*
X159511681Y-96633891D01*
X159349278Y-96706197D01*
X159349275Y-96706198D01*
X159343248Y-96708882D01*
X159337907Y-96712762D01*
X159337906Y-96712763D01*
X159194091Y-96817250D01*
X159194083Y-96817256D01*
X159188747Y-96821134D01*
X159184330Y-96826039D01*
X159184325Y-96826044D01*
X159087220Y-96933891D01*
X159060960Y-96963056D01*
X159057661Y-96968769D01*
X159057658Y-96968774D01*
X158971936Y-97117250D01*
X158965473Y-97128444D01*
X158963434Y-97134718D01*
X158963430Y-97134728D01*
X158908497Y-97303794D01*
X158908495Y-97303801D01*
X158906458Y-97310072D01*
X158905768Y-97316633D01*
X158905768Y-97316635D01*
X158900889Y-97363056D01*
X158886496Y-97500000D01*
X158887186Y-97506565D01*
X158896784Y-97597890D01*
X158906458Y-97689928D01*
X158908495Y-97696200D01*
X158908497Y-97696205D01*
X158963430Y-97865271D01*
X158963433Y-97865278D01*
X158965473Y-97871556D01*
X158968776Y-97877277D01*
X158974388Y-97886997D01*
X158991270Y-97949995D01*
X158974392Y-98012995D01*
X158968775Y-98022723D01*
X158968771Y-98022730D01*
X158965473Y-98028444D01*
X158963434Y-98034718D01*
X158963430Y-98034728D01*
X158908497Y-98203794D01*
X158908495Y-98203801D01*
X158906458Y-98210072D01*
X158905768Y-98216633D01*
X158905768Y-98216635D01*
X158893724Y-98331225D01*
X158886496Y-98400000D01*
X145482264Y-98400000D01*
X145539040Y-98336944D01*
X145634527Y-98171556D01*
X145693542Y-97989928D01*
X145713504Y-97800000D01*
X145693542Y-97610072D01*
X145634527Y-97428444D01*
X145539040Y-97263056D01*
X145411253Y-97121134D01*
X145405911Y-97117253D01*
X145405908Y-97117250D01*
X145328057Y-97060688D01*
X145256752Y-97008882D01*
X145082288Y-96931206D01*
X145075835Y-96929834D01*
X145075831Y-96929833D01*
X144901943Y-96892872D01*
X144901940Y-96892871D01*
X144895487Y-96891500D01*
X144704513Y-96891500D01*
X144698060Y-96892871D01*
X144698056Y-96892872D01*
X144524168Y-96929833D01*
X144524161Y-96929835D01*
X144517712Y-96931206D01*
X144511682Y-96933890D01*
X144511681Y-96933891D01*
X144349278Y-97006197D01*
X144349275Y-97006198D01*
X144343248Y-97008882D01*
X144337907Y-97012762D01*
X144337906Y-97012763D01*
X144194091Y-97117250D01*
X144194083Y-97117256D01*
X144188747Y-97121134D01*
X144184330Y-97126039D01*
X144184325Y-97126044D01*
X144065379Y-97258148D01*
X144060960Y-97263056D01*
X144057661Y-97268769D01*
X144057658Y-97268774D01*
X143978317Y-97406197D01*
X143965473Y-97428444D01*
X143963434Y-97434718D01*
X143963430Y-97434728D01*
X143908497Y-97603794D01*
X143908495Y-97603801D01*
X143906458Y-97610072D01*
X143905768Y-97616633D01*
X143905768Y-97616635D01*
X143895948Y-97710072D01*
X143886496Y-97800000D01*
X134618105Y-97800000D01*
X134539040Y-97663056D01*
X134411253Y-97521134D01*
X134405911Y-97517253D01*
X134405908Y-97517250D01*
X134328057Y-97460688D01*
X134256752Y-97408882D01*
X134082288Y-97331206D01*
X134075835Y-97329834D01*
X134075831Y-97329833D01*
X133901943Y-97292872D01*
X133901940Y-97292871D01*
X133895487Y-97291500D01*
X133704513Y-97291500D01*
X133698060Y-97292871D01*
X133698056Y-97292872D01*
X133524168Y-97329833D01*
X133524161Y-97329835D01*
X133517712Y-97331206D01*
X133511682Y-97333890D01*
X133511681Y-97333891D01*
X133349278Y-97406197D01*
X133349275Y-97406198D01*
X133343248Y-97408882D01*
X133337907Y-97412762D01*
X133337906Y-97412763D01*
X133194091Y-97517250D01*
X133194083Y-97517256D01*
X133188747Y-97521134D01*
X133184330Y-97526039D01*
X133184325Y-97526044D01*
X133119636Y-97597890D01*
X133069920Y-97631677D01*
X133010208Y-97638586D01*
X132954090Y-97617045D01*
X132914338Y-97571955D01*
X132900000Y-97513580D01*
X132900000Y-95866590D01*
X132900000Y-95850000D01*
X124850000Y-95850000D01*
X124350000Y-95850000D01*
X102300500Y-95850000D01*
X102300500Y-95700000D01*
X135886496Y-95700000D01*
X135906458Y-95889928D01*
X135908495Y-95896200D01*
X135908497Y-95896205D01*
X135963430Y-96065271D01*
X135963433Y-96065278D01*
X135965473Y-96071556D01*
X136030026Y-96183364D01*
X136050835Y-96219408D01*
X136060960Y-96236944D01*
X136188747Y-96378866D01*
X136343248Y-96491118D01*
X136517712Y-96568794D01*
X136704513Y-96608500D01*
X136888884Y-96608500D01*
X136895487Y-96608500D01*
X137082288Y-96568794D01*
X137256752Y-96491118D01*
X137411253Y-96378866D01*
X137539040Y-96236944D01*
X137634527Y-96071556D01*
X137657777Y-96000000D01*
X150686496Y-96000000D01*
X150706458Y-96189928D01*
X150708495Y-96196200D01*
X150708497Y-96196205D01*
X150763430Y-96365271D01*
X150763433Y-96365278D01*
X150765473Y-96371556D01*
X150860960Y-96536944D01*
X150988747Y-96678866D01*
X151143248Y-96791118D01*
X151317712Y-96868794D01*
X151504513Y-96908500D01*
X151688884Y-96908500D01*
X151695487Y-96908500D01*
X151882288Y-96868794D01*
X152056752Y-96791118D01*
X152211253Y-96678866D01*
X152339040Y-96536944D01*
X152434527Y-96371556D01*
X152493542Y-96189928D01*
X152513504Y-96000000D01*
X152493542Y-95810072D01*
X152434527Y-95628444D01*
X152339040Y-95463056D01*
X152211253Y-95321134D01*
X152205911Y-95317253D01*
X152205908Y-95317250D01*
X152128057Y-95260688D01*
X152056752Y-95208882D01*
X151882288Y-95131206D01*
X151875835Y-95129834D01*
X151875831Y-95129833D01*
X151701943Y-95092872D01*
X151701940Y-95092871D01*
X151695487Y-95091500D01*
X151504513Y-95091500D01*
X151498060Y-95092871D01*
X151498056Y-95092872D01*
X151324168Y-95129833D01*
X151324161Y-95129835D01*
X151317712Y-95131206D01*
X151311682Y-95133890D01*
X151311681Y-95133891D01*
X151149278Y-95206197D01*
X151149275Y-95206198D01*
X151143248Y-95208882D01*
X151137907Y-95212762D01*
X151137906Y-95212763D01*
X150994091Y-95317250D01*
X150994083Y-95317256D01*
X150988747Y-95321134D01*
X150984330Y-95326039D01*
X150984325Y-95326044D01*
X150865379Y-95458148D01*
X150860960Y-95463056D01*
X150857661Y-95468769D01*
X150857658Y-95468774D01*
X150833815Y-95510072D01*
X150765473Y-95628444D01*
X150763434Y-95634718D01*
X150763430Y-95634728D01*
X150708497Y-95803794D01*
X150708495Y-95803801D01*
X150706458Y-95810072D01*
X150686496Y-96000000D01*
X137657777Y-96000000D01*
X137693542Y-95889928D01*
X137713504Y-95700000D01*
X137693542Y-95510072D01*
X137634527Y-95328444D01*
X137539040Y-95163056D01*
X137411253Y-95021134D01*
X137405911Y-95017253D01*
X137405908Y-95017250D01*
X137328057Y-94960688D01*
X137256752Y-94908882D01*
X137082288Y-94831206D01*
X137075835Y-94829834D01*
X137075831Y-94829833D01*
X136901943Y-94792872D01*
X136901940Y-94792871D01*
X136895487Y-94791500D01*
X136704513Y-94791500D01*
X136698060Y-94792871D01*
X136698056Y-94792872D01*
X136524168Y-94829833D01*
X136524161Y-94829835D01*
X136517712Y-94831206D01*
X136511682Y-94833890D01*
X136511681Y-94833891D01*
X136349278Y-94906197D01*
X136349275Y-94906198D01*
X136343248Y-94908882D01*
X136337907Y-94912762D01*
X136337906Y-94912763D01*
X136194091Y-95017250D01*
X136194083Y-95017256D01*
X136188747Y-95021134D01*
X136184330Y-95026039D01*
X136184325Y-95026044D01*
X136087220Y-95133891D01*
X136060960Y-95163056D01*
X136057661Y-95168769D01*
X136057658Y-95168774D01*
X135971936Y-95317250D01*
X135965473Y-95328444D01*
X135963434Y-95334718D01*
X135963430Y-95334728D01*
X135908497Y-95503794D01*
X135908495Y-95503801D01*
X135906458Y-95510072D01*
X135886496Y-95700000D01*
X102300500Y-95700000D01*
X102300500Y-94000000D01*
X133086496Y-94000000D01*
X133106458Y-94189928D01*
X133108495Y-94196200D01*
X133108497Y-94196205D01*
X133163430Y-94365271D01*
X133163433Y-94365278D01*
X133165473Y-94371556D01*
X133260960Y-94536944D01*
X133388747Y-94678866D01*
X133543248Y-94791118D01*
X133717712Y-94868794D01*
X133904513Y-94908500D01*
X134088884Y-94908500D01*
X134095487Y-94908500D01*
X134282288Y-94868794D01*
X134456752Y-94791118D01*
X134611253Y-94678866D01*
X134739040Y-94536944D01*
X134834527Y-94371556D01*
X134893542Y-94189928D01*
X134913504Y-94000000D01*
X134893542Y-93810072D01*
X134834527Y-93628444D01*
X134739040Y-93463056D01*
X134611253Y-93321134D01*
X134605911Y-93317253D01*
X134605908Y-93317250D01*
X134528057Y-93260688D01*
X134456752Y-93208882D01*
X134282288Y-93131206D01*
X134275835Y-93129834D01*
X134275831Y-93129833D01*
X134101943Y-93092872D01*
X134101940Y-93092871D01*
X134095487Y-93091500D01*
X133904513Y-93091500D01*
X133898060Y-93092871D01*
X133898056Y-93092872D01*
X133724168Y-93129833D01*
X133724161Y-93129835D01*
X133717712Y-93131206D01*
X133711682Y-93133890D01*
X133711681Y-93133891D01*
X133549278Y-93206197D01*
X133549275Y-93206198D01*
X133543248Y-93208882D01*
X133537907Y-93212762D01*
X133537906Y-93212763D01*
X133394091Y-93317250D01*
X133394083Y-93317256D01*
X133388747Y-93321134D01*
X133384330Y-93326039D01*
X133384325Y-93326044D01*
X133265379Y-93458148D01*
X133260960Y-93463056D01*
X133257661Y-93468769D01*
X133257658Y-93468774D01*
X133168777Y-93622721D01*
X133165473Y-93628444D01*
X133163434Y-93634718D01*
X133163430Y-93634728D01*
X133108497Y-93803794D01*
X133108495Y-93803801D01*
X133106458Y-93810072D01*
X133086496Y-94000000D01*
X102300500Y-94000000D01*
X102300500Y-91800000D01*
X137086496Y-91800000D01*
X137106458Y-91989928D01*
X137108495Y-91996200D01*
X137108497Y-91996205D01*
X137163430Y-92165271D01*
X137163433Y-92165278D01*
X137165473Y-92171556D01*
X137260960Y-92336944D01*
X137388747Y-92478866D01*
X137543248Y-92591118D01*
X137717712Y-92668794D01*
X137904513Y-92708500D01*
X138088884Y-92708500D01*
X138095487Y-92708500D01*
X138282288Y-92668794D01*
X138456752Y-92591118D01*
X138611253Y-92478866D01*
X138739040Y-92336944D01*
X138825322Y-92187500D01*
X140236496Y-92187500D01*
X140256458Y-92377428D01*
X140258495Y-92383700D01*
X140258497Y-92383705D01*
X140313430Y-92552771D01*
X140313433Y-92552778D01*
X140315473Y-92559056D01*
X140410960Y-92724444D01*
X140538747Y-92866366D01*
X140693248Y-92978618D01*
X140867712Y-93056294D01*
X141054513Y-93096000D01*
X141238884Y-93096000D01*
X141245487Y-93096000D01*
X141432288Y-93056294D01*
X141606752Y-92978618D01*
X141761253Y-92866366D01*
X141889040Y-92724444D01*
X141984527Y-92559056D01*
X142043542Y-92377428D01*
X142063504Y-92187500D01*
X142043542Y-91997572D01*
X141984527Y-91815944D01*
X141889040Y-91650556D01*
X141761253Y-91508634D01*
X141755911Y-91504753D01*
X141755908Y-91504750D01*
X141678057Y-91448188D01*
X141606752Y-91396382D01*
X141432288Y-91318706D01*
X141425835Y-91317334D01*
X141425831Y-91317333D01*
X141251943Y-91280372D01*
X141251940Y-91280371D01*
X141245487Y-91279000D01*
X141054513Y-91279000D01*
X141048060Y-91280371D01*
X141048056Y-91280372D01*
X140874168Y-91317333D01*
X140874161Y-91317335D01*
X140867712Y-91318706D01*
X140861682Y-91321390D01*
X140861681Y-91321391D01*
X140699278Y-91393697D01*
X140699275Y-91393698D01*
X140693248Y-91396382D01*
X140687907Y-91400262D01*
X140687906Y-91400263D01*
X140544091Y-91504750D01*
X140544083Y-91504756D01*
X140538747Y-91508634D01*
X140534330Y-91513539D01*
X140534325Y-91513544D01*
X140415379Y-91645648D01*
X140410960Y-91650556D01*
X140407661Y-91656269D01*
X140407658Y-91656274D01*
X140324678Y-91800000D01*
X140315473Y-91815944D01*
X140313434Y-91822218D01*
X140313430Y-91822228D01*
X140258497Y-91991294D01*
X140258495Y-91991301D01*
X140256458Y-91997572D01*
X140236496Y-92187500D01*
X138825322Y-92187500D01*
X138834527Y-92171556D01*
X138893542Y-91989928D01*
X138913504Y-91800000D01*
X138893542Y-91610072D01*
X138834527Y-91428444D01*
X138739040Y-91263056D01*
X138611253Y-91121134D01*
X138605911Y-91117253D01*
X138605908Y-91117250D01*
X138528057Y-91060688D01*
X138456752Y-91008882D01*
X138282288Y-90931206D01*
X138275835Y-90929834D01*
X138275831Y-90929833D01*
X138101943Y-90892872D01*
X138101940Y-90892871D01*
X138095487Y-90891500D01*
X137904513Y-90891500D01*
X137898060Y-90892871D01*
X137898056Y-90892872D01*
X137724168Y-90929833D01*
X137724161Y-90929835D01*
X137717712Y-90931206D01*
X137711682Y-90933890D01*
X137711681Y-90933891D01*
X137549278Y-91006197D01*
X137549275Y-91006198D01*
X137543248Y-91008882D01*
X137537907Y-91012762D01*
X137537906Y-91012763D01*
X137394091Y-91117250D01*
X137394083Y-91117256D01*
X137388747Y-91121134D01*
X137384330Y-91126039D01*
X137384325Y-91126044D01*
X137265379Y-91258148D01*
X137260960Y-91263056D01*
X137257661Y-91268769D01*
X137257658Y-91268774D01*
X137229623Y-91317333D01*
X137165473Y-91428444D01*
X137163434Y-91434718D01*
X137163430Y-91434728D01*
X137108497Y-91603794D01*
X137108495Y-91603801D01*
X137106458Y-91610072D01*
X137086496Y-91800000D01*
X102300500Y-91800000D01*
X102300500Y-88350000D01*
X140036496Y-88350000D01*
X140056458Y-88539928D01*
X140058495Y-88546200D01*
X140058497Y-88546205D01*
X140113430Y-88715271D01*
X140113433Y-88715278D01*
X140115473Y-88721556D01*
X140210960Y-88886944D01*
X140338747Y-89028866D01*
X140493248Y-89141118D01*
X140667712Y-89218794D01*
X140666784Y-89220877D01*
X140704131Y-89243223D01*
X140735108Y-89290807D01*
X140742049Y-89347159D01*
X140742049Y-89347162D01*
X140736496Y-89400000D01*
X140756458Y-89589928D01*
X140758495Y-89596200D01*
X140758497Y-89596205D01*
X140813430Y-89765271D01*
X140813433Y-89765278D01*
X140815473Y-89771556D01*
X140910960Y-89936944D01*
X141038747Y-90078866D01*
X141193248Y-90191118D01*
X141367712Y-90268794D01*
X141554513Y-90308500D01*
X141738884Y-90308500D01*
X141745487Y-90308500D01*
X141932288Y-90268794D01*
X142106752Y-90191118D01*
X142261253Y-90078866D01*
X142389040Y-89936944D01*
X142484527Y-89771556D01*
X142543542Y-89589928D01*
X142563504Y-89400000D01*
X142557950Y-89347159D01*
X142564906Y-89290767D01*
X142595931Y-89243162D01*
X142633222Y-89220893D01*
X142632288Y-89218794D01*
X142632287Y-89218794D01*
X142806752Y-89141118D01*
X142961253Y-89028866D01*
X143089040Y-88886944D01*
X143184527Y-88721556D01*
X143243542Y-88539928D01*
X143263504Y-88350000D01*
X143243542Y-88160072D01*
X143184527Y-87978444D01*
X143117874Y-87862999D01*
X143100994Y-87800000D01*
X143117875Y-87737000D01*
X143184527Y-87621556D01*
X143243542Y-87439928D01*
X143263504Y-87250000D01*
X143243542Y-87060072D01*
X143184527Y-86878444D01*
X143117874Y-86762999D01*
X143100994Y-86700000D01*
X143117875Y-86637000D01*
X143184527Y-86521556D01*
X143243542Y-86339928D01*
X143263504Y-86150000D01*
X143243542Y-85960072D01*
X143184527Y-85778444D01*
X143119030Y-85665000D01*
X144886673Y-85665000D01*
X144887103Y-85670189D01*
X144895465Y-85771111D01*
X144905949Y-85897626D01*
X144908639Y-85908247D01*
X144956470Y-86097132D01*
X144963251Y-86123907D01*
X145057016Y-86337669D01*
X145184686Y-86533083D01*
X145188214Y-86536915D01*
X145339247Y-86700981D01*
X145339252Y-86700985D01*
X145342780Y-86704818D01*
X145526983Y-86848190D01*
X145732273Y-86959287D01*
X145953049Y-87035080D01*
X146183288Y-87073500D01*
X146411501Y-87073500D01*
X146416712Y-87073500D01*
X146646951Y-87035080D01*
X146867727Y-86959287D01*
X147073017Y-86848190D01*
X147257220Y-86704818D01*
X147415314Y-86533083D01*
X147542984Y-86337669D01*
X147636749Y-86123907D01*
X147694051Y-85897626D01*
X147713327Y-85665000D01*
X150986673Y-85665000D01*
X150987103Y-85670189D01*
X150995465Y-85771111D01*
X151005949Y-85897626D01*
X151008639Y-85908247D01*
X151056470Y-86097132D01*
X151063251Y-86123907D01*
X151157016Y-86337669D01*
X151284686Y-86533083D01*
X151288214Y-86536915D01*
X151439247Y-86700981D01*
X151439252Y-86700985D01*
X151442780Y-86704818D01*
X151626983Y-86848190D01*
X151832273Y-86959287D01*
X152053049Y-87035080D01*
X152283288Y-87073500D01*
X152511501Y-87073500D01*
X152516712Y-87073500D01*
X152746951Y-87035080D01*
X152967727Y-86959287D01*
X153173017Y-86848190D01*
X153357220Y-86704818D01*
X153515314Y-86533083D01*
X153642984Y-86337669D01*
X153736749Y-86123907D01*
X153794051Y-85897626D01*
X153813327Y-85665000D01*
X153794051Y-85432374D01*
X153736749Y-85206093D01*
X153655807Y-85021565D01*
X157531751Y-85021565D01*
X157531986Y-85032943D01*
X157574900Y-85202408D01*
X157578270Y-85212223D01*
X157664488Y-85408778D01*
X157669431Y-85417913D01*
X157786822Y-85597593D01*
X157793210Y-85605799D01*
X157938567Y-85763700D01*
X157946211Y-85770737D01*
X158115588Y-85902568D01*
X158124281Y-85908247D01*
X158313042Y-86010400D01*
X158322559Y-86014575D01*
X158525557Y-86084264D01*
X158535627Y-86086814D01*
X158597461Y-86097132D01*
X158608598Y-86096556D01*
X158611000Y-86085664D01*
X159119000Y-86085664D01*
X159121401Y-86096556D01*
X159132538Y-86097132D01*
X159194372Y-86086814D01*
X159204442Y-86084264D01*
X159407440Y-86014575D01*
X159416957Y-86010400D01*
X159605718Y-85908247D01*
X159614411Y-85902568D01*
X159783788Y-85770737D01*
X159791432Y-85763700D01*
X159936789Y-85605799D01*
X159943177Y-85597593D01*
X160029517Y-85465441D01*
X160075031Y-85423543D01*
X160135000Y-85408357D01*
X160194969Y-85423543D01*
X160240483Y-85465441D01*
X160326822Y-85597593D01*
X160333210Y-85605799D01*
X160478567Y-85763700D01*
X160486211Y-85770737D01*
X160655588Y-85902568D01*
X160664281Y-85908247D01*
X160853042Y-86010400D01*
X160862559Y-86014575D01*
X161065557Y-86084264D01*
X161075627Y-86086814D01*
X161137461Y-86097132D01*
X161148598Y-86096556D01*
X161151000Y-86085664D01*
X161659000Y-86085664D01*
X161661401Y-86096556D01*
X161672538Y-86097132D01*
X161734372Y-86086814D01*
X161744442Y-86084264D01*
X161947440Y-86014575D01*
X161956957Y-86010400D01*
X162145718Y-85908247D01*
X162154411Y-85902568D01*
X162323788Y-85770737D01*
X162331432Y-85763700D01*
X162476789Y-85605799D01*
X162483177Y-85597593D01*
X162569517Y-85465441D01*
X162615031Y-85423543D01*
X162675000Y-85408357D01*
X162734969Y-85423543D01*
X162780483Y-85465441D01*
X162866822Y-85597593D01*
X162873210Y-85605799D01*
X163018567Y-85763700D01*
X163026211Y-85770737D01*
X163195588Y-85902568D01*
X163204281Y-85908247D01*
X163393042Y-86010400D01*
X163402559Y-86014575D01*
X163605557Y-86084264D01*
X163615627Y-86086814D01*
X163677461Y-86097132D01*
X163688598Y-86096556D01*
X163691000Y-86085664D01*
X164199000Y-86085664D01*
X164201401Y-86096556D01*
X164212538Y-86097132D01*
X164274372Y-86086814D01*
X164284442Y-86084264D01*
X164487440Y-86014575D01*
X164496957Y-86010400D01*
X164685718Y-85908247D01*
X164694411Y-85902568D01*
X164863788Y-85770737D01*
X164871432Y-85763700D01*
X165016789Y-85605799D01*
X165023177Y-85597593D01*
X165109517Y-85465441D01*
X165155031Y-85423543D01*
X165215000Y-85408357D01*
X165274969Y-85423543D01*
X165320483Y-85465441D01*
X165406822Y-85597593D01*
X165413210Y-85605799D01*
X165558567Y-85763700D01*
X165566211Y-85770737D01*
X165735588Y-85902568D01*
X165744281Y-85908247D01*
X165933042Y-86010400D01*
X165942559Y-86014575D01*
X166145557Y-86084264D01*
X166155627Y-86086814D01*
X166217461Y-86097132D01*
X166228598Y-86096556D01*
X166231000Y-86085664D01*
X166739000Y-86085664D01*
X166741401Y-86096556D01*
X166752538Y-86097132D01*
X166814372Y-86086814D01*
X166824442Y-86084264D01*
X167027440Y-86014575D01*
X167036957Y-86010400D01*
X167225718Y-85908247D01*
X167234411Y-85902568D01*
X167403788Y-85770737D01*
X167411432Y-85763700D01*
X167556789Y-85605799D01*
X167563177Y-85597593D01*
X167649517Y-85465441D01*
X167695031Y-85423543D01*
X167755000Y-85408357D01*
X167814969Y-85423543D01*
X167860483Y-85465441D01*
X167946822Y-85597593D01*
X167953210Y-85605799D01*
X168098567Y-85763700D01*
X168106211Y-85770737D01*
X168275588Y-85902568D01*
X168284281Y-85908247D01*
X168473042Y-86010400D01*
X168482559Y-86014575D01*
X168685557Y-86084264D01*
X168695627Y-86086814D01*
X168757461Y-86097132D01*
X168768598Y-86096556D01*
X168771000Y-86085664D01*
X169279000Y-86085664D01*
X169281401Y-86096556D01*
X169292538Y-86097132D01*
X169354372Y-86086814D01*
X169364442Y-86084264D01*
X169567440Y-86014575D01*
X169576957Y-86010400D01*
X169765718Y-85908247D01*
X169774411Y-85902568D01*
X169943788Y-85770737D01*
X169951432Y-85763700D01*
X170096789Y-85605799D01*
X170103177Y-85597593D01*
X170189517Y-85465441D01*
X170235031Y-85423543D01*
X170295000Y-85408357D01*
X170354969Y-85423543D01*
X170400483Y-85465441D01*
X170486822Y-85597593D01*
X170493210Y-85605799D01*
X170638567Y-85763700D01*
X170646211Y-85770737D01*
X170815588Y-85902568D01*
X170824281Y-85908247D01*
X171013042Y-86010400D01*
X171022559Y-86014575D01*
X171225557Y-86084264D01*
X171235627Y-86086814D01*
X171297461Y-86097132D01*
X171308598Y-86096556D01*
X171311000Y-86085664D01*
X171819000Y-86085664D01*
X171821401Y-86096556D01*
X171832538Y-86097132D01*
X171894372Y-86086814D01*
X171904442Y-86084264D01*
X172107440Y-86014575D01*
X172116957Y-86010400D01*
X172305718Y-85908247D01*
X172314411Y-85902568D01*
X172483788Y-85770737D01*
X172491432Y-85763700D01*
X172636789Y-85605799D01*
X172643177Y-85597593D01*
X172729517Y-85465441D01*
X172775031Y-85423543D01*
X172835000Y-85408357D01*
X172894969Y-85423543D01*
X172940483Y-85465441D01*
X173026822Y-85597593D01*
X173033210Y-85605799D01*
X173178567Y-85763700D01*
X173186211Y-85770737D01*
X173355588Y-85902568D01*
X173364281Y-85908247D01*
X173553042Y-86010400D01*
X173562559Y-86014575D01*
X173765557Y-86084264D01*
X173775627Y-86086814D01*
X173837461Y-86097132D01*
X173848598Y-86096556D01*
X173851000Y-86085664D01*
X174359000Y-86085664D01*
X174361401Y-86096556D01*
X174372538Y-86097132D01*
X174434372Y-86086814D01*
X174444442Y-86084264D01*
X174647440Y-86014575D01*
X174656957Y-86010400D01*
X174845718Y-85908247D01*
X174854411Y-85902568D01*
X175023788Y-85770737D01*
X175031432Y-85763700D01*
X175176789Y-85605799D01*
X175183177Y-85597593D01*
X175269517Y-85465441D01*
X175315031Y-85423543D01*
X175375000Y-85408357D01*
X175434969Y-85423543D01*
X175480483Y-85465441D01*
X175566822Y-85597593D01*
X175573210Y-85605799D01*
X175718567Y-85763700D01*
X175726211Y-85770737D01*
X175895588Y-85902568D01*
X175904281Y-85908247D01*
X176093042Y-86010400D01*
X176102559Y-86014575D01*
X176305557Y-86084264D01*
X176315627Y-86086814D01*
X176377461Y-86097132D01*
X176388598Y-86096556D01*
X176391000Y-86085664D01*
X176899000Y-86085664D01*
X176901401Y-86096556D01*
X176912538Y-86097132D01*
X176974372Y-86086814D01*
X176984442Y-86084264D01*
X177187440Y-86014575D01*
X177196957Y-86010400D01*
X177385718Y-85908247D01*
X177394411Y-85902568D01*
X177563788Y-85770737D01*
X177571432Y-85763700D01*
X177716789Y-85605799D01*
X177723177Y-85597593D01*
X177809517Y-85465441D01*
X177855031Y-85423543D01*
X177915000Y-85408357D01*
X177974969Y-85423543D01*
X178020483Y-85465441D01*
X178106822Y-85597593D01*
X178113210Y-85605799D01*
X178258567Y-85763700D01*
X178266211Y-85770737D01*
X178435588Y-85902568D01*
X178444281Y-85908247D01*
X178633042Y-86010400D01*
X178642559Y-86014575D01*
X178845557Y-86084264D01*
X178855627Y-86086814D01*
X178917461Y-86097132D01*
X178928598Y-86096556D01*
X178931000Y-86085664D01*
X178931000Y-85035590D01*
X178927493Y-85022506D01*
X178914410Y-85019000D01*
X176915590Y-85019000D01*
X176902506Y-85022506D01*
X176899000Y-85035590D01*
X176899000Y-86085664D01*
X176391000Y-86085664D01*
X176391000Y-85035590D01*
X176387493Y-85022506D01*
X176374410Y-85019000D01*
X174375590Y-85019000D01*
X174362506Y-85022506D01*
X174359000Y-85035590D01*
X174359000Y-86085664D01*
X173851000Y-86085664D01*
X173851000Y-85035590D01*
X173847493Y-85022506D01*
X173834410Y-85019000D01*
X171835590Y-85019000D01*
X171822506Y-85022506D01*
X171819000Y-85035590D01*
X171819000Y-86085664D01*
X171311000Y-86085664D01*
X171311000Y-85035590D01*
X171307493Y-85022506D01*
X171294410Y-85019000D01*
X169295590Y-85019000D01*
X169282506Y-85022506D01*
X169279000Y-85035590D01*
X169279000Y-86085664D01*
X168771000Y-86085664D01*
X168771000Y-85035590D01*
X168767493Y-85022506D01*
X168754410Y-85019000D01*
X166755590Y-85019000D01*
X166742506Y-85022506D01*
X166739000Y-85035590D01*
X166739000Y-86085664D01*
X166231000Y-86085664D01*
X166231000Y-85035590D01*
X166227493Y-85022506D01*
X166214410Y-85019000D01*
X164215590Y-85019000D01*
X164202506Y-85022506D01*
X164199000Y-85035590D01*
X164199000Y-86085664D01*
X163691000Y-86085664D01*
X163691000Y-85035590D01*
X163687493Y-85022506D01*
X163674410Y-85019000D01*
X161675590Y-85019000D01*
X161662506Y-85022506D01*
X161659000Y-85035590D01*
X161659000Y-86085664D01*
X161151000Y-86085664D01*
X161151000Y-85035590D01*
X161147493Y-85022506D01*
X161134410Y-85019000D01*
X159135590Y-85019000D01*
X159122506Y-85022506D01*
X159119000Y-85035590D01*
X159119000Y-86085664D01*
X158611000Y-86085664D01*
X158611000Y-85035590D01*
X158607493Y-85022506D01*
X158594410Y-85019000D01*
X157542840Y-85019000D01*
X157531751Y-85021565D01*
X153655807Y-85021565D01*
X153642984Y-84992331D01*
X153515314Y-84796917D01*
X153430157Y-84704412D01*
X153400921Y-84650809D01*
X153400318Y-84589752D01*
X153428493Y-84535582D01*
X153478827Y-84501019D01*
X153546204Y-84475889D01*
X153663261Y-84388261D01*
X153750889Y-84271204D01*
X153801989Y-84134201D01*
X153808500Y-84073638D01*
X153808500Y-82225000D01*
X157501844Y-82225000D01*
X157520436Y-82449368D01*
X157575704Y-82667616D01*
X157577797Y-82672389D01*
X157577799Y-82672393D01*
X157653147Y-82844170D01*
X157666140Y-82873791D01*
X157789278Y-83062268D01*
X157792806Y-83066100D01*
X157938227Y-83224069D01*
X157938231Y-83224073D01*
X157941760Y-83227906D01*
X158119424Y-83366189D01*
X158124000Y-83368665D01*
X158124004Y-83368668D01*
X158134582Y-83374392D01*
X158153205Y-83384470D01*
X158201476Y-83430784D01*
X158219237Y-83495281D01*
X158201479Y-83559779D01*
X158153209Y-83606096D01*
X158124285Y-83621749D01*
X158115588Y-83627431D01*
X157946211Y-83759262D01*
X157938567Y-83766299D01*
X157793210Y-83924200D01*
X157786822Y-83932406D01*
X157669431Y-84112086D01*
X157664488Y-84121221D01*
X157578270Y-84317776D01*
X157574900Y-84327591D01*
X157531986Y-84497056D01*
X157531751Y-84508434D01*
X157542840Y-84511000D01*
X179313000Y-84511000D01*
X179376000Y-84527881D01*
X179422119Y-84574000D01*
X179439000Y-84637000D01*
X179439000Y-86085664D01*
X179441401Y-86096556D01*
X179452538Y-86097132D01*
X179514372Y-86086814D01*
X179524442Y-86084264D01*
X179727440Y-86014575D01*
X179736957Y-86010400D01*
X179925718Y-85908247D01*
X179934411Y-85902568D01*
X180103788Y-85770737D01*
X180111432Y-85763700D01*
X180256789Y-85605799D01*
X180263181Y-85597587D01*
X180349218Y-85465899D01*
X180394732Y-85424000D01*
X180454701Y-85408814D01*
X180514670Y-85424000D01*
X180560183Y-85465898D01*
X180649278Y-85602268D01*
X180652806Y-85606100D01*
X180798227Y-85764069D01*
X180798231Y-85764073D01*
X180801760Y-85767906D01*
X180979424Y-85906189D01*
X181177426Y-86013342D01*
X181182355Y-86015034D01*
X181182357Y-86015035D01*
X181283895Y-86049892D01*
X181390365Y-86086444D01*
X181612431Y-86123500D01*
X181832358Y-86123500D01*
X181837569Y-86123500D01*
X182059635Y-86086444D01*
X182272574Y-86013342D01*
X182470576Y-85906189D01*
X182648240Y-85767906D01*
X182800722Y-85602268D01*
X182923860Y-85413791D01*
X183014296Y-85207616D01*
X183069564Y-84989368D01*
X183088156Y-84765000D01*
X183069564Y-84540632D01*
X183014296Y-84322384D01*
X182923860Y-84116209D01*
X182800722Y-83927732D01*
X182657525Y-83772180D01*
X182628288Y-83718576D01*
X182627685Y-83657520D01*
X182655859Y-83603350D01*
X182706191Y-83568786D01*
X182821204Y-83525889D01*
X182938261Y-83438261D01*
X183025889Y-83321204D01*
X183076989Y-83184201D01*
X183083500Y-83123638D01*
X183083500Y-81326362D01*
X183076989Y-81265799D01*
X183025889Y-81128796D01*
X182938261Y-81011739D01*
X182894713Y-80979139D01*
X182828417Y-80929510D01*
X182828414Y-80929508D01*
X182821204Y-80924111D01*
X182812766Y-80920964D01*
X182812763Y-80920962D01*
X182691580Y-80875763D01*
X182691578Y-80875762D01*
X182684201Y-80873011D01*
X182676373Y-80872169D01*
X182676367Y-80872168D01*
X182626988Y-80866860D01*
X182626985Y-80866859D01*
X182623638Y-80866500D01*
X180826362Y-80866500D01*
X180823015Y-80866859D01*
X180823011Y-80866860D01*
X180773632Y-80872168D01*
X180773625Y-80872169D01*
X180765799Y-80873011D01*
X180758423Y-80875761D01*
X180758419Y-80875763D01*
X180637236Y-80920962D01*
X180637230Y-80920965D01*
X180628796Y-80924111D01*
X180621588Y-80929506D01*
X180621582Y-80929510D01*
X180518950Y-81006340D01*
X180518946Y-81006343D01*
X180511739Y-81011739D01*
X180506343Y-81018946D01*
X180506340Y-81018950D01*
X180429510Y-81121582D01*
X180429506Y-81121588D01*
X180424111Y-81128796D01*
X180420964Y-81137231D01*
X180420960Y-81137240D01*
X180380000Y-81247057D01*
X180343468Y-81299095D01*
X180286178Y-81326671D01*
X180222717Y-81322761D01*
X180169244Y-81288361D01*
X180111772Y-81225931D01*
X180111771Y-81225930D01*
X180108240Y-81222094D01*
X179930576Y-81083811D01*
X179925997Y-81081333D01*
X179925994Y-81081331D01*
X179737159Y-80979139D01*
X179737156Y-80979137D01*
X179732574Y-80976658D01*
X179727650Y-80974967D01*
X179727642Y-80974964D01*
X179524565Y-80905248D01*
X179524559Y-80905246D01*
X179519635Y-80903556D01*
X179514498Y-80902698D01*
X179514495Y-80902698D01*
X179302706Y-80867357D01*
X179302703Y-80867356D01*
X179297569Y-80866500D01*
X179072431Y-80866500D01*
X179067297Y-80867356D01*
X179067293Y-80867357D01*
X178855504Y-80902698D01*
X178855498Y-80902699D01*
X178850365Y-80903556D01*
X178845443Y-80905245D01*
X178845434Y-80905248D01*
X178642357Y-80974964D01*
X178642344Y-80974969D01*
X178637426Y-80976658D01*
X178632847Y-80979135D01*
X178632840Y-80979139D01*
X178444005Y-81081331D01*
X178443997Y-81081336D01*
X178439424Y-81083811D01*
X178435313Y-81087010D01*
X178435311Y-81087012D01*
X178265878Y-81218888D01*
X178265872Y-81218893D01*
X178261760Y-81222094D01*
X178258237Y-81225919D01*
X178258227Y-81225930D01*
X178112806Y-81383899D01*
X178112802Y-81383902D01*
X178109278Y-81387732D01*
X178106430Y-81392090D01*
X178106427Y-81392095D01*
X178020483Y-81523643D01*
X177974969Y-81565542D01*
X177915000Y-81580728D01*
X177855031Y-81565542D01*
X177809517Y-81523643D01*
X177723572Y-81392095D01*
X177720722Y-81387732D01*
X177601680Y-81258419D01*
X177571772Y-81225930D01*
X177571767Y-81225925D01*
X177568240Y-81222094D01*
X177390576Y-81083811D01*
X177385997Y-81081333D01*
X177385994Y-81081331D01*
X177197159Y-80979139D01*
X177197156Y-80979137D01*
X177192574Y-80976658D01*
X177187650Y-80974967D01*
X177187642Y-80974964D01*
X176984565Y-80905248D01*
X176984559Y-80905246D01*
X176979635Y-80903556D01*
X176974498Y-80902698D01*
X176974495Y-80902698D01*
X176762706Y-80867357D01*
X176762703Y-80867356D01*
X176757569Y-80866500D01*
X176532431Y-80866500D01*
X176527297Y-80867356D01*
X176527293Y-80867357D01*
X176315504Y-80902698D01*
X176315498Y-80902699D01*
X176310365Y-80903556D01*
X176305443Y-80905245D01*
X176305434Y-80905248D01*
X176102357Y-80974964D01*
X176102344Y-80974969D01*
X176097426Y-80976658D01*
X176092847Y-80979135D01*
X176092840Y-80979139D01*
X175904005Y-81081331D01*
X175903997Y-81081336D01*
X175899424Y-81083811D01*
X175895313Y-81087010D01*
X175895311Y-81087012D01*
X175725878Y-81218888D01*
X175725872Y-81218893D01*
X175721760Y-81222094D01*
X175718237Y-81225919D01*
X175718227Y-81225930D01*
X175572806Y-81383899D01*
X175572802Y-81383902D01*
X175569278Y-81387732D01*
X175566430Y-81392090D01*
X175566427Y-81392095D01*
X175480483Y-81523643D01*
X175434969Y-81565542D01*
X175375000Y-81580728D01*
X175315031Y-81565542D01*
X175269517Y-81523643D01*
X175183572Y-81392095D01*
X175180722Y-81387732D01*
X175061680Y-81258419D01*
X175031772Y-81225930D01*
X175031767Y-81225925D01*
X175028240Y-81222094D01*
X174850576Y-81083811D01*
X174845997Y-81081333D01*
X174845994Y-81081331D01*
X174657159Y-80979139D01*
X174657156Y-80979137D01*
X174652574Y-80976658D01*
X174647650Y-80974967D01*
X174647642Y-80974964D01*
X174444565Y-80905248D01*
X174444559Y-80905246D01*
X174439635Y-80903556D01*
X174434498Y-80902698D01*
X174434495Y-80902698D01*
X174222706Y-80867357D01*
X174222703Y-80867356D01*
X174217569Y-80866500D01*
X173992431Y-80866500D01*
X173987297Y-80867356D01*
X173987293Y-80867357D01*
X173775504Y-80902698D01*
X173775498Y-80902699D01*
X173770365Y-80903556D01*
X173765443Y-80905245D01*
X173765434Y-80905248D01*
X173562357Y-80974964D01*
X173562344Y-80974969D01*
X173557426Y-80976658D01*
X173552847Y-80979135D01*
X173552840Y-80979139D01*
X173364005Y-81081331D01*
X173363997Y-81081336D01*
X173359424Y-81083811D01*
X173355313Y-81087010D01*
X173355311Y-81087012D01*
X173185878Y-81218888D01*
X173185872Y-81218893D01*
X173181760Y-81222094D01*
X173178237Y-81225919D01*
X173178227Y-81225930D01*
X173032806Y-81383899D01*
X173032802Y-81383902D01*
X173029278Y-81387732D01*
X173026430Y-81392090D01*
X173026427Y-81392095D01*
X172940483Y-81523643D01*
X172894969Y-81565542D01*
X172835000Y-81580728D01*
X172775031Y-81565542D01*
X172729517Y-81523643D01*
X172643572Y-81392095D01*
X172640722Y-81387732D01*
X172521680Y-81258419D01*
X172491772Y-81225930D01*
X172491767Y-81225925D01*
X172488240Y-81222094D01*
X172310576Y-81083811D01*
X172305997Y-81081333D01*
X172305994Y-81081331D01*
X172117159Y-80979139D01*
X172117156Y-80979137D01*
X172112574Y-80976658D01*
X172107650Y-80974967D01*
X172107642Y-80974964D01*
X171904565Y-80905248D01*
X171904559Y-80905246D01*
X171899635Y-80903556D01*
X171894498Y-80902698D01*
X171894495Y-80902698D01*
X171682706Y-80867357D01*
X171682703Y-80867356D01*
X171677569Y-80866500D01*
X171452431Y-80866500D01*
X171447297Y-80867356D01*
X171447293Y-80867357D01*
X171235504Y-80902698D01*
X171235498Y-80902699D01*
X171230365Y-80903556D01*
X171225443Y-80905245D01*
X171225434Y-80905248D01*
X171022357Y-80974964D01*
X171022344Y-80974969D01*
X171017426Y-80976658D01*
X171012847Y-80979135D01*
X171012840Y-80979139D01*
X170824005Y-81081331D01*
X170823997Y-81081336D01*
X170819424Y-81083811D01*
X170815313Y-81087010D01*
X170815311Y-81087012D01*
X170645878Y-81218888D01*
X170645872Y-81218893D01*
X170641760Y-81222094D01*
X170638237Y-81225919D01*
X170638227Y-81225930D01*
X170492806Y-81383899D01*
X170492802Y-81383902D01*
X170489278Y-81387732D01*
X170486430Y-81392090D01*
X170486427Y-81392095D01*
X170400483Y-81523643D01*
X170354969Y-81565542D01*
X170295000Y-81580728D01*
X170235031Y-81565542D01*
X170189517Y-81523643D01*
X170103572Y-81392095D01*
X170100722Y-81387732D01*
X169981680Y-81258419D01*
X169951772Y-81225930D01*
X169951767Y-81225925D01*
X169948240Y-81222094D01*
X169770576Y-81083811D01*
X169765997Y-81081333D01*
X169765994Y-81081331D01*
X169577159Y-80979139D01*
X169577156Y-80979137D01*
X169572574Y-80976658D01*
X169567650Y-80974967D01*
X169567642Y-80974964D01*
X169364565Y-80905248D01*
X169364559Y-80905246D01*
X169359635Y-80903556D01*
X169354498Y-80902698D01*
X169354495Y-80902698D01*
X169142706Y-80867357D01*
X169142703Y-80867356D01*
X169137569Y-80866500D01*
X168912431Y-80866500D01*
X168907297Y-80867356D01*
X168907293Y-80867357D01*
X168695504Y-80902698D01*
X168695498Y-80902699D01*
X168690365Y-80903556D01*
X168685443Y-80905245D01*
X168685434Y-80905248D01*
X168482357Y-80974964D01*
X168482344Y-80974969D01*
X168477426Y-80976658D01*
X168472847Y-80979135D01*
X168472840Y-80979139D01*
X168284005Y-81081331D01*
X168283997Y-81081336D01*
X168279424Y-81083811D01*
X168275313Y-81087010D01*
X168275311Y-81087012D01*
X168105878Y-81218888D01*
X168105872Y-81218893D01*
X168101760Y-81222094D01*
X168098237Y-81225919D01*
X168098227Y-81225930D01*
X167952806Y-81383899D01*
X167952802Y-81383902D01*
X167949278Y-81387732D01*
X167946430Y-81392090D01*
X167946427Y-81392095D01*
X167860483Y-81523643D01*
X167814969Y-81565542D01*
X167755000Y-81580728D01*
X167695031Y-81565542D01*
X167649517Y-81523643D01*
X167563572Y-81392095D01*
X167560722Y-81387732D01*
X167441680Y-81258419D01*
X167411772Y-81225930D01*
X167411767Y-81225925D01*
X167408240Y-81222094D01*
X167230576Y-81083811D01*
X167225997Y-81081333D01*
X167225994Y-81081331D01*
X167037159Y-80979139D01*
X167037156Y-80979137D01*
X167032574Y-80976658D01*
X167027650Y-80974967D01*
X167027642Y-80974964D01*
X166824565Y-80905248D01*
X166824559Y-80905246D01*
X166819635Y-80903556D01*
X166814498Y-80902698D01*
X166814495Y-80902698D01*
X166602706Y-80867357D01*
X166602703Y-80867356D01*
X166597569Y-80866500D01*
X166372431Y-80866500D01*
X166367297Y-80867356D01*
X166367293Y-80867357D01*
X166155504Y-80902698D01*
X166155498Y-80902699D01*
X166150365Y-80903556D01*
X166145443Y-80905245D01*
X166145434Y-80905248D01*
X165942357Y-80974964D01*
X165942344Y-80974969D01*
X165937426Y-80976658D01*
X165932847Y-80979135D01*
X165932840Y-80979139D01*
X165744005Y-81081331D01*
X165743997Y-81081336D01*
X165739424Y-81083811D01*
X165735313Y-81087010D01*
X165735311Y-81087012D01*
X165565878Y-81218888D01*
X165565872Y-81218893D01*
X165561760Y-81222094D01*
X165558237Y-81225919D01*
X165558227Y-81225930D01*
X165412806Y-81383899D01*
X165412802Y-81383902D01*
X165409278Y-81387732D01*
X165406430Y-81392090D01*
X165406427Y-81392095D01*
X165320483Y-81523643D01*
X165274969Y-81565542D01*
X165215000Y-81580728D01*
X165155031Y-81565542D01*
X165109517Y-81523643D01*
X165023572Y-81392095D01*
X165020722Y-81387732D01*
X164901680Y-81258419D01*
X164871772Y-81225930D01*
X164871767Y-81225925D01*
X164868240Y-81222094D01*
X164690576Y-81083811D01*
X164685997Y-81081333D01*
X164685994Y-81081331D01*
X164497159Y-80979139D01*
X164497156Y-80979137D01*
X164492574Y-80976658D01*
X164487650Y-80974967D01*
X164487642Y-80974964D01*
X164284565Y-80905248D01*
X164284559Y-80905246D01*
X164279635Y-80903556D01*
X164274498Y-80902698D01*
X164274495Y-80902698D01*
X164062706Y-80867357D01*
X164062703Y-80867356D01*
X164057569Y-80866500D01*
X163832431Y-80866500D01*
X163827297Y-80867356D01*
X163827293Y-80867357D01*
X163615504Y-80902698D01*
X163615498Y-80902699D01*
X163610365Y-80903556D01*
X163605443Y-80905245D01*
X163605434Y-80905248D01*
X163402357Y-80974964D01*
X163402344Y-80974969D01*
X163397426Y-80976658D01*
X163392847Y-80979135D01*
X163392840Y-80979139D01*
X163204005Y-81081331D01*
X163203997Y-81081336D01*
X163199424Y-81083811D01*
X163195313Y-81087010D01*
X163195311Y-81087012D01*
X163025878Y-81218888D01*
X163025872Y-81218893D01*
X163021760Y-81222094D01*
X163018237Y-81225919D01*
X163018227Y-81225930D01*
X162872806Y-81383899D01*
X162872802Y-81383902D01*
X162869278Y-81387732D01*
X162866430Y-81392090D01*
X162866427Y-81392095D01*
X162780483Y-81523643D01*
X162734969Y-81565542D01*
X162675000Y-81580728D01*
X162615031Y-81565542D01*
X162569517Y-81523643D01*
X162483572Y-81392095D01*
X162480722Y-81387732D01*
X162361680Y-81258419D01*
X162331772Y-81225930D01*
X162331767Y-81225925D01*
X162328240Y-81222094D01*
X162150576Y-81083811D01*
X162145997Y-81081333D01*
X162145994Y-81081331D01*
X161957159Y-80979139D01*
X161957156Y-80979137D01*
X161952574Y-80976658D01*
X161947650Y-80974967D01*
X161947642Y-80974964D01*
X161744565Y-80905248D01*
X161744559Y-80905246D01*
X161739635Y-80903556D01*
X161734498Y-80902698D01*
X161734495Y-80902698D01*
X161522706Y-80867357D01*
X161522703Y-80867356D01*
X161517569Y-80866500D01*
X161292431Y-80866500D01*
X161287297Y-80867356D01*
X161287293Y-80867357D01*
X161075504Y-80902698D01*
X161075498Y-80902699D01*
X161070365Y-80903556D01*
X161065443Y-80905245D01*
X161065434Y-80905248D01*
X160862357Y-80974964D01*
X160862344Y-80974969D01*
X160857426Y-80976658D01*
X160852847Y-80979135D01*
X160852840Y-80979139D01*
X160664005Y-81081331D01*
X160663997Y-81081336D01*
X160659424Y-81083811D01*
X160655313Y-81087010D01*
X160655311Y-81087012D01*
X160485878Y-81218888D01*
X160485872Y-81218893D01*
X160481760Y-81222094D01*
X160478237Y-81225919D01*
X160478227Y-81225930D01*
X160332806Y-81383899D01*
X160332802Y-81383902D01*
X160329278Y-81387732D01*
X160326430Y-81392090D01*
X160326427Y-81392095D01*
X160240483Y-81523643D01*
X160194969Y-81565542D01*
X160135000Y-81580728D01*
X160075031Y-81565542D01*
X160029517Y-81523643D01*
X159943572Y-81392095D01*
X159940722Y-81387732D01*
X159821680Y-81258419D01*
X159791772Y-81225930D01*
X159791767Y-81225925D01*
X159788240Y-81222094D01*
X159610576Y-81083811D01*
X159605997Y-81081333D01*
X159605994Y-81081331D01*
X159417159Y-80979139D01*
X159417156Y-80979137D01*
X159412574Y-80976658D01*
X159407650Y-80974967D01*
X159407642Y-80974964D01*
X159204565Y-80905248D01*
X159204559Y-80905246D01*
X159199635Y-80903556D01*
X159194498Y-80902698D01*
X159194495Y-80902698D01*
X158982706Y-80867357D01*
X158982703Y-80867356D01*
X158977569Y-80866500D01*
X158752431Y-80866500D01*
X158747297Y-80867356D01*
X158747293Y-80867357D01*
X158535504Y-80902698D01*
X158535498Y-80902699D01*
X158530365Y-80903556D01*
X158525443Y-80905245D01*
X158525434Y-80905248D01*
X158322357Y-80974964D01*
X158322344Y-80974969D01*
X158317426Y-80976658D01*
X158312847Y-80979135D01*
X158312840Y-80979139D01*
X158124005Y-81081331D01*
X158123997Y-81081336D01*
X158119424Y-81083811D01*
X158115313Y-81087010D01*
X158115311Y-81087012D01*
X157945878Y-81218888D01*
X157945872Y-81218893D01*
X157941760Y-81222094D01*
X157938237Y-81225919D01*
X157938227Y-81225930D01*
X157792806Y-81383899D01*
X157792802Y-81383902D01*
X157789278Y-81387732D01*
X157786430Y-81392090D01*
X157786427Y-81392095D01*
X157673109Y-81565542D01*
X157666140Y-81576209D01*
X157664048Y-81580978D01*
X157664046Y-81580982D01*
X157577799Y-81777606D01*
X157577796Y-81777614D01*
X157575704Y-81782384D01*
X157574423Y-81787440D01*
X157574422Y-81787445D01*
X157523828Y-81987236D01*
X157520436Y-82000632D01*
X157520006Y-82005820D01*
X157520005Y-82005827D01*
X157511504Y-82108419D01*
X157501844Y-82225000D01*
X153808500Y-82225000D01*
X153808500Y-82176362D01*
X153801989Y-82115799D01*
X153750889Y-81978796D01*
X153663261Y-81861739D01*
X153656049Y-81856340D01*
X153553417Y-81779510D01*
X153553414Y-81779508D01*
X153546204Y-81774111D01*
X153537766Y-81770964D01*
X153537763Y-81770962D01*
X153416580Y-81725763D01*
X153416578Y-81725762D01*
X153409201Y-81723011D01*
X153401373Y-81722169D01*
X153401367Y-81722168D01*
X153351988Y-81716860D01*
X153351985Y-81716859D01*
X153348638Y-81716500D01*
X151451362Y-81716500D01*
X151448015Y-81716859D01*
X151448011Y-81716860D01*
X151398632Y-81722168D01*
X151398625Y-81722169D01*
X151390799Y-81723011D01*
X151383423Y-81725761D01*
X151383419Y-81725763D01*
X151262236Y-81770962D01*
X151262230Y-81770965D01*
X151253796Y-81774111D01*
X151246588Y-81779506D01*
X151246582Y-81779510D01*
X151143950Y-81856340D01*
X151143946Y-81856343D01*
X151136739Y-81861739D01*
X151131343Y-81868946D01*
X151131340Y-81868950D01*
X151054510Y-81971582D01*
X151054506Y-81971588D01*
X151049111Y-81978796D01*
X151045965Y-81987230D01*
X151045962Y-81987236D01*
X151000763Y-82108419D01*
X151000761Y-82108423D01*
X150998011Y-82115799D01*
X150997169Y-82123625D01*
X150997168Y-82123632D01*
X150991860Y-82173011D01*
X150991500Y-82176362D01*
X150991500Y-84073638D01*
X150991859Y-84076985D01*
X150991860Y-84076988D01*
X150997168Y-84126367D01*
X150997169Y-84126373D01*
X150998011Y-84134201D01*
X151000762Y-84141578D01*
X151000763Y-84141580D01*
X151045962Y-84262763D01*
X151045964Y-84262766D01*
X151049111Y-84271204D01*
X151054508Y-84278414D01*
X151054510Y-84278417D01*
X151091322Y-84327591D01*
X151136739Y-84388261D01*
X151253796Y-84475889D01*
X151262236Y-84479037D01*
X151262238Y-84479038D01*
X151262241Y-84479039D01*
X151321172Y-84501019D01*
X151371506Y-84535582D01*
X151399681Y-84589752D01*
X151399079Y-84650808D01*
X151369842Y-84704412D01*
X151288214Y-84793084D01*
X151288211Y-84793087D01*
X151284686Y-84796917D01*
X151281838Y-84801275D01*
X151281835Y-84801280D01*
X151159868Y-84987965D01*
X151157016Y-84992331D01*
X151154923Y-84997101D01*
X151154921Y-84997106D01*
X151065344Y-85201320D01*
X151065341Y-85201326D01*
X151063251Y-85206093D01*
X151061973Y-85211137D01*
X151061971Y-85211145D01*
X151007230Y-85427315D01*
X151005949Y-85432374D01*
X151005519Y-85437562D01*
X151005518Y-85437569D01*
X150991554Y-85606100D01*
X150986673Y-85665000D01*
X147713327Y-85665000D01*
X147694051Y-85432374D01*
X147636749Y-85206093D01*
X147542984Y-84992331D01*
X147415314Y-84796917D01*
X147330157Y-84704412D01*
X147300921Y-84650809D01*
X147300318Y-84589752D01*
X147328493Y-84535582D01*
X147378827Y-84501019D01*
X147446204Y-84475889D01*
X147563261Y-84388261D01*
X147650889Y-84271204D01*
X147701989Y-84134201D01*
X147708500Y-84073638D01*
X147708500Y-82176362D01*
X147701989Y-82115799D01*
X147650889Y-81978796D01*
X147563261Y-81861739D01*
X147556049Y-81856340D01*
X147453417Y-81779510D01*
X147453414Y-81779508D01*
X147446204Y-81774111D01*
X147437766Y-81770964D01*
X147437763Y-81770962D01*
X147316580Y-81725763D01*
X147316578Y-81725762D01*
X147309201Y-81723011D01*
X147301373Y-81722169D01*
X147301367Y-81722168D01*
X147251988Y-81716860D01*
X147251985Y-81716859D01*
X147248638Y-81716500D01*
X145351362Y-81716500D01*
X145348015Y-81716859D01*
X145348011Y-81716860D01*
X145298632Y-81722168D01*
X145298625Y-81722169D01*
X145290799Y-81723011D01*
X145283423Y-81725761D01*
X145283419Y-81725763D01*
X145162236Y-81770962D01*
X145162230Y-81770965D01*
X145153796Y-81774111D01*
X145146588Y-81779506D01*
X145146582Y-81779510D01*
X145043950Y-81856340D01*
X145043946Y-81856343D01*
X145036739Y-81861739D01*
X145031343Y-81868946D01*
X145031340Y-81868950D01*
X144954510Y-81971582D01*
X144954506Y-81971588D01*
X144949111Y-81978796D01*
X144945965Y-81987230D01*
X144945962Y-81987236D01*
X144900763Y-82108419D01*
X144900761Y-82108423D01*
X144898011Y-82115799D01*
X144897169Y-82123625D01*
X144897168Y-82123632D01*
X144891860Y-82173011D01*
X144891500Y-82176362D01*
X144891500Y-84073638D01*
X144891859Y-84076985D01*
X144891860Y-84076988D01*
X144897168Y-84126367D01*
X144897169Y-84126373D01*
X144898011Y-84134201D01*
X144900762Y-84141578D01*
X144900763Y-84141580D01*
X144945962Y-84262763D01*
X144945964Y-84262766D01*
X144949111Y-84271204D01*
X144954508Y-84278414D01*
X144954510Y-84278417D01*
X144991322Y-84327591D01*
X145036739Y-84388261D01*
X145153796Y-84475889D01*
X145162236Y-84479037D01*
X145162238Y-84479038D01*
X145162241Y-84479039D01*
X145221172Y-84501019D01*
X145271506Y-84535582D01*
X145299681Y-84589752D01*
X145299079Y-84650808D01*
X145269842Y-84704412D01*
X145188214Y-84793084D01*
X145188211Y-84793087D01*
X145184686Y-84796917D01*
X145181838Y-84801275D01*
X145181835Y-84801280D01*
X145059868Y-84987965D01*
X145057016Y-84992331D01*
X145054923Y-84997101D01*
X145054921Y-84997106D01*
X144965344Y-85201320D01*
X144965341Y-85201326D01*
X144963251Y-85206093D01*
X144961973Y-85211137D01*
X144961971Y-85211145D01*
X144907230Y-85427315D01*
X144905949Y-85432374D01*
X144905519Y-85437562D01*
X144905518Y-85437569D01*
X144891554Y-85606100D01*
X144886673Y-85665000D01*
X143119030Y-85665000D01*
X143089040Y-85613056D01*
X142961253Y-85471134D01*
X142955911Y-85467253D01*
X142955908Y-85467250D01*
X142874848Y-85408357D01*
X142806752Y-85358882D01*
X142632288Y-85281206D01*
X142625835Y-85279834D01*
X142625831Y-85279833D01*
X142451943Y-85242872D01*
X142451940Y-85242871D01*
X142445487Y-85241500D01*
X142254513Y-85241500D01*
X142248060Y-85242871D01*
X142248056Y-85242872D01*
X142074168Y-85279833D01*
X142074161Y-85279835D01*
X142067712Y-85281206D01*
X142061682Y-85283890D01*
X142061681Y-85283891D01*
X141899278Y-85356197D01*
X141899275Y-85356198D01*
X141893248Y-85358882D01*
X141887907Y-85362762D01*
X141887906Y-85362763D01*
X141744085Y-85467254D01*
X141744075Y-85467262D01*
X141738747Y-85471134D01*
X141734332Y-85476037D01*
X141734309Y-85476058D01*
X141680482Y-85504678D01*
X141619518Y-85504678D01*
X141565691Y-85476058D01*
X141565667Y-85476037D01*
X141561253Y-85471134D01*
X141555919Y-85467259D01*
X141555914Y-85467254D01*
X141462202Y-85399169D01*
X141406752Y-85358882D01*
X141232288Y-85281206D01*
X141225835Y-85279834D01*
X141225831Y-85279833D01*
X141051943Y-85242872D01*
X141051940Y-85242871D01*
X141045487Y-85241500D01*
X140854513Y-85241500D01*
X140848060Y-85242871D01*
X140848056Y-85242872D01*
X140674168Y-85279833D01*
X140674161Y-85279835D01*
X140667712Y-85281206D01*
X140661682Y-85283890D01*
X140661681Y-85283891D01*
X140499278Y-85356197D01*
X140499275Y-85356198D01*
X140493248Y-85358882D01*
X140487907Y-85362762D01*
X140487906Y-85362763D01*
X140344091Y-85467250D01*
X140344087Y-85467254D01*
X140338747Y-85471134D01*
X140334330Y-85476039D01*
X140334325Y-85476044D01*
X140217494Y-85605799D01*
X140210960Y-85613056D01*
X140207661Y-85618769D01*
X140207658Y-85618774D01*
X140119707Y-85771111D01*
X140115473Y-85778444D01*
X140113434Y-85784718D01*
X140113430Y-85784728D01*
X140058497Y-85953794D01*
X140058495Y-85953801D01*
X140056458Y-85960072D01*
X140055768Y-85966633D01*
X140055768Y-85966635D01*
X140050681Y-86015035D01*
X140036496Y-86150000D01*
X140037186Y-86156565D01*
X140055718Y-86332893D01*
X140056458Y-86339928D01*
X140058495Y-86346200D01*
X140058497Y-86346205D01*
X140113430Y-86515271D01*
X140113433Y-86515278D01*
X140115473Y-86521556D01*
X140118776Y-86527277D01*
X140118777Y-86527279D01*
X140182124Y-86637000D01*
X140199005Y-86700000D01*
X140182124Y-86763000D01*
X140118777Y-86872720D01*
X140118777Y-86872721D01*
X140115473Y-86878444D01*
X140113434Y-86884718D01*
X140113430Y-86884728D01*
X140058497Y-87053794D01*
X140058495Y-87053801D01*
X140056458Y-87060072D01*
X140055768Y-87066633D01*
X140055768Y-87066635D01*
X140037186Y-87243435D01*
X140036496Y-87250000D01*
X140056458Y-87439928D01*
X140058495Y-87446200D01*
X140058497Y-87446205D01*
X140113430Y-87615271D01*
X140113433Y-87615278D01*
X140115473Y-87621556D01*
X140118776Y-87627277D01*
X140118777Y-87627279D01*
X140182124Y-87737000D01*
X140199005Y-87800000D01*
X140182124Y-87863000D01*
X140118777Y-87972720D01*
X140118777Y-87972721D01*
X140115473Y-87978444D01*
X140113434Y-87984718D01*
X140113430Y-87984728D01*
X140058497Y-88153794D01*
X140058495Y-88153801D01*
X140056458Y-88160072D01*
X140036496Y-88350000D01*
X102300500Y-88350000D01*
X102300500Y-79783531D01*
X108718739Y-79783531D01*
X108720262Y-79795101D01*
X108720262Y-79795107D01*
X108723926Y-79822934D01*
X108724821Y-79832589D01*
X108726963Y-79872280D01*
X108731177Y-79881630D01*
X108732785Y-79890228D01*
X108742695Y-79965496D01*
X108743739Y-79979033D01*
X108744505Y-80012178D01*
X108748972Y-80022962D01*
X108748973Y-80022967D01*
X108759711Y-80048891D01*
X108763073Y-80057982D01*
X108771793Y-80084679D01*
X108771796Y-80084685D01*
X108775419Y-80095776D01*
X108781910Y-80103717D01*
X108785689Y-80111608D01*
X108811499Y-80173921D01*
X108814738Y-80181739D01*
X108819247Y-80194536D01*
X108828570Y-80226367D01*
X108835678Y-80235630D01*
X108835679Y-80235632D01*
X108852763Y-80257896D01*
X108858366Y-80265811D01*
X108873690Y-80289329D01*
X108873693Y-80289332D01*
X108880067Y-80299114D01*
X108888394Y-80305105D01*
X108894081Y-80311743D01*
X108940305Y-80371984D01*
X108947968Y-80383171D01*
X108959139Y-80401528D01*
X108959140Y-80401530D01*
X108965209Y-80411501D01*
X108974470Y-80418607D01*
X108974471Y-80418608D01*
X108996745Y-80435699D01*
X109004205Y-80441894D01*
X109033778Y-80468440D01*
X109043375Y-80472073D01*
X109050580Y-80477008D01*
X109085371Y-80503703D01*
X109110811Y-80523225D01*
X109121111Y-80532049D01*
X109145107Y-80554961D01*
X109155894Y-80559429D01*
X109181849Y-80570180D01*
X109190643Y-80574225D01*
X109226079Y-80592212D01*
X109236288Y-80593237D01*
X109244506Y-80596133D01*
X109314673Y-80625196D01*
X109326904Y-80631053D01*
X109356004Y-80646970D01*
X109395410Y-80652157D01*
X109404960Y-80653790D01*
X109443860Y-80661996D01*
X109453983Y-80660344D01*
X109462697Y-80661016D01*
X109470141Y-80661996D01*
X109537962Y-80670925D01*
X109551301Y-80673419D01*
X109572007Y-80678456D01*
X109583531Y-80681261D01*
X109622963Y-80676069D01*
X109632586Y-80675178D01*
X109672279Y-80673037D01*
X109681633Y-80668819D01*
X109690218Y-80667214D01*
X109765497Y-80657303D01*
X109779034Y-80656260D01*
X109812178Y-80655495D01*
X109848921Y-80640274D01*
X109857972Y-80636927D01*
X109895776Y-80624581D01*
X109903722Y-80618084D01*
X109911587Y-80614318D01*
X109981756Y-80585254D01*
X109994524Y-80580755D01*
X110026367Y-80571430D01*
X110057921Y-80547216D01*
X110065814Y-80541629D01*
X110099114Y-80519933D01*
X110105106Y-80511603D01*
X110111727Y-80505930D01*
X110171989Y-80459689D01*
X110183162Y-80452036D01*
X110211501Y-80434791D01*
X110235690Y-80403266D01*
X110241892Y-80395796D01*
X110260638Y-80374913D01*
X110268440Y-80366222D01*
X110272073Y-80356622D01*
X110277016Y-80349408D01*
X110323221Y-80289193D01*
X110332048Y-80278889D01*
X110354961Y-80254893D01*
X110370190Y-80218123D01*
X110374221Y-80209365D01*
X110392212Y-80173921D01*
X110393237Y-80163710D01*
X110396130Y-80155498D01*
X110425197Y-80085322D01*
X110431057Y-80073088D01*
X110441367Y-80054239D01*
X110446970Y-80043996D01*
X110452161Y-80004559D01*
X110453789Y-79995043D01*
X110461996Y-79956140D01*
X110460343Y-79946010D01*
X110461014Y-79937310D01*
X110470927Y-79862019D01*
X110473417Y-79848700D01*
X110481261Y-79816468D01*
X110476070Y-79777050D01*
X110475176Y-79767388D01*
X110473666Y-79739386D01*
X110473037Y-79727721D01*
X110468818Y-79718364D01*
X110467214Y-79709782D01*
X110457305Y-79634507D01*
X110456261Y-79620969D01*
X110455765Y-79599494D01*
X110455496Y-79587822D01*
X110442317Y-79556004D01*
X110440283Y-79551093D01*
X110436919Y-79541997D01*
X110430044Y-79520949D01*
X110424581Y-79504223D01*
X110418087Y-79496279D01*
X110414310Y-79488392D01*
X110406192Y-79468794D01*
X110385262Y-79418262D01*
X110380749Y-79405456D01*
X110376550Y-79391118D01*
X110371430Y-79373633D01*
X110364323Y-79364371D01*
X110364321Y-79364367D01*
X110347228Y-79342092D01*
X110341630Y-79334185D01*
X110319933Y-79300886D01*
X110311606Y-79294894D01*
X110305920Y-79288257D01*
X110259703Y-79228025D01*
X110252032Y-79216827D01*
X110240863Y-79198475D01*
X110240862Y-79198474D01*
X110234791Y-79188498D01*
X110203249Y-79164296D01*
X110195788Y-79158100D01*
X110174907Y-79139356D01*
X110174904Y-79139354D01*
X110166221Y-79131560D01*
X110156626Y-79127927D01*
X110149418Y-79122989D01*
X110089181Y-79076768D01*
X110078885Y-79067947D01*
X110054893Y-79045039D01*
X110044106Y-79040570D01*
X110044105Y-79040570D01*
X110018162Y-79029823D01*
X110009358Y-79025773D01*
X109984330Y-79013070D01*
X109984328Y-79013069D01*
X109973921Y-79007787D01*
X109963714Y-79006761D01*
X109955460Y-79003852D01*
X109885332Y-78974805D01*
X109873086Y-78968941D01*
X109854237Y-78958631D01*
X109854235Y-78958630D01*
X109843996Y-78953030D01*
X109832423Y-78951506D01*
X109804582Y-78947840D01*
X109795030Y-78946206D01*
X109767560Y-78940412D01*
X109767556Y-78940411D01*
X109756140Y-78938004D01*
X109746019Y-78939654D01*
X109737296Y-78938982D01*
X109662024Y-78929071D01*
X109648686Y-78926578D01*
X109647679Y-78926333D01*
X109616468Y-78918739D01*
X109604896Y-78920262D01*
X109604890Y-78920262D01*
X109577062Y-78923926D01*
X109567409Y-78924821D01*
X109539376Y-78926333D01*
X109539370Y-78926334D01*
X109527720Y-78926963D01*
X109518367Y-78931178D01*
X109509765Y-78932786D01*
X109434508Y-78942694D01*
X109420972Y-78943738D01*
X109399493Y-78944234D01*
X109399491Y-78944234D01*
X109387822Y-78944504D01*
X109377037Y-78948970D01*
X109377036Y-78948971D01*
X109351088Y-78959718D01*
X109342001Y-78963078D01*
X109315322Y-78971793D01*
X109315319Y-78971794D01*
X109304223Y-78975419D01*
X109296281Y-78981910D01*
X109288392Y-78985688D01*
X109218260Y-79014737D01*
X109205460Y-79019248D01*
X109184840Y-79025287D01*
X109184836Y-79025288D01*
X109173633Y-79028570D01*
X109164370Y-79035677D01*
X109164369Y-79035678D01*
X109142095Y-79052769D01*
X109134184Y-79058369D01*
X109110663Y-79073695D01*
X109110659Y-79073698D01*
X109100886Y-79080067D01*
X109094897Y-79088389D01*
X109088255Y-79094079D01*
X109028020Y-79140299D01*
X109016824Y-79147969D01*
X108988498Y-79165209D01*
X108981392Y-79174468D01*
X108981389Y-79174472D01*
X108964296Y-79196748D01*
X108958106Y-79204203D01*
X108939356Y-79225093D01*
X108931560Y-79233779D01*
X108927928Y-79243369D01*
X108922984Y-79250586D01*
X108876774Y-79310809D01*
X108867945Y-79321115D01*
X108853101Y-79336662D01*
X108853098Y-79336665D01*
X108845039Y-79345107D01*
X108840574Y-79355884D01*
X108840569Y-79355893D01*
X108829819Y-79381846D01*
X108825769Y-79390649D01*
X108813070Y-79415668D01*
X108813068Y-79415673D01*
X108807787Y-79426079D01*
X108806761Y-79436284D01*
X108803855Y-79444531D01*
X108774806Y-79514663D01*
X108768944Y-79526906D01*
X108758630Y-79545763D01*
X108758628Y-79545768D01*
X108753030Y-79556004D01*
X108751507Y-79567568D01*
X108751504Y-79567578D01*
X108747838Y-79595422D01*
X108746205Y-79604972D01*
X108740412Y-79632439D01*
X108740411Y-79632443D01*
X108738004Y-79643860D01*
X108739654Y-79653977D01*
X108738982Y-79662694D01*
X108729073Y-79737966D01*
X108726579Y-79751310D01*
X108718739Y-79783531D01*
X102300500Y-79783531D01*
X102300500Y-78600000D01*
X161086496Y-78600000D01*
X161106458Y-78789928D01*
X161108495Y-78796200D01*
X161108497Y-78796205D01*
X161163430Y-78965271D01*
X161163433Y-78965278D01*
X161165473Y-78971556D01*
X161260960Y-79136944D01*
X161388747Y-79278866D01*
X161394089Y-79282747D01*
X161394091Y-79282749D01*
X161409494Y-79293940D01*
X161543248Y-79391118D01*
X161717712Y-79468794D01*
X161904513Y-79508500D01*
X162088884Y-79508500D01*
X162095487Y-79508500D01*
X162282288Y-79468794D01*
X162456752Y-79391118D01*
X162611253Y-79278866D01*
X162739040Y-79136944D01*
X162834527Y-78971556D01*
X162893542Y-78789928D01*
X162913504Y-78600000D01*
X162893542Y-78410072D01*
X162848042Y-78270039D01*
X162836569Y-78234728D01*
X162836568Y-78234726D01*
X162834527Y-78228444D01*
X162739040Y-78063056D01*
X162611253Y-77921134D01*
X162605911Y-77917253D01*
X162605908Y-77917250D01*
X162528057Y-77860688D01*
X162456752Y-77808882D01*
X162282288Y-77731206D01*
X162275835Y-77729834D01*
X162275831Y-77729833D01*
X162101943Y-77692872D01*
X162101940Y-77692871D01*
X162095487Y-77691500D01*
X161904513Y-77691500D01*
X161898060Y-77692871D01*
X161898056Y-77692872D01*
X161724168Y-77729833D01*
X161724161Y-77729835D01*
X161717712Y-77731206D01*
X161711682Y-77733890D01*
X161711681Y-77733891D01*
X161549278Y-77806197D01*
X161549275Y-77806198D01*
X161543248Y-77808882D01*
X161537907Y-77812762D01*
X161537906Y-77812763D01*
X161394091Y-77917250D01*
X161394083Y-77917256D01*
X161388747Y-77921134D01*
X161384330Y-77926039D01*
X161384325Y-77926044D01*
X161265379Y-78058148D01*
X161260960Y-78063056D01*
X161257661Y-78068769D01*
X161257658Y-78068774D01*
X161183420Y-78197359D01*
X161165473Y-78228444D01*
X161163434Y-78234718D01*
X161163430Y-78234728D01*
X161108497Y-78403794D01*
X161108495Y-78403801D01*
X161106458Y-78410072D01*
X161105768Y-78416633D01*
X161105768Y-78416635D01*
X161094880Y-78520232D01*
X161086496Y-78600000D01*
X102300500Y-78600000D01*
X102300500Y-77822303D01*
X125292000Y-77822303D01*
X125292325Y-77828692D01*
X125301907Y-77922488D01*
X125304767Y-77935846D01*
X125356035Y-78090564D01*
X125362192Y-78103767D01*
X125447511Y-78242091D01*
X125456558Y-78253532D01*
X125571467Y-78368441D01*
X125582908Y-78377488D01*
X125721232Y-78462807D01*
X125734435Y-78468964D01*
X125889153Y-78520232D01*
X125902511Y-78523092D01*
X125996307Y-78532674D01*
X126002697Y-78533000D01*
X126129410Y-78533000D01*
X126142493Y-78529493D01*
X126146000Y-78516410D01*
X126654000Y-78516410D01*
X126657506Y-78529493D01*
X126670590Y-78533000D01*
X126797303Y-78533000D01*
X126803692Y-78532674D01*
X126897488Y-78523092D01*
X126910846Y-78520232D01*
X127065564Y-78468964D01*
X127078767Y-78462807D01*
X127217091Y-78377488D01*
X127228532Y-78368441D01*
X127343441Y-78253532D01*
X127352488Y-78242090D01*
X127380774Y-78196232D01*
X127423505Y-78154144D01*
X127480854Y-78136581D01*
X127539826Y-78147522D01*
X127587058Y-78184488D01*
X127594092Y-78193432D01*
X127598624Y-78197359D01*
X127678484Y-78266559D01*
X127754082Y-78332065D01*
X127937418Y-78437913D01*
X128137473Y-78507153D01*
X128347016Y-78537281D01*
X128558474Y-78527208D01*
X128764204Y-78477298D01*
X128956771Y-78389356D01*
X129129215Y-78266559D01*
X129275303Y-78113346D01*
X129389756Y-77935254D01*
X129468436Y-77738721D01*
X129508500Y-77530849D01*
X129508500Y-76822197D01*
X129493419Y-76664261D01*
X129433777Y-76461138D01*
X129336771Y-76272974D01*
X129286803Y-76209435D01*
X129209615Y-76111281D01*
X129209611Y-76111277D01*
X129205908Y-76106568D01*
X129126532Y-76037788D01*
X129050456Y-75971867D01*
X129050454Y-75971865D01*
X129045918Y-75967935D01*
X128862582Y-75862087D01*
X128856909Y-75860123D01*
X128856908Y-75860123D01*
X128668203Y-75794811D01*
X128668198Y-75794809D01*
X128662527Y-75792847D01*
X128656587Y-75791992D01*
X128656579Y-75791991D01*
X128458926Y-75763573D01*
X128458922Y-75763572D01*
X128452984Y-75762719D01*
X128446994Y-75763004D01*
X128446987Y-75763004D01*
X128247528Y-75772506D01*
X128247527Y-75772506D01*
X128241526Y-75772792D01*
X128235693Y-75774206D01*
X128235686Y-75774208D01*
X128041632Y-75821286D01*
X128041630Y-75821286D01*
X128035796Y-75822702D01*
X128030337Y-75825194D01*
X128030334Y-75825196D01*
X127848688Y-75908150D01*
X127848679Y-75908154D01*
X127843229Y-75910644D01*
X127838343Y-75914123D01*
X127838340Y-75914125D01*
X127826564Y-75922511D01*
X127670785Y-76033441D01*
X127666650Y-76037777D01*
X127666638Y-76037788D01*
X127581046Y-76127555D01*
X127533341Y-76158863D01*
X127476718Y-76165918D01*
X127422789Y-76147273D01*
X127382615Y-76106751D01*
X127352491Y-76057911D01*
X127343441Y-76046467D01*
X127228532Y-75931558D01*
X127217091Y-75922511D01*
X127078767Y-75837192D01*
X127065564Y-75831035D01*
X126910846Y-75779767D01*
X126897488Y-75776907D01*
X126803692Y-75767325D01*
X126797303Y-75767000D01*
X126670590Y-75767000D01*
X126657506Y-75770506D01*
X126654000Y-75783590D01*
X126654000Y-78516410D01*
X126146000Y-78516410D01*
X126146000Y-77420590D01*
X126142493Y-77407506D01*
X126129410Y-77404000D01*
X125308590Y-77404000D01*
X125295506Y-77407506D01*
X125292000Y-77420590D01*
X125292000Y-77822303D01*
X102300500Y-77822303D01*
X102300500Y-75703089D01*
X102300576Y-75700000D01*
X103844518Y-75700000D01*
X103844839Y-75704488D01*
X103864100Y-75973802D01*
X103864101Y-75973812D01*
X103864422Y-75978294D01*
X103865379Y-75982697D01*
X103865380Y-75982698D01*
X103911831Y-76196232D01*
X103923729Y-76250923D01*
X103925303Y-76255143D01*
X104019657Y-76508119D01*
X104019661Y-76508128D01*
X104021231Y-76512337D01*
X104023386Y-76516284D01*
X104023389Y-76516290D01*
X104047955Y-76561279D01*
X104154944Y-76757213D01*
X104157640Y-76760815D01*
X104157643Y-76760819D01*
X104246419Y-76879410D01*
X104322145Y-76980568D01*
X104519432Y-77177855D01*
X104742787Y-77345056D01*
X104987663Y-77478769D01*
X105249077Y-77576271D01*
X105521706Y-77635578D01*
X105730343Y-77650500D01*
X105867400Y-77650500D01*
X105869657Y-77650500D01*
X106078294Y-77635578D01*
X106350923Y-77576271D01*
X106612337Y-77478769D01*
X106857213Y-77345056D01*
X107080568Y-77177855D01*
X107277855Y-76980568D01*
X107353581Y-76879410D01*
X125292000Y-76879410D01*
X125295506Y-76892493D01*
X125308590Y-76896000D01*
X126129410Y-76896000D01*
X126142493Y-76892493D01*
X126146000Y-76879410D01*
X126146000Y-75783590D01*
X126142493Y-75770506D01*
X126129410Y-75767000D01*
X126002697Y-75767000D01*
X125996307Y-75767325D01*
X125902511Y-75776907D01*
X125889153Y-75779767D01*
X125734435Y-75831035D01*
X125721232Y-75837192D01*
X125582908Y-75922511D01*
X125571467Y-75931558D01*
X125456558Y-76046467D01*
X125447511Y-76057908D01*
X125362192Y-76196232D01*
X125356035Y-76209435D01*
X125304767Y-76364153D01*
X125301907Y-76377511D01*
X125292325Y-76471307D01*
X125292000Y-76477698D01*
X125292000Y-76879410D01*
X107353581Y-76879410D01*
X107445056Y-76757213D01*
X107578769Y-76512337D01*
X107676271Y-76250923D01*
X107735578Y-75978294D01*
X107755482Y-75700000D01*
X179294518Y-75700000D01*
X179294839Y-75704488D01*
X179314100Y-75973802D01*
X179314101Y-75973812D01*
X179314422Y-75978294D01*
X179315379Y-75982697D01*
X179315380Y-75982698D01*
X179361831Y-76196232D01*
X179373729Y-76250923D01*
X179375303Y-76255143D01*
X179469657Y-76508119D01*
X179469661Y-76508128D01*
X179471231Y-76512337D01*
X179473386Y-76516284D01*
X179473389Y-76516290D01*
X179497955Y-76561279D01*
X179604944Y-76757213D01*
X179607640Y-76760815D01*
X179607643Y-76760819D01*
X179696419Y-76879410D01*
X179772145Y-76980568D01*
X179969432Y-77177855D01*
X180192787Y-77345056D01*
X180437663Y-77478769D01*
X180699077Y-77576271D01*
X180971706Y-77635578D01*
X181180343Y-77650500D01*
X181317400Y-77650500D01*
X181319657Y-77650500D01*
X181528294Y-77635578D01*
X181800923Y-77576271D01*
X182062337Y-77478769D01*
X182307213Y-77345056D01*
X182530568Y-77177855D01*
X182727855Y-76980568D01*
X182895056Y-76757213D01*
X183028769Y-76512337D01*
X183126271Y-76250923D01*
X183185578Y-75978294D01*
X183205482Y-75700000D01*
X183185578Y-75421706D01*
X183126271Y-75149077D01*
X183028769Y-74887663D01*
X182895056Y-74642787D01*
X182727855Y-74419432D01*
X182530568Y-74222145D01*
X182526964Y-74219447D01*
X182310819Y-74057643D01*
X182310815Y-74057640D01*
X182307213Y-74054944D01*
X182279531Y-74039828D01*
X182066290Y-73923389D01*
X182066284Y-73923386D01*
X182062337Y-73921231D01*
X182058128Y-73919661D01*
X182058119Y-73919657D01*
X181805143Y-73825303D01*
X181800923Y-73823729D01*
X181796520Y-73822771D01*
X181796516Y-73822770D01*
X181532698Y-73765380D01*
X181532697Y-73765379D01*
X181528294Y-73764422D01*
X181523812Y-73764101D01*
X181523802Y-73764100D01*
X181321907Y-73749660D01*
X181321881Y-73749659D01*
X181319657Y-73749500D01*
X181180343Y-73749500D01*
X181178119Y-73749659D01*
X181178092Y-73749660D01*
X180976197Y-73764100D01*
X180976185Y-73764101D01*
X180971706Y-73764422D01*
X180967304Y-73765379D01*
X180967301Y-73765380D01*
X180703483Y-73822770D01*
X180703476Y-73822772D01*
X180699077Y-73823729D01*
X180694860Y-73825301D01*
X180694856Y-73825303D01*
X180441880Y-73919657D01*
X180441866Y-73919663D01*
X180437663Y-73921231D01*
X180433720Y-73923383D01*
X180433709Y-73923389D01*
X180196740Y-74052785D01*
X180196734Y-74052788D01*
X180192787Y-74054944D01*
X180189190Y-74057635D01*
X180189180Y-74057643D01*
X179973035Y-74219447D01*
X179973027Y-74219453D01*
X179969432Y-74222145D01*
X179966253Y-74225323D01*
X179966246Y-74225330D01*
X179775330Y-74416246D01*
X179775323Y-74416253D01*
X179772145Y-74419432D01*
X179769453Y-74423027D01*
X179769447Y-74423035D01*
X179607643Y-74639180D01*
X179607635Y-74639190D01*
X179604944Y-74642787D01*
X179602788Y-74646734D01*
X179602785Y-74646740D01*
X179473389Y-74883709D01*
X179473383Y-74883720D01*
X179471231Y-74887663D01*
X179469663Y-74891866D01*
X179469657Y-74891880D01*
X179379768Y-75132885D01*
X179373729Y-75149077D01*
X179372772Y-75153476D01*
X179372770Y-75153483D01*
X179315380Y-75417301D01*
X179314422Y-75421706D01*
X179314101Y-75426185D01*
X179314100Y-75426197D01*
X179296509Y-75672156D01*
X179294518Y-75700000D01*
X107755482Y-75700000D01*
X107735578Y-75421706D01*
X107676271Y-75149077D01*
X107578769Y-74887663D01*
X107445056Y-74642787D01*
X107277855Y-74419432D01*
X107080568Y-74222145D01*
X107076964Y-74219447D01*
X106860819Y-74057643D01*
X106860815Y-74057640D01*
X106857213Y-74054944D01*
X106829531Y-74039828D01*
X106616290Y-73923389D01*
X106616284Y-73923386D01*
X106612337Y-73921231D01*
X106608128Y-73919661D01*
X106608119Y-73919657D01*
X106355143Y-73825303D01*
X106350923Y-73823729D01*
X106346520Y-73822771D01*
X106346516Y-73822770D01*
X106082698Y-73765380D01*
X106082697Y-73765379D01*
X106078294Y-73764422D01*
X106073812Y-73764101D01*
X106073802Y-73764100D01*
X105871907Y-73749660D01*
X105871881Y-73749659D01*
X105869657Y-73749500D01*
X105730343Y-73749500D01*
X105728119Y-73749659D01*
X105728092Y-73749660D01*
X105526197Y-73764100D01*
X105526185Y-73764101D01*
X105521706Y-73764422D01*
X105517304Y-73765379D01*
X105517301Y-73765380D01*
X105253483Y-73822770D01*
X105253476Y-73822772D01*
X105249077Y-73823729D01*
X105244860Y-73825301D01*
X105244856Y-73825303D01*
X104991880Y-73919657D01*
X104991866Y-73919663D01*
X104987663Y-73921231D01*
X104983720Y-73923383D01*
X104983709Y-73923389D01*
X104746740Y-74052785D01*
X104746734Y-74052788D01*
X104742787Y-74054944D01*
X104739190Y-74057635D01*
X104739180Y-74057643D01*
X104523035Y-74219447D01*
X104523027Y-74219453D01*
X104519432Y-74222145D01*
X104516253Y-74225323D01*
X104516246Y-74225330D01*
X104325330Y-74416246D01*
X104325323Y-74416253D01*
X104322145Y-74419432D01*
X104319453Y-74423027D01*
X104319447Y-74423035D01*
X104157643Y-74639180D01*
X104157635Y-74639190D01*
X104154944Y-74642787D01*
X104152788Y-74646734D01*
X104152785Y-74646740D01*
X104023389Y-74883709D01*
X104023383Y-74883720D01*
X104021231Y-74887663D01*
X104019663Y-74891866D01*
X104019657Y-74891880D01*
X103929768Y-75132885D01*
X103923729Y-75149077D01*
X103922772Y-75153476D01*
X103922770Y-75153483D01*
X103865380Y-75417301D01*
X103864422Y-75421706D01*
X103864101Y-75426185D01*
X103864100Y-75426197D01*
X103846509Y-75672156D01*
X103844518Y-75700000D01*
X102300576Y-75700000D01*
X102300652Y-75696907D01*
X102313951Y-75426197D01*
X102317047Y-75363164D01*
X102318259Y-75350865D01*
X102347538Y-75153483D01*
X102366835Y-75023393D01*
X102369241Y-75011294D01*
X102449685Y-74690141D01*
X102453266Y-74678336D01*
X102564807Y-74366602D01*
X102569519Y-74355226D01*
X102711073Y-74055937D01*
X102716900Y-74045036D01*
X102789812Y-73923389D01*
X102887097Y-73761077D01*
X102893954Y-73750816D01*
X103091167Y-73484906D01*
X103099001Y-73475360D01*
X103321337Y-73230050D01*
X103330050Y-73221337D01*
X103575360Y-72999001D01*
X103584906Y-72991167D01*
X103850816Y-72793954D01*
X103861077Y-72787097D01*
X104145040Y-72616897D01*
X104155941Y-72611071D01*
X104455226Y-72469519D01*
X104466602Y-72464807D01*
X104778336Y-72353266D01*
X104790141Y-72349685D01*
X105111294Y-72269241D01*
X105123393Y-72266835D01*
X105450873Y-72218258D01*
X105463164Y-72217047D01*
X105748152Y-72203047D01*
X105796907Y-72200652D01*
X105803089Y-72200500D01*
X105847595Y-72200500D01*
X181202405Y-72200500D01*
X181246911Y-72200500D01*
X181253093Y-72200652D01*
G37*
%TD.AperFunction*%
%TD*%
M02*
