%TF.GenerationSoftware,KiCad,Pcbnew,(7.0.0)*%
%TF.CreationDate,2023-05-21T02:13:25-07:00*%
%TF.ProjectId,epaper_photo_frame,65706170-6572-45f7-9068-6f746f5f6672,rev?*%
%TF.SameCoordinates,Original*%
%TF.FileFunction,Legend,Top*%
%TF.FilePolarity,Positive*%
%FSLAX46Y46*%
G04 Gerber Fmt 4.6, Leading zero omitted, Abs format (unit mm)*
G04 Created by KiCad (PCBNEW (7.0.0)) date 2023-05-21 02:13:25*
%MOMM*%
%LPD*%
G01*
G04 APERTURE LIST*
%ADD10C,0.150000*%
%ADD11C,0.200000*%
%ADD12C,0.254000*%
%ADD13C,0.120000*%
%ADD14C,0.250000*%
%ADD15C,0.100000*%
G04 APERTURE END LIST*
D10*
X125325000Y-123150000D02*
X126625000Y-123150000D01*
X125925000Y-120400000D02*
X125925000Y-121700000D01*
X125275000Y-121350000D02*
X125925000Y-121350000D01*
X153120711Y-116800000D02*
G75*
G03*
X153120711Y-116800000I-70711J0D01*
G01*
X118850001Y-133700000D02*
G75*
G03*
X118850001Y-133700000I-70711J0D01*
G01*
X132750000Y-115850000D02*
X132100000Y-115850000D01*
X125975000Y-123150000D02*
X125325000Y-123800000D01*
X116000000Y-116175000D02*
X115350000Y-116825000D01*
X115350000Y-116825000D02*
X116000000Y-117475000D01*
X125925000Y-121350000D02*
X126575000Y-121350000D01*
X126575000Y-121350000D02*
X125925000Y-120700000D01*
X124820711Y-85100000D02*
G75*
G03*
X124820711Y-85100000I-70711J0D01*
G01*
X131450000Y-115850000D02*
X132100000Y-116500000D01*
X164720711Y-121900000D02*
G75*
G03*
X164720711Y-121900000I-70711J0D01*
G01*
X116000000Y-117475000D02*
X116000000Y-116825000D01*
X132750000Y-116500000D02*
X131450000Y-116500000D01*
X125275000Y-120700000D02*
X126575000Y-120700000D01*
X183800001Y-80100000D02*
G75*
G03*
X183800001Y-80100000I-70711J0D01*
G01*
X114970711Y-123550000D02*
G75*
G03*
X114970711Y-123550000I-70711J0D01*
G01*
X125925000Y-120700000D02*
X125275000Y-121350000D01*
X132100000Y-116800000D02*
X132100000Y-115500000D01*
X123820711Y-74650000D02*
G75*
G03*
X123820711Y-74650000I-70711J0D01*
G01*
X125975000Y-123800000D02*
X126625000Y-123800000D01*
X115350000Y-117475000D02*
X115350000Y-116175000D01*
X116000000Y-116825000D02*
X116000000Y-116175000D01*
X132100000Y-116500000D02*
X132750000Y-115850000D01*
X149020711Y-115850000D02*
G75*
G03*
X149020711Y-115850000I-70711J0D01*
G01*
X125325000Y-123800000D02*
X125975000Y-123800000D01*
X133920711Y-99350000D02*
G75*
G03*
X133920711Y-99350000I-70711J0D01*
G01*
X125975000Y-122850000D02*
X125975000Y-124150000D01*
X115050000Y-116825000D02*
X116350000Y-116825000D01*
X126625000Y-123800000D02*
X125975000Y-123150000D01*
X132100000Y-115850000D02*
X131450000Y-115850000D01*
X154938095Y-86501428D02*
X155700000Y-86501428D01*
X155319047Y-86882380D02*
X155319047Y-86120476D01*
D11*
X171273809Y-97382380D02*
X171273809Y-98096666D01*
X171273809Y-98096666D02*
X171226190Y-98239523D01*
X171226190Y-98239523D02*
X171130952Y-98334761D01*
X171130952Y-98334761D02*
X170988095Y-98382380D01*
X170988095Y-98382380D02*
X170892857Y-98382380D01*
X172226190Y-98382380D02*
X171750000Y-98382380D01*
X171750000Y-98382380D02*
X171750000Y-97382380D01*
X173130952Y-98287142D02*
X173083333Y-98334761D01*
X173083333Y-98334761D02*
X172940476Y-98382380D01*
X172940476Y-98382380D02*
X172845238Y-98382380D01*
X172845238Y-98382380D02*
X172702381Y-98334761D01*
X172702381Y-98334761D02*
X172607143Y-98239523D01*
X172607143Y-98239523D02*
X172559524Y-98144285D01*
X172559524Y-98144285D02*
X172511905Y-97953809D01*
X172511905Y-97953809D02*
X172511905Y-97810952D01*
X172511905Y-97810952D02*
X172559524Y-97620476D01*
X172559524Y-97620476D02*
X172607143Y-97525238D01*
X172607143Y-97525238D02*
X172702381Y-97430000D01*
X172702381Y-97430000D02*
X172845238Y-97382380D01*
X172845238Y-97382380D02*
X172940476Y-97382380D01*
X172940476Y-97382380D02*
X173083333Y-97430000D01*
X173083333Y-97430000D02*
X173130952Y-97477619D01*
X173845238Y-97382380D02*
X173845238Y-98096666D01*
X173845238Y-98096666D02*
X173797619Y-98239523D01*
X173797619Y-98239523D02*
X173702381Y-98334761D01*
X173702381Y-98334761D02*
X173559524Y-98382380D01*
X173559524Y-98382380D02*
X173464286Y-98382380D01*
X174797619Y-98382380D02*
X174321429Y-98382380D01*
X174321429Y-98382380D02*
X174321429Y-97382380D01*
X175702381Y-98287142D02*
X175654762Y-98334761D01*
X175654762Y-98334761D02*
X175511905Y-98382380D01*
X175511905Y-98382380D02*
X175416667Y-98382380D01*
X175416667Y-98382380D02*
X175273810Y-98334761D01*
X175273810Y-98334761D02*
X175178572Y-98239523D01*
X175178572Y-98239523D02*
X175130953Y-98144285D01*
X175130953Y-98144285D02*
X175083334Y-97953809D01*
X175083334Y-97953809D02*
X175083334Y-97810952D01*
X175083334Y-97810952D02*
X175130953Y-97620476D01*
X175130953Y-97620476D02*
X175178572Y-97525238D01*
X175178572Y-97525238D02*
X175273810Y-97430000D01*
X175273810Y-97430000D02*
X175416667Y-97382380D01*
X175416667Y-97382380D02*
X175511905Y-97382380D01*
X175511905Y-97382380D02*
X175654762Y-97430000D01*
X175654762Y-97430000D02*
X175702381Y-97477619D01*
X176416667Y-97382380D02*
X176416667Y-98096666D01*
X176416667Y-98096666D02*
X176369048Y-98239523D01*
X176369048Y-98239523D02*
X176273810Y-98334761D01*
X176273810Y-98334761D02*
X176130953Y-98382380D01*
X176130953Y-98382380D02*
X176035715Y-98382380D01*
X177369048Y-98382380D02*
X176892858Y-98382380D01*
X176892858Y-98382380D02*
X176892858Y-97382380D01*
X178273810Y-98287142D02*
X178226191Y-98334761D01*
X178226191Y-98334761D02*
X178083334Y-98382380D01*
X178083334Y-98382380D02*
X177988096Y-98382380D01*
X177988096Y-98382380D02*
X177845239Y-98334761D01*
X177845239Y-98334761D02*
X177750001Y-98239523D01*
X177750001Y-98239523D02*
X177702382Y-98144285D01*
X177702382Y-98144285D02*
X177654763Y-97953809D01*
X177654763Y-97953809D02*
X177654763Y-97810952D01*
X177654763Y-97810952D02*
X177702382Y-97620476D01*
X177702382Y-97620476D02*
X177750001Y-97525238D01*
X177750001Y-97525238D02*
X177845239Y-97430000D01*
X177845239Y-97430000D02*
X177988096Y-97382380D01*
X177988096Y-97382380D02*
X178083334Y-97382380D01*
X178083334Y-97382380D02*
X178226191Y-97430000D01*
X178226191Y-97430000D02*
X178273810Y-97477619D01*
X178988096Y-97382380D02*
X178988096Y-98096666D01*
X178988096Y-98096666D02*
X178940477Y-98239523D01*
X178940477Y-98239523D02*
X178845239Y-98334761D01*
X178845239Y-98334761D02*
X178702382Y-98382380D01*
X178702382Y-98382380D02*
X178607144Y-98382380D01*
X179940477Y-98382380D02*
X179464287Y-98382380D01*
X179464287Y-98382380D02*
X179464287Y-97382380D01*
X180845239Y-98287142D02*
X180797620Y-98334761D01*
X180797620Y-98334761D02*
X180654763Y-98382380D01*
X180654763Y-98382380D02*
X180559525Y-98382380D01*
X180559525Y-98382380D02*
X180416668Y-98334761D01*
X180416668Y-98334761D02*
X180321430Y-98239523D01*
X180321430Y-98239523D02*
X180273811Y-98144285D01*
X180273811Y-98144285D02*
X180226192Y-97953809D01*
X180226192Y-97953809D02*
X180226192Y-97810952D01*
X180226192Y-97810952D02*
X180273811Y-97620476D01*
X180273811Y-97620476D02*
X180321430Y-97525238D01*
X180321430Y-97525238D02*
X180416668Y-97430000D01*
X180416668Y-97430000D02*
X180559525Y-97382380D01*
X180559525Y-97382380D02*
X180654763Y-97382380D01*
X180654763Y-97382380D02*
X180797620Y-97430000D01*
X180797620Y-97430000D02*
X180845239Y-97477619D01*
D10*
X148838095Y-86501428D02*
X149600000Y-86501428D01*
X149219047Y-86882380D02*
X149219047Y-86120476D01*
D12*
%TO.C,IC2*%
X162260237Y-104866573D02*
X162260237Y-103596573D01*
X163590714Y-104745621D02*
X163530238Y-104806097D01*
X163530238Y-104806097D02*
X163348809Y-104866573D01*
X163348809Y-104866573D02*
X163227857Y-104866573D01*
X163227857Y-104866573D02*
X163046428Y-104806097D01*
X163046428Y-104806097D02*
X162925476Y-104685145D01*
X162925476Y-104685145D02*
X162864999Y-104564192D01*
X162864999Y-104564192D02*
X162804523Y-104322288D01*
X162804523Y-104322288D02*
X162804523Y-104140859D01*
X162804523Y-104140859D02*
X162864999Y-103898954D01*
X162864999Y-103898954D02*
X162925476Y-103778002D01*
X162925476Y-103778002D02*
X163046428Y-103657050D01*
X163046428Y-103657050D02*
X163227857Y-103596573D01*
X163227857Y-103596573D02*
X163348809Y-103596573D01*
X163348809Y-103596573D02*
X163530238Y-103657050D01*
X163530238Y-103657050D02*
X163590714Y-103717526D01*
X164074523Y-103717526D02*
X164134999Y-103657050D01*
X164134999Y-103657050D02*
X164255952Y-103596573D01*
X164255952Y-103596573D02*
X164558333Y-103596573D01*
X164558333Y-103596573D02*
X164679285Y-103657050D01*
X164679285Y-103657050D02*
X164739761Y-103717526D01*
X164739761Y-103717526D02*
X164800238Y-103838478D01*
X164800238Y-103838478D02*
X164800238Y-103959430D01*
X164800238Y-103959430D02*
X164739761Y-104140859D01*
X164739761Y-104140859D02*
X164014047Y-104866573D01*
X164014047Y-104866573D02*
X164800238Y-104866573D01*
%TO.C,J1*%
X178490573Y-100345332D02*
X179397716Y-100345332D01*
X179397716Y-100345332D02*
X179579145Y-100405809D01*
X179579145Y-100405809D02*
X179700097Y-100526761D01*
X179700097Y-100526761D02*
X179760573Y-100708190D01*
X179760573Y-100708190D02*
X179760573Y-100829142D01*
X179760573Y-99075332D02*
X179760573Y-99801047D01*
X179760573Y-99438190D02*
X178490573Y-99438190D01*
X178490573Y-99438190D02*
X178672002Y-99559142D01*
X178672002Y-99559142D02*
X178792954Y-99680094D01*
X178792954Y-99680094D02*
X178853430Y-99801047D01*
%TO.C,IC1*%
X133760237Y-89266573D02*
X133760237Y-87996573D01*
X135090714Y-89145621D02*
X135030238Y-89206097D01*
X135030238Y-89206097D02*
X134848809Y-89266573D01*
X134848809Y-89266573D02*
X134727857Y-89266573D01*
X134727857Y-89266573D02*
X134546428Y-89206097D01*
X134546428Y-89206097D02*
X134425476Y-89085145D01*
X134425476Y-89085145D02*
X134364999Y-88964192D01*
X134364999Y-88964192D02*
X134304523Y-88722288D01*
X134304523Y-88722288D02*
X134304523Y-88540859D01*
X134304523Y-88540859D02*
X134364999Y-88298954D01*
X134364999Y-88298954D02*
X134425476Y-88178002D01*
X134425476Y-88178002D02*
X134546428Y-88057050D01*
X134546428Y-88057050D02*
X134727857Y-87996573D01*
X134727857Y-87996573D02*
X134848809Y-87996573D01*
X134848809Y-87996573D02*
X135030238Y-88057050D01*
X135030238Y-88057050D02*
X135090714Y-88117526D01*
X136300238Y-89266573D02*
X135574523Y-89266573D01*
X135937380Y-89266573D02*
X135937380Y-87996573D01*
X135937380Y-87996573D02*
X135816428Y-88178002D01*
X135816428Y-88178002D02*
X135695476Y-88298954D01*
X135695476Y-88298954D02*
X135574523Y-88359430D01*
D13*
%TO.C,R12*%
X142714564Y-79060000D02*
X141260436Y-79060000D01*
X142714564Y-77240000D02*
X141260436Y-77240000D01*
D11*
%TO.C,L1*%
X117300000Y-116200000D02*
X121300000Y-116200000D01*
X121300000Y-112200000D02*
X117300000Y-112200000D01*
D13*
%TO.C,Q1*%
X116500000Y-133810000D02*
X118175000Y-133810000D01*
X116500000Y-133810000D02*
X115850000Y-133810000D01*
X116500000Y-130690000D02*
X117150000Y-130690000D01*
X116500000Y-130690000D02*
X115850000Y-130690000D01*
%TO.C,D6*%
X147536000Y-82835000D02*
X147380000Y-82835000D01*
X145220000Y-82835000D02*
X145064000Y-82835000D01*
X147378608Y-86067334D02*
G75*
G03*
X147535515Y-82835001I-1078608J1672334D01*
G01*
X147379836Y-85436129D02*
G75*
G03*
X147379999Y-83354040I-1079836J1041129D01*
G01*
X145220001Y-83354040D02*
G75*
G03*
X145220164Y-85436129I1079999J-1040960D01*
G01*
X145064485Y-82835001D02*
G75*
G03*
X145221392Y-86067334I1235515J-1559999D01*
G01*
%TO.C,C23*%
X144890000Y-126590580D02*
X144890000Y-126309420D01*
X145910000Y-126590580D02*
X145910000Y-126309420D01*
%TO.C,C37*%
X163390000Y-77940580D02*
X163390000Y-77659420D01*
X164410000Y-77940580D02*
X164410000Y-77659420D01*
%TO.C,C4*%
X146490000Y-126590580D02*
X146490000Y-126309420D01*
X147510000Y-126590580D02*
X147510000Y-126309420D01*
%TO.C,C35*%
X163259420Y-100190000D02*
X163540580Y-100190000D01*
X163259420Y-101210000D02*
X163540580Y-101210000D01*
%TO.C,D4*%
X116665000Y-116912500D02*
X116665000Y-118912500D01*
X116665000Y-116912500D02*
X120675000Y-116912500D01*
X116665000Y-118912500D02*
X120675000Y-118912500D01*
%TO.C,C17*%
X170911252Y-125635000D02*
X170388748Y-125635000D01*
X170911252Y-124165000D02*
X170388748Y-124165000D01*
%TO.C,J2*%
X183055000Y-80895000D02*
X183055000Y-82225000D01*
X181725000Y-80895000D02*
X183055000Y-80895000D01*
X180455000Y-80895000D02*
X157535000Y-80895000D01*
X180455000Y-80895000D02*
X180455000Y-83495000D01*
X157535000Y-80895000D02*
X157535000Y-86095000D01*
X183055000Y-83495000D02*
X183055000Y-86095000D01*
X180455000Y-83495000D02*
X183055000Y-83495000D01*
X183055000Y-86095000D02*
X157535000Y-86095000D01*
%TO.C,C9*%
X132090000Y-123590580D02*
X132090000Y-123309420D01*
X133110000Y-123590580D02*
X133110000Y-123309420D01*
%TO.C,C18*%
X134240000Y-129340580D02*
X134240000Y-129059420D01*
X135260000Y-129340580D02*
X135260000Y-129059420D01*
%TO.C,U3*%
X136015000Y-99365000D02*
X136015000Y-99815000D01*
X136015000Y-99815000D02*
X134725000Y-99815000D01*
X136015000Y-106585000D02*
X136015000Y-106135000D01*
X136465000Y-99365000D02*
X136015000Y-99365000D01*
X136465000Y-106585000D02*
X136015000Y-106585000D01*
X142785000Y-99365000D02*
X143235000Y-99365000D01*
X142785000Y-106585000D02*
X143235000Y-106585000D01*
X143235000Y-99365000D02*
X143235000Y-99815000D01*
X143235000Y-106585000D02*
X143235000Y-106135000D01*
D14*
%TO.C,IC2*%
X164675000Y-106400000D02*
G75*
G03*
X164675000Y-106400000I-125000J0D01*
G01*
D13*
%TO.C,R10*%
X144945000Y-80323737D02*
X144945000Y-78876263D01*
X147655000Y-80323737D02*
X147655000Y-78876263D01*
%TO.C,C40*%
X137459420Y-96440000D02*
X137740580Y-96440000D01*
X137459420Y-97460000D02*
X137740580Y-97460000D01*
%TO.C,C24*%
X148040000Y-126590580D02*
X148040000Y-126309420D01*
X149060000Y-126590580D02*
X149060000Y-126309420D01*
%TO.C,R35*%
X170877064Y-123535000D02*
X170422936Y-123535000D01*
X170877064Y-122065000D02*
X170422936Y-122065000D01*
%TO.C,C6*%
X127765000Y-123165580D02*
X127765000Y-122884420D01*
X128785000Y-123165580D02*
X128785000Y-122884420D01*
%TO.C,C41*%
X144110000Y-108159420D02*
X144110000Y-108440580D01*
X143090000Y-108159420D02*
X143090000Y-108440580D01*
D11*
%TO.C,J1*%
X169200000Y-110425000D02*
X181528000Y-110425000D01*
X183400000Y-98925000D02*
X183400000Y-108951000D01*
X183400000Y-98925000D02*
X184400000Y-98925000D01*
X184400000Y-98925000D02*
X184400000Y-97675000D01*
X169200000Y-96425000D02*
X169200000Y-101698000D01*
X169200000Y-96425000D02*
X182542000Y-96425000D01*
X183878000Y-101419000D02*
G75*
G03*
X183878000Y-101419000I-34000J0D01*
G01*
D13*
%TO.C,C20*%
X114990580Y-114710000D02*
X114709420Y-114710000D01*
X114990580Y-113690000D02*
X114709420Y-113690000D01*
%TO.C,C5*%
X126790000Y-126290580D02*
X126790000Y-126009420D01*
X127810000Y-126290580D02*
X127810000Y-126009420D01*
%TO.C,C10*%
X133890000Y-124690580D02*
X133890000Y-124409420D01*
X134910000Y-124690580D02*
X134910000Y-124409420D01*
%TO.C,C14*%
X162515000Y-122961252D02*
X162515000Y-122438748D01*
X163985000Y-122961252D02*
X163985000Y-122438748D01*
%TO.C,D5*%
X153636000Y-82835000D02*
X153480000Y-82835000D01*
X151320000Y-82835000D02*
X151164000Y-82835000D01*
X153478608Y-86067334D02*
G75*
G03*
X153635515Y-82835001I-1078608J1672334D01*
G01*
X153479836Y-85436129D02*
G75*
G03*
X153479999Y-83354040I-1079836J1041129D01*
G01*
X151320001Y-83354040D02*
G75*
G03*
X151320164Y-85436129I1079999J-1040960D01*
G01*
X151164485Y-82835001D02*
G75*
G03*
X151321392Y-86067334I1235515J-1559999D01*
G01*
%TO.C,C44*%
X134110000Y-105559420D02*
X134110000Y-105840580D01*
X133090000Y-105559420D02*
X133090000Y-105840580D01*
D15*
%TO.C,J4*%
X121750000Y-133900000D02*
X123000000Y-133900000D01*
X121750000Y-136350000D02*
X121750000Y-133900000D01*
D11*
X123550000Y-132950000D02*
X123550000Y-132950000D01*
X123750000Y-132950000D02*
X123750000Y-132950000D01*
D15*
X124000000Y-138800000D02*
X148000000Y-138800000D01*
X149000000Y-133900000D02*
X150250000Y-133900000D01*
X150250000Y-133900000D02*
X150250000Y-136350000D01*
D11*
X123750000Y-132950000D02*
G75*
G03*
X123550000Y-132950000I-100000J0D01*
G01*
X123550000Y-132950000D02*
G75*
G03*
X123750000Y-132950000I100000J0D01*
G01*
D13*
%TO.C,C22*%
X136765000Y-88511252D02*
X136765000Y-87988748D01*
X138235000Y-88511252D02*
X138235000Y-87988748D01*
%TO.C,C32*%
X128260000Y-103492164D02*
X128260000Y-103707836D01*
X127540000Y-103492164D02*
X127540000Y-103707836D01*
%TO.C,R34*%
X170422936Y-119965000D02*
X170877064Y-119965000D01*
X170422936Y-121435000D02*
X170877064Y-121435000D01*
%TO.C,C28*%
X118565580Y-121322500D02*
X118284420Y-121322500D01*
X118565580Y-120302500D02*
X118284420Y-120302500D01*
%TO.C,C31*%
X127540000Y-100207836D02*
X127540000Y-99992164D01*
X128260000Y-100207836D02*
X128260000Y-99992164D01*
%TO.C,Q32*%
X151362500Y-116210000D02*
X153037500Y-116210000D01*
X151362500Y-116210000D02*
X150712500Y-116210000D01*
X151362500Y-113090000D02*
X152012500Y-113090000D01*
X151362500Y-113090000D02*
X150712500Y-113090000D01*
D11*
%TO.C,L2*%
X116125000Y-122462500D02*
X116125000Y-118462500D01*
X112125000Y-118462500D02*
X112125000Y-122462500D01*
D13*
%TO.C,C27*%
X153140000Y-129340580D02*
X153140000Y-129059420D01*
X154160000Y-129340580D02*
X154160000Y-129059420D01*
%TO.C,R36*%
X165922936Y-126265000D02*
X166377064Y-126265000D01*
X165922936Y-127735000D02*
X166377064Y-127735000D01*
%TO.C,R3*%
X127015000Y-118477064D02*
X127015000Y-118022936D01*
X128485000Y-118477064D02*
X128485000Y-118022936D01*
%TO.C,D1*%
X128950000Y-119910000D02*
X130950000Y-119910000D01*
X128950000Y-119910000D02*
X128950000Y-115900000D01*
X130950000Y-119910000D02*
X130950000Y-115900000D01*
%TO.C,R5*%
X109890000Y-121939564D02*
X109890000Y-121485436D01*
X111360000Y-121939564D02*
X111360000Y-121485436D01*
%TO.C,R27*%
X162777064Y-126335000D02*
X162322936Y-126335000D01*
X162777064Y-124865000D02*
X162322936Y-124865000D01*
%TO.C,RB1*%
X152915000Y-132827064D02*
X152915000Y-132372936D01*
X154385000Y-132827064D02*
X154385000Y-132372936D01*
%TO.C,C30*%
X131890000Y-90540580D02*
X131890000Y-90259420D01*
X132910000Y-90540580D02*
X132910000Y-90259420D01*
%TO.C,C8*%
X130290000Y-123115580D02*
X130290000Y-122834420D01*
X131310000Y-123115580D02*
X131310000Y-122834420D01*
%TO.C,C11*%
X132590000Y-128240580D02*
X132590000Y-127959420D01*
X133610000Y-128240580D02*
X133610000Y-127959420D01*
%TO.C,C29*%
X149590000Y-126590580D02*
X149590000Y-126309420D01*
X150610000Y-126590580D02*
X150610000Y-126309420D01*
%TO.C,R11*%
X142165000Y-92314564D02*
X142165000Y-91860436D01*
X143635000Y-92314564D02*
X143635000Y-91860436D01*
%TO.C,D2*%
X124950000Y-121790000D02*
X122950000Y-121790000D01*
X124950000Y-121790000D02*
X124950000Y-125800000D01*
X122950000Y-121790000D02*
X122950000Y-125800000D01*
%TO.C,C34*%
X157615000Y-96836252D02*
X157615000Y-96313748D01*
X159085000Y-96836252D02*
X159085000Y-96313748D01*
%TO.C,C12*%
X125440000Y-118490580D02*
X125440000Y-118209420D01*
X126460000Y-118490580D02*
X126460000Y-118209420D01*
%TO.C,RA1*%
X117527064Y-140635000D02*
X117072936Y-140635000D01*
X117527064Y-139165000D02*
X117072936Y-139165000D01*
%TO.C,R7*%
X133553641Y-102280000D02*
X133246359Y-102280000D01*
X133553641Y-101520000D02*
X133246359Y-101520000D01*
%TO.C,Q31*%
X147300000Y-115310000D02*
X148975000Y-115310000D01*
X147300000Y-115310000D02*
X146650000Y-115310000D01*
X147300000Y-112190000D02*
X147950000Y-112190000D01*
X147300000Y-112190000D02*
X146650000Y-112190000D01*
%TO.C,C7*%
X128790000Y-126240580D02*
X128790000Y-125959420D01*
X129810000Y-126240580D02*
X129810000Y-125959420D01*
%TO.C,R1*%
X116727064Y-135785000D02*
X116272936Y-135785000D01*
X116727064Y-134315000D02*
X116272936Y-134315000D01*
%TO.C,R4*%
X115265000Y-125727064D02*
X115265000Y-125272936D01*
X116735000Y-125727064D02*
X116735000Y-125272936D01*
%TO.C,R33*%
X151035000Y-110872936D02*
X151035000Y-111327064D01*
X149565000Y-110872936D02*
X149565000Y-111327064D01*
D11*
%TO.C,Q2*%
X114400000Y-123900000D02*
X114400000Y-125200000D01*
X114360000Y-125550000D02*
X114360000Y-125650000D01*
X111440000Y-125550000D02*
X114360000Y-125550000D01*
X114360000Y-125650000D02*
X111440000Y-125650000D01*
X111440000Y-125650000D02*
X111440000Y-125550000D01*
D13*
%TO.C,C25*%
X146590580Y-130460000D02*
X146309420Y-130460000D01*
X146590580Y-129440000D02*
X146309420Y-129440000D01*
%TO.C,C39*%
X144859420Y-98490000D02*
X145140580Y-98490000D01*
X144859420Y-99510000D02*
X145140580Y-99510000D01*
%TO.C,C16*%
X166588748Y-120315000D02*
X167111252Y-120315000D01*
X166588748Y-121785000D02*
X167111252Y-121785000D01*
%TO.C,C42*%
X134490000Y-98315580D02*
X134490000Y-98034420D01*
X135510000Y-98315580D02*
X135510000Y-98034420D01*
%TO.C,R6*%
X140235000Y-89872936D02*
X140235000Y-90327064D01*
X138765000Y-89872936D02*
X138765000Y-90327064D01*
%TO.C,C21*%
X121340000Y-125190580D02*
X121340000Y-124909420D01*
X122360000Y-125190580D02*
X122360000Y-124909420D01*
%TO.C,C1*%
X117940580Y-138310000D02*
X117659420Y-138310000D01*
X117940580Y-137290000D02*
X117659420Y-137290000D01*
D11*
%TO.C,IC1*%
X134150000Y-87400000D02*
G75*
G03*
X134150000Y-87400000I-100000J0D01*
G01*
D13*
%TO.C,L3*%
X134600378Y-91140000D02*
X135399622Y-91140000D01*
X134600378Y-92260000D02*
X135399622Y-92260000D01*
%TO.C,D3*%
X124950000Y-116890000D02*
X122950000Y-116890000D01*
X124950000Y-116890000D02*
X124950000Y-120900000D01*
X122950000Y-116890000D02*
X122950000Y-120900000D01*
%TO.C,C26*%
X150840580Y-131310000D02*
X150559420Y-131310000D01*
X150840580Y-130290000D02*
X150559420Y-130290000D01*
D10*
%TO.C,U1*%
X154575000Y-97950000D02*
X156225000Y-97950000D01*
X154575000Y-96250000D02*
X156225000Y-96250000D01*
D14*
X157075000Y-97350000D02*
G75*
G03*
X157075000Y-97350000I-125000J0D01*
G01*
D13*
%TO.C,C38*%
X135834420Y-93490000D02*
X136115580Y-93490000D01*
X135834420Y-94510000D02*
X136115580Y-94510000D01*
%TO.C,R37*%
X162322936Y-126965000D02*
X162777064Y-126965000D01*
X162322936Y-128435000D02*
X162777064Y-128435000D01*
%TO.C,C36*%
X159253080Y-104897500D02*
X158971920Y-104897500D01*
X159253080Y-103877500D02*
X158971920Y-103877500D01*
%TO.C,R8*%
X152627064Y-99035000D02*
X152172936Y-99035000D01*
X152627064Y-97565000D02*
X152172936Y-97565000D01*
%TO.C,R9*%
X151045000Y-80323737D02*
X151045000Y-78876263D01*
X153755000Y-80323737D02*
X153755000Y-78876263D01*
%TO.C,C13*%
X131765000Y-87261252D02*
X131765000Y-86738748D01*
X133235000Y-87261252D02*
X133235000Y-86738748D01*
%TO.C,C19*%
X110710000Y-125159420D02*
X110710000Y-125440580D01*
X109690000Y-125159420D02*
X109690000Y-125440580D01*
%TO.C,C2*%
X114040580Y-140410000D02*
X113759420Y-140410000D01*
X114040580Y-139390000D02*
X113759420Y-139390000D01*
%TO.C,FB1*%
X135560000Y-84800378D02*
X135560000Y-85599622D01*
X134440000Y-84800378D02*
X134440000Y-85599622D01*
D15*
%TO.C,Y1*%
X130400000Y-99500000D02*
X130400000Y-99500000D01*
X130400000Y-99600000D02*
X130400000Y-99600000D01*
X131150000Y-101300000D02*
X131150000Y-102300000D01*
X129650000Y-101300000D02*
X129650000Y-102300000D01*
X130400000Y-99600000D02*
G75*
G03*
X130400000Y-99500000I0J50000D01*
G01*
X130400000Y-99500000D02*
G75*
G03*
X130400000Y-99600000I0J-50000D01*
G01*
D13*
%TO.C,C43*%
X132510000Y-106459420D02*
X132510000Y-106740580D01*
X131490000Y-106459420D02*
X131490000Y-106740580D01*
%TO.C,C15*%
X153135000Y-110838748D02*
X153135000Y-111361252D01*
X151665000Y-110838748D02*
X151665000Y-111361252D01*
%TO.C,C33*%
X152365000Y-95761252D02*
X152365000Y-95238748D01*
X153835000Y-95761252D02*
X153835000Y-95238748D01*
D11*
%TO.C,U2*%
X164675000Y-122486000D02*
X165925000Y-122486000D01*
X166275000Y-122552000D02*
X166825000Y-122552000D01*
X166275000Y-125448000D02*
X166275000Y-122552000D01*
X166825000Y-122552000D02*
X166825000Y-125448000D01*
X166825000Y-125448000D02*
X166275000Y-125448000D01*
D13*
%TO.C,J3*%
X124040000Y-75040000D02*
X124040000Y-76290000D01*
X124340000Y-75340000D02*
X124340000Y-80060000D01*
X124340000Y-76650000D02*
X124950000Y-76650000D01*
X124340000Y-77950000D02*
X124950000Y-77950000D01*
X124340000Y-80060000D02*
X130460000Y-80060000D01*
X124950000Y-75950000D02*
X124950000Y-79450000D01*
X124950000Y-79450000D02*
X129850000Y-79450000D01*
X125290000Y-75040000D02*
X124040000Y-75040000D01*
X125800000Y-75140000D02*
X125800000Y-75340000D01*
X126100000Y-75140000D02*
X125800000Y-75140000D01*
X126100000Y-75240000D02*
X125800000Y-75240000D01*
X126100000Y-75340000D02*
X126100000Y-75140000D01*
X126900000Y-75340000D02*
X126900000Y-75950000D01*
X126900000Y-75950000D02*
X124950000Y-75950000D01*
X127300000Y-78950000D02*
X127500000Y-78950000D01*
X127300000Y-79450000D02*
X127300000Y-78950000D01*
X127400000Y-79450000D02*
X127400000Y-78950000D01*
X127500000Y-78950000D02*
X127500000Y-79450000D01*
X127900000Y-75950000D02*
X127900000Y-75340000D01*
X129850000Y-75950000D02*
X127900000Y-75950000D01*
X129850000Y-79450000D02*
X129850000Y-75950000D01*
X130460000Y-75340000D02*
X124340000Y-75340000D01*
X130460000Y-76650000D02*
X129850000Y-76650000D01*
X130460000Y-77950000D02*
X129850000Y-77950000D01*
X130460000Y-80060000D02*
X130460000Y-75340000D01*
%TO.C,Q3*%
X126140000Y-83100000D02*
X126140000Y-84775000D01*
X126140000Y-83100000D02*
X126140000Y-82450000D01*
X129260000Y-83100000D02*
X129260000Y-83750000D01*
X129260000Y-83100000D02*
X129260000Y-82450000D01*
%TO.C,C3*%
X122360000Y-120609420D02*
X122360000Y-120890580D01*
X121340000Y-120609420D02*
X121340000Y-120890580D01*
%TO.C,R2*%
X116727064Y-130185000D02*
X116272936Y-130185000D01*
X116727064Y-128715000D02*
X116272936Y-128715000D01*
%TO.C,F1*%
X131197936Y-83190000D02*
X132402064Y-83190000D01*
X131197936Y-85010000D02*
X132402064Y-85010000D01*
%TD*%
M02*
