%TF.GenerationSoftware,KiCad,Pcbnew,(7.0.0)*%
%TF.CreationDate,2023-05-21T02:13:25-07:00*%
%TF.ProjectId,epaper_photo_frame,65706170-6572-45f7-9068-6f746f5f6672,rev?*%
%TF.SameCoordinates,Original*%
%TF.FileFunction,Soldermask,Top*%
%TF.FilePolarity,Negative*%
%FSLAX46Y46*%
G04 Gerber Fmt 4.6, Leading zero omitted, Abs format (unit mm)*
G04 Created by KiCad (PCBNEW (7.0.0)) date 2023-05-21 02:13:25*
%MOMM*%
%LPD*%
G01*
G04 APERTURE LIST*
G04 Aperture macros list*
%AMRoundRect*
0 Rectangle with rounded corners*
0 $1 Rounding radius*
0 $2 $3 $4 $5 $6 $7 $8 $9 X,Y pos of 4 corners*
0 Add a 4 corners polygon primitive as box body*
4,1,4,$2,$3,$4,$5,$6,$7,$8,$9,$2,$3,0*
0 Add four circle primitives for the rounded corners*
1,1,$1+$1,$2,$3*
1,1,$1+$1,$4,$5*
1,1,$1+$1,$6,$7*
1,1,$1+$1,$8,$9*
0 Add four rect primitives between the rounded corners*
20,1,$1+$1,$2,$3,$4,$5,0*
20,1,$1+$1,$4,$5,$6,$7,0*
20,1,$1+$1,$6,$7,$8,$9,0*
20,1,$1+$1,$8,$9,$2,$3,0*%
G04 Aperture macros list end*
%ADD10RoundRect,0.300000X0.312500X0.625000X-0.312500X0.625000X-0.312500X-0.625000X0.312500X-0.625000X0*%
%ADD11RoundRect,0.050000X-0.950000X-1.700000X0.950000X-1.700000X0.950000X1.700000X-0.950000X1.700000X0*%
%ADD12RoundRect,0.200000X0.587500X0.150000X-0.587500X0.150000X-0.587500X-0.150000X0.587500X-0.150000X0*%
%ADD13RoundRect,0.050000X-0.900000X0.900000X-0.900000X-0.900000X0.900000X-0.900000X0.900000X0.900000X0*%
%ADD14C,1.900000*%
%ADD15RoundRect,0.275000X0.250000X-0.225000X0.250000X0.225000X-0.250000X0.225000X-0.250000X-0.225000X0*%
%ADD16RoundRect,0.275000X-0.225000X-0.250000X0.225000X-0.250000X0.225000X0.250000X-0.225000X0.250000X0*%
%ADD17RoundRect,0.275000X-0.225000X-0.375000X0.225000X-0.375000X0.225000X0.375000X-0.225000X0.375000X0*%
%ADD18RoundRect,0.300000X0.250000X0.475000X-0.250000X0.475000X-0.250000X-0.475000X0.250000X-0.475000X0*%
%ADD19RoundRect,0.050000X-0.850000X0.850000X-0.850000X-0.850000X0.850000X-0.850000X0.850000X0.850000X0*%
%ADD20O,1.800000X1.800000*%
%ADD21C,3.300000*%
%ADD22RoundRect,0.125000X-0.662500X-0.075000X0.662500X-0.075000X0.662500X0.075000X-0.662500X0.075000X0*%
%ADD23RoundRect,0.125000X-0.075000X-0.662500X0.075000X-0.662500X0.075000X0.662500X-0.075000X0.662500X0*%
%ADD24RoundRect,0.050000X-0.300000X0.100000X-0.300000X-0.100000X0.300000X-0.100000X0.300000X0.100000X0*%
%ADD25RoundRect,0.050000X0.250000X1.450000X-0.250000X1.450000X-0.250000X-1.450000X0.250000X-1.450000X0*%
%ADD26RoundRect,0.300000X1.075000X-0.312500X1.075000X0.312500X-1.075000X0.312500X-1.075000X-0.312500X0*%
%ADD27RoundRect,0.300000X0.262500X0.450000X-0.262500X0.450000X-0.262500X-0.450000X0.262500X-0.450000X0*%
%ADD28RoundRect,0.275000X-0.250000X0.225000X-0.250000X-0.225000X0.250000X-0.225000X0.250000X0.225000X0*%
%ADD29RoundRect,0.050000X0.750000X-0.400000X0.750000X0.400000X-0.750000X0.400000X-0.750000X-0.400000X0*%
%ADD30RoundRect,0.050000X0.700000X-0.650000X0.700000X0.650000X-0.700000X0.650000X-0.700000X-0.650000X0*%
%ADD31RoundRect,0.050000X0.475000X0.500000X-0.475000X0.500000X-0.475000X-0.500000X0.475000X-0.500000X0*%
%ADD32RoundRect,0.050000X0.950000X-0.700000X0.950000X0.700000X-0.950000X0.700000X-0.950000X-0.700000X0*%
%ADD33RoundRect,0.275000X0.225000X0.250000X-0.225000X0.250000X-0.225000X-0.250000X0.225000X-0.250000X0*%
%ADD34RoundRect,0.300000X0.475000X-0.250000X0.475000X0.250000X-0.475000X0.250000X-0.475000X-0.250000X0*%
%ADD35RoundRect,0.050000X-0.125000X-0.550000X0.125000X-0.550000X0.125000X0.550000X-0.125000X0.550000X0*%
%ADD36RoundRect,0.050000X0.850000X-0.750000X0.850000X0.750000X-0.850000X0.750000X-0.850000X-0.750000X0*%
%ADD37RoundRect,0.190000X-0.170000X0.140000X-0.170000X-0.140000X0.170000X-0.140000X0.170000X0.140000X0*%
%ADD38RoundRect,0.300000X-0.262500X-0.450000X0.262500X-0.450000X0.262500X0.450000X-0.262500X0.450000X0*%
%ADD39RoundRect,0.190000X0.170000X-0.140000X0.170000X0.140000X-0.170000X0.140000X-0.170000X-0.140000X0*%
%ADD40RoundRect,0.050000X1.700000X-0.950000X1.700000X0.950000X-1.700000X0.950000X-1.700000X-0.950000X0*%
%ADD41RoundRect,0.300000X0.450000X-0.262500X0.450000X0.262500X-0.450000X0.262500X-0.450000X-0.262500X0*%
%ADD42RoundRect,0.275000X0.375000X-0.225000X0.375000X0.225000X-0.375000X0.225000X-0.375000X-0.225000X0*%
%ADD43RoundRect,0.197500X0.172500X-0.147500X0.172500X0.147500X-0.172500X0.147500X-0.172500X-0.147500X0*%
%ADD44RoundRect,0.275000X-0.375000X0.225000X-0.375000X-0.225000X0.375000X-0.225000X0.375000X0.225000X0*%
%ADD45RoundRect,0.185000X0.135000X0.185000X-0.135000X0.185000X-0.135000X-0.185000X0.135000X-0.185000X0*%
%ADD46RoundRect,0.300000X-0.450000X0.262500X-0.450000X-0.262500X0.450000X-0.262500X0.450000X0.262500X0*%
%ADD47RoundRect,0.050000X-0.300000X-0.650000X0.300000X-0.650000X0.300000X0.650000X-0.300000X0.650000X0*%
%ADD48RoundRect,0.300000X-0.250000X-0.475000X0.250000X-0.475000X0.250000X0.475000X-0.250000X0.475000X0*%
%ADD49RoundRect,0.050000X0.450000X-0.100000X0.450000X0.100000X-0.450000X0.100000X-0.450000X-0.100000X0*%
%ADD50RoundRect,0.050000X-0.100000X-0.450000X0.100000X-0.450000X0.100000X0.450000X-0.100000X0.450000X0*%
%ADD51RoundRect,0.268750X-0.218750X-0.381250X0.218750X-0.381250X0.218750X0.381250X-0.218750X0.381250X0*%
%ADD52RoundRect,0.050000X0.275000X0.150000X-0.275000X0.150000X-0.275000X-0.150000X0.275000X-0.150000X0*%
%ADD53RoundRect,0.050000X0.250000X0.430000X-0.250000X0.430000X-0.250000X-0.430000X0.250000X-0.430000X0*%
%ADD54RoundRect,0.268750X-0.381250X0.218750X-0.381250X-0.218750X0.381250X-0.218750X0.381250X0.218750X0*%
%ADD55RoundRect,0.050000X-0.900000X0.500000X-0.900000X-0.500000X0.900000X-0.500000X0.900000X0.500000X0*%
%ADD56RoundRect,0.300000X-0.475000X0.250000X-0.475000X-0.250000X0.475000X-0.250000X0.475000X0.250000X0*%
%ADD57RoundRect,0.050000X0.625000X-0.325000X0.625000X0.325000X-0.625000X0.325000X-0.625000X-0.325000X0*%
%ADD58RoundRect,0.300000X-0.350000X-0.625000X0.350000X-0.625000X0.350000X0.625000X-0.350000X0.625000X0*%
%ADD59O,1.300000X1.850000*%
%ADD60RoundRect,0.200000X0.150000X-0.587500X0.150000X0.587500X-0.150000X0.587500X-0.150000X-0.587500X0*%
%ADD61RoundRect,0.300000X-0.375000X-0.625000X0.375000X-0.625000X0.375000X0.625000X-0.375000X0.625000X0*%
G04 APERTURE END LIST*
D10*
%TO.C,R12*%
X143450000Y-78150000D03*
X140525000Y-78150000D03*
%TD*%
D11*
%TO.C,L1*%
X117650000Y-114200000D03*
X120950000Y-114200000D03*
%TD*%
D12*
%TO.C,Q1*%
X117437500Y-133200000D03*
X117437500Y-131300000D03*
X115562500Y-132250000D03*
%TD*%
D13*
%TO.C,D6*%
X146300000Y-83125000D03*
D14*
X146300000Y-85665000D03*
%TD*%
D15*
%TO.C,C23*%
X145400000Y-127225000D03*
X145400000Y-125675000D03*
%TD*%
%TO.C,C37*%
X163900000Y-78575000D03*
X163900000Y-77025000D03*
%TD*%
%TO.C,C4*%
X147000000Y-127225000D03*
X147000000Y-125675000D03*
%TD*%
D16*
%TO.C,C35*%
X162625000Y-100700000D03*
X164175000Y-100700000D03*
%TD*%
D17*
%TO.C,D4*%
X117375000Y-117912500D03*
X120675000Y-117912500D03*
%TD*%
D18*
%TO.C,C17*%
X171600000Y-124900000D03*
X169700000Y-124900000D03*
%TD*%
D19*
%TO.C,J2*%
X181725000Y-82225000D03*
D20*
X181724999Y-84764999D03*
X179184999Y-82224999D03*
X179184999Y-84764999D03*
X176644999Y-82224999D03*
X176644999Y-84764999D03*
X174104999Y-82224999D03*
X174104999Y-84764999D03*
X171564999Y-82224999D03*
X171564999Y-84764999D03*
X169024999Y-82224999D03*
X169024999Y-84764999D03*
X166484999Y-82224999D03*
X166484999Y-84764999D03*
X163944999Y-82224999D03*
X163944999Y-84764999D03*
X161404999Y-82224999D03*
X161404999Y-84764999D03*
X158864999Y-82224999D03*
X158864999Y-84764999D03*
%TD*%
D15*
%TO.C,C9*%
X132600000Y-124225000D03*
X132600000Y-122675000D03*
%TD*%
%TO.C,C18*%
X134750000Y-129975000D03*
X134750000Y-128425000D03*
%TD*%
D21*
%TO.C,H4*%
X181250000Y-137650000D03*
%TD*%
D22*
%TO.C,U3*%
X135462500Y-100225000D03*
X135462500Y-100725000D03*
X135462500Y-101225000D03*
X135462500Y-101725000D03*
X135462500Y-102225000D03*
X135462500Y-102725000D03*
X135462500Y-103225000D03*
X135462500Y-103725000D03*
X135462500Y-104225000D03*
X135462500Y-104725000D03*
X135462500Y-105225000D03*
X135462500Y-105725000D03*
D23*
X136875000Y-107137500D03*
X137375000Y-107137500D03*
X137875000Y-107137500D03*
X138375000Y-107137500D03*
X138875000Y-107137500D03*
X139375000Y-107137500D03*
X139875000Y-107137500D03*
X140375000Y-107137500D03*
X140875000Y-107137500D03*
X141375000Y-107137500D03*
X141875000Y-107137500D03*
X142375000Y-107137500D03*
D22*
X143787500Y-105725000D03*
X143787500Y-105225000D03*
X143787500Y-104725000D03*
X143787500Y-104225000D03*
X143787500Y-103725000D03*
X143787500Y-103225000D03*
X143787500Y-102725000D03*
X143787500Y-102225000D03*
X143787500Y-101725000D03*
X143787500Y-101225000D03*
X143787500Y-100725000D03*
X143787500Y-100225000D03*
D23*
X142375000Y-98812500D03*
X141875000Y-98812500D03*
X141375000Y-98812500D03*
X140875000Y-98812500D03*
X140375000Y-98812500D03*
X139875000Y-98812500D03*
X139375000Y-98812500D03*
X138875000Y-98812500D03*
X138375000Y-98812500D03*
X137875000Y-98812500D03*
X137375000Y-98812500D03*
X136875000Y-98812500D03*
%TD*%
D24*
%TO.C,IC2*%
X164250000Y-105800000D03*
X164250000Y-105400000D03*
X164250000Y-105000000D03*
X164250000Y-104600000D03*
X164250000Y-104200000D03*
X164250000Y-103800000D03*
X164250000Y-103400000D03*
X164250000Y-103000000D03*
X162750000Y-103000000D03*
X162750000Y-103400000D03*
X162750000Y-103800000D03*
X162750000Y-104200000D03*
X162750000Y-104600000D03*
X162750000Y-105000000D03*
X162750000Y-105400000D03*
X162750000Y-105800000D03*
D25*
X163500000Y-104400000D03*
%TD*%
D26*
%TO.C,R10*%
X146300000Y-81062500D03*
X146300000Y-78137500D03*
%TD*%
D16*
%TO.C,C40*%
X136825000Y-96950000D03*
X138375000Y-96950000D03*
%TD*%
D15*
%TO.C,C24*%
X148550000Y-127225000D03*
X148550000Y-125675000D03*
%TD*%
D27*
%TO.C,R35*%
X171562500Y-122800000D03*
X169737500Y-122800000D03*
%TD*%
D15*
%TO.C,C6*%
X128275000Y-123800000D03*
X128275000Y-122250000D03*
%TD*%
D28*
%TO.C,C41*%
X143600000Y-107525000D03*
X143600000Y-109075000D03*
%TD*%
D29*
%TO.C,J1*%
X180460000Y-101485000D03*
X180060000Y-102585000D03*
X180460000Y-103685000D03*
X180660000Y-104785000D03*
X180460000Y-105885000D03*
X180660000Y-106985000D03*
X180460000Y-108085000D03*
X180460000Y-109185000D03*
D30*
X169600000Y-108375000D03*
D31*
X169375000Y-106985000D03*
D30*
X169600000Y-102675000D03*
D32*
X182750000Y-109975000D03*
X183750000Y-96825000D03*
%TD*%
D33*
%TO.C,C20*%
X115625000Y-114200000D03*
X114075000Y-114200000D03*
%TD*%
D15*
%TO.C,C5*%
X127300000Y-126925000D03*
X127300000Y-125375000D03*
%TD*%
%TO.C,C10*%
X134400000Y-125325000D03*
X134400000Y-123775000D03*
%TD*%
D34*
%TO.C,C14*%
X163250000Y-123650000D03*
X163250000Y-121750000D03*
%TD*%
D13*
%TO.C,D5*%
X152400000Y-83125000D03*
D14*
X152400000Y-85665000D03*
%TD*%
D28*
%TO.C,C44*%
X133600000Y-104925000D03*
X133600000Y-106475000D03*
%TD*%
D35*
%TO.C,J4*%
X123750000Y-133900000D03*
X124250000Y-133900000D03*
X124750000Y-133900000D03*
X125250000Y-133900000D03*
X125750000Y-133900000D03*
X126250000Y-133900000D03*
X126750000Y-133900000D03*
X127250000Y-133900000D03*
X127750000Y-133900000D03*
X128250000Y-133900000D03*
X128750000Y-133900000D03*
X129250000Y-133900000D03*
X129750000Y-133900000D03*
X130250000Y-133900000D03*
X130750000Y-133900000D03*
X131250000Y-133900000D03*
X131750000Y-133900000D03*
X132250000Y-133900000D03*
X132750000Y-133900000D03*
X133250000Y-133900000D03*
X133750000Y-133900000D03*
X134250000Y-133900000D03*
X134750000Y-133900000D03*
X135250000Y-133900000D03*
X135750000Y-133900000D03*
X136250000Y-133900000D03*
X136750000Y-133900000D03*
X137250000Y-133900000D03*
X137750000Y-133900000D03*
X138250000Y-133900000D03*
X138750000Y-133900000D03*
X139250000Y-133900000D03*
X139750000Y-133900000D03*
X140250000Y-133900000D03*
X140750000Y-133900000D03*
X141250000Y-133900000D03*
X141750000Y-133900000D03*
X142250000Y-133900000D03*
X142750000Y-133900000D03*
X143250000Y-133900000D03*
X143750000Y-133900000D03*
X144250000Y-133900000D03*
X144750000Y-133900000D03*
X145250000Y-133900000D03*
X145750000Y-133900000D03*
X146250000Y-133900000D03*
X146750000Y-133900000D03*
X147250000Y-133900000D03*
X147750000Y-133900000D03*
X148250000Y-133900000D03*
D36*
X122100000Y-137800000D03*
X149900000Y-137800000D03*
%TD*%
D34*
%TO.C,C22*%
X137500000Y-89200000D03*
X137500000Y-87300000D03*
%TD*%
D37*
%TO.C,C32*%
X127900000Y-103120000D03*
X127900000Y-104080000D03*
%TD*%
D38*
%TO.C,R34*%
X169737500Y-120700000D03*
X171562500Y-120700000D03*
%TD*%
D33*
%TO.C,C28*%
X119200000Y-120812500D03*
X117650000Y-120812500D03*
%TD*%
D39*
%TO.C,C31*%
X127900000Y-100580000D03*
X127900000Y-99620000D03*
%TD*%
D12*
%TO.C,Q32*%
X152300000Y-115600000D03*
X152300000Y-113700000D03*
X150425000Y-114650000D03*
%TD*%
D40*
%TO.C,L2*%
X114125000Y-122112500D03*
X114125000Y-118812500D03*
%TD*%
D15*
%TO.C,C27*%
X153650000Y-129975000D03*
X153650000Y-128425000D03*
%TD*%
D38*
%TO.C,R36*%
X165237500Y-127000000D03*
X167062500Y-127000000D03*
%TD*%
D41*
%TO.C,R3*%
X127750000Y-119162500D03*
X127750000Y-117337500D03*
%TD*%
D42*
%TO.C,D1*%
X129950000Y-119200000D03*
X129950000Y-115900000D03*
%TD*%
D43*
%TO.C,L4*%
X130700000Y-106785000D03*
X130700000Y-105815000D03*
%TD*%
D41*
%TO.C,R5*%
X110625000Y-122625000D03*
X110625000Y-120800000D03*
%TD*%
D27*
%TO.C,R27*%
X163462500Y-125600000D03*
X161637500Y-125600000D03*
%TD*%
D41*
%TO.C,RB1*%
X153650000Y-133512500D03*
X153650000Y-131687500D03*
%TD*%
D15*
%TO.C,C30*%
X132400000Y-91175000D03*
X132400000Y-89625000D03*
%TD*%
%TO.C,C8*%
X130800000Y-123750000D03*
X130800000Y-122200000D03*
%TD*%
%TO.C,C11*%
X133100000Y-128875000D03*
X133100000Y-127325000D03*
%TD*%
%TO.C,C29*%
X150100000Y-127225000D03*
X150100000Y-125675000D03*
%TD*%
D41*
%TO.C,R11*%
X142900000Y-93000000D03*
X142900000Y-91175000D03*
%TD*%
D44*
%TO.C,D2*%
X123950000Y-122500000D03*
X123950000Y-125800000D03*
%TD*%
D34*
%TO.C,C34*%
X158350000Y-97525000D03*
X158350000Y-95625000D03*
%TD*%
D21*
%TO.C,H2*%
X181250000Y-75700000D03*
%TD*%
D15*
%TO.C,C12*%
X125950000Y-119125000D03*
X125950000Y-117575000D03*
%TD*%
D27*
%TO.C,RA1*%
X118212500Y-139900000D03*
X116387500Y-139900000D03*
%TD*%
D45*
%TO.C,R7*%
X133910000Y-101900000D03*
X132890000Y-101900000D03*
%TD*%
D12*
%TO.C,Q31*%
X148237500Y-114700000D03*
X148237500Y-112800000D03*
X146362500Y-113750000D03*
%TD*%
D15*
%TO.C,C7*%
X129300000Y-126875000D03*
X129300000Y-125325000D03*
%TD*%
D27*
%TO.C,R1*%
X117412500Y-135050000D03*
X115587500Y-135050000D03*
%TD*%
D41*
%TO.C,R4*%
X116000000Y-126412500D03*
X116000000Y-124587500D03*
%TD*%
D46*
%TO.C,R33*%
X150300000Y-110187500D03*
X150300000Y-112012500D03*
%TD*%
D47*
%TO.C,Q2*%
X113850000Y-124550000D03*
X111950000Y-124550000D03*
X112900000Y-126650000D03*
%TD*%
D33*
%TO.C,C25*%
X147225000Y-129950000D03*
X145675000Y-129950000D03*
%TD*%
D16*
%TO.C,C39*%
X144225000Y-99000000D03*
X145775000Y-99000000D03*
%TD*%
D48*
%TO.C,C16*%
X165900000Y-121050000D03*
X167800000Y-121050000D03*
%TD*%
D15*
%TO.C,C42*%
X135000000Y-98950000D03*
X135000000Y-97400000D03*
%TD*%
D46*
%TO.C,R6*%
X139500000Y-89187500D03*
X139500000Y-91012500D03*
%TD*%
D15*
%TO.C,C21*%
X121850000Y-125825000D03*
X121850000Y-124275000D03*
%TD*%
D33*
%TO.C,C1*%
X118575000Y-137800000D03*
X117025000Y-137800000D03*
%TD*%
D49*
%TO.C,IC1*%
X134200000Y-88000000D03*
X134200000Y-88400000D03*
X134200000Y-88800000D03*
X134200000Y-89200000D03*
X134200000Y-89600000D03*
D50*
X135000000Y-89700000D03*
D49*
X135800000Y-89600000D03*
X135800000Y-89200000D03*
X135800000Y-88800000D03*
X135800000Y-88400000D03*
X135800000Y-88000000D03*
D50*
X135000000Y-87900000D03*
%TD*%
D51*
%TO.C,L3*%
X133937500Y-91700000D03*
X136062500Y-91700000D03*
%TD*%
D44*
%TO.C,D3*%
X123950000Y-117600000D03*
X123950000Y-120900000D03*
%TD*%
D33*
%TO.C,C26*%
X151475000Y-130800000D03*
X149925000Y-130800000D03*
%TD*%
D52*
%TO.C,U1*%
X156125049Y-97350000D03*
X156125049Y-96850000D03*
X154674951Y-96850000D03*
X154674951Y-97350000D03*
D53*
X155400000Y-97100000D03*
%TD*%
D16*
%TO.C,C38*%
X135200000Y-94000000D03*
X136750000Y-94000000D03*
%TD*%
D38*
%TO.C,R37*%
X161637500Y-127700000D03*
X163462500Y-127700000D03*
%TD*%
D33*
%TO.C,C36*%
X159887500Y-104387500D03*
X158337500Y-104387500D03*
%TD*%
D27*
%TO.C,R8*%
X153312500Y-98300000D03*
X151487500Y-98300000D03*
%TD*%
D26*
%TO.C,R9*%
X152400000Y-81062500D03*
X152400000Y-78137500D03*
%TD*%
D34*
%TO.C,C13*%
X132500000Y-87950000D03*
X132500000Y-86050000D03*
%TD*%
D28*
%TO.C,C19*%
X110200000Y-124525000D03*
X110200000Y-126075000D03*
%TD*%
D21*
%TO.C,H1*%
X105800000Y-75700000D03*
%TD*%
D33*
%TO.C,C2*%
X114675000Y-139900000D03*
X113125000Y-139900000D03*
%TD*%
D54*
%TO.C,FB1*%
X135000000Y-84137500D03*
X135000000Y-86262500D03*
%TD*%
D55*
%TO.C,Y1*%
X130400000Y-100550000D03*
X130400000Y-103050000D03*
%TD*%
D28*
%TO.C,C43*%
X132000000Y-105825000D03*
X132000000Y-107375000D03*
%TD*%
D56*
%TO.C,C15*%
X152400000Y-110150000D03*
X152400000Y-112050000D03*
%TD*%
D34*
%TO.C,C33*%
X153100000Y-96450000D03*
X153100000Y-94550000D03*
%TD*%
D57*
%TO.C,U2*%
X165300000Y-123060000D03*
X165300000Y-124000000D03*
X165300000Y-124940000D03*
X167800000Y-124940000D03*
X167800000Y-123060000D03*
%TD*%
D58*
%TO.C,J3*%
X126400000Y-77150000D03*
D59*
X128399999Y-77149999D03*
%TD*%
D60*
%TO.C,Q3*%
X126750000Y-84037500D03*
X128650000Y-84037500D03*
X127700000Y-82162500D03*
%TD*%
D28*
%TO.C,C3*%
X121850000Y-119975000D03*
X121850000Y-121525000D03*
%TD*%
D21*
%TO.C,H3*%
X105800000Y-137650000D03*
%TD*%
D27*
%TO.C,R2*%
X117412500Y-129450000D03*
X115587500Y-129450000D03*
%TD*%
D61*
%TO.C,F1*%
X130400000Y-84100000D03*
X133200000Y-84100000D03*
%TD*%
M02*
