%TF.GenerationSoftware,KiCad,Pcbnew,(7.0.0)*%
%TF.CreationDate,2023-05-21T02:13:25-07:00*%
%TF.ProjectId,epaper_photo_frame,65706170-6572-45f7-9068-6f746f5f6672,rev?*%
%TF.SameCoordinates,Original*%
%TF.FileFunction,Profile,NP*%
%FSLAX46Y46*%
G04 Gerber Fmt 4.6, Leading zero omitted, Abs format (unit mm)*
G04 Created by KiCad (PCBNEW (7.0.0)) date 2023-05-21 02:13:25*
%MOMM*%
%LPD*%
G01*
G04 APERTURE LIST*
%TA.AperFunction,Profile*%
%ADD10C,0.100000*%
%TD*%
G04 APERTURE END LIST*
D10*
X102000000Y-137650000D02*
G75*
G03*
X105800000Y-141450000I3800000J0D01*
G01*
X109749080Y-79243627D02*
X109888000Y-79301169D01*
X110007294Y-79392706D01*
X110098831Y-79512000D01*
X110156373Y-79650920D01*
X110176000Y-79800000D01*
X110156373Y-79949080D01*
X110098831Y-80088000D01*
X110007294Y-80207294D01*
X109888000Y-80298831D01*
X109749080Y-80356373D01*
X109600000Y-80376000D01*
X109450920Y-80356373D01*
X109312000Y-80298831D01*
X109192706Y-80207294D01*
X109101169Y-80088000D01*
X109043627Y-79949080D01*
X109024000Y-79800000D01*
X109043627Y-79650920D01*
X109101169Y-79512000D01*
X109192706Y-79392706D01*
X109312000Y-79301169D01*
X109450920Y-79243627D01*
X109600000Y-79224000D01*
X109749080Y-79243627D01*
X177199080Y-133643627D02*
X177338000Y-133701169D01*
X177457294Y-133792706D01*
X177548831Y-133912000D01*
X177606373Y-134050920D01*
X177626000Y-134200000D01*
X177606373Y-134349080D01*
X177548831Y-134488000D01*
X177457294Y-134607294D01*
X177338000Y-134698831D01*
X177199080Y-134756373D01*
X177050000Y-134776000D01*
X176900920Y-134756373D01*
X176762000Y-134698831D01*
X176642706Y-134607294D01*
X176551169Y-134488000D01*
X176493627Y-134349080D01*
X176474000Y-134200000D01*
X176493627Y-134050920D01*
X176551169Y-133912000D01*
X176642706Y-133792706D01*
X176762000Y-133701169D01*
X176900920Y-133643627D01*
X177050000Y-133624000D01*
X177199080Y-133643627D01*
X105800000Y-71900000D02*
G75*
G03*
X102000000Y-75700000I0J-3800000D01*
G01*
X185050000Y-75700000D02*
X185050000Y-137650000D01*
X109749080Y-133643627D02*
X109888000Y-133701169D01*
X110007294Y-133792706D01*
X110098831Y-133912000D01*
X110156373Y-134050920D01*
X110176000Y-134200000D01*
X110156373Y-134349080D01*
X110098831Y-134488000D01*
X110007294Y-134607294D01*
X109888000Y-134698831D01*
X109749080Y-134756373D01*
X109600000Y-134776000D01*
X109450920Y-134756373D01*
X109312000Y-134698831D01*
X109192706Y-134607294D01*
X109101169Y-134488000D01*
X109043627Y-134349080D01*
X109024000Y-134200000D01*
X109043627Y-134050920D01*
X109101169Y-133912000D01*
X109192706Y-133792706D01*
X109312000Y-133701169D01*
X109450920Y-133643627D01*
X109600000Y-133624000D01*
X109749080Y-133643627D01*
X181250000Y-141450000D02*
X105800000Y-141450000D01*
X105800000Y-71900000D02*
X181250000Y-71900000D01*
X181250000Y-141450000D02*
G75*
G03*
X185050000Y-137650000I0J3800000D01*
G01*
X102000000Y-75700000D02*
X102000000Y-137650000D01*
X185050000Y-75700000D02*
G75*
G03*
X181250000Y-71900000I-3800000J0D01*
G01*
M02*
